<svg width="62" height="23" viewBox="0 0 62 23" fill="none" xmlns="http://www.w3.org/2000/svg">
<path d="M9.98363 21.89C9.59363 21.89 9.26363 21.857 8.99363 21.791C8.72963 21.731 8.51663 21.638 8.35462 21.512C8.19862 21.386 8.08462 21.224 8.01262 21.026C7.94062 20.834 7.90462 20.606 7.90462 20.342V18.209C7.90462 18.101 7.88062 18.008 7.83262 17.93C7.79062 17.852 7.72762 17.795 7.64362 17.759C7.55962 17.717 7.45762 17.702 7.33762 17.714V16.283C7.43962 16.271 7.53262 16.25 7.61662 16.22C7.70662 16.19 7.77862 16.142 7.83262 16.076C7.88662 16.004 7.91362 15.908 7.91362 15.788V14.096C7.91362 13.742 7.98562 13.442 8.12962 13.196C8.27362 12.944 8.49862 12.752 8.80463 12.62C9.11063 12.488 9.50363 12.422 9.98363 12.422V13.655C9.83963 13.655 9.72863 13.685 9.65063 13.745C9.57863 13.805 9.53063 13.913 9.50662 14.069C9.48262 14.219 9.47062 14.438 9.47062 14.726V16.058C9.47062 16.376 9.38662 16.607 9.21863 16.751C9.05663 16.889 8.83462 16.97 8.55262 16.994C8.83462 17.048 9.05663 17.15 9.21863 17.3C9.38063 17.45 9.46163 17.648 9.46163 17.894V19.793C9.46163 20.111 9.49163 20.345 9.55162 20.495C9.61163 20.651 9.75563 20.729 9.98363 20.729V21.89ZM34.5665 20V18.758L36.7085 16.598C36.8645 16.448 36.9935 16.307 37.0955 16.175C37.1975 16.043 37.2725 15.914 37.3205 15.788C37.3745 15.662 37.4015 15.53 37.4015 15.392C37.4015 15.248 37.3745 15.128 37.3205 15.032C37.2665 14.936 37.1795 14.864 37.0595 14.816C36.9455 14.768 36.7895 14.744 36.5915 14.744H34.6925V13.511C34.9865 13.451 35.3105 13.397 35.6645 13.349C36.0245 13.295 36.4325 13.268 36.8885 13.268C37.4105 13.268 37.8215 13.34 38.1215 13.484C38.4275 13.628 38.6435 13.841 38.7695 14.123C38.8955 14.399 38.9585 14.732 38.9585 15.122C38.9585 15.422 38.9195 15.695 38.8415 15.941C38.7635 16.181 38.6465 16.409 38.4905 16.625C38.3405 16.841 38.1545 17.06 37.9325 17.282L36.6185 18.605H39.1475V20H34.5665ZM41.9194 20.045C41.5294 20.045 41.1994 19.976 40.9294 19.838C40.6594 19.7 40.4584 19.499 40.3264 19.235C40.1944 18.971 40.1284 18.65 40.1284 18.272V15.122C40.1284 14.72 40.1974 14.384 40.3354 14.114C40.4794 13.838 40.6864 13.628 40.9564 13.484C41.2264 13.34 41.5504 13.268 41.9284 13.268H43.3504C43.7284 13.268 44.0434 13.343 44.2954 13.493C44.5534 13.637 44.7484 13.847 44.8804 14.123C45.0124 14.393 45.0784 14.726 45.0784 15.122V18.272C45.0784 18.836 44.9284 19.274 44.6284 19.586C44.3284 19.892 43.8994 20.045 43.3414 20.045H41.9194ZM42.2974 18.65H42.9184C43.1224 18.65 43.2724 18.602 43.3684 18.506C43.4704 18.404 43.5214 18.248 43.5214 18.038V15.284C43.5214 15.044 43.4704 14.882 43.3684 14.798C43.2724 14.708 43.1434 14.663 42.9814 14.663H42.2434C42.0574 14.663 41.9164 14.714 41.8204 14.816C41.7304 14.918 41.6854 15.074 41.6854 15.284V18.029C41.6854 18.251 41.7364 18.41 41.8384 18.506C41.9404 18.602 42.0934 18.65 42.2974 18.65ZM46.1543 20V18.758L48.2963 16.598C48.4523 16.448 48.5813 16.307 48.6833 16.175C48.7853 16.043 48.8603 15.914 48.9083 15.788C48.9623 15.662 48.9893 15.53 48.9893 15.392C48.9893 15.248 48.9623 15.128 48.9083 15.032C48.8543 14.936 48.7673 14.864 48.6473 14.816C48.5333 14.768 48.3773 14.744 48.1793 14.744H46.2803V13.511C46.5743 13.451 46.8983 13.397 47.2523 13.349C47.6123 13.295 48.0203 13.268 48.4763 13.268C48.9983 13.268 49.4093 13.34 49.7093 13.484C50.0153 13.628 50.2313 13.841 50.3573 14.123C50.4833 14.399 50.5463 14.732 50.5463 15.122C50.5463 15.422 50.5073 15.695 50.4293 15.941C50.3513 16.181 50.2343 16.409 50.0783 16.625C49.9283 16.841 49.7423 17.06 49.5203 17.282L48.2063 18.605H50.7353V20H46.1543ZM52.6432 20V14.744L51.5272 14.816V13.826L52.8232 13.268H54.2002V20H52.6432ZM58.9463 21.89V20.729C59.1803 20.729 59.3243 20.651 59.3783 20.495C59.4383 20.345 59.4683 20.111 59.4683 19.793V17.894C59.4683 17.648 59.5493 17.45 59.7113 17.3C59.8733 17.15 60.0953 17.048 60.3773 16.994C60.0953 16.97 59.8703 16.889 59.7023 16.751C59.5403 16.607 59.4593 16.376 59.4593 16.058V14.726C59.4593 14.438 59.4473 14.219 59.4233 14.069C59.3993 13.913 59.3483 13.805 59.2703 13.745C59.1983 13.685 59.0903 13.655 58.9463 13.655V12.422C59.4263 12.422 59.8163 12.488 60.1163 12.62C60.4223 12.752 60.6473 12.944 60.7913 13.196C60.9413 13.442 61.0163 13.742 61.0163 14.096V15.788C61.0163 15.908 61.0433 16.004 61.0973 16.076C61.1513 16.142 61.2233 16.19 61.3133 16.22C61.4033 16.25 61.4963 16.271 61.5923 16.283V17.714C61.4723 17.702 61.3703 17.717 61.2863 17.759C61.2023 17.795 61.1363 17.852 61.0883 17.93C61.0463 18.008 61.0253 18.101 61.0253 18.209V20.342C61.0253 20.606 60.9893 20.834 60.9173 21.026C60.8453 21.224 60.7283 21.386 60.5663 21.512C60.4043 21.638 60.1913 21.731 59.9273 21.791C59.6633 21.857 59.3363 21.89 58.9463 21.89Z" fill="#F87B91"/>
<path d="M0.275156 6.497V5.255H4.30716V6.497H0.275156ZM0.275156 4.337V3.095H4.30716V4.337H0.275156ZM9.97969 9.89C9.68569 9.548 9.41269 9.155 9.16069 8.711C8.90869 8.273 8.70169 7.757 8.53969 7.163C8.38369 6.563 8.30569 5.864 8.30569 5.066C8.30569 4.304 8.38669 3.626 8.54869 3.032C8.71069 2.432 8.91769 1.904 9.16969 1.448C9.42769 0.985999 9.69769 0.59 9.97969 0.26H11.3567C11.1047 0.668 10.8647 1.115 10.6367 1.601C10.4087 2.087 10.2227 2.618 10.0787 3.194C9.93469 3.764 9.86269 4.388 9.86269 5.066C9.86269 5.732 9.92269 6.338 10.0427 6.884C10.1687 7.424 10.3427 7.934 10.5647 8.414C10.7867 8.9 11.0507 9.392 11.3567 9.89H9.97969ZM38.6647 9.89C38.9227 9.476 39.1627 9.026 39.3847 8.54C39.6127 8.054 39.7987 7.526 39.9427 6.956C40.0867 6.38 40.1587 5.756 40.1587 5.084C40.1587 4.412 40.0987 3.809 39.9787 3.275C39.8587 2.735 39.6847 2.222 39.4567 1.736C39.2347 1.25 38.9707 0.758 38.6647 0.26H40.0417C40.3417 0.596 40.6177 0.986 40.8697 1.43C41.1217 1.874 41.3227 2.393 41.4727 2.987C41.6287 3.581 41.7067 4.28 41.7067 5.084C41.7067 5.84 41.6257 6.518 41.4637 7.118C41.3077 7.712 41.1007 8.237 40.8427 8.693C40.5907 9.149 40.3237 9.548 40.0417 9.89H38.6647ZM45.7051 6.497V5.255H49.7371V6.497H45.7051ZM45.7051 4.337V3.095H49.7371V4.337H45.7051ZM51.6215 6.749V5.39L53.8355 4.832L51.6215 4.346V2.987L55.3565 4.157V5.525L51.6215 6.749ZM12.4074 22.133L12.9024 20C12.5904 20 12.3264 19.943 12.1104 19.829C11.8944 19.715 11.7174 19.559 11.5794 19.361C11.4474 19.157 11.3484 18.92 11.2824 18.65L10.4634 15.158H12.0744L12.7224 18.335C12.7464 18.425 12.7764 18.497 12.8124 18.551C12.8484 18.605 12.8874 18.647 12.9294 18.677C12.9774 18.701 13.0224 18.719 13.0644 18.731C13.1064 18.737 13.1424 18.74 13.1724 18.74L13.9104 15.158H15.4944L14.1624 21.242L13.7124 22.133H12.4074ZM18.4114 20.045C17.8714 20.045 17.4364 19.976 17.1064 19.838C16.7764 19.694 16.5364 19.445 16.3864 19.091C16.2424 18.731 16.1704 18.23 16.1704 17.588C16.1704 16.928 16.2364 16.418 16.3684 16.058C16.5064 15.692 16.7344 15.437 17.0524 15.293C17.3704 15.149 17.8024 15.077 18.3484 15.077C18.8464 15.077 19.2424 15.125 19.5364 15.221C19.8304 15.317 20.0404 15.488 20.1664 15.734C20.2984 15.98 20.3644 16.328 20.3644 16.778C20.3644 17.114 20.2984 17.381 20.1664 17.579C20.0344 17.777 19.8454 17.918 19.5994 18.002C19.3594 18.08 19.0744 18.119 18.7444 18.119H17.7094C17.7274 18.311 17.7634 18.464 17.8174 18.578C17.8774 18.692 17.9854 18.773 18.1414 18.821C18.2974 18.869 18.5284 18.893 18.8344 18.893H20.1934V19.802C19.9714 19.856 19.7164 19.91 19.4284 19.964C19.1464 20.018 18.8074 20.045 18.4114 20.045ZM17.6914 17.201H18.5734C18.7234 17.201 18.8314 17.171 18.8974 17.111C18.9634 17.051 18.9964 16.943 18.9964 16.787C18.9964 16.643 18.9754 16.529 18.9334 16.445C18.8914 16.355 18.8224 16.292 18.7264 16.256C18.6304 16.214 18.5044 16.193 18.3484 16.193C18.1924 16.193 18.0664 16.223 17.9704 16.283C17.8744 16.337 17.8024 16.439 17.7544 16.589C17.7124 16.733 17.6914 16.937 17.6914 17.201ZM22.4625 20.054C22.0905 20.054 21.7905 19.946 21.5625 19.73C21.3345 19.508 21.2205 19.208 21.2205 18.83V18.362C21.2205 17.996 21.3495 17.693 21.6075 17.453C21.8715 17.213 22.2825 17.093 22.8405 17.093H23.9385V16.859C23.9385 16.727 23.9145 16.619 23.8665 16.535C23.8185 16.451 23.7255 16.391 23.5875 16.355C23.4495 16.319 23.2365 16.301 22.9485 16.301H21.5265V15.41C21.7665 15.32 22.0455 15.248 22.3635 15.194C22.6875 15.134 23.0775 15.101 23.5335 15.095C23.9355 15.095 24.2835 15.143 24.5775 15.239C24.8715 15.335 25.0965 15.503 25.2525 15.743C25.4145 15.977 25.4955 16.313 25.4955 16.751V20H24.2625L24.0195 19.505C23.9655 19.553 23.8905 19.61 23.7945 19.676C23.7045 19.736 23.5905 19.796 23.4525 19.856C23.3205 19.916 23.1705 19.964 23.0025 20C22.8345 20.036 22.6545 20.054 22.4625 20.054ZM23.2635 18.983C23.3055 18.989 23.3535 18.986 23.4075 18.974C23.4675 18.962 23.5245 18.95 23.5785 18.938C23.6325 18.92 23.6835 18.905 23.7315 18.893C23.7855 18.875 23.8275 18.86 23.8575 18.848C23.8935 18.83 23.9205 18.818 23.9385 18.812V17.822L23.3625 17.876C23.1645 17.9 23.0145 17.954 22.9125 18.038C22.8165 18.116 22.7685 18.23 22.7685 18.38V18.569C22.7685 18.671 22.7895 18.755 22.8315 18.821C22.8735 18.881 22.9305 18.923 23.0025 18.947C23.0805 18.971 23.1675 18.983 23.2635 18.983ZM26.6364 20V15.158H27.8424L28.1934 15.86C28.3494 15.65 28.5294 15.47 28.7334 15.32C28.9374 15.164 29.1804 15.086 29.4624 15.086C29.5164 15.086 29.5764 15.089 29.6424 15.095C29.7144 15.101 29.7804 15.113 29.8404 15.131V16.724C29.7444 16.712 29.6454 16.703 29.5434 16.697C29.4414 16.691 29.3454 16.688 29.2554 16.688C29.0994 16.688 28.9554 16.706 28.8234 16.742C28.6974 16.772 28.5804 16.82 28.4724 16.886C28.3704 16.946 28.2774 17.027 28.1934 17.129V20H26.6364ZM32.4122 21.89C32.1182 21.548 31.8452 21.155 31.5932 20.711C31.3412 20.273 31.1342 19.757 30.9722 19.163C30.8162 18.563 30.7382 17.864 30.7382 17.066C30.7382 16.304 30.8192 15.626 30.9812 15.032C31.1432 14.432 31.3502 13.904 31.6022 13.448C31.8602 12.986 32.1302 12.59 32.4122 12.26H33.7892C33.5372 12.668 33.2972 13.115 33.0692 13.601C32.8412 14.087 32.6552 14.618 32.5112 15.194C32.3672 15.764 32.2952 16.388 32.2952 17.066C32.2952 17.732 32.3552 18.338 32.4752 18.884C32.6012 19.424 32.7752 19.934 32.9972 20.414C33.2192 20.9 33.4832 21.392 33.7892 21.89H32.4122ZM55.064 21.89C55.322 21.476 55.562 21.026 55.784 20.54C56.012 20.054 56.198 19.526 56.342 18.956C56.486 18.38 56.558 17.756 56.558 17.084C56.558 16.412 56.498 15.809 56.378 15.275C56.258 14.735 56.084 14.222 55.856 13.736C55.634 13.25 55.37 12.758 55.064 12.26H56.441C56.741 12.596 57.017 12.986 57.269 13.43C57.521 13.874 57.722 14.393 57.872 14.987C58.028 15.581 58.106 16.28 58.106 17.084C58.106 17.84 58.025 18.518 57.863 19.118C57.707 19.712 57.5 20.237 57.242 20.693C56.99 21.149 56.723 21.548 56.441 21.89H55.064Z" fill="white"/>
<path d="M14.51 9.89C14.12 9.89 13.79 9.857 13.52 9.791C13.256 9.731 13.043 9.638 12.881 9.512C12.725 9.386 12.611 9.224 12.539 9.026C12.467 8.834 12.431 8.606 12.431 8.342V6.209C12.431 6.101 12.407 6.008 12.359 5.93C12.317 5.852 12.254 5.795 12.17 5.759C12.086 5.717 11.984 5.702 11.864 5.714V4.283C11.966 4.271 12.059 4.25 12.143 4.22C12.233 4.19 12.305 4.142 12.359 4.076C12.413 4.004 12.44 3.908 12.44 3.788V2.096C12.44 1.742 12.512 1.442 12.656 1.196C12.8 0.944 13.025 0.752 13.331 0.62C13.637 0.487999 14.03 0.421999 14.51 0.421999V1.655C14.366 1.655 14.255 1.685 14.177 1.745C14.105 1.805 14.057 1.913 14.033 2.069C14.009 2.219 13.997 2.438 13.997 2.726V4.058C13.997 4.376 13.913 4.607 13.745 4.751C13.583 4.889 13.361 4.97 13.079 4.994C13.361 5.048 13.583 5.15 13.745 5.3C13.907 5.45 13.988 5.648 13.988 5.894V7.793C13.988 8.111 14.018 8.345 14.078 8.495C14.138 8.651 14.282 8.729 14.51 8.729V9.89ZM35.5118 9.89V8.729C35.7458 8.729 35.8898 8.651 35.9438 8.495C36.0038 8.345 36.0338 8.111 36.0338 7.793V5.894C36.0338 5.648 36.1148 5.45 36.2768 5.3C36.4388 5.15 36.6608 5.048 36.9428 4.994C36.6608 4.97 36.4358 4.889 36.2678 4.751C36.1058 4.607 36.0248 4.376 36.0248 4.058V2.726C36.0248 2.438 36.0128 2.219 35.9888 2.069C35.9648 1.913 35.9138 1.805 35.8358 1.745C35.7638 1.685 35.6558 1.655 35.5118 1.655V0.421999C35.9918 0.421999 36.3818 0.487999 36.6818 0.62C36.9878 0.752 37.2128 0.944 37.3568 1.196C37.5068 1.442 37.5818 1.742 37.5818 2.096V3.788C37.5818 3.908 37.6088 4.004 37.6628 4.076C37.7168 4.142 37.7888 4.19 37.8788 4.22C37.9688 4.25 38.0618 4.271 38.1578 4.283V5.714C38.0378 5.702 37.9358 5.717 37.8518 5.759C37.7678 5.795 37.7018 5.852 37.6538 5.93C37.6118 6.008 37.5908 6.101 37.5908 6.209V8.342C37.5908 8.606 37.5548 8.834 37.4828 9.026C37.4108 9.224 37.2938 9.386 37.1318 9.512C36.9698 9.638 36.7568 9.731 36.4928 9.791C36.2288 9.857 35.9018 9.89 35.5118 9.89Z" fill="#84F7D4"/>
<path d="M17.2758 8.054C16.9758 8.054 16.6998 8.015 16.4478 7.937C16.1958 7.853 15.9768 7.721 15.7908 7.541C15.6108 7.355 15.4698 7.106 15.3678 6.794C15.2658 6.476 15.2148 6.08 15.2148 5.606C15.2148 5.114 15.2598 4.706 15.3498 4.382C15.4458 4.052 15.5808 3.794 15.7548 3.608C15.9348 3.416 16.1568 3.281 16.4208 3.203C16.6848 3.119 16.9878 3.077 17.3298 3.077C17.6358 3.077 17.9208 3.098 18.1848 3.14C18.4488 3.176 18.7338 3.239 19.0398 3.329V4.22H17.8248C17.5548 4.22 17.3418 4.259 17.1858 4.337C17.0358 4.409 16.9278 4.544 16.8618 4.742C16.8018 4.94 16.7718 5.222 16.7718 5.588C16.7718 5.954 16.8018 6.233 16.8618 6.425C16.9278 6.611 17.0358 6.734 17.1858 6.794C17.3418 6.854 17.5608 6.884 17.8428 6.884H19.1118V7.766C18.9618 7.82 18.7818 7.871 18.5718 7.919C18.3678 7.961 18.1518 7.994 17.9238 8.018C17.7018 8.042 17.4858 8.054 17.2758 8.054ZM22.1649 8.045C21.7509 8.045 21.3969 8.003 21.1029 7.919C20.8149 7.829 20.5809 7.688 20.4009 7.496C20.2209 7.298 20.0919 7.043 20.0139 6.731C19.9359 6.413 19.8969 6.026 19.8969 5.57C19.8969 5.078 19.9359 4.673 20.0139 4.355C20.0979 4.031 20.2299 3.776 20.4099 3.59C20.5899 3.404 20.8239 3.272 21.1119 3.194C21.4059 3.116 21.7569 3.077 22.1649 3.077C22.5849 3.077 22.9389 3.119 23.2269 3.203C23.5149 3.281 23.7459 3.416 23.9199 3.608C24.0999 3.794 24.2319 4.049 24.3159 4.373C24.3999 4.691 24.4419 5.09 24.4419 5.57C24.4419 6.044 24.4029 6.44 24.3249 6.758C24.2469 7.076 24.1179 7.331 23.9379 7.523C23.7639 7.709 23.5299 7.844 23.2359 7.928C22.9479 8.006 22.5909 8.045 22.1649 8.045ZM22.1649 6.812C22.3029 6.812 22.4169 6.8 22.5069 6.776C22.5969 6.746 22.6689 6.692 22.7229 6.614C22.7769 6.53 22.8159 6.404 22.8399 6.236C22.8699 6.068 22.8849 5.843 22.8849 5.561C22.8849 5.279 22.8699 5.054 22.8399 4.886C22.8159 4.718 22.7769 4.595 22.7229 4.517C22.6689 4.433 22.5969 4.379 22.5069 4.355C22.4169 4.331 22.3029 4.319 22.1649 4.319C22.0329 4.319 21.9219 4.331 21.8319 4.355C21.7419 4.379 21.6669 4.433 21.6069 4.517C21.5529 4.595 21.5139 4.718 21.4899 4.886C21.4659 5.054 21.4539 5.279 21.4539 5.561C21.4539 5.843 21.4659 6.068 21.4899 6.236C21.5139 6.404 21.5529 6.53 21.6069 6.614C21.6669 6.692 21.7419 6.746 21.8319 6.776C21.9219 6.8 22.0329 6.812 22.1649 6.812ZM27.0717 8.054C26.6997 8.054 26.3847 7.976 26.1267 7.82C25.8687 7.664 25.6737 7.409 25.5417 7.055C25.4097 6.701 25.3437 6.227 25.3437 5.633C25.3437 5.033 25.3977 4.547 25.5057 4.175C25.6137 3.803 25.7997 3.527 26.0637 3.347C26.3277 3.167 26.6937 3.077 27.1617 3.077C27.3657 3.077 27.5697 3.098 27.7737 3.14C27.9777 3.182 28.1577 3.23 28.3137 3.284V1.133H29.8707V8H28.5567L28.3137 7.55C28.2057 7.646 28.0827 7.733 27.9447 7.811C27.8127 7.889 27.6717 7.949 27.5217 7.991C27.3777 8.033 27.2277 8.054 27.0717 8.054ZM27.6297 6.812C27.7797 6.812 27.9117 6.788 28.0257 6.74C28.1457 6.692 28.2417 6.641 28.3137 6.587V4.409C28.2297 4.373 28.1307 4.337 28.0167 4.301C27.9087 4.259 27.7977 4.238 27.6837 4.238C27.4917 4.238 27.3387 4.271 27.2247 4.337C27.1107 4.403 27.0267 4.532 26.9727 4.724C26.9247 4.91 26.9007 5.186 26.9007 5.552C26.9007 5.906 26.9217 6.173 26.9637 6.353C27.0117 6.533 27.0897 6.656 27.1977 6.722C27.3117 6.782 27.4557 6.812 27.6297 6.812ZM33.1281 8.045C32.5881 8.045 32.1531 7.976 31.8231 7.838C31.4931 7.694 31.2531 7.445 31.1031 7.091C30.9591 6.731 30.8871 6.23 30.8871 5.588C30.8871 4.928 30.9531 4.418 31.0851 4.058C31.2231 3.692 31.4511 3.437 31.7691 3.293C32.0871 3.149 32.5191 3.077 33.0651 3.077C33.5631 3.077 33.9591 3.125 34.2531 3.221C34.5471 3.317 34.7571 3.488 34.8831 3.734C35.0151 3.98 35.0811 4.328 35.0811 4.778C35.0811 5.114 35.0151 5.381 34.8831 5.579C34.7511 5.777 34.5621 5.918 34.3161 6.002C34.0761 6.08 33.7911 6.119 33.4611 6.119H32.4261C32.4441 6.311 32.4801 6.464 32.5341 6.578C32.5941 6.692 32.7021 6.773 32.8581 6.821C33.0141 6.869 33.2451 6.893 33.5511 6.893H34.9101V7.802C34.6881 7.856 34.4331 7.91 34.1451 7.964C33.8631 8.018 33.5241 8.045 33.1281 8.045ZM32.4081 5.201H33.2901C33.4401 5.201 33.5481 5.171 33.6141 5.111C33.6801 5.051 33.7131 4.943 33.7131 4.787C33.7131 4.643 33.6921 4.529 33.6501 4.445C33.6081 4.355 33.5391 4.292 33.4431 4.256C33.3471 4.214 33.2211 4.193 33.0651 4.193C32.9091 4.193 32.7831 4.223 32.6871 4.283C32.5911 4.337 32.5191 4.439 32.4711 4.589C32.4291 4.733 32.4081 4.937 32.4081 5.201Z" fill="#EDCA85"/>
</svg>
