<svg width="42" height="53" viewBox="0 0 42 53" fill="none" xmlns="http://www.w3.org/2000/svg">
<path fill-rule="evenodd" clip-rule="evenodd" d="M42 15.1139V10.5C42 4.70101 32.598 0 21 0C9.40202 0 0 4.70101 0 10.5V15.1139C1.25252 16.7979 3.15197 18.242 5.42404 19.3781C9.63966 21.4859 15.2432 22.625 21 22.625C26.7568 22.625 32.3603 21.4859 36.576 19.3781C38.848 18.242 40.7475 16.7979 42 15.1139ZM42 18.0875C40.6902 19.3104 39.1238 20.3402 37.4704 21.1669C32.9133 23.4455 26.9872 24.625 21 24.625C15.0128 24.625 9.08669 23.4455 4.52961 21.1669C2.87625 20.3402 1.3098 19.3104 0 18.0875V30.8639C1.25252 32.5479 3.15197 33.992 5.42404 35.1281C9.63966 37.2359 15.2432 38.375 21 38.375C26.7568 38.375 32.3603 37.2359 36.576 35.1281C38.848 33.992 40.7475 32.5479 42 30.8639V18.0875ZM42 33.8375C40.6902 35.0604 39.1238 36.0902 37.4704 36.9169C32.9133 39.1955 26.9872 40.375 21 40.375C15.0128 40.375 9.08669 39.1955 4.52961 36.9169C2.87625 36.0902 1.3098 35.0604 0 33.8375V42C0 47.799 9.40202 52.5 21 52.5C32.598 52.5 42 47.799 42 42V33.8375Z" fill="currentColor"/>
</svg>
