<svg width="66" height="23" viewBox="0 0 66 23" fill="none" xmlns="http://www.w3.org/2000/svg">
<path d="M9.98363 21.89C9.59363 21.89 9.26363 21.857 8.99363 21.791C8.72963 21.731 8.51663 21.638 8.35462 21.512C8.19862 21.386 8.08462 21.224 8.01262 21.026C7.94062 20.834 7.90462 20.606 7.90462 20.342V18.209C7.90462 18.101 7.88062 18.008 7.83262 17.93C7.79062 17.852 7.72762 17.795 7.64362 17.759C7.55962 17.717 7.45762 17.702 7.33762 17.714V16.283C7.43962 16.271 7.53262 16.25 7.61662 16.22C7.70662 16.19 7.77862 16.142 7.83262 16.076C7.88662 16.004 7.91362 15.908 7.91362 15.788V14.096C7.91362 13.742 7.98562 13.442 8.12962 13.196C8.27362 12.944 8.49862 12.752 8.80463 12.62C9.11063 12.488 9.50363 12.422 9.98363 12.422V13.655C9.83963 13.655 9.72863 13.685 9.65063 13.745C9.57863 13.805 9.53063 13.913 9.50662 14.069C9.48262 14.219 9.47062 14.438 9.47062 14.726V16.058C9.47062 16.376 9.38662 16.607 9.21863 16.751C9.05663 16.889 8.83462 16.97 8.55262 16.994C8.83462 17.048 9.05663 17.15 9.21863 17.3C9.38063 17.45 9.46163 17.648 9.46163 17.894V19.793C9.46163 20.111 9.49163 20.345 9.55162 20.495C9.61163 20.651 9.75563 20.729 9.98363 20.729V21.89ZM34.5665 20V18.758L36.7085 16.598C36.8645 16.448 36.9935 16.307 37.0955 16.175C37.1975 16.043 37.2725 15.914 37.3205 15.788C37.3745 15.662 37.4015 15.53 37.4015 15.392C37.4015 15.248 37.3745 15.128 37.3205 15.032C37.2665 14.936 37.1795 14.864 37.0595 14.816C36.9455 14.768 36.7895 14.744 36.5915 14.744H34.6925V13.511C34.9865 13.451 35.3105 13.397 35.6645 13.349C36.0245 13.295 36.4325 13.268 36.8885 13.268C37.4105 13.268 37.8215 13.34 38.1215 13.484C38.4275 13.628 38.6435 13.841 38.7695 14.123C38.8955 14.399 38.9585 14.732 38.9585 15.122C38.9585 15.422 38.9195 15.695 38.8415 15.941C38.7635 16.181 38.6465 16.409 38.4905 16.625C38.3405 16.841 38.1545 17.06 37.9325 17.282L36.6185 18.605H39.1475V20H34.5665ZM41.9194 20.045C41.5294 20.045 41.1994 19.976 40.9294 19.838C40.6594 19.7 40.4584 19.499 40.3264 19.235C40.1944 18.971 40.1284 18.65 40.1284 18.272V15.122C40.1284 14.72 40.1974 14.384 40.3354 14.114C40.4794 13.838 40.6864 13.628 40.9564 13.484C41.2264 13.34 41.5504 13.268 41.9284 13.268H43.3504C43.7284 13.268 44.0434 13.343 44.2954 13.493C44.5534 13.637 44.7484 13.847 44.8804 14.123C45.0124 14.393 45.0784 14.726 45.0784 15.122V18.272C45.0784 18.836 44.9284 19.274 44.6284 19.586C44.3284 19.892 43.8994 20.045 43.3414 20.045H41.9194ZM42.2974 18.65H42.9184C43.1224 18.65 43.2724 18.602 43.3684 18.506C43.4704 18.404 43.5214 18.248 43.5214 18.038V15.284C43.5214 15.044 43.4704 14.882 43.3684 14.798C43.2724 14.708 43.1434 14.663 42.9814 14.663H42.2434C42.0574 14.663 41.9164 14.714 41.8204 14.816C41.7304 14.918 41.6854 15.074 41.6854 15.284V18.029C41.6854 18.251 41.7364 18.41 41.8384 18.506C41.9404 18.602 42.0934 18.65 42.2974 18.65ZM47.1173 20V14.744L46.0013 14.816V13.826L47.2973 13.268H48.6743V20H47.1173ZM51.6351 20.045C51.2451 20.045 50.9151 19.976 50.6451 19.838C50.3751 19.7 50.1741 19.499 50.0421 19.235C49.9101 18.971 49.8441 18.65 49.8441 18.272V15.122C49.8441 14.72 49.9131 14.384 50.0511 14.114C50.1951 13.838 50.4021 13.628 50.6721 13.484C50.9421 13.34 51.2661 13.268 51.6441 13.268H53.0661C53.4441 13.268 53.7591 13.343 54.0111 13.493C54.2691 13.637 54.4641 13.847 54.5961 14.123C54.7281 14.393 54.7941 14.726 54.7941 15.122V18.272C54.7941 18.836 54.6441 19.274 54.3441 19.586C54.0441 19.892 53.6151 20.045 53.0571 20.045H51.6351ZM52.0131 18.65H52.6341C52.8381 18.65 52.9881 18.602 53.0841 18.506C53.1861 18.404 53.2371 18.248 53.2371 18.038V15.284C53.2371 15.044 53.1861 14.882 53.0841 14.798C52.9881 14.708 52.8591 14.663 52.6971 14.663H51.9591C51.7731 14.663 51.6321 14.714 51.5361 14.816C51.4461 14.918 51.4011 15.074 51.4011 15.284V18.029C51.4011 18.251 51.4521 18.41 51.5541 18.506C51.6561 18.602 51.8091 18.65 52.0131 18.65ZM59.4824 21.89V20.729C59.7164 20.729 59.8604 20.651 59.9144 20.495C59.9744 20.345 60.0044 20.111 60.0044 19.793V17.894C60.0044 17.648 60.0854 17.45 60.2474 17.3C60.4094 17.15 60.6314 17.048 60.9134 16.994C60.6314 16.97 60.4064 16.889 60.2384 16.751C60.0764 16.607 59.9954 16.376 59.9954 16.058V14.726C59.9954 14.438 59.9834 14.219 59.9594 14.069C59.9354 13.913 59.8844 13.805 59.8064 13.745C59.7344 13.685 59.6264 13.655 59.4824 13.655V12.422C59.9624 12.422 60.3524 12.488 60.6524 12.62C60.9584 12.752 61.1834 12.944 61.3274 13.196C61.4774 13.442 61.5524 13.742 61.5524 14.096V15.788C61.5524 15.908 61.5794 16.004 61.6334 16.076C61.6874 16.142 61.7594 16.19 61.8494 16.22C61.9394 16.25 62.0324 16.271 62.1284 16.283V17.714C62.0084 17.702 61.9064 17.717 61.8224 17.759C61.7384 17.795 61.6724 17.852 61.6244 17.93C61.5824 18.008 61.5614 18.101 61.5614 18.209V20.342C61.5614 20.606 61.5254 20.834 61.4534 21.026C61.3814 21.224 61.2644 21.386 61.1024 21.512C60.9404 21.638 60.7274 21.731 60.4634 21.791C60.1994 21.857 59.8724 21.89 59.4824 21.89Z" fill="#F87B91"/>
<path d="M0.275156 6.497V5.255H4.30716V6.497H0.275156ZM0.275156 4.337V3.095H4.30716V4.337H0.275156ZM9.97969 9.89C9.68569 9.548 9.41269 9.155 9.16069 8.711C8.90869 8.273 8.70169 7.757 8.53969 7.163C8.38369 6.563 8.30569 5.864 8.30569 5.066C8.30569 4.304 8.38669 3.626 8.54869 3.032C8.71069 2.432 8.91769 1.904 9.16969 1.448C9.42769 0.985999 9.69769 0.59 9.97969 0.26H11.3567C11.1047 0.668 10.8647 1.115 10.6367 1.601C10.4087 2.087 10.2227 2.618 10.0787 3.194C9.93469 3.764 9.86269 4.388 9.86269 5.066C9.86269 5.732 9.92269 6.338 10.0427 6.884C10.1687 7.424 10.3427 7.934 10.5647 8.414C10.7867 8.9 11.0507 9.392 11.3567 9.89H9.97969ZM48.3629 9.89C48.6209 9.476 48.8609 9.026 49.0829 8.54C49.3109 8.054 49.4969 7.526 49.6409 6.956C49.7849 6.38 49.8569 5.756 49.8569 5.084C49.8569 4.412 49.7969 3.809 49.6769 3.275C49.5569 2.735 49.3829 2.222 49.1549 1.736C48.9329 1.25 48.6689 0.758 48.3629 0.26H49.7399C50.0399 0.596 50.3159 0.986 50.5679 1.43C50.8199 1.874 51.0209 2.393 51.1709 2.987C51.3269 3.581 51.4049 4.28 51.4049 5.084C51.4049 5.84 51.3239 6.518 51.1619 7.118C51.0059 7.712 50.7989 8.237 50.5409 8.693C50.2889 9.149 50.0219 9.548 49.7399 9.89H48.3629ZM55.4033 6.497V5.255H59.4353V6.497H55.4033ZM55.4033 4.337V3.095H59.4353V4.337H55.4033ZM61.3197 6.749V5.39L63.5337 4.832L61.3197 4.346V2.987L65.0547 4.157V5.525L61.3197 6.749ZM12.4074 22.133L12.9024 20C12.5904 20 12.3264 19.943 12.1104 19.829C11.8944 19.715 11.7174 19.559 11.5794 19.361C11.4474 19.157 11.3484 18.92 11.2824 18.65L10.4634 15.158H12.0744L12.7224 18.335C12.7464 18.425 12.7764 18.497 12.8124 18.551C12.8484 18.605 12.8874 18.647 12.9294 18.677C12.9774 18.701 13.0224 18.719 13.0644 18.731C13.1064 18.737 13.1424 18.74 13.1724 18.74L13.9104 15.158H15.4944L14.1624 21.242L13.7124 22.133H12.4074ZM18.4114 20.045C17.8714 20.045 17.4364 19.976 17.1064 19.838C16.7764 19.694 16.5364 19.445 16.3864 19.091C16.2424 18.731 16.1704 18.23 16.1704 17.588C16.1704 16.928 16.2364 16.418 16.3684 16.058C16.5064 15.692 16.7344 15.437 17.0524 15.293C17.3704 15.149 17.8024 15.077 18.3484 15.077C18.8464 15.077 19.2424 15.125 19.5364 15.221C19.8304 15.317 20.0404 15.488 20.1664 15.734C20.2984 15.98 20.3644 16.328 20.3644 16.778C20.3644 17.114 20.2984 17.381 20.1664 17.579C20.0344 17.777 19.8454 17.918 19.5994 18.002C19.3594 18.08 19.0744 18.119 18.7444 18.119H17.7094C17.7274 18.311 17.7634 18.464 17.8174 18.578C17.8774 18.692 17.9854 18.773 18.1414 18.821C18.2974 18.869 18.5284 18.893 18.8344 18.893H20.1934V19.802C19.9714 19.856 19.7164 19.91 19.4284 19.964C19.1464 20.018 18.8074 20.045 18.4114 20.045ZM17.6914 17.201H18.5734C18.7234 17.201 18.8314 17.171 18.8974 17.111C18.9634 17.051 18.9964 16.943 18.9964 16.787C18.9964 16.643 18.9754 16.529 18.9334 16.445C18.8914 16.355 18.8224 16.292 18.7264 16.256C18.6304 16.214 18.5044 16.193 18.3484 16.193C18.1924 16.193 18.0664 16.223 17.9704 16.283C17.8744 16.337 17.8024 16.439 17.7544 16.589C17.7124 16.733 17.6914 16.937 17.6914 17.201ZM22.4625 20.054C22.0905 20.054 21.7905 19.946 21.5625 19.73C21.3345 19.508 21.2205 19.208 21.2205 18.83V18.362C21.2205 17.996 21.3495 17.693 21.6075 17.453C21.8715 17.213 22.2825 17.093 22.8405 17.093H23.9385V16.859C23.9385 16.727 23.9145 16.619 23.8665 16.535C23.8185 16.451 23.7255 16.391 23.5875 16.355C23.4495 16.319 23.2365 16.301 22.9485 16.301H21.5265V15.41C21.7665 15.32 22.0455 15.248 22.3635 15.194C22.6875 15.134 23.0775 15.101 23.5335 15.095C23.9355 15.095 24.2835 15.143 24.5775 15.239C24.8715 15.335 25.0965 15.503 25.2525 15.743C25.4145 15.977 25.4955 16.313 25.4955 16.751V20H24.2625L24.0195 19.505C23.9655 19.553 23.8905 19.61 23.7945 19.676C23.7045 19.736 23.5905 19.796 23.4525 19.856C23.3205 19.916 23.1705 19.964 23.0025 20C22.8345 20.036 22.6545 20.054 22.4625 20.054ZM23.2635 18.983C23.3055 18.989 23.3535 18.986 23.4075 18.974C23.4675 18.962 23.5245 18.95 23.5785 18.938C23.6325 18.92 23.6835 18.905 23.7315 18.893C23.7855 18.875 23.8275 18.86 23.8575 18.848C23.8935 18.83 23.9205 18.818 23.9385 18.812V17.822L23.3625 17.876C23.1645 17.9 23.0145 17.954 22.9125 18.038C22.8165 18.116 22.7685 18.23 22.7685 18.38V18.569C22.7685 18.671 22.7895 18.755 22.8315 18.821C22.8735 18.881 22.9305 18.923 23.0025 18.947C23.0805 18.971 23.1675 18.983 23.2635 18.983ZM26.6364 20V15.158H27.8424L28.1934 15.86C28.3494 15.65 28.5294 15.47 28.7334 15.32C28.9374 15.164 29.1804 15.086 29.4624 15.086C29.5164 15.086 29.5764 15.089 29.6424 15.095C29.7144 15.101 29.7804 15.113 29.8404 15.131V16.724C29.7444 16.712 29.6454 16.703 29.5434 16.697C29.4414 16.691 29.3454 16.688 29.2554 16.688C29.0994 16.688 28.9554 16.706 28.8234 16.742C28.6974 16.772 28.5804 16.82 28.4724 16.886C28.3704 16.946 28.2774 17.027 28.1934 17.129V20H26.6364ZM32.4122 21.89C32.1182 21.548 31.8452 21.155 31.5932 20.711C31.3412 20.273 31.1342 19.757 30.9722 19.163C30.8162 18.563 30.7382 17.864 30.7382 17.066C30.7382 16.304 30.8192 15.626 30.9812 15.032C31.1432 14.432 31.3502 13.904 31.6022 13.448C31.8602 12.986 32.1302 12.59 32.4122 12.26H33.7892C33.5372 12.668 33.2972 13.115 33.0692 13.601C32.8412 14.087 32.6552 14.618 32.5112 15.194C32.3672 15.764 32.2952 16.388 32.2952 17.066C32.2952 17.732 32.3552 18.338 32.4752 18.884C32.6012 19.424 32.7752 19.934 32.9972 20.414C33.2192 20.9 33.4832 21.392 33.7892 21.89H32.4122ZM55.6001 21.89C55.8581 21.476 56.0981 21.026 56.3201 20.54C56.5481 20.054 56.7341 19.526 56.8781 18.956C57.0221 18.38 57.0941 17.756 57.0941 17.084C57.0941 16.412 57.0341 15.809 56.9141 15.275C56.7941 14.735 56.6201 14.222 56.3921 13.736C56.1701 13.25 55.9061 12.758 55.6001 12.26H56.9771C57.2771 12.596 57.5531 12.986 57.8051 13.43C58.0571 13.874 58.2581 14.393 58.4081 14.987C58.5641 15.581 58.6421 16.28 58.6421 17.084C58.6421 17.84 58.5611 18.518 58.3991 19.118C58.2431 19.712 58.0361 20.237 57.7781 20.693C57.5261 21.149 57.2591 21.548 56.9771 21.89H55.6001Z" fill="white"/>
<path d="M14.51 9.89C14.12 9.89 13.79 9.857 13.52 9.791C13.256 9.731 13.043 9.638 12.881 9.512C12.725 9.386 12.611 9.224 12.539 9.026C12.467 8.834 12.431 8.606 12.431 8.342V6.209C12.431 6.101 12.407 6.008 12.359 5.93C12.317 5.852 12.254 5.795 12.17 5.759C12.086 5.717 11.984 5.702 11.864 5.714V4.283C11.966 4.271 12.059 4.25 12.143 4.22C12.233 4.19 12.305 4.142 12.359 4.076C12.413 4.004 12.44 3.908 12.44 3.788V2.096C12.44 1.742 12.512 1.442 12.656 1.196C12.8 0.944 13.025 0.752 13.331 0.62C13.637 0.487999 14.03 0.421999 14.51 0.421999V1.655C14.366 1.655 14.255 1.685 14.177 1.745C14.105 1.805 14.057 1.913 14.033 2.069C14.009 2.219 13.997 2.438 13.997 2.726V4.058C13.997 4.376 13.913 4.607 13.745 4.751C13.583 4.889 13.361 4.97 13.079 4.994C13.361 5.048 13.583 5.15 13.745 5.3C13.907 5.45 13.988 5.648 13.988 5.894V7.793C13.988 8.111 14.018 8.345 14.078 8.495C14.138 8.651 14.282 8.729 14.51 8.729V9.89ZM45.21 9.89V8.729C45.444 8.729 45.588 8.651 45.642 8.495C45.702 8.345 45.732 8.111 45.732 7.793V5.894C45.732 5.648 45.813 5.45 45.975 5.3C46.137 5.15 46.359 5.048 46.641 4.994C46.359 4.97 46.134 4.889 45.966 4.751C45.804 4.607 45.723 4.376 45.723 4.058V2.726C45.723 2.438 45.711 2.219 45.687 2.069C45.663 1.913 45.612 1.805 45.534 1.745C45.462 1.685 45.354 1.655 45.21 1.655V0.421999C45.69 0.421999 46.08 0.487999 46.38 0.62C46.686 0.752 46.911 0.944 47.055 1.196C47.205 1.442 47.28 1.742 47.28 2.096V3.788C47.28 3.908 47.307 4.004 47.361 4.076C47.415 4.142 47.487 4.19 47.577 4.22C47.667 4.25 47.76 4.271 47.856 4.283V5.714C47.736 5.702 47.634 5.717 47.55 5.759C47.466 5.795 47.4 5.852 47.352 5.93C47.31 6.008 47.289 6.101 47.289 6.209V8.342C47.289 8.606 47.253 8.834 47.181 9.026C47.109 9.224 46.992 9.386 46.83 9.512C46.668 9.638 46.455 9.731 46.191 9.791C45.927 9.857 45.6 9.89 45.21 9.89Z" fill="#84F7D4"/>
<path d="M16.9428 8.054C16.5708 8.054 16.2558 7.976 15.9978 7.82C15.7398 7.664 15.5448 7.409 15.4128 7.055C15.2808 6.701 15.2148 6.227 15.2148 5.633C15.2148 5.033 15.2688 4.547 15.3768 4.175C15.4848 3.803 15.6708 3.527 15.9348 3.347C16.1988 3.167 16.5648 3.077 17.0328 3.077C17.2368 3.077 17.4408 3.098 17.6448 3.14C17.8488 3.182 18.0288 3.23 18.1848 3.284V1.133H19.7418V8H18.4278L18.1848 7.55C18.0768 7.646 17.9538 7.733 17.8158 7.811C17.6838 7.889 17.5428 7.949 17.3928 7.991C17.2488 8.033 17.0988 8.054 16.9428 8.054ZM17.5008 6.812C17.6508 6.812 17.7828 6.788 17.8968 6.74C18.0168 6.692 18.1128 6.641 18.1848 6.587V4.409C18.1008 4.373 18.0018 4.337 17.8878 4.301C17.7798 4.259 17.6688 4.238 17.5548 4.238C17.3628 4.238 17.2098 4.271 17.0958 4.337C16.9818 4.403 16.8978 4.532 16.8438 4.724C16.7958 4.91 16.7718 5.186 16.7718 5.552C16.7718 5.906 16.7928 6.173 16.8348 6.353C16.8828 6.533 16.9608 6.656 17.0688 6.722C17.1828 6.782 17.3268 6.812 17.5008 6.812ZM22.9992 8.045C22.4592 8.045 22.0242 7.976 21.6942 7.838C21.3642 7.694 21.1242 7.445 20.9742 7.091C20.8302 6.731 20.7582 6.23 20.7582 5.588C20.7582 4.928 20.8242 4.418 20.9562 4.058C21.0942 3.692 21.3222 3.437 21.6402 3.293C21.9582 3.149 22.3902 3.077 22.9362 3.077C23.4342 3.077 23.8302 3.125 24.1242 3.221C24.4182 3.317 24.6282 3.488 24.7542 3.734C24.8862 3.98 24.9522 4.328 24.9522 4.778C24.9522 5.114 24.8862 5.381 24.7542 5.579C24.6222 5.777 24.4332 5.918 24.1872 6.002C23.9472 6.08 23.6622 6.119 23.3322 6.119H22.2972C22.3152 6.311 22.3512 6.464 22.4052 6.578C22.4652 6.692 22.5732 6.773 22.7292 6.821C22.8852 6.869 23.1162 6.893 23.4222 6.893H24.7812V7.802C24.5592 7.856 24.3042 7.91 24.0162 7.964C23.7342 8.018 23.3952 8.045 22.9992 8.045ZM22.2792 5.201H23.1612C23.3112 5.201 23.4192 5.171 23.4852 5.111C23.5512 5.051 23.5842 4.943 23.5842 4.787C23.5842 4.643 23.5632 4.529 23.5212 4.445C23.4792 4.355 23.4102 4.292 23.3142 4.256C23.2182 4.214 23.0922 4.193 22.9362 4.193C22.7802 4.193 22.6542 4.223 22.5582 4.283C22.4622 4.337 22.3902 4.439 22.3422 4.589C22.3002 4.733 22.2792 4.937 22.2792 5.201ZM27.2664 10.241C26.9664 10.241 26.6964 10.196 26.4564 10.106C26.2164 10.016 26.0274 9.884 25.8894 9.71C25.7514 9.542 25.6824 9.335 25.6824 9.089V8.972C25.6824 8.72 25.7544 8.501 25.8984 8.315C26.0484 8.135 26.2404 7.997 26.4744 7.901C26.7084 7.805 26.9574 7.757 27.2214 7.757L27.7074 8.216C27.5874 8.216 27.4854 8.234 27.4014 8.27C27.3234 8.306 27.2604 8.357 27.2124 8.423C27.1704 8.489 27.1494 8.567 27.1494 8.657V8.729C27.1494 8.861 27.1944 8.966 27.2844 9.044C27.3804 9.122 27.5214 9.161 27.7074 9.161H28.5624C28.7364 9.161 28.8774 9.125 28.9854 9.053C29.0934 8.987 29.1474 8.885 29.1474 8.747V8.621C29.1474 8.537 29.1234 8.465 29.0754 8.405C29.0334 8.345 28.9704 8.297 28.8864 8.261C28.8084 8.231 28.7064 8.216 28.5804 8.216H27.6354C27.0414 8.216 26.6034 8.108 26.3214 7.892C26.0394 7.676 25.8984 7.412 25.8984 7.1C25.8984 6.854 25.9674 6.647 26.1054 6.479C26.2434 6.305 26.4384 6.188 26.6904 6.128C26.5104 6.02 26.3664 5.894 26.2584 5.75C26.1504 5.606 26.0724 5.45 26.0244 5.282C25.9764 5.108 25.9524 4.931 25.9524 4.751C25.9524 4.397 26.0244 4.103 26.1684 3.869C26.3124 3.629 26.5344 3.452 26.8344 3.338C27.1404 3.218 27.5334 3.158 28.0134 3.158H30.6504V4.004L30.0294 4.157C30.0774 4.217 30.1194 4.289 30.1554 4.373C30.1974 4.451 30.2304 4.547 30.2544 4.661C30.2844 4.775 30.2994 4.916 30.2994 5.084C30.2994 5.372 30.2394 5.627 30.1194 5.849C29.9994 6.071 29.8104 6.245 29.5524 6.371C29.3004 6.497 28.9614 6.56 28.5354 6.56H27.6444C27.5244 6.56 27.4194 6.581 27.3294 6.623C27.2454 6.665 27.2034 6.734 27.2034 6.83C27.2034 6.92 27.2424 6.983 27.3204 7.019C27.3984 7.049 27.4884 7.064 27.5904 7.064H28.8414C29.2074 7.064 29.5224 7.112 29.7864 7.208C30.0504 7.304 30.2544 7.463 30.3984 7.685C30.5424 7.901 30.6144 8.192 30.6144 8.558V8.657C30.6144 9.149 30.4644 9.536 30.1644 9.818C29.8644 10.1 29.3934 10.241 28.7514 10.241H27.2664ZM27.8604 5.399H28.3644C28.5024 5.399 28.6104 5.381 28.6884 5.345C28.7664 5.303 28.8204 5.24 28.8504 5.156C28.8864 5.072 28.9044 4.973 28.9044 4.859C28.9044 4.727 28.8864 4.622 28.8504 4.544C28.8144 4.46 28.7574 4.4 28.6794 4.364C28.6014 4.328 28.4994 4.31 28.3734 4.31H27.8784C27.6924 4.31 27.5574 4.352 27.4734 4.436C27.3894 4.514 27.3474 4.652 27.3474 4.85C27.3474 5.042 27.3864 5.183 27.4644 5.273C27.5484 5.357 27.6804 5.399 27.8604 5.399ZM31.5143 8V3.158H32.7203L33.0713 3.86C33.2273 3.65 33.4073 3.47 33.6113 3.32C33.8153 3.164 34.0583 3.086 34.3403 3.086C34.3943 3.086 34.4543 3.089 34.5203 3.095C34.5923 3.101 34.6583 3.113 34.7183 3.131V4.724C34.6223 4.712 34.5233 4.703 34.4213 4.697C34.3193 4.691 34.2233 4.688 34.1333 4.688C33.9773 4.688 33.8333 4.706 33.7013 4.742C33.5753 4.772 33.4583 4.82 33.3503 4.886C33.2483 4.946 33.1553 5.027 33.0713 5.129V8H31.5143ZM37.7311 8.045C37.1911 8.045 36.7561 7.976 36.4261 7.838C36.0961 7.694 35.8561 7.445 35.7061 7.091C35.5621 6.731 35.4901 6.23 35.4901 5.588C35.4901 4.928 35.5561 4.418 35.6881 4.058C35.8261 3.692 36.0541 3.437 36.3721 3.293C36.6901 3.149 37.1221 3.077 37.6681 3.077C38.1661 3.077 38.5621 3.125 38.8561 3.221C39.1501 3.317 39.3601 3.488 39.4861 3.734C39.6181 3.98 39.6841 4.328 39.6841 4.778C39.6841 5.114 39.6181 5.381 39.4861 5.579C39.3541 5.777 39.1651 5.918 38.9191 6.002C38.6791 6.08 38.3941 6.119 38.0641 6.119H37.0291C37.0471 6.311 37.0831 6.464 37.1371 6.578C37.1971 6.692 37.3051 6.773 37.4611 6.821C37.6171 6.869 37.8481 6.893 38.1541 6.893H39.5131V7.802C39.2911 7.856 39.0361 7.91 38.7481 7.964C38.4661 8.018 38.1271 8.045 37.7311 8.045ZM37.0111 5.201H37.8931C38.0431 5.201 38.1511 5.171 38.2171 5.111C38.2831 5.051 38.3161 4.943 38.3161 4.787C38.3161 4.643 38.2951 4.529 38.2531 4.445C38.2111 4.355 38.1421 4.292 38.0461 4.256C37.9501 4.214 37.8241 4.193 37.6681 4.193C37.5121 4.193 37.3861 4.223 37.2901 4.283C37.1941 4.337 37.1221 4.439 37.0741 4.589C37.0321 4.733 37.0111 4.937 37.0111 5.201ZM42.8263 8.045C42.2863 8.045 41.8513 7.976 41.5213 7.838C41.1913 7.694 40.9513 7.445 40.8013 7.091C40.6573 6.731 40.5853 6.23 40.5853 5.588C40.5853 4.928 40.6513 4.418 40.7833 4.058C40.9213 3.692 41.1493 3.437 41.4673 3.293C41.7853 3.149 42.2173 3.077 42.7633 3.077C43.2613 3.077 43.6573 3.125 43.9513 3.221C44.2453 3.317 44.4553 3.488 44.5813 3.734C44.7133 3.98 44.7793 4.328 44.7793 4.778C44.7793 5.114 44.7133 5.381 44.5813 5.579C44.4493 5.777 44.2603 5.918 44.0143 6.002C43.7743 6.08 43.4893 6.119 43.1593 6.119H42.1243C42.1423 6.311 42.1783 6.464 42.2323 6.578C42.2923 6.692 42.4003 6.773 42.5563 6.821C42.7123 6.869 42.9433 6.893 43.2493 6.893H44.6083V7.802C44.3863 7.856 44.1313 7.91 43.8433 7.964C43.5613 8.018 43.2223 8.045 42.8263 8.045ZM42.1063 5.201H42.9883C43.1383 5.201 43.2463 5.171 43.3123 5.111C43.3783 5.051 43.4113 4.943 43.4113 4.787C43.4113 4.643 43.3903 4.529 43.3483 4.445C43.3063 4.355 43.2373 4.292 43.1413 4.256C43.0453 4.214 42.9193 4.193 42.7633 4.193C42.6073 4.193 42.4813 4.223 42.3853 4.283C42.2893 4.337 42.2173 4.439 42.1693 4.589C42.1273 4.733 42.1063 4.937 42.1063 5.201Z" fill="#EDCA85"/>
</svg>
