<svg width="43" height="56" viewBox="0 0 43 56" fill="none" xmlns="http://www.w3.org/2000/svg">
<path fill-rule="evenodd" clip-rule="evenodd" d="M19.175 54.1202L1.67505 41.6202C0.853902 41.0337 0.443329 40.7404 0.221665 40.3097C0 39.879 0 39.3744 0 38.3653V17.9108C0 17.5895 2.28286e-10 17.3193 0.00715773 17.0864L20.5 31.7241V55.0122C20.1433 54.8118 19.727 54.5145 19.175 54.1202ZM22.5 55.0122C22.8567 54.8118 23.273 54.5145 23.825 54.1202L41.325 41.6202C42.1461 41.0337 42.5567 40.7404 42.7783 40.3097C43 39.879 43 39.3744 43 38.3653V17.9108C43 17.5895 43 17.3193 42.9928 17.0864L22.5 31.7241V55.0122ZM42.1276 15.2466L21.5 29.9806L0.872431 15.2466C1.08371 15.0783 1.34652 14.8905 1.67505 14.6559L19.175 2.15588C20.2977 1.35396 20.8591 0.953003 21.5 0.953003C22.1409 0.953003 22.7023 1.35396 23.825 2.15587L41.325 14.6559C41.6535 14.8905 41.9163 15.0783 42.1276 15.2466Z" fill="currentColor"/>
</svg>
