<svg width="17" height="20" viewBox="0 0 17 20" fill="none" xmlns="http://www.w3.org/2000/svg">
<circle cx="8.33333" cy="8.33333" r="8.33333" fill="#3DFA90" fill-opacity="0.37"/>
<circle cx="8.33333" cy="8.33333" r="6.33333" fill="#3DFA90" fill-opacity="1"/>
<path d="M6.672 10.67C6.54 10.67 6.43733 10.67 6.364 10.67C6.29067 10.6553 6.21733 10.6333 6.144 10.604V9.812C6.37867 9.812 6.52533 9.75333 6.584 9.636C6.64267 9.51867 6.672 9.40133 6.672 9.284V8.316H6.496C6.37867 8.316 6.276 8.27933 6.188 8.206C6.11467 8.13267 6.078 8.02267 6.078 7.876V5.984C6.078 5.676 6.21733 5.522 6.496 5.522H7.838C7.97 5.522 8.058 5.566 8.102 5.654C8.16067 5.742 8.19 5.852 8.19 5.984V9.196C8.19 9.60667 8.102 9.922 7.926 10.142C7.76467 10.3473 7.56667 10.4867 7.332 10.56C7.09733 10.6333 6.87733 10.67 6.672 10.67ZM9.62 10.67C9.488 10.67 9.38533 10.67 9.312 10.67C9.23867 10.6553 9.16533 10.6333 9.092 10.604V9.812C9.32667 9.812 9.47333 9.75333 9.532 9.636C9.59067 9.51867 9.62 9.40133 9.62 9.284V8.316H9.444C9.32667 8.316 9.224 8.27933 9.136 8.206C9.06267 8.13267 9.026 8.02267 9.026 7.876V5.984C9.026 5.676 9.16533 5.522 9.444 5.522H10.786C10.918 5.522 11.006 5.566 11.05 5.654C11.1087 5.742 11.138 5.852 11.138 5.984V9.196C11.138 9.60667 11.05 9.922 10.874 10.142C10.7127 10.3473 10.5147 10.4867 10.28 10.56C10.0453 10.6333 9.82533 10.67 9.62 10.67Z" fill="white"/>
</svg>
