<svg width="44" height="44" viewBox="0 0 44 44" fill="none" xmlns="http://www.w3.org/2000/svg">
<rect width="44" height="44" rx="13" fill="#84F7D4" fill-opacity="0.37"/>
<rect x="3.66669" y="3.66667" width="36.6667" height="36.6667" rx="11" fill="#84F7D4"/>
<path d="M16 23L13 21L22 16L31 21L28 23" stroke="white" stroke-width="2" stroke-linecap="round" stroke-linejoin="round"/>
<path d="M23 24C23 24.5523 23.4477 25 24 25C24.5523 25 25 24.5523 25 24H23ZM23 17V24H25V17H23Z" fill="white"/>
<path d="M16 23V27L22 29.5L28 27V23C28 23 27 21 22 21C17 21 16 23 16 23Z" stroke="white" stroke-width="2" stroke-linecap="round" stroke-linejoin="round"/>
</svg>
