<svg width="25" height="45" viewBox="0 0 25 45" fill="none" xmlns="http://www.w3.org/2000/svg">
<circle cx="12.5" cy="12.5" r="12.5" fill="#000000" fill-opacity="0.37"/>
<circle cx="12.5" cy="12.5" r="9.5" fill="#000000" fill-opacity="0.37"/>
<path d="M9.346 16.354C9.142 16.354 8.99467 16.286 8.904 16.15C8.836 16.014 8.802 15.844 8.802 15.64V10.676C8.802 10.0413 8.92667 9.56533 9.176 9.248C9.448 8.908 9.76533 8.68133 10.128 8.568C10.4907 8.45467 10.8307 8.398 11.148 8.398C11.352 8.398 11.5107 8.40933 11.624 8.432C11.76 8.432 11.8733 8.45467 11.964 8.5V9.724C11.6013 9.724 11.3633 9.81467 11.25 9.996C11.1593 10.1547 11.114 10.336 11.114 10.54V12.036H11.42C11.6013 12.036 11.7487 12.0927 11.862 12.206C11.998 12.3193 12.066 12.4893 12.066 12.716V15.64C12.066 16.116 11.8507 16.354 11.42 16.354H9.346ZM13.902 16.354C13.698 16.354 13.5507 16.286 13.46 16.15C13.392 16.014 13.358 15.844 13.358 15.64V10.676C13.358 10.0413 13.4827 9.56533 13.732 9.248C14.004 8.908 14.3213 8.68133 14.684 8.568C15.0467 8.45467 15.3867 8.398 15.704 8.398C15.908 8.398 16.0667 8.40933 16.18 8.432C16.316 8.432 16.4293 8.45467 16.52 8.5V9.724C16.1573 9.724 15.9193 9.81467 15.806 9.996C15.7153 10.1547 15.67 10.336 15.67 10.54V12.036H15.976C16.1573 12.036 16.3047 12.0927 16.418 12.206C16.554 12.3193 16.622 12.4893 16.622 12.716V15.64C16.622 16.116 16.4067 16.354 15.976 16.354H13.902Z" fill="white"/>
</svg>
