<svg width="48" height="54" viewBox="0 0 48 54" fill="none" xmlns="http://www.w3.org/2000/svg">
<path fill-rule="evenodd" clip-rule="evenodd" d="M24.2831 0.0380859C23.6256 0.0380859 23.0537 0.459665 21.9098 1.30282L13.5199 7.48686L13.5199 7.48689C13.3397 7.6197 13.2496 7.68611 13.1529 7.74195C13.0561 7.7978 12.9536 7.84263 12.7484 7.93228L3.19798 12.1061C1.89583 12.6752 1.24475 12.9597 0.916031 13.5291C0.587312 14.0984 0.666433 14.8045 0.824675 16.2168L1.98528 26.5746C2.01021 26.7971 2.02267 26.9083 2.02267 27.02C2.02267 27.1317 2.01021 27.243 1.98528 27.4654L0.824675 37.8233C0.666433 39.2355 0.587312 39.9416 0.916031 40.511C1.24475 41.0804 1.89583 41.3649 3.19798 41.934L12.7484 46.1078C12.9536 46.1974 13.0561 46.2423 13.1529 46.2981C13.2496 46.354 13.3397 46.4204 13.5198 46.5531L13.5199 46.5532L21.9098 52.7372C23.0537 53.5804 23.6256 54.002 24.2831 54.002C24.9405 54.002 25.5125 53.5804 26.6564 52.7372L35.0462 46.5532L35.0463 46.5532C35.2265 46.4204 35.3166 46.354 35.4133 46.2981C35.51 46.2423 35.6126 46.1974 35.8177 46.1078L45.3682 41.934C46.6703 41.3649 47.3214 41.0804 47.6501 40.511C47.9788 39.9416 47.8997 39.2355 47.7415 37.8233L46.5809 27.4654C46.556 27.243 46.5435 27.1317 46.5435 27.02C46.5435 26.9083 46.556 26.7971 46.5809 26.5746L47.7415 16.2168C47.8997 14.8045 47.9788 14.0984 47.6501 13.5291C47.3214 12.9597 46.6703 12.6752 45.3682 12.1061L35.8177 7.93228L35.8176 7.93224C35.6126 7.84262 35.51 7.7978 35.4133 7.74195C35.3165 7.6861 35.2264 7.61969 35.0462 7.48686L26.6564 1.30282C25.5125 0.459665 24.9405 0.0380859 24.2831 0.0380859ZM24.2831 37.0078C29.7992 37.0078 34.2709 32.5361 34.2709 27.02C34.2709 21.5038 29.7992 17.0321 24.2831 17.0321C18.7669 17.0321 14.2952 21.5038 14.2952 27.02C14.2952 32.5361 18.7669 37.0078 24.2831 37.0078Z" fill="currentColor"/>
</svg>
