<svg width="62" height="23" viewBox="0 0 62 23" fill="none" xmlns="http://www.w3.org/2000/svg">
<path d="M9.98363 21.89C9.59363 21.89 9.26363 21.857 8.99363 21.791C8.72963 21.731 8.51663 21.638 8.35462 21.512C8.19862 21.386 8.08462 21.224 8.01262 21.026C7.94062 20.834 7.90462 20.606 7.90462 20.342V18.209C7.90462 18.101 7.88062 18.008 7.83262 17.93C7.79062 17.852 7.72762 17.795 7.64362 17.759C7.55962 17.717 7.45762 17.702 7.33762 17.714V16.283C7.43962 16.271 7.53262 16.25 7.61662 16.22C7.70662 16.19 7.77862 16.142 7.83262 16.076C7.88662 16.004 7.91362 15.908 7.91362 15.788V14.096C7.91362 13.742 7.98562 13.442 8.12962 13.196C8.27362 12.944 8.49862 12.752 8.80463 12.62C9.11063 12.488 9.50363 12.422 9.98363 12.422V13.655C9.83963 13.655 9.72863 13.685 9.65063 13.745C9.57863 13.805 9.53063 13.913 9.50662 14.069C9.48262 14.219 9.47062 14.438 9.47062 14.726V16.058C9.47062 16.376 9.38662 16.607 9.21863 16.751C9.05663 16.889 8.83462 16.97 8.55262 16.994C8.83462 17.048 9.05663 17.15 9.21863 17.3C9.38063 17.45 9.46163 17.648 9.46163 17.894V19.793C9.46163 20.111 9.49163 20.345 9.55162 20.495C9.61163 20.651 9.75563 20.729 9.98363 20.729V21.89ZM34.5665 20V18.758L36.7085 16.598C36.8645 16.448 36.9935 16.307 37.0955 16.175C37.1975 16.043 37.2725 15.914 37.3205 15.788C37.3745 15.662 37.4015 15.53 37.4015 15.392C37.4015 15.248 37.3745 15.128 37.3205 15.032C37.2665 14.936 37.1795 14.864 37.0595 14.816C36.9455 14.768 36.7895 14.744 36.5915 14.744H34.6925V13.511C34.9865 13.451 35.3105 13.397 35.6645 13.349C36.0245 13.295 36.4325 13.268 36.8885 13.268C37.4105 13.268 37.8215 13.34 38.1215 13.484C38.4275 13.628 38.6435 13.841 38.7695 14.123C38.8955 14.399 38.9585 14.732 38.9585 15.122C38.9585 15.422 38.9195 15.695 38.8415 15.941C38.7635 16.181 38.6465 16.409 38.4905 16.625C38.3405 16.841 38.1545 17.06 37.9325 17.282L36.6185 18.605H39.1475V20H34.5665ZM41.9194 20.045C41.5294 20.045 41.1994 19.976 40.9294 19.838C40.6594 19.7 40.4584 19.499 40.3264 19.235C40.1944 18.971 40.1284 18.65 40.1284 18.272V15.122C40.1284 14.72 40.1974 14.384 40.3354 14.114C40.4794 13.838 40.6864 13.628 40.9564 13.484C41.2264 13.34 41.5504 13.268 41.9284 13.268H43.3504C43.7284 13.268 44.0434 13.343 44.2954 13.493C44.5534 13.637 44.7484 13.847 44.8804 14.123C45.0124 14.393 45.0784 14.726 45.0784 15.122V18.272C45.0784 18.836 44.9284 19.274 44.6284 19.586C44.3284 19.892 43.8994 20.045 43.3414 20.045H41.9194ZM42.2974 18.65H42.9184C43.1224 18.65 43.2724 18.602 43.3684 18.506C43.4704 18.404 43.5214 18.248 43.5214 18.038V15.284C43.5214 15.044 43.4704 14.882 43.3684 14.798C43.2724 14.708 43.1434 14.663 42.9814 14.663H42.2434C42.0574 14.663 41.9164 14.714 41.8204 14.816C41.7304 14.918 41.6854 15.074 41.6854 15.284V18.029C41.6854 18.251 41.7364 18.41 41.8384 18.506C41.9404 18.602 42.0934 18.65 42.2974 18.65ZM47.1173 20V14.744L46.0013 14.816V13.826L47.2973 13.268H48.6743V20H47.1173ZM51.8691 20.045C51.5271 20.045 51.2271 19.997 50.9691 19.901C50.7111 19.799 50.4951 19.628 50.3211 19.388C50.1531 19.148 50.0241 18.815 49.9341 18.389C49.8501 17.963 49.8081 17.429 49.8081 16.787C49.8081 16.109 49.8651 15.545 49.9791 15.095C50.0991 14.645 50.2701 14.285 50.4921 14.015C50.7141 13.745 50.9841 13.553 51.3021 13.439C51.6201 13.325 51.9831 13.268 52.3911 13.268C52.6971 13.268 52.9971 13.283 53.2911 13.313C53.5911 13.337 53.8611 13.379 54.1011 13.439V14.663H52.5621C52.1301 14.663 51.8211 14.783 51.6351 15.023C51.4551 15.263 51.3651 15.608 51.3651 16.058C51.4911 16.01 51.6201 15.974 51.7521 15.95C51.8841 15.926 52.0311 15.911 52.1931 15.905C52.3551 15.893 52.5411 15.887 52.7511 15.887C53.2071 15.887 53.5611 15.956 53.8131 16.094C54.0711 16.226 54.2481 16.412 54.3441 16.652C54.4461 16.886 54.4971 17.159 54.4971 17.471V18.434C54.4971 18.818 54.4251 19.13 54.2811 19.37C54.1431 19.604 53.9481 19.775 53.6961 19.883C53.4441 19.991 53.1501 20.045 52.8141 20.045H51.8691ZM52.1841 18.65H52.4451C52.5651 18.65 52.6581 18.632 52.7241 18.596C52.7961 18.554 52.8501 18.494 52.8861 18.416C52.9221 18.338 52.9401 18.236 52.9401 18.11V17.777C52.9401 17.621 52.9191 17.504 52.8771 17.426C52.8411 17.342 52.7751 17.285 52.6791 17.255C52.5891 17.225 52.4661 17.21 52.3101 17.21H51.3651C51.3651 17.498 51.3801 17.735 51.4101 17.921C51.4401 18.107 51.4881 18.254 51.5541 18.362C51.6201 18.47 51.7041 18.545 51.8061 18.587C51.9141 18.629 52.0401 18.65 52.1841 18.65ZM59.1045 21.89V20.729C59.3385 20.729 59.4825 20.651 59.5365 20.495C59.5965 20.345 59.6265 20.111 59.6265 19.793V17.894C59.6265 17.648 59.7075 17.45 59.8695 17.3C60.0315 17.15 60.2535 17.048 60.5355 16.994C60.2535 16.97 60.0285 16.889 59.8605 16.751C59.6985 16.607 59.6175 16.376 59.6175 16.058V14.726C59.6175 14.438 59.6055 14.219 59.5815 14.069C59.5575 13.913 59.5065 13.805 59.4285 13.745C59.3565 13.685 59.2485 13.655 59.1045 13.655V12.422C59.5845 12.422 59.9745 12.488 60.2745 12.62C60.5805 12.752 60.8055 12.944 60.9495 13.196C61.0995 13.442 61.1745 13.742 61.1745 14.096V15.788C61.1745 15.908 61.2015 16.004 61.2555 16.076C61.3095 16.142 61.3815 16.19 61.4715 16.22C61.5615 16.25 61.6545 16.271 61.7505 16.283V17.714C61.6305 17.702 61.5285 17.717 61.4445 17.759C61.3605 17.795 61.2945 17.852 61.2465 17.93C61.2045 18.008 61.1835 18.101 61.1835 18.209V20.342C61.1835 20.606 61.1475 20.834 61.0755 21.026C61.0035 21.224 60.8865 21.386 60.7245 21.512C60.5625 21.638 60.3495 21.731 60.0855 21.791C59.8215 21.857 59.4945 21.89 59.1045 21.89Z" fill="#F87B91"/>
<path d="M0.275156 6.497V5.255H4.30716V6.497H0.275156ZM0.275156 4.337V3.095H4.30716V4.337H0.275156ZM9.97969 9.89C9.68569 9.548 9.41269 9.155 9.16069 8.711C8.90869 8.273 8.70169 7.757 8.53969 7.163C8.38369 6.563 8.30569 5.864 8.30569 5.066C8.30569 4.304 8.38669 3.626 8.54869 3.032C8.71069 2.432 8.91769 1.904 9.16969 1.448C9.42769 0.985999 9.69769 0.59 9.97969 0.26H11.3567C11.1047 0.668 10.8647 1.115 10.6367 1.601C10.4087 2.087 10.2227 2.618 10.0787 3.194C9.93469 3.764 9.86269 4.388 9.86269 5.066C9.86269 5.732 9.92269 6.338 10.0427 6.884C10.1687 7.424 10.3427 7.934 10.5647 8.414C10.7867 8.9 11.0507 9.392 11.3567 9.89H9.97969ZM44.7203 9.89C44.9783 9.476 45.2183 9.026 45.4403 8.54C45.6683 8.054 45.8543 7.526 45.9983 6.956C46.1423 6.38 46.2143 5.756 46.2143 5.084C46.2143 4.412 46.1543 3.809 46.0343 3.275C45.9143 2.735 45.7403 2.222 45.5123 1.736C45.2903 1.25 45.0263 0.758 44.7203 0.26H46.0973C46.3973 0.596 46.6733 0.986 46.9253 1.43C47.1773 1.874 47.3783 2.393 47.5283 2.987C47.6843 3.581 47.7623 4.28 47.7623 5.084C47.7623 5.84 47.6813 6.518 47.5193 7.118C47.3633 7.712 47.1563 8.237 46.8983 8.693C46.6463 9.149 46.3793 9.548 46.0973 9.89H44.7203ZM51.7608 6.497V5.255H55.7928V6.497H51.7608ZM51.7608 4.337V3.095H55.7928V4.337H51.7608ZM57.6772 6.749V5.39L59.8912 4.832L57.6772 4.346V2.987L61.4122 4.157V5.525L57.6772 6.749ZM12.4074 22.133L12.9024 20C12.5904 20 12.3264 19.943 12.1104 19.829C11.8944 19.715 11.7174 19.559 11.5794 19.361C11.4474 19.157 11.3484 18.92 11.2824 18.65L10.4634 15.158H12.0744L12.7224 18.335C12.7464 18.425 12.7764 18.497 12.8124 18.551C12.8484 18.605 12.8874 18.647 12.9294 18.677C12.9774 18.701 13.0224 18.719 13.0644 18.731C13.1064 18.737 13.1424 18.74 13.1724 18.74L13.9104 15.158H15.4944L14.1624 21.242L13.7124 22.133H12.4074ZM18.4114 20.045C17.8714 20.045 17.4364 19.976 17.1064 19.838C16.7764 19.694 16.5364 19.445 16.3864 19.091C16.2424 18.731 16.1704 18.23 16.1704 17.588C16.1704 16.928 16.2364 16.418 16.3684 16.058C16.5064 15.692 16.7344 15.437 17.0524 15.293C17.3704 15.149 17.8024 15.077 18.3484 15.077C18.8464 15.077 19.2424 15.125 19.5364 15.221C19.8304 15.317 20.0404 15.488 20.1664 15.734C20.2984 15.98 20.3644 16.328 20.3644 16.778C20.3644 17.114 20.2984 17.381 20.1664 17.579C20.0344 17.777 19.8454 17.918 19.5994 18.002C19.3594 18.08 19.0744 18.119 18.7444 18.119H17.7094C17.7274 18.311 17.7634 18.464 17.8174 18.578C17.8774 18.692 17.9854 18.773 18.1414 18.821C18.2974 18.869 18.5284 18.893 18.8344 18.893H20.1934V19.802C19.9714 19.856 19.7164 19.91 19.4284 19.964C19.1464 20.018 18.8074 20.045 18.4114 20.045ZM17.6914 17.201H18.5734C18.7234 17.201 18.8314 17.171 18.8974 17.111C18.9634 17.051 18.9964 16.943 18.9964 16.787C18.9964 16.643 18.9754 16.529 18.9334 16.445C18.8914 16.355 18.8224 16.292 18.7264 16.256C18.6304 16.214 18.5044 16.193 18.3484 16.193C18.1924 16.193 18.0664 16.223 17.9704 16.283C17.8744 16.337 17.8024 16.439 17.7544 16.589C17.7124 16.733 17.6914 16.937 17.6914 17.201ZM22.4625 20.054C22.0905 20.054 21.7905 19.946 21.5625 19.73C21.3345 19.508 21.2205 19.208 21.2205 18.83V18.362C21.2205 17.996 21.3495 17.693 21.6075 17.453C21.8715 17.213 22.2825 17.093 22.8405 17.093H23.9385V16.859C23.9385 16.727 23.9145 16.619 23.8665 16.535C23.8185 16.451 23.7255 16.391 23.5875 16.355C23.4495 16.319 23.2365 16.301 22.9485 16.301H21.5265V15.41C21.7665 15.32 22.0455 15.248 22.3635 15.194C22.6875 15.134 23.0775 15.101 23.5335 15.095C23.9355 15.095 24.2835 15.143 24.5775 15.239C24.8715 15.335 25.0965 15.503 25.2525 15.743C25.4145 15.977 25.4955 16.313 25.4955 16.751V20H24.2625L24.0195 19.505C23.9655 19.553 23.8905 19.61 23.7945 19.676C23.7045 19.736 23.5905 19.796 23.4525 19.856C23.3205 19.916 23.1705 19.964 23.0025 20C22.8345 20.036 22.6545 20.054 22.4625 20.054ZM23.2635 18.983C23.3055 18.989 23.3535 18.986 23.4075 18.974C23.4675 18.962 23.5245 18.95 23.5785 18.938C23.6325 18.92 23.6835 18.905 23.7315 18.893C23.7855 18.875 23.8275 18.86 23.8575 18.848C23.8935 18.83 23.9205 18.818 23.9385 18.812V17.822L23.3625 17.876C23.1645 17.9 23.0145 17.954 22.9125 18.038C22.8165 18.116 22.7685 18.23 22.7685 18.38V18.569C22.7685 18.671 22.7895 18.755 22.8315 18.821C22.8735 18.881 22.9305 18.923 23.0025 18.947C23.0805 18.971 23.1675 18.983 23.2635 18.983ZM26.6364 20V15.158H27.8424L28.1934 15.86C28.3494 15.65 28.5294 15.47 28.7334 15.32C28.9374 15.164 29.1804 15.086 29.4624 15.086C29.5164 15.086 29.5764 15.089 29.6424 15.095C29.7144 15.101 29.7804 15.113 29.8404 15.131V16.724C29.7444 16.712 29.6454 16.703 29.5434 16.697C29.4414 16.691 29.3454 16.688 29.2554 16.688C29.0994 16.688 28.9554 16.706 28.8234 16.742C28.6974 16.772 28.5804 16.82 28.4724 16.886C28.3704 16.946 28.2774 17.027 28.1934 17.129V20H26.6364ZM32.4122 21.89C32.1182 21.548 31.8452 21.155 31.5932 20.711C31.3412 20.273 31.1342 19.757 30.9722 19.163C30.8162 18.563 30.7382 17.864 30.7382 17.066C30.7382 16.304 30.8192 15.626 30.9812 15.032C31.1432 14.432 31.3502 13.904 31.6022 13.448C31.8602 12.986 32.1302 12.59 32.4122 12.26H33.7892C33.5372 12.668 33.2972 13.115 33.0692 13.601C32.8412 14.087 32.6552 14.618 32.5112 15.194C32.3672 15.764 32.2952 16.388 32.2952 17.066C32.2952 17.732 32.3552 18.338 32.4752 18.884C32.6012 19.424 32.7752 19.934 32.9972 20.414C33.2192 20.9 33.4832 21.392 33.7892 21.89H32.4122ZM55.2222 21.89C55.4802 21.476 55.7202 21.026 55.9422 20.54C56.1702 20.054 56.3562 19.526 56.5002 18.956C56.6442 18.38 56.7162 17.756 56.7162 17.084C56.7162 16.412 56.6562 15.809 56.5362 15.275C56.4162 14.735 56.2422 14.222 56.0142 13.736C55.7922 13.25 55.5282 12.758 55.2222 12.26H56.5992C56.8992 12.596 57.1752 12.986 57.4272 13.43C57.6792 13.874 57.8802 14.393 58.0302 14.987C58.1862 15.581 58.2642 16.28 58.2642 17.084C58.2642 17.84 58.1832 18.518 58.0212 19.118C57.8652 19.712 57.6582 20.237 57.4002 20.693C57.1482 21.149 56.8812 21.548 56.5992 21.89H55.2222Z" fill="#453F9E"/>
<path d="M14.51 9.89C14.12 9.89 13.79 9.857 13.52 9.791C13.256 9.731 13.043 9.638 12.881 9.512C12.725 9.386 12.611 9.224 12.539 9.026C12.467 8.834 12.431 8.606 12.431 8.342V6.209C12.431 6.101 12.407 6.008 12.359 5.93C12.317 5.852 12.254 5.795 12.17 5.759C12.086 5.717 11.984 5.702 11.864 5.714V4.283C11.966 4.271 12.059 4.25 12.143 4.22C12.233 4.19 12.305 4.142 12.359 4.076C12.413 4.004 12.44 3.908 12.44 3.788V2.096C12.44 1.742 12.512 1.442 12.656 1.196C12.8 0.944 13.025 0.752 13.331 0.62C13.637 0.487999 14.03 0.421999 14.51 0.421999V1.655C14.366 1.655 14.255 1.685 14.177 1.745C14.105 1.805 14.057 1.913 14.033 2.069C14.009 2.219 13.997 2.438 13.997 2.726V4.058C13.997 4.376 13.913 4.607 13.745 4.751C13.583 4.889 13.361 4.97 13.079 4.994C13.361 5.048 13.583 5.15 13.745 5.3C13.907 5.45 13.988 5.648 13.988 5.894V7.793C13.988 8.111 14.018 8.345 14.078 8.495C14.138 8.651 14.282 8.729 14.51 8.729V9.89ZM41.5675 9.89V8.729C41.8015 8.729 41.9455 8.651 41.9995 8.495C42.0595 8.345 42.0895 8.111 42.0895 7.793V5.894C42.0895 5.648 42.1705 5.45 42.3325 5.3C42.4945 5.15 42.7165 5.048 42.9985 4.994C42.7165 4.97 42.4915 4.889 42.3235 4.751C42.1615 4.607 42.0805 4.376 42.0805 4.058V2.726C42.0805 2.438 42.0685 2.219 42.0445 2.069C42.0205 1.913 41.9695 1.805 41.8915 1.745C41.8195 1.685 41.7115 1.655 41.5675 1.655V0.421999C42.0475 0.421999 42.4375 0.487999 42.7375 0.62C43.0435 0.752 43.2685 0.944 43.4125 1.196C43.5625 1.442 43.6375 1.742 43.6375 2.096V3.788C43.6375 3.908 43.6645 4.004 43.7185 4.076C43.7725 4.142 43.8445 4.19 43.9345 4.22C44.0245 4.25 44.1175 4.271 44.2135 4.283V5.714C44.0935 5.702 43.9915 5.717 43.9075 5.759C43.8235 5.795 43.7575 5.852 43.7095 5.93C43.6675 6.008 43.6465 6.101 43.6465 6.209V8.342C43.6465 8.606 43.6105 8.834 43.5385 9.026C43.4665 9.224 43.3495 9.386 43.1875 9.512C43.0255 9.638 42.8125 9.731 42.5485 9.791C42.2845 9.857 41.9575 9.89 41.5675 9.89Z" fill="#84F7D4"/>
<path d="M15.3498 8V3.158H16.6368L16.9068 3.635C17.1048 3.485 17.3208 3.356 17.5548 3.248C17.7888 3.134 18.0888 3.077 18.4548 3.077C18.7548 3.077 19.0038 3.14 19.2018 3.266C19.3998 3.392 19.5498 3.551 19.6518 3.743C19.7838 3.647 19.9338 3.548 20.1018 3.446C20.2758 3.338 20.4618 3.251 20.6598 3.185C20.8638 3.113 21.0648 3.077 21.2628 3.077C21.6648 3.077 21.9768 3.152 22.1988 3.302C22.4208 3.446 22.5768 3.656 22.6668 3.932C22.7568 4.202 22.8018 4.526 22.8018 4.904V8H21.2448V5.048C21.2448 4.91 21.2208 4.799 21.1728 4.715C21.1248 4.631 21.0588 4.571 20.9748 4.535C20.8908 4.493 20.7888 4.472 20.6688 4.472C20.5188 4.472 20.3688 4.505 20.2188 4.571C20.0688 4.631 19.9398 4.706 19.8318 4.796C19.8378 4.844 19.8408 4.892 19.8408 4.94C19.8468 4.988 19.8498 5.033 19.8498 5.075V8H18.2928V5.048C18.2928 4.91 18.2688 4.799 18.2208 4.715C18.1728 4.631 18.1068 4.571 18.0228 4.535C17.9388 4.493 17.8398 4.472 17.7258 4.472C17.6238 4.472 17.5218 4.487 17.4198 4.517C17.3178 4.541 17.2248 4.577 17.1408 4.625C17.0568 4.673 16.9788 4.727 16.9068 4.787V8H15.3498ZM25.221 10.241C24.921 10.241 24.651 10.196 24.411 10.106C24.171 10.016 23.982 9.884 23.844 9.71C23.706 9.542 23.637 9.335 23.637 9.089V8.972C23.637 8.72 23.709 8.501 23.853 8.315C24.003 8.135 24.195 7.997 24.429 7.901C24.663 7.805 24.912 7.757 25.176 7.757L25.662 8.216C25.542 8.216 25.44 8.234 25.356 8.27C25.278 8.306 25.215 8.357 25.167 8.423C25.125 8.489 25.104 8.567 25.104 8.657V8.729C25.104 8.861 25.149 8.966 25.239 9.044C25.335 9.122 25.476 9.161 25.662 9.161H26.517C26.691 9.161 26.832 9.125 26.94 9.053C27.048 8.987 27.102 8.885 27.102 8.747V8.621C27.102 8.537 27.078 8.465 27.03 8.405C26.988 8.345 26.925 8.297 26.841 8.261C26.763 8.231 26.661 8.216 26.535 8.216H25.59C24.996 8.216 24.558 8.108 24.276 7.892C23.994 7.676 23.853 7.412 23.853 7.1C23.853 6.854 23.922 6.647 24.06 6.479C24.198 6.305 24.393 6.188 24.645 6.128C24.465 6.02 24.321 5.894 24.213 5.75C24.105 5.606 24.027 5.45 23.979 5.282C23.931 5.108 23.907 4.931 23.907 4.751C23.907 4.397 23.979 4.103 24.123 3.869C24.267 3.629 24.489 3.452 24.789 3.338C25.095 3.218 25.488 3.158 25.968 3.158H28.605V4.004L27.984 4.157C28.032 4.217 28.074 4.289 28.11 4.373C28.152 4.451 28.185 4.547 28.209 4.661C28.239 4.775 28.254 4.916 28.254 5.084C28.254 5.372 28.194 5.627 28.074 5.849C27.954 6.071 27.765 6.245 27.507 6.371C27.255 6.497 26.916 6.56 26.49 6.56H25.599C25.479 6.56 25.374 6.581 25.284 6.623C25.2 6.665 25.158 6.734 25.158 6.83C25.158 6.92 25.197 6.983 25.275 7.019C25.353 7.049 25.443 7.064 25.545 7.064H26.796C27.162 7.064 27.477 7.112 27.741 7.208C28.005 7.304 28.209 7.463 28.353 7.685C28.497 7.901 28.569 8.192 28.569 8.558V8.657C28.569 9.149 28.419 9.536 28.119 9.818C27.819 10.1 27.348 10.241 26.706 10.241H25.221ZM25.815 5.399H26.319C26.457 5.399 26.565 5.381 26.643 5.345C26.721 5.303 26.775 5.24 26.805 5.156C26.841 5.072 26.859 4.973 26.859 4.859C26.859 4.727 26.841 4.622 26.805 4.544C26.769 4.46 26.712 4.4 26.634 4.364C26.556 4.328 26.454 4.31 26.328 4.31H25.833C25.647 4.31 25.512 4.352 25.428 4.436C25.344 4.514 25.302 4.652 25.302 4.85C25.302 5.042 25.341 5.183 25.419 5.273C25.503 5.357 25.635 5.399 25.815 5.399ZM29.4689 8V3.158H30.7559L31.0259 3.635C31.2239 3.485 31.4399 3.356 31.6739 3.248C31.9079 3.134 32.2079 3.077 32.5739 3.077C32.8739 3.077 33.1229 3.14 33.3209 3.266C33.5189 3.392 33.6689 3.551 33.7709 3.743C33.9029 3.647 34.0529 3.548 34.2209 3.446C34.3949 3.338 34.5809 3.251 34.7789 3.185C34.9829 3.113 35.1839 3.077 35.3819 3.077C35.7839 3.077 36.0959 3.152 36.3179 3.302C36.5399 3.446 36.6959 3.656 36.7859 3.932C36.8759 4.202 36.9209 4.526 36.9209 4.904V8H35.3639V5.048C35.3639 4.91 35.3399 4.799 35.2919 4.715C35.2439 4.631 35.1779 4.571 35.0939 4.535C35.0099 4.493 34.9079 4.472 34.7879 4.472C34.6379 4.472 34.4879 4.505 34.3379 4.571C34.1879 4.631 34.0589 4.706 33.9509 4.796C33.9569 4.844 33.9599 4.892 33.9599 4.94C33.9659 4.988 33.9689 5.033 33.9689 5.075V8H32.4119V5.048C32.4119 4.91 32.3879 4.799 32.3399 4.715C32.2919 4.631 32.2259 4.571 32.1419 4.535C32.0579 4.493 31.9589 4.472 31.8449 4.472C31.7429 4.472 31.6409 4.487 31.5389 4.517C31.4369 4.541 31.3439 4.577 31.2599 4.625C31.1759 4.673 31.0979 4.727 31.0259 4.787V8H29.4689ZM39.9881 8C39.5981 8 39.2801 7.946 39.0341 7.838C38.7941 7.724 38.6231 7.538 38.5211 7.28C38.4191 7.022 38.3741 6.671 38.3861 6.227L38.4311 4.391H37.6841V3.401L38.4941 3.158L38.6921 1.799H39.9251V3.158H40.9781V4.391H39.9251V6.218C39.9251 6.32 39.9341 6.407 39.9521 6.479C39.9701 6.545 39.9971 6.602 40.0331 6.65C40.0691 6.692 40.1111 6.725 40.1591 6.749C40.2071 6.767 40.2611 6.779 40.3211 6.785L40.9331 6.848V8H39.9881Z" fill="#EDCA85"/>
</svg>
