<svg id="Capa_1" data-name="Capa 1" xmlns="http://www.w3.org/2000/svg" viewBox="0 0 476.52 193.58"><defs><style>.cls-1{fill:#84f7d4;}</style></defs><path class="cls-1" d="M54.35,4.24q13.21,0,21,2.18t11.18,7.66q3.38,5.49,3.37,15.47,0,10.41-4,15.82T72.49,51.63v.84Q84,53.46,88.58,60T93.15,78.2q0,10-3.58,15.47t-11.11,7.66q-7.51,2.17-19.47,2.18-10,0-17.51-.07t-13.78-.35q-6.25-.28-12.86-.7l2.1-17.72q3.66.14,13.71.28t23.56.14a25.85,25.85,0,0,0,7.8-.91,5.93,5.93,0,0,0,3.8-3.59,21.54,21.54,0,0,0,1-7.59,22.47,22.47,0,0,0-1.12-8,6.58,6.58,0,0,0-3.87-3.86,23,23,0,0,0-7.95-1.06H16.8V44.17H53.64a21.2,21.2,0,0,0,6.75-.84,5.48,5.48,0,0,0,3.38-3.24,18.9,18.9,0,0,0,1-6.88,17.31,17.31,0,0,0-1-6.61,5.57,5.57,0,0,0-3.52-3.1,23.84,23.84,0,0,0-7.17-.84q-8.43,0-14.76-.07t-11.46,0c-3.43.05-6.73.21-9.92.49L14.84,5.36c4-.37,7.92-.63,11.67-.77s7.87-.23,12.37-.28S48.53,4.24,54.35,4.24ZM40.57,5.36v97H14.84v-97Z" transform="translate(-8.51 -3.96)"/><path class="cls-1" d="M163,59.5l-.14,12.94H133a6.93,6.93,0,0,0-4.72,1.61,5.44,5.44,0,0,0-1.47,4v2.67a5.11,5.11,0,0,0,1.76,4.15,8,8,0,0,0,5.27,1.48,20.42,20.42,0,0,0,7.45-1.55A37,37,0,0,0,149,80.59a39.44,39.44,0,0,0,6.61-5.76v9a49.1,49.1,0,0,1-3.44,5.63,43.11,43.11,0,0,1-6,6.82,29.69,29.69,0,0,1-21,7.94A29.75,29.75,0,0,1,113.54,102,19.69,19.69,0,0,1,105,95.35a18.22,18.22,0,0,1-3.16-11v-7q0-8.44,6-13.15t16.24-4.71Zm-19.13-29a44.53,44.53,0,0,1,16,2.53,18.87,18.87,0,0,1,9.91,8.44q3.38,5.91,3.38,16.31v44.58H152.77l-3.51-15-1.69-2.53V57.67c-.1-2.9-.82-5-2.18-6.26s-3.82-1.89-7.38-1.89-8.16.07-13.5.21-10.92.4-16.73.77l-2.25-16.45q5.19-1,12.16-1.76t14-1.26Q138.72,30.53,143.91,30.53Z" transform="translate(-8.51 -3.96)"/><path class="cls-1" d="M220.68,30.53q4.08,0,9,.43a80,80,0,0,1,9.85,1.47,42,42,0,0,1,8.85,2.88L245.85,51.2q-6.32,0-11.39-.07c-3.37,0-6.51-.07-9.42-.07a20.68,20.68,0,0,0-8.43,1.41,8.11,8.11,0,0,0-4.36,4.85Q211,60.77,211,67.37a31.23,31.23,0,0,0,1.27,10.06,7.87,7.87,0,0,0,4.36,4.92A21.73,21.73,0,0,0,225,83.68c1.6,0,3.56,0,5.91-.07s4.92-.14,7.73-.28,5.63-.35,8.44-.63l2.39,16a47.94,47.94,0,0,1-13.71,4.15,100.62,100.62,0,0,1-15.4,1.19q-13.22,0-21.23-3.58a21.94,21.94,0,0,1-11.53-11.67q-3.51-8.08-3.51-21.45,0-13.64,3.58-21.65a22.28,22.28,0,0,1,11.6-11.6Q207.32,30.54,220.68,30.53Z" transform="translate(-8.51 -3.96)"/><path class="cls-1" d="M285.37,4V43.05a85.24,85.24,0,0,1-.64,10.26,61.38,61.38,0,0,1-2,10c.75,2.9,1.39,6,1.9,9.28a57.84,57.84,0,0,1,.78,9v20.82h-25.6V4Zm8.57,52.31v14.9H277.63V56.27ZM332.89,32.5,316.58,56a18.91,18.91,0,0,1-3.66,4.64,24,24,0,0,1-3.65,3v.56a18.08,18.08,0,0,1,3.65,3.37,28.75,28.75,0,0,1,3.66,5.07l18.84,29.81H307.16L285.22,63.44,304.77,32.5Z" transform="translate(-8.51 -3.96)"/><path class="cls-1" d="M24.54,139.75l12.09,2.11a4.47,4.47,0,0,0-2.46,2.74,4.34,4.34,0,0,0,.35,3.94q1.13,1.89,4.5,2.18L64.61,153q11.67,1,16.52,6.25T86,174.48q0,9.42-3.93,14.41T69.6,195.71q-8.5,1.83-22.42,1.83a136.38,136.38,0,0,1-19.48-1.13Q20.19,195.29,16,193a12.64,12.64,0,0,1-5.84-6.19,24.79,24.79,0,0,1-1.61-9.49,16.85,16.85,0,0,1,1.61-7.59A14.59,14.59,0,0,1,16,163.93a51.07,51.07,0,0,1,11.88-4.64l11.25-3.09,8.72,3.23-5.06,3.1c-2.63,1.87-4.69,3.33-6.19,4.36a13.41,13.41,0,0,0-3.23,2.88,6.43,6.43,0,0,0-1,3.87,5.38,5.38,0,0,0,1.27,3.86,7.66,7.66,0,0,0,4.43,1.83,59,59,0,0,0,8.64.49,67.34,67.34,0,0,0,9.35-.49,9,9,0,0,0,4.64-1.69,4.37,4.37,0,0,0,1.34-3.44A4.15,4.15,0,0,0,61,171a8,8,0,0,0-3.59-1.47q-2.46-.5-6.54-.92l-20.39-1.82a18.38,18.38,0,0,1-9.21-3.1,12.94,12.94,0,0,1-4.71-6.11,14.73,14.73,0,0,1-.7-7.25,13.54,13.54,0,0,1,2.88-6.53A12.07,12.07,0,0,1,24.54,139.75ZM46.33,99.53q12.8,0,20.32,2.25t10.83,7q3.3,4.78,3.3,12.94t-3.23,12.87q-3.24,4.84-10.9,7t-20.46,2.18q-12.66,0-20.32-2.18t-11-7q-3.37-4.86-3.38-12.87t3.45-12.87q3.43-4.84,11.1-7.1T46.33,99.53Zm-.14,14.63q-6.33,0-8.65,1.61c-1.54,1.08-2.32,3.08-2.32,6s.78,4.9,2.32,6,4.43,1.61,8.65,1.61,7.22-.53,8.72-1.61,2.25-3.07,2.25-6-.75-4.9-2.25-6S50.5,114.16,46.19,114.16ZM88.8,101.5l-1.27,9.85-19.12,3-5.2-12.8Z" transform="translate(-8.51 -3.96)"/><path class="cls-1" d="M117.06,101.5l3.09,14.06,2.53,1.83v54H97.09V101.5Zm34-2L148.83,123h-6.74a56.92,56.92,0,0,0-9.28.84q-5.07.84-12.8,2.81l-1.55-13.92a52.62,52.62,0,0,1,14.42-9.91,34.87,34.87,0,0,1,14.27-3.31Z" transform="translate(-8.51 -3.96)"/><path class="cls-1" d="M193.27,99.53q13.77,0,22.07,3.59a22.41,22.41,0,0,1,11.95,11.67q3.66,8.08,3.66,21.72T227.29,158a22.51,22.51,0,0,1-11.95,11.53q-8.29,3.58-22.07,3.58t-22.08-3.58A22.51,22.51,0,0,1,159.24,158q-3.66-8-3.66-21.45t3.66-21.72a22.41,22.41,0,0,1,11.95-11.67Q179.49,99.54,193.27,99.53Zm0,17.86a12,12,0,0,0-6.68,1.55c-1.55,1-2.65,2.91-3.31,5.62a55,55,0,0,0-1,11.95,54.12,54.12,0,0,0,1,11.82q1,4.08,3.31,5.55a12.5,12.5,0,0,0,6.68,1.48,13,13,0,0,0,6.75-1.48q2.39-1.47,3.3-5.55a57.7,57.7,0,0,0,.91-11.82,58.61,58.61,0,0,0-.91-11.95c-.61-2.71-1.71-4.59-3.3-5.62A12.44,12.44,0,0,0,193.27,117.39Z" transform="translate(-8.51 -3.96)"/><path class="cls-1" d="M267.79,101.5v44.29c-.09,2.16.37,3.71,1.41,4.64s2.71,1.41,5.06,1.41a26.49,26.49,0,0,0,7-1,55.86,55.86,0,0,0,9.07-3.66L292,160.28a56.85,56.85,0,0,1-14.48,9.84,36,36,0,0,1-14.9,3.23q-20.4,0-20.39-19.54V101.5Zm45.56,0v69.89H293.24l-3.09-14.07-2.53-1.68V101.5Z" transform="translate(-8.51 -3.96)"/><path class="cls-1" d="M347.94,101.5,351,115.56l2.25,1.83v54H327.69V101.5Zm31.63-2q20.25,0,20.25,19.55v52.31H374.23v-44.3c0-2.25-.45-3.79-1.34-4.64s-2.46-1.26-4.71-1.26a31.91,31.91,0,0,0-7.52,1,64.19,64.19,0,0,0-10.05,3.66l-1.27-13.22a56.11,56.11,0,0,1,15.05-9.77A38.47,38.47,0,0,1,379.57,99.53Z" transform="translate(-8.51 -3.96)"/><path class="cls-1" d="M437.93,99.53a47.1,47.1,0,0,1,14.62,2.25,25.88,25.88,0,0,1,11.67,7.74l-1.83,10.54c-2.44-.75-4.71-1.47-6.82-2.18a25.58,25.58,0,0,0-7.94-1,11.33,11.33,0,0,0-5.7,1.26q-2.18,1.27-3.23,5.28a51.68,51.68,0,0,0-1.06,12.16,44.23,44.23,0,0,0,1,10.9c.65,2.39,1.71,4,3.16,4.78a11.14,11.14,0,0,0,5.42,1.19,22,22,0,0,0,5.69-.63,19,19,0,0,0,4.43-1.83c1.41-.79,2.95-1.71,4.64-2.74l1.69,11.25a28.48,28.48,0,0,1-10,10.4q-6.6,4.23-17.15,4.22-13.63,0-19.4-9.77t-5.77-27.63q0-14.2,3-22t8.93-11Q429.21,99.54,437.93,99.53ZM485,73v98.43H464.78l-2.53-13.22-2.67-1.83V111.49l.84-1.83q-.42-4.36-.63-9.28c-.14-3.28-.21-6.52-.21-9.7V73Z" transform="translate(-8.51 -3.96)"/></svg>