<svg width="45" height="45" viewBox="0 0 45 45" fill="none" xmlns="http://www.w3.org/2000/svg">
<circle cx="22.5" cy="22.5" r="22.5" fill="#5055B9"/>
<path d="M8.276 29L12.7265 22.1805L8.4485 15.3725H12.117L15.1185 20.858L18.0395 15.3725H21.6735L17.3725 22.1805L21.777 29H18.1085L14.9805 23.503L11.91 29H8.276ZM23.3322 34.0945V15.3725H25.8392L26.5522 17.592V34.0945H23.3322ZM30.8877 29.0805C29.3237 29.0805 27.9744 28.7087 26.8397 27.965C25.705 27.2137 25.1377 26.401 25.1377 25.527L26.5522 24.0205C26.5522 24.8025 26.8704 25.4733 27.5067 26.033C28.1507 26.5927 28.9059 26.8725 29.7722 26.8725C30.7075 26.8725 31.432 26.5505 31.9457 25.9065C32.467 25.2548 32.7277 24.009 32.7277 22.169C32.7277 20.3443 32.467 19.1062 31.9457 18.4545C31.432 17.8028 30.7075 17.477 29.7722 17.477C28.9059 17.477 28.1507 17.7568 27.5067 18.3165C26.8704 18.8762 26.5522 19.5393 26.5522 20.306L25.1377 18.8225C25.1377 17.9485 25.705 17.1358 26.8397 16.3845C27.9744 15.6255 29.3237 15.246 30.8877 15.246C32.651 15.246 33.9429 15.844 34.7632 17.04C35.5835 18.236 35.9937 19.9418 35.9937 22.1575C35.9937 24.3655 35.5835 26.0713 34.7632 27.275C33.9429 28.4787 32.651 29.0805 30.8877 29.0805Z" fill="white"/>
</svg>
