<svg width="132" height="108" viewBox="0 0 132 108" fill="none" xmlns="http://www.w3.org/2000/svg">
<g clip-path="url(#clip0_17_1324)">
<path d="M109.833 97.125L119.037 79.2725C119.231 78.8962 119.756 78.9031 119.94 79.285L123.125 85.875L109.833 97.125Z" fill="#FF8F00"/>
<path d="M109.833 97.12L113.184 75.7456C113.272 75.1862 113.998 75.065 114.252 75.5675L120.708 88.37L109.833 97.12Z" fill="#FFA000"/>
<path d="M109.838 97.1162L109.959 97.0181L120.549 88.0549L117.562 82.1324L109.838 97.1162Z" fill="#FF6F00"/>
<path d="M109.833 97.125L125.944 81.0543C126.282 80.7175 126.845 80.9162 126.914 81.3962L129.167 97.125L120.104 102.589C119.736 102.803 119.287 102.803 118.919 102.589L109.833 97.125Z" fill="#FFC400"/>
</g>
<path d="M57.2917 81.75L59.4792 99.9792L53.632 94.132C52.765 93.265 52.5324 91.9474 53.0516 90.8361L57.2917 81.75Z" fill="#1565C0"/>
<path d="M69.9201 77.6076C69.3039 76.9915 68.4691 76.6459 67.5984 76.6459C67.0552 76.6459 66.52 76.7808 66.0417 77.0382L57.2917 81.75V96.5835C57.2917 97.3571 57.5986 98.0987 58.1462 98.6456L59.4792 99.9792H75.5208V96.3334L80.625 88.3125L69.9201 77.6076Z" fill="#42A5F5"/>
<path d="M57.2917 81.75H72.8543C73.6279 81.75 74.3695 82.057 74.9163 82.6046L80.625 88.3125V99.9792H75.5208L57.2917 81.75Z" fill="#1565C0"/>
<path d="M75.5208 99.9791H59.4792L63.8542 104.354H75.5208V99.9791Z" fill="#85CBF8"/>
<path d="M22.1936 103.742H13.871L6.24194 96.113L10.4032 91.9517L22.1936 103.742Z" fill="url(#paint0_linear_17_1324)"/>
<path d="M0 89.871L13.871 76H22.1935L4.16129 94.0323L0 89.871Z" fill="#50E6FF"/>
<path d="M22.1936 88.4839L10.4032 100.274L6.24194 96.1129L13.871 88.4839H22.1936Z" fill="#50E6FF"/>
<path d="M10.4027 91.9518L6.24158 96.113L10.4028 100.274L14.5639 96.1129L10.4027 91.9518Z" fill="#35C1F1"/>
<g clip-path="url(#clip1_17_1324)">
<path d="M48.3128 6.38544C47.6656 4.75032 46.7512 3.49579 45.5694 2.62184C44.3877 1.7197 42.5446 1.26863 40.0404 1.26863C38.6616 1.26863 37.4799 1.45188 36.4951 1.81837C35.5102 2.15667 34.6239 2.7487 33.8361 3.59446C33.0482 4.44021 32.4573 5.66655 32.0634 7.27349C31.6694 8.85222 31.4725 10.8116 31.4725 13.1515V17.2957C31.4725 19.6356 31.6694 21.609 32.0634 23.2159C32.4573 24.7947 33.0482 26.0069 33.8361 26.8527C34.6239 27.6984 35.5102 28.3045 36.4951 28.6711C37.4799 29.0094 38.6616 29.1785 40.0404 29.1785C42.5728 29.1785 44.5846 28.6428 46.0759 27.5716C47.5672 26.4721 48.3128 25.3021 48.3128 24.0617V16.9151H43.1215V15.6464H49.8323V23.6388C49.8323 25.5277 48.974 27.1346 47.2577 28.4596C45.5694 29.7846 43.1637 30.4471 40.0404 30.4471C36.5795 30.4471 34.0752 29.39 32.5277 27.2756C30.9801 25.133 30.2064 21.8064 30.2064 17.2957V13.1515C30.2064 8.64078 30.9801 5.32825 32.5277 3.21387C34.0752 1.07129 36.5795 0 40.0404 0C42.826 0 44.9082 0.521548 46.2869 1.56465C47.6656 2.57955 48.7349 4.03143 49.4946 5.92028L48.3128 6.38544ZM62.5039 6.80832C61.5473 6.49821 60.3656 6.34316 58.9586 6.34316C57.5518 6.34316 56.37 6.49821 55.4133 6.80832C54.4567 7.09024 53.5704 7.63998 52.7543 8.45754C51.9665 9.24691 51.3756 10.4169 50.9816 11.9674C50.5878 13.4898 50.3908 15.4209 50.3908 17.7608C50.3908 20.1007 50.5878 22.046 50.9816 23.5965C51.3756 25.1189 51.9665 26.2889 52.7543 27.1064C53.5704 27.8958 54.4567 28.4456 55.4133 28.7556C56.37 29.0376 57.5518 29.1785 58.9586 29.1785C60.3656 29.1785 61.5473 29.0376 62.5039 28.7556C63.4607 28.4456 64.333 27.8958 65.1207 27.1064C65.9368 26.2889 66.5417 25.1189 66.9356 23.5965C67.3296 22.046 67.5265 20.1007 67.5265 17.7608C67.5265 15.4209 67.3296 13.4898 66.9356 11.9674C66.5417 10.4169 65.9368 9.24691 65.1207 8.45754C64.333 7.63998 63.4607 7.09024 62.5039 6.80832ZM66.5135 27.4447C64.9941 29.4463 62.4759 30.4471 58.9586 30.4471C55.4415 30.4471 52.9231 29.4463 51.4037 27.4447C49.8843 25.4431 49.1246 22.2151 49.1246 17.7608C49.1246 13.3066 49.8843 10.0786 51.4037 8.07695C52.9231 6.07534 55.4415 5.07453 58.9586 5.07453C62.4759 5.07453 64.9941 6.07534 66.5135 8.07695C68.033 10.0786 68.7927 13.3066 68.7927 17.7608C68.7927 22.2151 68.033 25.4431 66.5135 27.4447ZM79.3209 17.7185L85.061 30.0243H83.6682L77.7593 17.338C77.8155 17.3097 78.0547 17.197 78.4768 16.9997C78.9269 16.7742 79.2365 16.6191 79.4053 16.5345C79.5742 16.4217 79.8555 16.2385 80.2495 15.9848C80.6433 15.731 80.9388 15.4914 81.1358 15.2659C81.3327 15.0121 81.5437 14.7302 81.7689 14.4201C82.0221 14.0818 82.205 13.7153 82.3176 13.3206C82.43 12.8977 82.4864 12.4466 82.4864 11.9674C82.4864 10.1913 81.6423 8.88042 79.954 8.03466C78.2658 7.18891 76.1695 6.76603 73.6653 6.76603H70.2888V30.0243H69.0226V5.4974H73.6653C76.9854 5.4974 79.4897 6.07534 81.178 7.2312C82.8943 8.38706 83.7526 9.96581 83.7526 11.9674C83.7526 13.2643 83.3164 14.4201 82.4442 15.435C81.5719 16.4217 80.5308 17.1829 79.3209 17.7185ZM84.0322 5.4974H85.2984V30.0243H84.0322V5.4974ZM100.65 28.7556V30.0243H86.553V5.4974H87.8191V28.7556H100.65ZM112.856 28.7556V30.0243H98.7598V5.4974H100.026V28.7556H112.856ZM113.203 28.7556H126.963L118.31 8.33068L109.109 30.0243H107.759L118.31 5.07453L128.862 30.0243H113.203V28.7556Z" fill="white"/>
<path d="M71.5263 36.9383C70.879 35.3031 69.9646 34.0487 68.7829 33.1747C67.6011 32.2726 65.7581 31.8215 63.2539 31.8215C61.8751 31.8215 60.6933 32.0047 59.7085 32.3712C58.7237 32.7095 57.8373 33.3016 57.0495 34.1473C56.2617 34.9931 55.6708 36.2194 55.2769 37.8263C54.8829 39.405 54.686 41.3644 54.686 43.7043V47.8485C54.686 50.1884 54.8829 52.1619 55.2769 53.7688C55.6708 55.3475 56.2617 56.5598 57.0495 57.4055C57.8373 58.2513 58.7237 58.8574 59.7085 59.2239C60.6933 59.5622 61.8751 59.7314 63.2539 59.7314C65.7862 59.7314 67.798 59.1957 69.2893 58.1244C70.7806 57.025 71.5263 55.855 71.5263 54.6146V47.4679H66.3349V46.1993H73.0457V54.1917C73.0457 56.0806 72.1874 57.6875 70.4711 59.0125C68.7829 60.3375 66.3771 61 63.2539 61C59.7929 61 57.2886 59.9428 55.7411 57.8284C54.1935 55.6858 53.4198 52.3592 53.4198 47.8485V43.7043C53.4198 39.1936 54.1935 35.8811 55.7411 33.7667C57.2886 31.6241 59.7929 30.5529 63.2539 30.5529C66.0395 30.5529 68.1216 31.0744 69.5004 32.1175C70.879 33.1324 71.9483 34.5842 72.708 36.4731L71.5263 36.9383ZM86.6459 48.2714L92.386 60.5771H90.9932L85.0843 47.8908C85.1406 47.8626 85.3797 47.7499 85.8018 47.5525C86.252 47.327 86.5615 47.1719 86.7303 47.0873C86.8992 46.9745 87.1806 46.7913 87.5745 46.5376C87.9685 46.2839 88.2639 46.0442 88.4608 45.8187C88.6578 45.565 88.8688 45.283 89.0939 44.973C89.3471 44.6347 89.5301 44.2681 89.6426 43.8735C89.7552 43.4506 89.8114 42.9995 89.8114 42.5203C89.8114 40.7442 88.9673 39.4333 87.279 38.5875C85.5908 37.7418 83.4946 37.3189 80.9903 37.3189H77.6138V60.5771H76.3476V36.0503H80.9903C84.3105 36.0503 86.8148 36.6282 88.503 37.7841C90.2194 38.9399 91.0776 40.5187 91.0776 42.5203C91.0776 43.8171 90.6415 44.973 89.7692 45.9879C88.897 46.9745 87.8559 47.7357 86.6459 48.2714ZM96.5486 59.3085H110.308L101.656 38.8835L92.4546 60.5771H91.104L101.656 35.6274L112.207 60.5771H96.5486V59.3085ZM119.301 60.5771H113.224V36.0503H117.866C121.187 36.0503 123.691 36.6282 125.379 37.7841C127.096 38.9399 127.953 40.5187 127.953 42.5203C127.953 44.9166 126.898 46.6504 124.788 47.7217C126.336 48.2573 127.489 49.0608 128.249 50.1321C129.009 51.1752 129.388 52.3874 129.388 53.7688C129.388 55.7986 128.544 57.4478 126.856 58.7165C125.196 59.9569 122.678 60.5771 119.301 60.5771ZM119.301 59.3085C121.778 59.3085 123.859 58.8574 125.548 57.9553C127.264 57.0532 128.122 55.6577 128.122 53.7688C128.122 52.8948 127.799 51.9504 127.152 50.9355C126.505 49.8924 125.506 49.1312 124.155 48.652L121.96 47.8908L123.986 46.8336C124.69 46.4671 125.309 45.9173 125.843 45.1844C126.407 44.4232 126.687 43.5352 126.687 42.5203C126.687 40.7442 125.843 39.4333 124.155 38.5875C122.467 37.7418 120.371 37.3189 117.866 37.3189H114.49V59.3085H119.301Z" fill="#EE5F8A" fill-opacity="0.772549"/>
<path fill-rule="evenodd" clip-rule="evenodd" d="M24.9599 22.793C26.1151 22.4817 27.2319 22.7449 28.2825 23.4068C29.3701 24.0921 30.3909 25.2065 31.3235 26.5636C33.1747 29.2579 34.6956 32.9346 35.7056 36.201H35.709H35.7143H35.7145H35.7153H35.7196H35.7232H35.7248H35.729H35.7301H35.7317H35.7353H35.74H35.7406H35.7428H35.7456H35.7482H35.7508H35.7559H35.7561H35.7568H35.7608H35.7638H35.7659H35.7708H35.7712H35.7714H35.7757H35.7788H35.7806H35.7854H35.7856H35.786H35.7902H35.793H35.7949H35.7995H35.7999H35.8003H35.8042H35.8066H35.8088H35.8131H35.8133H35.8153H35.8178H35.8195H35.8222H35.8256H35.8266H35.8305H35.8309H35.8316H35.8351H35.8374H35.8393H35.8431H35.8434H35.8459H35.8476H35.8486H35.8515H35.854H35.8555H35.8592H35.8594H35.8615H35.8632H35.8641H35.8669H35.869H35.8706H35.8737H35.8741H35.8773H35.8776H35.8782H35.8811H35.8826H35.8845H35.8868H35.8879H35.8908H35.891H35.8935H35.8942H35.8947H35.8973H35.8985H35.9003H35.9021H35.9032H35.9056H35.906H35.9088H35.9089H35.9097H35.9114H35.912H35.914H35.9151H35.9165H35.9179H35.9189H35.9207H35.9212H35.9232H35.9234H35.9255H35.9263H35.9275H35.928H35.9295H35.9301H35.9313H35.9322H35.9331H35.934H35.9347H35.9358H35.9363H35.9374H35.9377H35.9388H35.939H35.9402H35.9403H35.9415H35.9424H35.9425H35.943H35.9434H35.9435H35.9442H35.9448H35.9451H35.9455H35.946H35.9463H35.9464H35.9466H35.9467H35.9601H35.9773H35.9949H36.0126H36.0305H36.0488H36.0672H36.0859H36.1049H36.1241H36.1435H36.1632H36.1831H36.2034H36.2237H36.2445H36.2654H36.2866H36.3081H36.3299H36.3518H36.3741H36.3966H36.4193H36.4423H36.4657H36.4892H36.513H36.5372H36.5616H36.5862H36.6112H36.6363H36.6618H36.6876H36.7135H36.7399H36.7665H36.7933H36.8205H36.8479H36.8757H36.9037H36.9319H36.9605H36.9894H37.0186H37.0481H37.0779H37.1078H37.1382H37.1689H37.1998H37.2311H37.2626H37.2945H37.3267H37.3591H37.3919H37.4249H37.4584H37.492H37.526H37.5604H37.595H37.6299H37.6652H37.7007H37.7367H37.7729H37.8094H37.8463H37.8835H37.921H37.9588H37.997H38.0355H38.0744H38.1135H38.153H38.1927H38.2329H38.2735H38.3143H38.3555H38.3969H38.4388H38.481H38.5235H38.5664H38.6096H38.6532H38.6971H38.7413H38.786H38.8309H38.8763H38.922H38.968H39.0144H39.0611H39.1082H39.1557H39.2035H39.2517H39.3002H39.3492H39.3985H39.4482H39.4982H39.5486H39.5994H39.6504H39.702H39.7539H39.8062H39.8588H39.9118H39.9652H40.019H40.0731H40.1277H40.1827H40.238H40.2937H40.3498H40.4063H40.4631H40.5204H40.5781H40.6362H40.6946H40.7535H40.8127H40.8724H40.9325H40.9929H41.0537H41.115H41.1767H41.2388H41.3012H41.3641H41.4274H41.4912H41.5553H41.6198H41.6848H41.7502H41.8159H41.8822H41.9488H42.0159H42.0833H42.1513H42.2196H42.2883H42.3576C45.3451 36.201 47.6091 37.2104 49.32 38.8539C51.0283 40.4948 52.1795 42.7619 52.9562 45.2701C54.5092 50.2847 54.5755 56.2967 54.5755 60.2926C54.5755 60.3509 54.5282 60.3983 54.47 60.3983H45.0495C43.5624 60.3983 42.6322 60.1208 42.1311 59.6402C41.62 59.1501 41.5805 58.4763 41.8025 57.7626C42.0241 57.0503 42.5116 56.2748 43.093 55.5421C43.6545 54.8346 44.309 54.1606 44.9109 53.6128C44.2228 52.5793 43.4397 51.1701 42.9752 49.821C42.7223 50.0572 42.4693 50.3007 42.215 50.5455C41.67 51.0702 41.1192 51.6003 40.5509 52.0746C39.6726 52.8076 38.7371 53.4211 37.6806 53.6989C35.5768 54.252 33.048 53.4627 29.5995 49.8235C28.4142 52.607 26.0434 53.6043 24.0399 53.7914C24.3782 53.9165 24.6394 54.0832 24.8315 54.2858C25.2959 54.7757 25.331 55.4462 25.1299 56.1573C24.9288 56.8685 24.4861 57.6436 23.9573 58.3765C23.4275 59.1109 22.8067 59.8092 22.2425 60.3678C22.2228 60.3873 22.1961 60.3983 22.1683 60.3983C21.8509 60.3983 21.5414 60.3985 21.2397 60.3988C18.2305 60.4013 15.9917 60.4031 14.4083 60.1512C13.5359 60.0125 12.8505 59.7954 12.3409 59.451C11.8273 59.104 11.498 58.6318 11.3323 57.9984C11.1677 57.3692 11.1649 56.5837 11.2949 55.6067C11.4249 54.6287 11.6891 53.4505 12.0645 52.0326C12.5039 50.3725 13.0977 48.3768 13.8106 45.9809C14.3039 44.3228 14.8544 42.4731 15.45 40.4102H7.36286C3.28383 40.4102 0.527588 37.7135 0.527588 34.9742C0.527588 33.8705 1.2198 32.5132 2.239 31.4368C3.25928 30.3593 4.63102 29.5383 6.0169 29.5383C6.33117 29.5383 6.50026 29.4418 6.59014 29.2992C6.6856 29.1477 6.71051 28.9166 6.66942 28.6093C6.58746 27.9962 6.25758 27.1716 5.919 26.3273L5.9142 26.3154C5.58133 25.4853 5.24111 24.637 5.15523 23.9945C5.1122 23.6726 5.12934 23.3792 5.26523 23.1637C5.40667 22.9392 5.65819 22.826 6.0169 22.826H8.59869C8.58653 22.6713 8.55097 22.4651 8.50024 22.2144C8.46692 22.0498 8.42825 21.8714 8.38669 21.6797C8.34921 21.5066 8.30937 21.3229 8.26901 21.1287C8.10053 20.3178 7.93032 19.3588 7.93031 18.4406C7.93031 17.5238 8.09983 16.6316 8.62616 15.9674C9.15632 15.2984 10.0324 14.8802 11.4007 14.8802C14.6573 14.8802 18.0418 16.2142 20.6104 17.8769C21.8953 18.7086 22.9801 19.6251 23.7451 20.5032C24.4565 21.3198 24.9047 22.1185 24.9599 22.793ZM24.7526 22.855C23.4426 23.2848 22.1067 24.4549 20.77 26.5703C19.4063 28.7285 18.034 31.883 16.6837 36.2756C16.2575 37.6617 15.8667 38.9678 15.5111 40.1987H7.36286C3.42052 40.1987 0.810337 37.6363 0.740074 35.0799H6.0169C6.07518 35.0799 6.12241 35.0327 6.12241 34.9742C6.12241 34.9158 6.07518 34.8685 6.0169 34.8685H0.74087C0.783423 33.8574 1.42631 32.6023 2.39209 31.5824C3.39073 30.5278 4.7109 29.7498 6.0169 29.7498C6.37562 29.7498 6.62715 29.6365 6.76858 29.4121C6.90446 29.1964 6.92162 28.9032 6.87858 28.5813C6.7927 27.9388 6.45248 27.0904 6.11961 26.2604L6.11482 26.2484C5.77623 25.4042 5.44634 24.5796 5.36439 23.9665C5.3233 23.6591 5.3482 23.4281 5.44366 23.2766C5.53356 23.1339 5.70264 23.0374 6.0169 23.0374H8.7088H10.0548C10.113 23.0374 10.1603 22.9901 10.1603 22.9317C10.1603 22.8733 10.113 22.826 10.0548 22.826H8.81027C8.79797 22.6517 8.75875 22.4279 8.70706 22.1724C8.67394 22.0088 8.63449 21.8266 8.59239 21.6323C8.5547 21.4583 8.5149 21.2746 8.47562 21.0855C8.30761 20.277 8.14135 19.3359 8.14134 18.4406C8.14134 17.5436 8.30832 16.7086 8.79144 16.0989C9.27075 15.4941 10.0771 15.0917 11.4007 15.0917C14.6047 15.0917 17.9499 16.4064 20.4959 18.0545C21.7683 18.878 22.837 19.7823 23.5862 20.6424C24.309 21.4721 24.7204 22.2444 24.7526 22.855ZM23.3394 53.8254C22.9086 53.8271 22.5064 53.7929 22.1511 53.7343C22.097 53.7253 22.0587 53.6761 22.0631 53.6213C22.0676 53.5665 22.1133 53.5242 22.1683 53.5242C22.6202 53.5242 23.016 53.5552 23.36 53.6144C25.4528 53.6014 28.2143 52.715 29.4664 49.5928C29.886 48.5465 30.1385 47.245 30.1385 45.6346C30.1385 45.5763 30.1857 45.5289 30.244 45.5289C30.3023 45.5289 30.3496 45.5763 30.3496 45.6346C30.3496 47.2354 30.1035 48.5443 29.6871 49.6088C33.1508 53.2878 35.623 54.0212 37.627 53.4944C38.6401 53.228 39.5477 52.6367 40.4159 51.9122C40.9791 51.4421 41.5194 50.9218 42.0603 50.4011C42.3396 50.1321 42.6191 49.863 42.9021 49.6006C42.5727 48.5694 42.438 47.5666 42.716 46.8101C42.8593 46.42 43.1121 46.0967 43.4989 45.8727C43.8837 45.6498 44.3945 45.5289 45.0495 45.5289C45.1077 45.5289 45.155 45.5763 45.155 45.6346C45.155 45.6931 45.1077 45.7403 45.0495 45.7403C44.4188 45.7403 43.9478 45.8569 43.6045 46.0558C43.2632 46.2535 43.0415 46.5362 42.9139 46.8832C42.6561 47.5851 42.7821 48.5551 43.1235 49.5994C43.5825 51.0035 44.4169 52.5015 45.1369 53.5708C45.1664 53.6145 45.1591 53.6733 45.12 53.7086C44.5066 54.2607 43.8322 54.9505 43.2582 55.6737C42.683 56.3985 42.2143 57.1499 42.0041 57.8255C41.7942 58.4999 41.8474 59.0754 42.2769 59.4875C42.7166 59.9091 43.5753 60.1869 45.0495 60.1869H54.3645C54.3632 56.1884 54.2832 50.2686 52.7546 45.3328C51.9838 42.8438 50.8471 40.6137 49.174 39.0064C47.5033 37.4018 45.2922 36.4124 42.3576 36.4124H42.2883H42.2196H42.1513H42.0833H42.0159H41.9488H41.8822H41.8159H41.7502H41.6848H41.6198H41.5553H41.4912H41.4274H41.3641H41.3012H41.2388H41.1767H41.115H41.0537H40.9929H40.9325H40.8724H40.8127H40.7535H40.6946H40.6362H40.5781H40.5204H40.4631H40.4063H40.3498H40.2937H40.238H40.1827H40.1277H40.0731H40.019H39.9652H39.9118H39.8588H39.8062H39.7539H39.702H39.6504H39.5994H39.5486H39.4982H39.4482H39.3985H39.3492H39.3002H39.2517H39.2035H39.1557H39.1082H39.0611H39.0144H38.968H38.922H38.8763H38.8309H38.786H38.7413H38.6971H38.6532H38.6096H38.5664H38.5235H38.481H38.4388H38.3969H38.3555H38.3143H38.2735H38.2329H38.1927H38.153H38.1135H38.0744H38.0355H37.997H37.9588H37.921H37.8835H37.8463H37.8094H37.7729H37.7367H37.7007H37.6652H37.6299H37.595H37.5604H37.526H37.492H37.4584H37.4249H37.3919H37.3591H37.3267H37.2945H37.2626H37.2311H37.1998H37.1689H37.1382H37.1078H37.0779H37.0481H37.0186H36.9894H36.9605H36.9319H36.9037H36.8757H36.8479H36.8205H36.7933H36.7665H36.7399H36.7135H36.6876H36.6618H36.6363H36.6112H36.5862H36.5616H36.5372H36.513H36.4892H36.4657H36.4423H36.4193H36.3966H36.3741H36.3518H36.3299H36.3081H36.2866H36.2654H36.2445H36.2237H36.2034H36.1831H36.1632H36.1435H36.1241H36.1049H36.0859H36.0672H36.0488H36.0305H36.0126H35.9949H35.9773H35.9601H35.9467H35.9466H35.9465H35.9463H35.9461H35.9456H35.9451H35.9448H35.9443H35.9435H35.9434H35.943H35.9425H35.9424H35.9415H35.9403H35.9402H35.939H35.9388H35.9377H35.9374H35.9363H35.9358H35.9347H35.934H35.9331H35.9322H35.9313H35.9301H35.9295H35.928H35.9275H35.9263H35.9256H35.9234H35.9232H35.9212H35.9207H35.9189H35.9179H35.9165H35.9151H35.914H35.912H35.9114H35.9097H35.9089H35.9088H35.906H35.9056H35.9032H35.9021H35.9003H35.8985H35.8973H35.8947H35.8942H35.8935H35.891H35.8908H35.8879H35.8868H35.8845H35.8826H35.8811H35.8782H35.8776H35.8773H35.8741H35.8737H35.8706H35.869H35.8669H35.8641H35.8632H35.8615H35.8594H35.8592H35.8555H35.854H35.8515H35.8486H35.8476H35.8459H35.8434H35.8431H35.8393H35.8374H35.8351H35.8316H35.8309H35.8305H35.8266H35.8256H35.8222H35.8195H35.8178H35.8153H35.8133H35.8131H35.8088H35.8066H35.8042H35.8003H35.7999H35.7995H35.7949H35.793H35.7902H35.786H35.7856H35.7854H35.7806H35.7788H35.7757H35.7714H35.7712H35.7708H35.7659H35.7638H35.7608H35.7568H35.7561H35.7559H35.7508H35.7482H35.7456H35.7428H35.7406H35.74H35.7353H35.7317H35.7301H35.729H35.7248H35.7232H35.7196H35.7153H35.7145H35.7143H35.709H35.7056H35.7036H35.7019H35.6983H35.6966H35.6929H35.6888H35.6874H35.6819H35.6779H35.6764H35.6758H35.6709H35.6683H35.6654H35.663H35.66H35.6585H35.6544H35.6505H35.6488H35.6485H35.6432H35.6382H35.6376H35.632H35.6278H35.6264H35.626H35.6208H35.6151H35.6141H35.6095H35.6039H35.6023H35.5982H35.5925H35.5908H35.5869H35.5812H35.5795H35.5756H35.5699H35.5685H35.5644H35.5587H35.5576H35.5531H35.5475H35.5468H35.5418H35.5364H35.5362H35.5306H35.5261H35.525H35.5194H35.5159H35.5139H35.5083H35.5061H35.5028H35.4972H35.4964H35.4918H35.4868H35.4864H35.4809H35.4775H35.4755H35.47H35.4684H35.4646H35.4595H35.454H35.4507H35.4487H35.4434H35.4422H35.4383H35.4337H35.4331H35.4279H35.4256H35.4228H35.4177H35.4176H35.4126H35.4097H35.4076H35.4026H35.4021H35.3976H35.3946H35.3928H35.3879H35.3873H35.3832H35.3802H35.3784H35.3737H35.3733H35.369H35.3665H35.3644H35.36H35.3599H35.3553H35.3535H35.3509H35.3473H35.3465H35.3421H35.3412H35.3379H35.3353H35.3337H35.3296H35.3295H35.3254H35.324H35.3214H35.3186H35.3173H35.3134H35.3096H35.3083H35.3058H35.3034H35.3021H35.2987H35.2985H35.2949H35.294H35.2914H35.2896H35.288H35.2853H35.2846H35.2814H35.2811H35.2781H35.2772H35.275H35.2734H35.272H35.2698H35.269H35.2663H35.2662H35.2633H35.2629H35.2606H35.2596H35.258H35.2566H35.2554H35.2536H35.253H35.2509H35.2507H35.2483H35.2482H35.2462H35.2457H35.2441H35.2434H35.2421H35.2412H35.2402H35.2392H35.2384H35.2371H35.2367H35.2354H35.2351H35.2337H35.2336H35.2322H35.2309H35.2307H35.2297H35.2294H35.2286H35.2284H35.2277H35.2273H35.2267H35.2265H35.226H35.2256H35.2253H35.225H35.2248H35.2246H35.2244H35.2242H35.224H35.2239C35.2239 36.3757 35.2238 36.3389 35.2238 36.3067C35.2238 36.2744 35.2238 36.2376 35.2238 36.201H35.224H35.2242H35.2244H35.2246H35.2248H35.225H35.2253H35.2256H35.226H35.2265H35.2267H35.2273H35.2277H35.2284H35.2286H35.2294H35.2297H35.2307H35.2309H35.2322H35.2336H35.2337H35.2351H35.2354H35.2367H35.2371H35.2384H35.2392H35.2402H35.2412H35.2421H35.2434H35.2441H35.2457H35.2462H35.2482H35.2483H35.2507H35.2509H35.253H35.2536H35.2554H35.2566H35.258H35.2596H35.2606H35.2629H35.2633H35.2662H35.2663H35.269H35.2698H35.272H35.2734H35.275H35.2772H35.2781H35.2811H35.2814H35.2846H35.2853H35.288H35.2896H35.2914H35.294H35.2949H35.2985H35.2987H35.3021H35.3034H35.3058H35.3083H35.3096H35.3133H35.3173H35.3186H35.3214H35.324H35.3254H35.3295H35.3296H35.3337H35.3353H35.3379H35.3412H35.3421H35.3465H35.3473H35.3509H35.3535H35.3553H35.3599H35.36H35.3644H35.3665H35.369H35.3733H35.3737H35.3784H35.3802H35.3832H35.3873H35.3879H35.3928H35.3946H35.3976H35.4021H35.4026H35.4076H35.4097H35.4126H35.4176H35.4177H35.4228H35.4256H35.4279H35.4331H35.4337H35.4383H35.4422H35.4434H35.4487H35.4507H35.454H35.4594H35.4646H35.4684H35.47H35.4755H35.4775H35.4809H35.4847C34.478 32.9608 32.9724 29.3362 31.1496 26.6836C30.2252 25.3383 29.2237 24.2496 28.1701 23.5859C27.1193 22.9238 26.0211 22.6866 24.891 23.0328C23.626 23.4204 22.2991 24.5457 20.9483 26.6834C19.5986 28.8195 18.2329 31.9543 16.8854 36.3378C16.4507 37.7517 16.0528 39.082 15.6918 40.3337C15.0796 42.4563 14.5154 44.3522 14.0113 46.0466C13.2994 48.4389 12.7073 50.4291 12.2684 52.0869C11.8938 53.502 11.6324 54.6699 11.5041 55.6346C11.3756 56.6002 11.3819 57.3542 11.5365 57.9448C11.6899 58.531 11.99 58.9588 12.4589 59.2757C12.9317 59.5952 13.582 59.8057 14.4413 59.9424C16.0073 60.1914 18.228 60.1897 21.2467 60.1874C21.5323 60.1871 21.825 60.1869 22.1248 60.1869C22.674 59.6402 23.2741 58.9626 23.7863 58.2527C24.309 57.5281 24.7355 56.7764 24.9269 56.0997C25.1184 55.4226 25.0694 54.8438 24.6785 54.4315C24.4158 54.1543 23.9871 53.9392 23.3394 53.8254Z" fill="#FEFEFE"/>
<path d="M24.9599 22.793L25.097 23.3035L24.4858 23.4682L24.4341 22.8362L24.9599 22.793ZM35.7056 36.201V36.7296H35.3168L35.2017 36.3575L35.7056 36.201ZM44.9109 53.6129L45.3498 53.3195L45.6019 53.6982L45.2656 54.0042L44.9109 53.6129ZM42.9752 49.821L42.6156 49.4343L43.2094 48.88L43.474 49.6487L42.9752 49.821ZM29.5994 49.8236L29.1142 49.6161L29.4292 48.8763L29.982 49.4597L29.5994 49.8236ZM24.0399 53.7914L23.8572 54.2872L23.991 53.2651L24.0399 53.7914ZM15.45 40.4102V39.8816H16.1519L15.9568 40.5572L15.45 40.4102ZM5.91899 26.3273L6.40849 26.1301L6.40852 26.1302L5.91899 26.3273ZM5.91419 26.3154L5.42469 26.5126L5.42466 26.5125L5.91419 26.3154ZM5.26522 23.1637L5.71132 23.4459V23.446L5.26522 23.1637ZM8.59868 22.826L9.12463 22.7845L9.16943 23.3546H8.59868V22.826ZM24.7526 22.855L25.2794 22.827L25.3008 23.2313L24.9169 23.3573L24.7526 22.855ZM15.5111 40.1988L16.0179 40.3457L15.9076 40.7274H15.5111V40.1988ZM0.740064 35.0799L0.212687 35.0945L0.197758 34.5514H0.740064V35.0799ZM0.74086 34.8685V35.3971H0.190571L0.213749 34.8463L0.74086 34.8685ZM8.81026 22.826V23.3546H8.31864L8.28399 22.8632L8.81026 22.826ZM23.3394 53.8255L23.3373 53.2969L23.3843 53.2966L23.4305 53.3048L23.3394 53.8255ZM23.36 53.6144L23.3633 54.143L23.3165 54.1434L23.2705 54.1354L23.36 53.6144ZM29.6871 49.6088L29.3034 49.9716L29.074 49.7279L29.196 49.416L29.6871 49.6088ZM42.9021 49.6006L43.4046 49.4395L43.5069 49.7598L43.2604 49.9885L42.9021 49.6006ZM54.3645 60.1869L54.8921 60.1867L54.8923 60.7155H54.3645V60.1869ZM35.2237 36.4124V36.941H34.6962V36.4124H35.2237ZM35.2237 36.201H34.6962V35.6724H35.2237V36.201ZM35.4847 36.201L35.9884 36.0439L36.2014 36.7296H35.4847V36.201ZM22.1248 60.1869L22.4968 60.5619L22.3424 60.7155H22.1249L22.1248 60.1869ZM24.8229 22.2825C26.1519 21.9245 27.4194 22.2387 28.5634 22.9594L28.0016 23.8544C27.0445 23.2513 26.0783 23.0391 25.097 23.3035L24.8229 22.2825ZM28.5634 22.9594C29.736 23.6982 30.8051 24.8772 31.758 26.2639L30.8888 26.8635C29.9767 25.5359 29.0041 24.4859 28.0016 23.8544L28.5634 22.9594ZM31.758 26.2639C33.6517 29.0197 35.1917 32.7526 36.2096 36.0445L35.2017 36.3575C34.1996 33.1166 32.6979 29.4962 30.8888 26.8635L31.758 26.2639ZM35.7056 35.6724H35.709V36.7296H35.7056V35.6724ZM35.709 35.6724H35.7143V36.7296H35.709V35.6724ZM35.7143 35.6724H35.7145V36.7296H35.7143V35.6724ZM35.7145 35.6724H35.7153V36.7296H35.7145V35.6724ZM35.7153 35.6724H35.7196V36.7296H35.7153V35.6724ZM35.7196 35.6724H35.7231V36.7296H35.7196V35.6724ZM35.7231 35.6724H35.7248V36.7296H35.7231V35.6724ZM35.7248 35.6724H35.7289V36.7296H35.7248V35.6724ZM35.7289 35.6724H35.7301V36.7296H35.7289V35.6724ZM35.7301 35.6724H35.7317V36.7296H35.7301V35.6724ZM35.7317 35.6724H35.7353V36.7296H35.7317V35.6724ZM35.7353 35.6724H35.74V36.7296H35.7353V35.6724ZM35.74 35.6724H35.7406V36.7296H35.74V35.6724ZM35.7406 35.6724H35.7428V36.7296H35.7406V35.6724ZM35.7428 35.6724H35.7456V36.7296H35.7428V35.6724ZM35.7456 35.6724H35.7482V36.7296H35.7456V35.6724ZM35.7482 35.6724H35.7508V36.7296H35.7482V35.6724ZM35.7508 35.6724H35.7559V36.7296H35.7508V35.6724ZM35.7559 35.6724H35.7561V36.7296H35.7559V35.6724ZM35.7561 35.6724H35.7568V36.7296H35.7561V35.6724ZM35.7568 35.6724H35.7608V36.7296H35.7568V35.6724ZM35.7608 35.6724H35.7638V36.7296H35.7608V35.6724ZM35.7638 35.6724H35.7659V36.7296H35.7638V35.6724ZM35.7659 35.6724H35.7708V36.7296H35.7659V35.6724ZM35.7708 35.6724H35.7712V36.7296H35.7708V35.6724ZM35.7712 35.6724H35.7714V36.7296H35.7712V35.6724ZM35.7714 35.6724H35.7757V36.7296H35.7714V35.6724ZM35.7757 35.6724H35.7788V36.7296H35.7757V35.6724ZM35.7788 35.6724H35.7805V36.7296H35.7788V35.6724ZM35.7805 35.6724H35.7854V36.7296H35.7805V35.6724ZM35.7854 35.6724H35.7856V36.7296H35.7854V35.6724ZM35.7856 35.6724H35.786V36.7296H35.7856V35.6724ZM35.786 35.6724H35.7901V36.7296H35.786V35.6724ZM35.7901 35.6724H35.793V36.7296H35.7901V35.6724ZM35.793 35.6724H35.7949V36.7296H35.793V35.6724ZM35.7949 35.6724H35.7995V36.7296H35.7949V35.6724ZM35.7995 35.6724H35.7999V36.7296H35.7995V35.6724ZM35.7999 35.6724H35.8003V36.7296H35.7999V35.6724ZM35.8003 35.6724H35.8042V36.7296H35.8003V35.6724ZM35.8042 35.6724H35.8066V36.7296H35.8042V35.6724ZM35.8066 35.6724H35.8088V36.7296H35.8066V35.6724ZM35.8088 35.6724H35.813V36.7296H35.8088V35.6724ZM35.813 35.6724H35.8133V36.7296H35.813V35.6724ZM35.8133 35.6724H35.8153V36.7296H35.8133V35.6724ZM35.8153 35.6724H35.8178V36.7296H35.8153V35.6724ZM35.8178 35.6724H35.8195V36.7296H35.8178V35.6724ZM35.8195 35.6724H35.8222V36.7296H35.8195V35.6724ZM35.8222 35.6724H35.8256V36.7296H35.8222V35.6724ZM35.8256 35.6724H35.8265V36.7296H35.8256V35.6724ZM35.8265 35.6724H35.8305V36.7296H35.8265V35.6724ZM35.8305 35.6724H35.8309V36.7296H35.8305V35.6724ZM35.8309 35.6724H35.8316V36.7296H35.8309V35.6724ZM35.8316 35.6724H35.8351V36.7296H35.8316V35.6724ZM35.8351 35.6724H35.8374V36.7296H35.8351V35.6724ZM35.8374 35.6724H35.8393V36.7296H35.8374V35.6724ZM35.8393 35.6724H35.8431V36.7296H35.8393V35.6724ZM35.8431 35.6724H35.8434V36.7296H35.8431V35.6724ZM35.8434 35.6724H35.8459V36.7296H35.8434V35.6724ZM35.8459 35.6724H35.8475V36.7296H35.8459V35.6724ZM35.8475 35.6724H35.8486V36.7296H35.8475V35.6724ZM35.8486 35.6724H35.8515V36.7296H35.8486V35.6724ZM35.8515 35.6724H35.854V36.7296H35.8515V35.6724ZM35.854 35.6724H35.8555V36.7296H35.854V35.6724ZM35.8555 35.6724H35.8592V36.7296H35.8555V35.6724ZM35.8592 35.6724H35.8594V36.7296H35.8592V35.6724ZM35.8594 35.6724H35.8615V36.7296H35.8594V35.6724ZM35.8615 35.6724H35.8632V36.7296H35.8615V35.6724ZM35.8632 35.6724H35.8641V36.7296H35.8632V35.6724ZM35.8641 35.6724H35.8669V36.7296H35.8641V35.6724ZM35.8669 35.6724H35.869V36.7296H35.8669V35.6724ZM35.869 35.6724H35.8705V36.7296H35.869V35.6724ZM35.8705 35.6724H35.8737V36.7296H35.8705V35.6724ZM35.8737 35.6724H35.8741V36.7296H35.8737V35.6724ZM35.8741 35.6724H35.8773V36.7296H35.8741V35.6724ZM35.8773 35.6724H35.8776V36.7296H35.8773V35.6724ZM35.8776 35.6724H35.8781V36.7296H35.8776V35.6724ZM35.8781 35.6724H35.8811V36.7296H35.8781V35.6724ZM35.8811 35.6724H35.8826V36.7296H35.8811V35.6724ZM35.8826 35.6724H35.8845V36.7296H35.8826V35.6724ZM35.8845 35.6724H35.8868V36.7296H35.8845V35.6724ZM35.8868 35.6724H35.8879V36.7296H35.8868V35.6724ZM35.8879 35.6724H35.8908V36.7296H35.8879V35.6724ZM35.8908 35.6724H35.891V36.7296H35.8908V35.6724ZM35.891 35.6724H35.8934V36.7296H35.891V35.6724ZM35.8934 35.6724H35.8942V36.7296H35.8934V35.6724ZM35.8942 35.6724H35.8947V36.7296H35.8942V35.6724ZM35.8947 35.6724H35.8972V36.7296H35.8947V35.6724ZM35.8972 35.6724H35.8985V36.7296H35.8972V35.6724ZM35.8985 35.6724H35.9003V36.7296H35.8985V35.6724ZM35.9003 35.6724H35.9021V36.7296H35.9003V35.6724ZM35.9021 35.6724H35.9032V36.7296H35.9021V35.6724ZM35.9032 35.6724H35.9056V36.7296H35.9032V35.6724ZM35.9056 35.6724H35.906V36.7296H35.9056V35.6724ZM35.906 35.6724H35.9087V36.7296H35.906V35.6724ZM35.9087 35.6724H35.9089V36.7296H35.9087V35.6724ZM35.9089 35.6724H35.9097V36.7296H35.9089V35.6724ZM35.9097 35.6724H35.9114V36.7296H35.9097V35.6724ZM35.9114 35.6724H35.912V36.7296H35.9114V35.6724ZM35.912 35.6724H35.914V36.7296H35.912V35.6724ZM35.914 35.6724H35.9151V36.7296H35.914V35.6724ZM35.9151 35.6724H35.9165V36.7296H35.9151V35.6724ZM35.9165 35.6724H35.9179V36.7296H35.9165V35.6724ZM35.9179 35.6724H35.9189V36.7296H35.9179V35.6724ZM35.9189 35.6724H35.9207V36.7296H35.9189V35.6724ZM35.9207 35.6724H35.9212V36.7296H35.9207V35.6724ZM35.9212 35.6724H35.9232V36.7296H35.9212V35.6724ZM35.9232 35.6724H35.9234V36.7296H35.9232V35.6724ZM35.9234 35.6724H35.9255V36.7296H35.9234V35.6724ZM35.9255 35.6724H35.9263V36.7296H35.9255V35.6724ZM35.9263 35.6724H35.9275V36.7296H35.9263V35.6724ZM35.9275 35.6724H35.928V36.7296H35.9275V35.6724ZM35.928 35.6724H35.9295V36.7296H35.928V35.6724ZM35.9295 35.6724H35.9301V36.7296H35.9295V35.6724ZM35.9301 35.6724H35.9313V36.7296H35.9301V35.6724ZM35.9313 35.6724H35.9322V36.7296H35.9313V35.6724ZM35.9322 35.6724H35.9331V36.7296H35.9322V35.6724ZM35.9331 35.6724H35.934V36.7296H35.9331V35.6724ZM35.934 35.6724H35.9347V36.7296H35.934V35.6724ZM35.9347 35.6724H35.9358V36.7296H35.9347V35.6724ZM35.9358 35.6724H35.9363V36.7296H35.9358V35.6724ZM35.9363 35.6724H35.9373V36.7296H35.9363V35.6724ZM35.9373 35.6724H35.9377V36.7296H35.9373V35.6724ZM35.9377 35.6724H35.9388V36.7296H35.9377V35.6724ZM35.9388 35.6724H35.939V36.7296H35.9388V35.6724ZM35.939 35.6724H35.9402V36.7296H35.939V35.6724ZM35.9402 35.6724H35.9403V36.7296H35.9402V35.6724ZM35.9403 35.6724H35.9415V36.7296H35.9403V35.6724ZM35.9415 35.6724H35.9424V36.7296H35.9415V35.6724ZM35.9424 35.6724H35.9425V36.7296H35.9424V35.6724ZM35.9425 35.6724H35.943V36.7296H35.9425V35.6724ZM35.943 35.6724H35.9434V36.7296H35.943V35.6724ZM35.9434 35.6724H35.9435V36.7296H35.9434V35.6724ZM35.9435 35.6724H35.9442V36.7296H35.9435V35.6724ZM35.9442 35.6724H35.9448V36.7296H35.9442V35.6724ZM35.9448 35.6724H35.945V36.7296H35.9448V35.6724ZM35.945 35.6724H35.9455V36.7296H35.945V35.6724ZM35.9455 35.6724H35.946V36.7296H35.9455V35.6724ZM35.946 35.6724H35.9463V36.7296H35.946V35.6724ZM35.9463 35.6724H35.9464V36.7296H35.9463V35.6724ZM35.9464 35.6724H35.9466V36.7296H35.9464V35.6724ZM35.9466 35.6724H35.9467V36.7296H35.9466V35.6724ZM35.9467 35.6724H35.9601V36.7296H35.9467V35.6724ZM35.9601 35.6724H35.9773V36.7296H35.9601V35.6724ZM35.9773 35.6724H35.9948V36.7296H35.9773V35.6724ZM35.9948 35.6724H36.0126V36.7296H35.9948V35.6724ZM36.0126 35.6724H36.0305V36.7296H36.0126V35.6724ZM36.0305 35.6724H36.0488V36.7296H36.0305V35.6724ZM36.0488 35.6724H36.0672V36.7296H36.0488V35.6724ZM36.0672 35.6724H36.0859V36.7296H36.0672V35.6724ZM36.0859 35.6724H36.1049V36.7296H36.0859V35.6724ZM36.1049 35.6724H36.1241V36.7296H36.1049V35.6724ZM36.1241 35.6724H36.1435V36.7296H36.1241V35.6724ZM36.1435 35.6724H36.1631V36.7296H36.1435V35.6724ZM36.1631 35.6724H36.1831V36.7296H36.1631V35.6724ZM36.1831 35.6724H36.2033V36.7296H36.1831V35.6724ZM36.2033 35.6724H36.2237V36.7296H36.2033V35.6724ZM36.2237 35.6724H36.2445V36.7296H36.2237V35.6724ZM36.2445 35.6724H36.2654V36.7296H36.2445V35.6724ZM36.2654 35.6724H36.2866V36.7296H36.2654V35.6724ZM36.2866 35.6724H36.3081V36.7296H36.2866V35.6724ZM36.3081 35.6724H36.3299V36.7296H36.3081V35.6724ZM36.3299 35.6724H36.3518V36.7296H36.3299V35.6724ZM36.3518 35.6724H36.3741V36.7296H36.3518V35.6724ZM36.3741 35.6724H36.3965V36.7296H36.3741V35.6724ZM36.3965 35.6724H36.4193V36.7296H36.3965V35.6724ZM36.4193 35.6724H36.4423V36.7296H36.4193V35.6724ZM36.4423 35.6724H36.4657V36.7296H36.4423V35.6724ZM36.4657 35.6724H36.4892V36.7296H36.4657V35.6724ZM36.4892 35.6724H36.513V36.7296H36.4892V35.6724ZM36.513 35.6724H36.5372V36.7296H36.513V35.6724ZM36.5372 35.6724H36.5616V36.7296H36.5372V35.6724ZM36.5616 35.6724H36.5862V36.7296H36.5616V35.6724ZM36.5862 35.6724H36.6112V36.7296H36.5862V35.6724ZM36.6112 35.6724H36.6363V36.7296H36.6112V35.6724ZM36.6363 35.6724H36.6618V36.7296H36.6363V35.6724ZM36.6618 35.6724H36.6876V36.7296H36.6618V35.6724ZM36.6876 35.6724H36.7135V36.7296H36.6876V35.6724ZM36.7135 35.6724H36.7399V36.7296H36.7135V35.6724ZM36.7399 35.6724H36.7665V36.7296H36.7399V35.6724ZM36.7665 35.6724H36.7933V36.7296H36.7665V35.6724ZM36.7933 35.6724H36.8205V36.7296H36.7933V35.6724ZM36.8205 35.6724H36.8479V36.7296H36.8205V35.6724ZM36.8479 35.6724H36.8757V36.7296H36.8479V35.6724ZM36.8757 35.6724H36.9037V36.7296H36.8757V35.6724ZM36.9037 35.6724H36.9319V36.7296H36.9037V35.6724ZM36.9319 35.6724H36.9605V36.7296H36.9319V35.6724ZM36.9605 35.6724H36.9894V36.7296H36.9605V35.6724ZM36.9894 35.6724H37.0186V36.7296H36.9894V35.6724ZM37.0186 35.6724H37.0481V36.7296H37.0186V35.6724ZM37.0481 35.6724H37.0779V36.7296H37.0481V35.6724ZM37.0779 35.6724H37.1078V36.7296H37.0779V35.6724ZM37.1078 35.6724H37.1382V36.7296H37.1078V35.6724ZM37.1382 35.6724H37.1689V36.7296H37.1382V35.6724ZM37.1689 35.6724H37.1998V36.7296H37.1689V35.6724ZM37.1998 35.6724H37.2311V36.7296H37.1998V35.6724ZM37.2311 35.6724H37.2626V36.7296H37.2311V35.6724ZM37.2626 35.6724H37.2945V36.7296H37.2626V35.6724ZM37.2945 35.6724H37.3267V36.7296H37.2945V35.6724ZM37.3267 35.6724H37.3591V36.7296H37.3267V35.6724ZM37.3591 35.6724H37.3919V36.7296H37.3591V35.6724ZM37.3919 35.6724H37.4249V36.7296H37.3919V35.6724ZM37.4249 35.6724H37.4583V36.7296H37.4249V35.6724ZM37.4583 35.6724H37.492V36.7296H37.4583V35.6724ZM37.492 35.6724H37.526V36.7296H37.492V35.6724ZM37.526 35.6724H37.5604V36.7296H37.526V35.6724ZM37.5604 35.6724H37.595V36.7296H37.5604V35.6724ZM37.595 35.6724H37.6299V36.7296H37.595V35.6724ZM37.6299 35.6724H37.6652V36.7296H37.6299V35.6724ZM37.6652 35.6724H37.7007V36.7296H37.6652V35.6724ZM37.7007 35.6724H37.7367V36.7296H37.7007V35.6724ZM37.7367 35.6724H37.7729V36.7296H37.7367V35.6724ZM37.7729 35.6724H37.8094V36.7296H37.7729V35.6724ZM37.8094 35.6724H37.8463V36.7296H37.8094V35.6724ZM37.8463 35.6724H37.8835V36.7296H37.8463V35.6724ZM37.8835 35.6724H37.921V36.7296H37.8835V35.6724ZM37.921 35.6724H37.9588V36.7296H37.921V35.6724ZM37.9588 35.6724H37.997V36.7296H37.9588V35.6724ZM37.997 35.6724H38.0355V36.7296H37.997V35.6724ZM38.0355 35.6724H38.0743V36.7296H38.0355V35.6724ZM38.0743 35.6724H38.1135V36.7296H38.0743V35.6724ZM38.1135 35.6724H38.153V36.7296H38.1135V35.6724ZM38.153 35.6724H38.1927V36.7296H38.153V35.6724ZM38.1927 35.6724H38.2329V36.7296H38.1927V35.6724ZM38.2329 35.6724H38.2735V36.7296H38.2329V35.6724ZM38.2735 35.6724H38.3143V36.7296H38.2735V35.6724ZM38.3143 35.6724H38.3554V36.7296H38.3143V35.6724ZM38.3554 35.6724H38.3969V36.7296H38.3554V35.6724ZM38.3969 35.6724H38.4388V36.7296H38.3969V35.6724ZM38.4388 35.6724H38.481V36.7296H38.4388V35.6724ZM38.481 35.6724H38.5235V36.7296H38.481V35.6724ZM38.5235 35.6724H38.5664V36.7296H38.5235V35.6724ZM38.5664 35.6724H38.6096V36.7296H38.5664V35.6724ZM38.6096 35.6724H38.6532V36.7296H38.6096V35.6724ZM38.6532 35.6724H38.6971V36.7296H38.6532V35.6724ZM38.6971 35.6724H38.7413V36.7296H38.6971V35.6724ZM38.7413 35.6724H38.7859V36.7296H38.7413V35.6724ZM38.7859 35.6724H38.8309V36.7296H38.7859V35.6724ZM38.8309 35.6724H38.8763V36.7296H38.8309V35.6724ZM38.8763 35.6724H38.922V36.7296H38.8763V35.6724ZM38.922 35.6724H38.968V36.7296H38.922V35.6724ZM38.968 35.6724H39.0144V36.7296H38.968V35.6724ZM39.0144 35.6724H39.0611V36.7296H39.0144V35.6724ZM39.0611 35.6724H39.1082V36.7296H39.0611V35.6724ZM39.1082 35.6724H39.1557V36.7296H39.1082V35.6724ZM39.1557 35.6724H39.2035V36.7296H39.1557V35.6724ZM39.2035 35.6724H39.2517V36.7296H39.2035V35.6724ZM39.2517 35.6724H39.3002V36.7296H39.2517V35.6724ZM39.3002 35.6724H39.3492V36.7296H39.3002V35.6724ZM39.3492 35.6724H39.3985V36.7296H39.3492V35.6724ZM39.3985 35.6724H39.4482V36.7296H39.3985V35.6724ZM39.4482 35.6724H39.4982V36.7296H39.4482V35.6724ZM39.4982 35.6724H39.5486V36.7296H39.4982V35.6724ZM39.5486 35.6724H39.5994V36.7296H39.5486V35.6724ZM39.5994 35.6724H39.6504V36.7296H39.5994V35.6724ZM39.6504 35.6724H39.702V36.7296H39.6504V35.6724ZM39.702 35.6724H39.7538V36.7296H39.702V35.6724ZM39.7538 35.6724H39.8062V36.7296H39.7538V35.6724ZM39.8062 35.6724H39.8588V36.7296H39.8062V35.6724ZM39.8588 35.6724H39.9118V36.7296H39.8588V35.6724ZM39.9118 35.6724H39.9652V36.7296H39.9118V35.6724ZM39.9652 35.6724H40.019V36.7296H39.9652V35.6724ZM40.019 35.6724H40.0731V36.7296H40.019V35.6724ZM40.0731 35.6724H40.1277V36.7296H40.0731V35.6724ZM40.1277 35.6724H40.1827V36.7296H40.1277V35.6724ZM40.1827 35.6724H40.2379V36.7296H40.1827V35.6724ZM40.2379 35.6724H40.2937V36.7296H40.2379V35.6724ZM40.2937 35.6724H40.3498V36.7296H40.2937V35.6724ZM40.3498 35.6724H40.4062V36.7296H40.3498V35.6724ZM40.4062 35.6724H40.4631V36.7296H40.4062V35.6724ZM40.4631 35.6724H40.5204V36.7296H40.4631V35.6724ZM40.5204 35.6724H40.5781V36.7296H40.5204V35.6724ZM40.5781 35.6724H40.6362V36.7296H40.5781V35.6724ZM40.6362 35.6724H40.6946V36.7296H40.6362V35.6724ZM40.6946 35.6724H40.7535V36.7296H40.6946V35.6724ZM40.7535 35.6724H40.8127V36.7296H40.7535V35.6724ZM40.8127 35.6724H40.8724V36.7296H40.8127V35.6724ZM40.8724 35.6724H40.9325V36.7296H40.8724V35.6724ZM40.9325 35.6724H40.9929V36.7296H40.9325V35.6724ZM40.9929 35.6724H41.0537V36.7296H40.9929V35.6724ZM41.0537 35.6724H41.115V36.7296H41.0537V35.6724ZM41.115 35.6724H41.1767V36.7296H41.115V35.6724ZM41.1767 35.6724H41.2388V36.7296H41.1767V35.6724ZM41.2388 35.6724H41.3012V36.7296H41.2388V35.6724ZM41.3012 35.6724H41.3641V36.7296H41.3012V35.6724ZM41.3641 35.6724H41.4274V36.7296H41.3641V35.6724ZM41.4274 35.6724H41.4912V36.7296H41.4274V35.6724ZM41.4912 35.6724H41.5553V36.7296H41.4912V35.6724ZM41.5553 35.6724H41.6198V36.7296H41.5553V35.6724ZM41.6198 35.6724H41.6848V36.7296H41.6198V35.6724ZM41.6848 35.6724H41.7502V36.7296H41.6848V35.6724ZM41.7502 35.6724H41.8159V36.7296H41.7502V35.6724ZM41.8159 35.6724H41.8822V36.7296H41.8159V35.6724ZM41.8822 35.6724H41.9488V36.7296H41.8822V35.6724ZM41.9488 35.6724H42.0159V36.7296H41.9488V35.6724ZM42.0159 35.6724H42.0833V36.7296H42.0159V35.6724ZM42.0833 35.6724H42.1513V36.7296H42.0833V35.6724ZM42.1513 35.6724H42.2196V36.7296H42.1513V35.6724ZM42.2196 35.6724H42.2883V36.7296H42.2196V35.6724ZM42.2883 35.6724H42.3575V36.7296H42.2883V35.6724ZM42.3575 35.6724C45.4774 35.6724 47.8733 36.7319 49.6851 38.4723L48.9549 39.2355C47.3448 37.6889 45.2128 36.7296 42.3575 36.7296V35.6724ZM49.6851 38.4723C51.4812 40.1975 52.6683 42.5571 53.4601 45.1134L52.4523 45.4268C51.6905 42.9668 50.5754 40.7921 48.9549 39.2355L49.6851 38.4723ZM53.4601 45.1134C55.0401 50.2155 55.1031 56.3053 55.1031 60.2926H54.0479C54.0479 56.2881 53.9782 50.3538 52.4523 45.4268L53.4601 45.1134ZM55.1031 60.2926C55.1031 60.643 54.8197 60.9269 54.47 60.9269V59.8697C54.2369 59.8697 54.0479 60.0591 54.0479 60.2926H55.1031ZM54.47 60.9269H45.0495V59.8697H54.47V60.9269ZM45.0495 60.9269C43.5302 60.9269 42.4211 60.6502 41.7662 60.0221L42.4959 59.2584C42.8432 59.5916 43.5946 59.8697 45.0495 59.8697V60.9269ZM41.7662 60.0221C41.0512 59.3363 41.0464 58.4169 41.2989 57.6053L42.3063 57.92C42.1146 58.5359 42.1887 58.9638 42.4959 59.2584L41.7662 60.0221ZM41.2989 57.6053C41.549 56.8012 42.083 55.9655 42.6801 55.2131L43.506 55.8711C42.9402 56.5841 42.4994 57.2993 42.3063 57.92L41.2989 57.6053ZM42.6801 55.2131C43.2625 54.4792 43.9375 53.7845 44.5563 53.2216L45.2656 54.0042C44.6804 54.5366 44.0464 55.1902 43.506 55.8711L42.6801 55.2131ZM44.4721 53.9062C43.7684 52.8493 42.9604 51.3989 42.4765 49.9933L43.474 49.6487C43.9191 50.9413 44.6772 52.3093 45.3498 53.3195L44.4721 53.9062ZM43.3348 50.2077C43.0854 50.4406 42.8353 50.6814 42.5805 50.9267L41.8494 50.1644C42.1031 49.9201 42.3591 49.6736 42.6156 49.4343L43.3348 50.2077ZM42.5805 50.9267C42.038 51.4489 41.4737 51.9925 40.8886 52.4808L40.2133 51.6685C40.7647 51.2083 41.3019 50.6914 41.8494 50.1644L42.5805 50.9267ZM40.8886 52.4808C39.9851 53.2347 38.9795 53.9039 37.8145 54.2102L37.5467 53.1876C38.4947 52.9384 39.3601 52.3805 40.2133 51.6685L40.8886 52.4808ZM37.8145 54.2102C35.4297 54.8372 32.7127 53.8766 29.2168 50.1875L29.982 49.4597C33.3832 53.0488 35.7239 53.6669 37.5467 53.1876L37.8145 54.2102ZM30.0847 50.0311C28.8019 53.0438 26.2232 54.1183 24.0889 54.3177L23.991 53.2651C25.8636 53.0902 28.0266 52.1703 29.1142 49.6161L30.0847 50.0311ZM24.2227 53.2956C24.6208 53.4429 24.9556 53.6492 25.2141 53.9219L24.449 54.65C24.3231 54.5172 24.1357 54.3903 23.8572 54.2872L24.2227 53.2956ZM25.2141 53.9219C25.8625 54.606 25.8626 55.5057 25.6375 56.3014L24.6224 56.0132C24.7995 55.3868 24.7294 54.9457 24.449 54.65L25.2141 53.9219ZM25.6375 56.3014C25.412 57.0989 24.9288 57.9323 24.3849 58.6862L23.5297 58.0669C24.0433 57.355 24.4455 56.6382 24.6224 56.0132L25.6375 56.3014ZM24.3849 58.6862C23.8351 59.4482 23.1943 60.1686 22.6133 60.7438L21.8716 59.9918C22.419 59.4499 23.0199 58.7735 23.5297 58.0669L24.3849 58.6862ZM22.6133 60.7438C22.4948 60.8612 22.3348 60.9269 22.1683 60.9269V59.8697C22.0573 59.8697 21.9506 59.9136 21.8716 59.9918L22.6133 60.7438ZM22.1683 60.9269C21.8512 60.9269 21.5419 60.9271 21.2401 60.9275L21.2392 59.8703C21.541 59.87 21.8507 59.8697 22.1683 59.8697V60.9269ZM21.2401 60.9275C18.2509 60.9298 15.9607 60.9334 14.3255 60.6733L14.4909 59.6292C16.0228 59.8728 18.21 59.8727 21.2392 59.8703L21.2401 60.9275ZM14.3255 60.6733C13.4204 60.5294 12.6477 60.296 12.0459 59.8893L12.6358 59.0128C13.0533 59.2948 13.6513 59.4957 14.4909 59.6292L14.3255 60.6733ZM12.0459 59.8893C11.4207 59.4668 11.0186 58.8838 10.822 58.1325L11.8426 57.8644C11.9775 58.3798 12.2339 58.7412 12.6358 59.0128L12.0459 59.8893ZM10.822 58.1325C10.6321 57.4069 10.6382 56.5426 10.772 55.5369L11.8179 55.6766C11.6918 56.625 11.7033 57.3316 11.8426 57.8644L10.822 58.1325ZM10.772 55.5369C10.9064 54.5255 11.1773 53.322 11.5545 51.8971L12.5744 52.1682C12.2009 53.5791 11.9434 54.7319 11.8179 55.6766L10.772 55.5369ZM11.5545 51.8971C11.9965 50.2275 12.593 48.2231 13.305 45.83L14.3161 46.1321C13.6024 48.5306 13.0113 50.5176 12.5744 52.1682L11.5545 51.8971ZM13.305 45.83C13.7984 44.1717 14.3482 42.3238 14.9432 40.2633L15.9568 40.5572C15.3604 42.6223 14.8095 44.474 14.3161 46.1321L13.305 45.83ZM15.45 40.9388H7.36285V39.8816H15.45V40.9388ZM7.36285 40.9388C3.07844 40.9388 0 38.0847 0 34.9742H1.05516C1.05516 37.3423 3.48922 39.8816 7.36285 39.8816V40.9388ZM0 34.9742C0 33.682 0.788456 32.2007 1.85625 31.0731L2.62171 31.8006C1.65114 32.8257 1.05516 34.059 1.05516 34.9742H0ZM1.85625 31.0731C2.93059 29.9385 4.43125 29.0098 6.01689 29.0098V30.067C4.83076 30.067 3.58794 30.7803 2.62171 31.8006L1.85625 31.0731ZM6.01689 29.0098C6.12296 29.0098 6.16482 28.9931 6.17065 28.9904C6.17265 28.9896 6.16803 28.9915 6.16062 28.9979C6.15319 29.0044 6.14752 29.0115 6.14404 29.0169L7.03623 29.5814C6.81794 29.9278 6.44345 30.067 6.01689 30.067V29.0098ZM6.14404 29.0169C6.13817 29.0263 6.15 29.0129 6.15675 28.9532C6.1635 28.8935 6.16322 28.8045 6.1465 28.6795L7.19232 28.5391C7.23827 28.8829 7.23275 29.2696 7.03623 29.5814L6.14404 29.0169ZM6.1465 28.6795C6.0754 28.1476 5.77856 27.3949 5.42945 26.5244L6.40852 26.1302C6.73658 26.9482 7.09951 27.8448 7.19232 28.5391L6.1465 28.6795ZM5.42949 26.5245L5.42469 26.5126L6.40369 26.1182L6.40849 26.1301L5.42949 26.5245ZM5.42466 26.5125C5.10197 25.7078 4.72901 24.7882 4.6323 24.0647L5.67812 23.9243C5.75318 24.4858 6.06067 25.2629 6.40373 26.1183L5.42466 26.5125ZM4.6323 24.0647C4.58441 23.7065 4.58218 23.2575 4.81912 22.8815L5.71132 23.446C5.6765 23.5012 5.63996 23.6388 5.67812 23.9243L4.6323 24.0647ZM4.81912 22.8815C5.08976 22.4521 5.54788 22.2974 6.01689 22.2974V23.3546C5.76847 23.3546 5.72356 23.4265 5.71132 23.4459L4.81912 22.8815ZM6.01689 22.2974H8.59868V23.3546H6.01689V22.2974ZM8.07273 22.8675C8.0633 22.7475 8.03358 22.5685 7.98318 22.3195L9.01729 22.1095C9.06835 22.3617 9.10975 22.5951 9.12463 22.7845L8.07273 22.8675ZM7.98318 22.3195C7.9507 22.159 7.91286 21.9844 7.87113 21.7919L8.90224 21.5674C8.9436 21.7583 8.9831 21.9405 9.01729 22.1095L7.98318 22.3195ZM7.87113 21.7919C7.83369 21.6191 7.79338 21.4332 7.7525 21.2364L8.78551 21.0209C8.82533 21.2127 8.8647 21.3943 8.90224 21.5674L7.87113 21.7919ZM7.7525 21.2364C7.5828 20.4197 7.40273 19.4163 7.40272 18.4406H8.45788C8.45789 19.3015 8.61824 20.2159 8.78551 21.0209L7.7525 21.2364ZM7.40272 18.4406C7.40272 17.474 7.5786 16.4393 8.21297 15.6387L9.03933 16.2961C8.62103 16.8239 8.45788 17.5736 8.45788 18.4406H7.40272ZM8.21297 15.6387C8.87029 14.8092 9.92071 14.3517 11.4006 14.3517V15.4089C10.1441 15.4089 9.44232 15.7876 9.03933 16.2961L8.21297 15.6387ZM11.4006 14.3517C14.7885 14.3517 18.2718 15.7338 20.8967 17.4329L20.3241 18.3208C17.8119 16.6946 14.5259 15.4089 11.4006 15.4089V14.3517ZM20.8967 17.4329C22.213 18.2849 23.3383 19.2324 24.1426 20.1558L23.3476 20.8509C22.6221 20.018 21.5777 19.1323 20.3241 18.3208L20.8967 17.4329ZM24.1426 20.1558C24.8752 20.9967 25.4164 21.9027 25.4857 22.7498L24.4341 22.8362C24.3931 22.3343 24.0378 21.643 23.3476 20.8509L24.1426 20.1558ZM20.3243 26.2876C21.6907 24.1251 23.1112 22.8373 24.5884 22.3526L24.9169 23.3573C23.774 23.7323 22.5227 24.7848 21.2158 26.8531L20.3243 26.2876ZM16.1794 36.12C17.5367 31.7049 18.9256 28.5011 20.3243 26.2876L21.2158 26.8531C19.887 28.956 18.5312 32.0612 17.1879 36.4311L16.1794 36.12ZM15.0043 40.0518C15.3609 38.8175 15.7526 37.5084 16.1794 36.12L17.1879 36.4311C16.7625 37.8149 16.3724 39.1182 16.0179 40.3457L15.0043 40.0518ZM7.36285 39.6702H15.5111V40.7274H7.36285V39.6702ZM1.26744 35.0655C1.32781 37.2615 3.62598 39.6702 7.36285 39.6702V40.7274C3.21505 40.7274 0.292853 38.0112 0.212687 35.0945L1.26744 35.0655ZM6.01689 35.6085H0.740064V34.5514H6.01689V35.6085ZM6.64998 34.9742C6.64998 35.3246 6.36655 35.6085 6.01689 35.6085V34.5514C5.78379 34.5514 5.59483 34.7407 5.59483 34.9742H6.64998ZM6.01689 34.3399C6.36655 34.3399 6.64998 34.624 6.64998 34.9742H5.59483C5.59483 35.2078 5.78379 35.3971 6.01689 35.3971V34.3399ZM0.74086 34.3399H6.01689V35.3971H0.74086V34.3399ZM2.77481 31.9462C1.85848 32.9139 1.3032 34.0536 1.26797 34.8908L0.213749 34.8463C0.263628 33.6611 0.994119 32.2908 2.00934 31.2186L2.77481 31.9462ZM6.01689 30.2784C4.91055 30.2784 3.71931 30.9488 2.77481 31.9462L2.00934 31.2186C3.06214 30.1068 4.51122 29.2212 6.01689 29.2212V30.2784ZM7.21467 29.6943C6.94403 30.1237 6.48592 30.2784 6.01689 30.2784V29.2212C6.26531 29.2212 6.31023 29.1493 6.32248 29.1299L7.21467 29.6943ZM7.40149 28.5111C7.44938 28.8694 7.45161 29.3184 7.21467 29.6943L6.32248 29.1299C6.35729 29.0747 6.39383 28.9369 6.35567 28.6514L7.40149 28.5111ZM6.60913 26.0634C6.93183 26.868 7.30478 27.7876 7.40149 28.5111L6.35567 28.6514C6.28061 28.0899 5.97312 27.313 5.63006 26.4575L6.60913 26.0634ZM6.60434 26.0514L6.60913 26.0634L5.63006 26.4575L5.62525 26.4455L6.60434 26.0514ZM5.88728 23.8963C5.95839 24.4282 6.25523 25.1809 6.60434 26.0514L5.62525 26.4455C5.29719 25.6276 4.93428 24.7309 4.84147 24.0366L5.88728 23.8963ZM5.88975 23.5588C5.89561 23.5495 5.88379 23.5629 5.87704 23.6226C5.87029 23.6823 5.87058 23.7713 5.88728 23.8963L4.84147 24.0366C4.79553 23.6929 4.80104 23.3062 4.99757 22.9943L5.88975 23.5588ZM6.01689 23.5661C5.91084 23.5661 5.86897 23.5827 5.86315 23.5853C5.86114 23.5863 5.86576 23.5844 5.87317 23.5779C5.8806 23.5715 5.88627 23.5644 5.88975 23.5588L4.99757 22.9943C5.21586 22.648 5.59034 22.5089 6.01689 22.5089V23.5661ZM8.70879 23.5661H6.01689V22.5089H8.70879V23.5661ZM10.0547 23.5661H8.70879V22.5089H10.0547V23.5661ZM10.6879 22.9318C10.6879 23.282 10.4044 23.5661 10.0547 23.5661V22.5089C9.82164 22.5089 9.63269 22.6982 9.63269 22.9318H10.6879ZM10.0547 22.2974C10.4044 22.2974 10.6879 22.5814 10.6879 22.9318H9.63269C9.63269 23.1653 9.82164 23.3546 10.0547 23.3546V22.2974ZM8.81026 22.2974H10.0547V23.3546H8.81026V22.2974ZM9.22411 22.0674C9.27597 22.3237 9.3216 22.5771 9.33653 22.7887L8.28399 22.8632C8.27434 22.7263 8.24152 22.5321 8.19 22.2776L9.22411 22.0674ZM9.10795 21.5202C9.14985 21.7137 9.19013 21.8995 9.22411 22.0674L8.19 22.2776C8.15773 22.118 8.11911 21.9397 8.07681 21.7444L9.10795 21.5202ZM8.99211 20.9778C9.03087 21.1643 9.0702 21.346 9.10795 21.5202L8.07681 21.7444C8.03918 21.5707 7.99892 21.3849 7.9591 21.1933L8.99211 20.9778ZM8.66891 18.4406C8.66892 19.2785 8.82531 20.1751 8.99211 20.9778L7.9591 21.1933C7.78989 20.3789 7.61376 19.3933 7.61375 18.4406H8.66891ZM9.20461 16.4276C8.8295 16.901 8.66891 17.5935 8.66891 18.4406H7.61375C7.61375 17.4939 7.7871 16.5162 8.37824 15.7702L9.20461 16.4276ZM11.4006 15.6203C10.189 15.6203 9.55687 15.983 9.20461 16.4276L8.37824 15.7702C8.9846 15.005 9.96518 14.5631 11.4006 14.5631V15.6203ZM20.2096 18.4984C17.7199 16.8868 14.4735 15.6203 11.4006 15.6203V14.5631C14.736 14.5631 18.1798 15.9259 20.7821 17.6105L20.2096 18.4984ZM23.1887 20.99C22.4788 20.1751 21.4506 19.3018 20.2096 18.4984L20.7821 17.6105C22.0859 18.4543 23.1951 19.3895 23.9836 20.2948L23.1887 20.99ZM24.2257 22.8829C24.2032 22.455 23.8909 21.7961 23.1887 20.99L23.9836 20.2948C24.7269 21.148 25.2375 22.0339 25.2794 22.827L24.2257 22.8829ZM23.3414 54.354C22.882 54.3558 22.4504 54.3194 22.0654 54.2558L22.2369 53.2127C22.5623 53.2664 22.9351 53.2984 23.3373 53.2969L23.3414 54.354ZM22.0654 54.2558C21.7401 54.2022 21.5104 53.9074 21.5373 53.5783L22.589 53.6644C22.6068 53.4451 22.4537 53.2485 22.2369 53.2127L22.0654 54.2558ZM21.5373 53.5783C21.5642 53.2491 21.8387 52.9957 22.1683 52.9957V54.0529C22.3881 54.0529 22.571 53.8839 22.589 53.6644L21.5373 53.5783ZM22.1683 52.9957C22.6434 52.9957 23.0699 53.0281 23.4494 53.0936L23.2705 54.1354C22.9622 54.0823 22.597 54.0529 22.1683 54.0529V52.9957ZM23.3567 53.0858C25.3192 53.0737 27.832 52.2509 28.9769 49.3958L29.956 49.7899C28.5967 53.1793 25.5863 54.1293 23.3633 54.143L23.3567 53.0858ZM28.9769 49.3958C29.3671 48.4228 29.6109 47.1901 29.6109 45.6346H30.6661C30.6661 47.3 30.4049 48.6704 29.956 49.7899L28.9769 49.3958ZM29.6109 45.6346C29.6109 45.2844 29.8944 45.0003 30.244 45.0003V46.0575C30.4771 46.0575 30.6661 45.8682 30.6661 45.6346H29.6109ZM30.244 45.0003C30.5936 45.0003 30.8771 45.2844 30.8771 45.6346H29.822C29.822 45.8682 30.0108 46.0575 30.244 46.0575V45.0003ZM30.8771 45.6346C30.8771 47.2894 30.6227 48.6655 30.1784 49.8017L29.196 49.416C29.5841 48.4233 29.822 47.1814 29.822 45.6346H30.8771ZM30.071 49.2461C33.4882 52.876 35.7719 53.4357 37.4931 52.9831L37.761 54.0057C35.4741 54.6069 32.8133 53.6999 29.3034 49.9716L30.071 49.2461ZM37.4931 52.9831C38.3978 52.7453 39.235 52.2096 40.0782 51.5061L40.7535 52.3183C39.8602 53.0639 38.8825 53.7109 37.761 54.0057L37.4931 52.9831ZM40.0782 51.5061C40.6246 51.0501 41.1513 50.5432 41.6947 50.02L42.4258 50.7822C41.8875 51.3007 41.3336 51.8342 40.7535 52.3183L40.0782 51.5061ZM41.6947 50.02C41.9735 49.7516 42.2566 49.479 42.5437 49.2127L43.2604 49.9885C42.9818 50.247 42.7058 50.5126 42.4258 50.7822L41.6947 50.02ZM42.3995 49.7617C42.0621 48.705 41.8792 47.5572 42.2209 46.6276L43.2111 46.9928C42.9967 47.5762 43.0833 48.4338 43.4046 49.4395L42.3995 49.7617ZM42.2209 46.6276C42.404 46.1293 42.7342 45.705 43.2348 45.4151L43.7629 46.3304C43.4898 46.4885 43.3147 46.7107 43.2111 46.9928L42.2209 46.6276ZM43.2348 45.4151C43.7238 45.1319 44.3337 45.0003 45.0495 45.0003V46.0575C44.4553 46.0575 44.0438 46.1677 43.7629 46.3304L43.2348 45.4151ZM45.0495 45.0003C45.3991 45.0003 45.6826 45.2844 45.6826 45.6346H44.6274C44.6274 45.8682 44.8164 46.0575 45.0495 46.0575V45.0003ZM45.6826 45.6346C45.6826 45.985 45.3991 46.269 45.0495 46.269V45.2118C44.8164 45.2118 44.6274 45.4011 44.6274 45.6346H45.6826ZM45.0495 46.269C44.4796 46.269 44.1078 46.3748 43.8685 46.5134L43.3404 45.5982C43.7877 45.339 44.358 45.2118 45.0495 45.2118V46.269ZM43.8685 46.5134C43.6409 46.6452 43.4969 46.8269 43.409 47.0659L42.4188 46.7006C42.5861 46.2456 42.8854 45.8617 43.3404 45.5982L43.8685 46.5134ZM43.409 47.0659C43.2158 47.5918 43.2913 48.4143 43.6249 49.4349L42.6222 49.7639C42.273 48.6958 42.0963 47.5785 42.4188 46.7006L43.409 47.0659ZM43.6249 49.4349C44.0635 50.7766 44.8703 52.2297 45.5743 53.2752L44.6996 53.8665C43.9634 52.7732 43.1014 51.2303 42.6222 49.7639L43.6249 49.4349ZM45.5743 53.2752C45.7509 53.5376 45.7076 53.8904 45.4725 54.1019L44.7674 53.3154C44.6107 53.4564 44.5818 53.6915 44.6996 53.8665L45.5743 53.2752ZM45.4725 54.1019C44.8765 54.6383 44.2235 55.3068 43.6711 56.0027L42.8452 55.3447C43.441 54.5941 44.1365 53.8832 44.7674 53.3154L45.4725 54.1019ZM43.6711 56.0027C43.1116 56.7078 42.6894 57.399 42.5077 57.9829L41.5003 57.6682C41.7391 56.9009 42.2545 56.0892 42.8452 55.3447L43.6711 56.0027ZM42.5077 57.9829C42.3287 58.5581 42.4154 58.8886 42.6418 59.1057L41.9122 59.8694C41.2793 59.2624 41.2597 58.4418 41.5003 57.6682L42.5077 57.9829ZM42.6418 59.1057C42.9277 59.3799 43.6076 59.6583 45.0495 59.6583V60.7155C43.5431 60.7155 42.5055 60.4384 41.9122 59.8694L42.6418 59.1057ZM45.0495 59.6583H54.3645V60.7155H45.0495V59.6583ZM53.8369 60.1871C53.8356 56.181 53.7524 50.3383 52.2508 45.4894L53.2585 45.1761C54.8141 50.199 54.8908 56.1958 54.8921 60.1867L53.8369 60.1871ZM52.2508 45.4894C51.4949 43.0487 50.3942 40.9109 48.8089 39.3881L49.539 38.6249C51.3 40.3164 52.4728 42.639 53.2585 45.1761L52.2508 45.4894ZM48.8089 39.3881C47.2392 37.8803 45.1598 36.941 42.3575 36.941V35.8838C45.4245 35.8838 47.7675 36.9234 49.539 38.6249L48.8089 39.3881ZM42.3575 36.941H42.2883V35.8838H42.3575V36.941ZM42.2883 36.941H42.2196V35.8838H42.2883V36.941ZM42.2196 36.941H42.1513V35.8838H42.2196V36.941ZM42.1513 36.941H42.0833V35.8838H42.1513V36.941ZM42.0833 36.941H42.0159V35.8838H42.0833V36.941ZM42.0159 36.941H41.9488V35.8838H42.0159V36.941ZM41.9488 36.941H41.8822V35.8838H41.9488V36.941ZM41.8822 36.941H41.8159V35.8838H41.8822V36.941ZM41.8159 36.941H41.7502V35.8838H41.8159V36.941ZM41.7502 36.941H41.6848V35.8838H41.7502V36.941ZM41.6848 36.941H41.6198V35.8838H41.6848V36.941ZM41.6198 36.941H41.5553V35.8838H41.6198V36.941ZM41.5553 36.941H41.4912V35.8838H41.5553V36.941ZM41.4912 36.941H41.4274V35.8838H41.4912V36.941ZM41.4274 36.941H41.3641V35.8838H41.4274V36.941ZM41.3641 36.941H41.3012V35.8838H41.3641V36.941ZM41.3012 36.941H41.2388V35.8838H41.3012V36.941ZM41.2388 36.941H41.1767V35.8838H41.2388V36.941ZM41.1767 36.941H41.115V35.8838H41.1767V36.941ZM41.115 36.941H41.0537V35.8838H41.115V36.941ZM41.0537 36.941H40.9929V35.8838H41.0537V36.941ZM40.9929 36.941H40.9325V35.8838H40.9929V36.941ZM40.9325 36.941H40.8724V35.8838H40.9325V36.941ZM40.8724 36.941H40.8127V35.8838H40.8724V36.941ZM40.8127 36.941H40.7535V35.8838H40.8127V36.941ZM40.7535 36.941H40.6946V35.8838H40.7535V36.941ZM40.6946 36.941H40.6362V35.8838H40.6946V36.941ZM40.6362 36.941H40.5781V35.8838H40.6362V36.941ZM40.5781 36.941H40.5204V35.8838H40.5781V36.941ZM40.5204 36.941H40.4631V35.8838H40.5204V36.941ZM40.4631 36.941H40.4062V35.8838H40.4631V36.941ZM40.4062 36.941H40.3498V35.8838H40.4062V36.941ZM40.3498 36.941H40.2937V35.8838H40.3498V36.941ZM40.2937 36.941H40.2379V35.8838H40.2937V36.941ZM40.2379 36.941H40.1827V35.8838H40.2379V36.941ZM40.1827 36.941H40.1277V35.8838H40.1827V36.941ZM40.1277 36.941H40.0731V35.8838H40.1277V36.941ZM40.0731 36.941H40.019V35.8838H40.0731V36.941ZM40.019 36.941H39.9652V35.8838H40.019V36.941ZM39.9652 36.941H39.9118V35.8838H39.9652V36.941ZM39.9118 36.941H39.8588V35.8838H39.9118V36.941ZM39.8588 36.941H39.8062V35.8838H39.8588V36.941ZM39.8062 36.941H39.7538V35.8838H39.8062V36.941ZM39.7538 36.941H39.702V35.8838H39.7538V36.941ZM39.702 36.941H39.6504V35.8838H39.702V36.941ZM39.6504 36.941H39.5994V35.8838H39.6504V36.941ZM39.5994 36.941H39.5486V35.8838H39.5994V36.941ZM39.5486 36.941H39.4982V35.8838H39.5486V36.941ZM39.4982 36.941H39.4482V35.8838H39.4982V36.941ZM39.4482 36.941H39.3985V35.8838H39.4482V36.941ZM39.3985 36.941H39.3492V35.8838H39.3985V36.941ZM39.3492 36.941H39.3002V35.8838H39.3492V36.941ZM39.3002 36.941H39.2517V35.8838H39.3002V36.941ZM39.2517 36.941H39.2035V35.8838H39.2517V36.941ZM39.2035 36.941H39.1557V35.8838H39.2035V36.941ZM39.1557 36.941H39.1082V35.8838H39.1557V36.941ZM39.1082 36.941H39.0611V35.8838H39.1082V36.941ZM39.0611 36.941H39.0144V35.8838H39.0611V36.941ZM39.0144 36.941H38.968V35.8838H39.0144V36.941ZM38.968 36.941H38.922V35.8838H38.968V36.941ZM38.922 36.941H38.8763V35.8838H38.922V36.941ZM38.8763 36.941H38.8309V35.8838H38.8763V36.941ZM38.8309 36.941H38.7859V35.8838H38.8309V36.941ZM38.7859 36.941H38.7413V35.8838H38.7859V36.941ZM38.7413 36.941H38.6971V35.8838H38.7413V36.941ZM38.6971 36.941H38.6532V35.8838H38.6971V36.941ZM38.6532 36.941H38.6096V35.8838H38.6532V36.941ZM38.6096 36.941H38.5664V35.8838H38.6096V36.941ZM38.5664 36.941H38.5235V35.8838H38.5664V36.941ZM38.5235 36.941H38.481V35.8838H38.5235V36.941ZM38.481 36.941H38.4388V35.8838H38.481V36.941ZM38.4388 36.941H38.3969V35.8838H38.4388V36.941ZM38.3969 36.941H38.3554V35.8838H38.3969V36.941ZM38.3554 36.941H38.3143V35.8838H38.3554V36.941ZM38.3143 36.941H38.2735V35.8838H38.3143V36.941ZM38.2735 36.941H38.2329V35.8838H38.2735V36.941ZM38.2329 36.941H38.1927V35.8838H38.2329V36.941ZM38.1927 36.941H38.153V35.8838H38.1927V36.941ZM38.153 36.941H38.1135V35.8838H38.153V36.941ZM38.1135 36.941H38.0743V35.8838H38.1135V36.941ZM38.0743 36.941H38.0355V35.8838H38.0743V36.941ZM38.0355 36.941H37.997V35.8838H38.0355V36.941ZM37.997 36.941H37.9588V35.8838H37.997V36.941ZM37.9588 36.941H37.921V35.8838H37.9588V36.941ZM37.921 36.941H37.8835V35.8838H37.921V36.941ZM37.8835 36.941H37.8463V35.8838H37.8835V36.941ZM37.8463 36.941H37.8094V35.8838H37.8463V36.941ZM37.8094 36.941H37.7729V35.8838H37.8094V36.941ZM37.7729 36.941H37.7367V35.8838H37.7729V36.941ZM37.7367 36.941H37.7007V35.8838H37.7367V36.941ZM37.7007 36.941H37.6652V35.8838H37.7007V36.941ZM37.6652 36.941H37.6299V35.8838H37.6652V36.941ZM37.6299 36.941H37.595V35.8838H37.6299V36.941ZM37.595 36.941H37.5604V35.8838H37.595V36.941ZM37.5604 36.941H37.526V35.8838H37.5604V36.941ZM37.526 36.941H37.492V35.8838H37.526V36.941ZM37.492 36.941H37.4583V35.8838H37.492V36.941ZM37.4583 36.941H37.4249V35.8838H37.4583V36.941ZM37.4249 36.941H37.3919V35.8838H37.4249V36.941ZM37.3919 36.941H37.3591V35.8838H37.3919V36.941ZM37.3591 36.941H37.3267V35.8838H37.3591V36.941ZM37.3267 36.941H37.2945V35.8838H37.3267V36.941ZM37.2945 36.941H37.2626V35.8838H37.2945V36.941ZM37.2626 36.941H37.2311V35.8838H37.2626V36.941ZM37.2311 36.941H37.1998V35.8838H37.2311V36.941ZM37.1998 36.941H37.1689V35.8838H37.1998V36.941ZM37.1689 36.941H37.1382V35.8838H37.1689V36.941ZM37.1382 36.941H37.1078V35.8838H37.1382V36.941ZM37.1078 36.941H37.0779V35.8838H37.1078V36.941ZM37.0779 36.941H37.0481V35.8838H37.0779V36.941ZM37.0481 36.941H37.0186V35.8838H37.0481V36.941ZM37.0186 36.941H36.9894V35.8838H37.0186V36.941ZM36.9894 36.941H36.9605V35.8838H36.9894V36.941ZM36.9605 36.941H36.9319V35.8838H36.9605V36.941ZM36.9319 36.941H36.9037V35.8838H36.9319V36.941ZM36.9037 36.941H36.8757V35.8838H36.9037V36.941ZM36.8757 36.941H36.8479V35.8838H36.8757V36.941ZM36.8479 36.941H36.8205V35.8838H36.8479V36.941ZM36.8205 36.941H36.7933V35.8838H36.8205V36.941ZM36.7933 36.941H36.7665V35.8838H36.7933V36.941ZM36.7665 36.941H36.7399V35.8838H36.7665V36.941ZM36.7399 36.941H36.7135V35.8838H36.7399V36.941ZM36.7135 36.941H36.6876V35.8838H36.7135V36.941ZM36.6876 36.941H36.6618V35.8838H36.6876V36.941ZM36.6618 36.941H36.6363V35.8838H36.6618V36.941ZM36.6363 36.941H36.6112V35.8838H36.6363V36.941ZM36.6112 36.941H36.5862V35.8838H36.6112V36.941ZM36.5862 36.941H36.5616V35.8838H36.5862V36.941ZM36.5616 36.941H36.5372V35.8838H36.5616V36.941ZM36.5372 36.941H36.513V35.8838H36.5372V36.941ZM36.513 36.941H36.4892V35.8838H36.513V36.941ZM36.4892 36.941H36.4657V35.8838H36.4892V36.941ZM36.4657 36.941H36.4423V35.8838H36.4657V36.941ZM36.4423 36.941H36.4193V35.8838H36.4423V36.941ZM36.4193 36.941H36.3965V35.8838H36.4193V36.941ZM36.3965 36.941H36.3741V35.8838H36.3965V36.941ZM36.3741 36.941H36.3518V35.8838H36.3741V36.941ZM36.3518 36.941H36.3299V35.8838H36.3518V36.941ZM36.3299 36.941H36.3081V35.8838H36.3299V36.941ZM36.3081 36.941H36.2866V35.8838H36.3081V36.941ZM36.2866 36.941H36.2654V35.8838H36.2866V36.941ZM36.2654 36.941H36.2445V35.8838H36.2654V36.941ZM36.2445 36.941H36.2237V35.8838H36.2445V36.941ZM36.2237 36.941H36.2033V35.8838H36.2237V36.941ZM36.2033 36.941H36.1831V35.8838H36.2033V36.941ZM36.1831 36.941H36.1631V35.8838H36.1831V36.941ZM36.1631 36.941H36.1435V35.8838H36.1631V36.941ZM36.1435 36.941H36.1241V35.8838H36.1435V36.941ZM36.1241 36.941H36.1049V35.8838H36.1241V36.941ZM36.1049 36.941H36.0859V35.8838H36.1049V36.941ZM36.0859 36.941H36.0672V35.8838H36.0859V36.941ZM36.0672 36.941H36.0488V35.8838H36.0672V36.941ZM36.0488 36.941H36.0305V35.8838H36.0488V36.941ZM36.0305 36.941H36.0126V35.8838H36.0305V36.941ZM36.0126 36.941H35.9948V35.8838H36.0126V36.941ZM35.9948 36.941H35.9773V35.8838H35.9948V36.941ZM35.9773 36.941H35.9601V35.8838H35.9773V36.941ZM35.9601 36.941H35.9467V35.8838H35.9601V36.941ZM35.9467 36.941H35.9466V35.8838H35.9467V36.941ZM35.9466 36.941H35.9465V35.8838H35.9466V36.941ZM35.9465 36.941H35.9463V35.8838H35.9465V36.941ZM35.9463 36.941H35.9461V35.8838H35.9463V36.941ZM35.9461 36.941H35.9456V35.8838H35.9461V36.941ZM35.9456 36.941H35.945V35.8838H35.9456V36.941ZM35.945 36.941H35.9448V35.8838H35.945V36.941ZM35.9448 36.941H35.9443V35.8838H35.9448V36.941ZM35.9443 36.941H35.9435V35.8838H35.9443V36.941ZM35.9435 36.941H35.9434V35.8838H35.9435V36.941ZM35.9434 36.941H35.943V35.8838H35.9434V36.941ZM35.943 36.941H35.9425V35.8838H35.943V36.941ZM35.9425 36.941H35.9424V35.8838H35.9425V36.941ZM35.9424 36.941H35.9415V35.8838H35.9424V36.941ZM35.9415 36.941H35.9403V35.8838H35.9415V36.941ZM35.9403 36.941H35.9402V35.8838H35.9403V36.941ZM35.9402 36.941H35.939V35.8838H35.9402V36.941ZM35.939 36.941H35.9388V35.8838H35.939V36.941ZM35.9388 36.941H35.9377V35.8838H35.9388V36.941ZM35.9377 36.941H35.9373V35.8838H35.9377V36.941ZM35.9373 36.941H35.9363V35.8838H35.9373V36.941ZM35.9363 36.941H35.9358V35.8838H35.9363V36.941ZM35.9358 36.941H35.9347V35.8838H35.9358V36.941ZM35.9347 36.941H35.934V35.8838H35.9347V36.941ZM35.934 36.941H35.9331V35.8838H35.934V36.941ZM35.9331 36.941H35.9322V35.8838H35.9331V36.941ZM35.9322 36.941H35.9313V35.8838H35.9322V36.941ZM35.9313 36.941H35.9301V35.8838H35.9313V36.941ZM35.9301 36.941H35.9295V35.8838H35.9301V36.941ZM35.9295 36.941H35.928V35.8838H35.9295V36.941ZM35.928 36.941H35.9275V35.8838H35.928V36.941ZM35.9275 36.941H35.9263V35.8838H35.9275V36.941ZM35.9263 36.941H35.9256V35.8838H35.9263V36.941ZM35.9256 36.941H35.9234V35.8838H35.9256V36.941ZM35.9234 36.941H35.9232V35.8838H35.9234V36.941ZM35.9232 36.941H35.9212V35.8838H35.9232V36.941ZM35.9212 36.941H35.9207V35.8838H35.9212V36.941ZM35.9207 36.941H35.9189V35.8838H35.9207V36.941ZM35.9189 36.941H35.9179V35.8838H35.9189V36.941ZM35.9179 36.941H35.9165V35.8838H35.9179V36.941ZM35.9165 36.941H35.9151V35.8838H35.9165V36.941ZM35.9151 36.941H35.914V35.8838H35.9151V36.941ZM35.914 36.941H35.912V35.8838H35.914V36.941ZM35.912 36.941H35.9114V35.8838H35.912V36.941ZM35.9114 36.941H35.9097V35.8838H35.9114V36.941ZM35.9097 36.941H35.9089V35.8838H35.9097V36.941ZM35.9089 36.941H35.9087V35.8838H35.9089V36.941ZM35.9087 36.941H35.906V35.8838H35.9087V36.941ZM35.906 36.941H35.9056V35.8838H35.906V36.941ZM35.9056 36.941H35.9032V35.8838H35.9056V36.941ZM35.9032 36.941H35.9021V35.8838H35.9032V36.941ZM35.9021 36.941H35.9003V35.8838H35.9021V36.941ZM35.9003 36.941H35.8985V35.8838H35.9003V36.941ZM35.8985 36.941H35.8972V35.8838H35.8985V36.941ZM35.8972 36.941H35.8947V35.8838H35.8972V36.941ZM35.8947 36.941H35.8942V35.8838H35.8947V36.941ZM35.8942 36.941H35.8934V35.8838H35.8942V36.941ZM35.8934 36.941H35.891V35.8838H35.8934V36.941ZM35.891 36.941H35.8908V35.8838H35.891V36.941ZM35.8908 36.941H35.8879V35.8838H35.8908V36.941ZM35.8879 36.941H35.8868V35.8838H35.8879V36.941ZM35.8868 36.941H35.8845V35.8838H35.8868V36.941ZM35.8845 36.941H35.8826V35.8838H35.8845V36.941ZM35.8826 36.941H35.8811V35.8838H35.8826V36.941ZM35.8811 36.941H35.8781V35.8838H35.8811V36.941ZM35.8781 36.941H35.8776V35.8838H35.8781V36.941ZM35.8776 36.941H35.8773V35.8838H35.8776V36.941ZM35.8773 36.941H35.8741V35.8838H35.8773V36.941ZM35.8741 36.941H35.8737V35.8838H35.8741V36.941ZM35.8737 36.941H35.8705V35.8838H35.8737V36.941ZM35.8705 36.941H35.869V35.8838H35.8705V36.941ZM35.869 36.941H35.8669V35.8838H35.869V36.941ZM35.8669 36.941H35.8641V35.8838H35.8669V36.941ZM35.8641 36.941H35.8632V35.8838H35.8641V36.941ZM35.8632 36.941H35.8615V35.8838H35.8632V36.941ZM35.8615 36.941H35.8594V35.8838H35.8615V36.941ZM35.8594 36.941H35.8592V35.8838H35.8594V36.941ZM35.8592 36.941H35.8555V35.8838H35.8592V36.941ZM35.8555 36.941H35.854V35.8838H35.8555V36.941ZM35.854 36.941H35.8515V35.8838H35.854V36.941ZM35.8515 36.941H35.8486V35.8838H35.8515V36.941ZM35.8486 36.941H35.8475V35.8838H35.8486V36.941ZM35.8475 36.941H35.8459V35.8838H35.8475V36.941ZM35.8459 36.941H35.8434V35.8838H35.8459V36.941ZM35.8434 36.941H35.8431V35.8838H35.8434V36.941ZM35.8431 36.941H35.8393V35.8838H35.8431V36.941ZM35.8393 36.941H35.8374V35.8838H35.8393V36.941ZM35.8374 36.941H35.8351V35.8838H35.8374V36.941ZM35.8351 36.941H35.8316V35.8838H35.8351V36.941ZM35.8316 36.941H35.8309V35.8838H35.8316V36.941ZM35.8309 36.941H35.8305V35.8838H35.8309V36.941ZM35.8305 36.941H35.8265V35.8838H35.8305V36.941ZM35.8265 36.941H35.8256V35.8838H35.8265V36.941ZM35.8256 36.941H35.8222V35.8838H35.8256V36.941ZM35.8222 36.941H35.8195V35.8838H35.8222V36.941ZM35.8195 36.941H35.8178V35.8838H35.8195V36.941ZM35.8178 36.941H35.8153V35.8838H35.8178V36.941ZM35.8153 36.941H35.8133V35.8838H35.8153V36.941ZM35.8133 36.941H35.813V35.8838H35.8133V36.941ZM35.813 36.941H35.8088V35.8838H35.813V36.941ZM35.8088 36.941H35.8066V35.8838H35.8088V36.941ZM35.8066 36.941H35.8042V35.8838H35.8066V36.941ZM35.8042 36.941H35.8003V35.8838H35.8042V36.941ZM35.8003 36.941H35.7999V35.8838H35.8003V36.941ZM35.7999 36.941H35.7995V35.8838H35.7999V36.941ZM35.7995 36.941H35.7949V35.8838H35.7995V36.941ZM35.7949 36.941H35.793V35.8838H35.7949V36.941ZM35.793 36.941H35.7901V35.8838H35.793V36.941ZM35.7901 36.941H35.786V35.8838H35.7901V36.941ZM35.786 36.941H35.7856V35.8838H35.786V36.941ZM35.7856 36.941H35.7854V35.8838H35.7856V36.941ZM35.7854 36.941H35.7805V35.8838H35.7854V36.941ZM35.7805 36.941H35.7788V35.8838H35.7805V36.941ZM35.7788 36.941H35.7757V35.8838H35.7788V36.941ZM35.7757 36.941H35.7714V35.8838H35.7757V36.941ZM35.7714 36.941H35.7712V35.8838H35.7714V36.941ZM35.7712 36.941H35.7708V35.8838H35.7712V36.941ZM35.7708 36.941H35.7659V35.8838H35.7708V36.941ZM35.7659 36.941H35.7638V35.8838H35.7659V36.941ZM35.7638 36.941H35.7608V35.8838H35.7638V36.941ZM35.7608 36.941H35.7568V35.8838H35.7608V36.941ZM35.7568 36.941H35.7561V35.8838H35.7568V36.941ZM35.7561 36.941H35.7559V35.8838H35.7561V36.941ZM35.7559 36.941H35.7508V35.8838H35.7559V36.941ZM35.7508 36.941H35.7482V35.8838H35.7508V36.941ZM35.7482 36.941H35.7456V35.8838H35.7482V36.941ZM35.7456 36.941H35.7428V35.8838H35.7456V36.941ZM35.7428 36.941H35.7406V35.8838H35.7428V36.941ZM35.7406 36.941H35.74V35.8838H35.7406V36.941ZM35.74 36.941H35.7353V35.8838H35.74V36.941ZM35.7353 36.941H35.7317V35.8838H35.7353V36.941ZM35.7317 36.941H35.7301V35.8838H35.7317V36.941ZM35.7301 36.941H35.7289V35.8838H35.7301V36.941ZM35.7289 36.941H35.7248V35.8838H35.7289V36.941ZM35.7248 36.941H35.7231V35.8838H35.7248V36.941ZM35.7231 36.941H35.7196V35.8838H35.7231V36.941ZM35.7196 36.941H35.7153V35.8838H35.7196V36.941ZM35.7153 36.941H35.7145V35.8838H35.7153V36.941ZM35.7145 36.941H35.7143V35.8838H35.7145V36.941ZM35.7143 36.941H35.709V35.8838H35.7143V36.941ZM35.709 36.941H35.7056V35.8838H35.709V36.941ZM35.7056 36.941H35.7036V35.8838H35.7056V36.941ZM35.7036 36.941H35.7019V35.8838H35.7036V36.941ZM35.7019 36.941H35.6982V35.8838H35.7019V36.941ZM35.6982 36.941H35.6966V35.8838H35.6982V36.941ZM35.6966 36.941H35.6929V35.8838H35.6966V36.941ZM35.6929 36.941H35.6887V35.8838H35.6929V36.941ZM35.6887 36.941H35.6874V35.8838H35.6887V36.941ZM35.6874 36.941H35.6819V35.8838H35.6874V36.941ZM35.6819 36.941H35.6779V35.8838H35.6819V36.941ZM35.6779 36.941H35.6764V35.8838H35.6779V36.941ZM35.6764 36.941H35.6758V35.8838H35.6764V36.941ZM35.6758 36.941H35.6709V35.8838H35.6758V36.941ZM35.6709 36.941H35.6683V35.8838H35.6709V36.941ZM35.6683 36.941H35.6654V35.8838H35.6683V36.941ZM35.6654 36.941H35.663V35.8838H35.6654V36.941ZM35.663 36.941H35.6599V35.8838H35.663V36.941ZM35.6599 36.941H35.6585V35.8838H35.6599V36.941ZM35.6585 36.941H35.6543V35.8838H35.6585V36.941ZM35.6543 36.941H35.6504V35.8838H35.6543V36.941ZM35.6504 36.941H35.6488V35.8838H35.6504V36.941ZM35.6488 36.941H35.6484V35.8838H35.6488V36.941ZM35.6484 36.941H35.6432V35.8838H35.6484V36.941ZM35.6432 36.941H35.6382V35.8838H35.6432V36.941ZM35.6382 36.941H35.6376V35.8838H35.6382V36.941ZM35.6376 36.941H35.632V35.8838H35.6376V36.941ZM35.632 36.941H35.6278V35.8838H35.632V36.941ZM35.6278 36.941H35.6264V35.8838H35.6278V36.941ZM35.6264 36.941H35.626V35.8838H35.6264V36.941ZM35.626 36.941H35.6208V35.8838H35.626V36.941ZM35.6208 36.941H35.6151V35.8838H35.6208V36.941ZM35.6151 36.941H35.614V35.8838H35.6151V36.941ZM35.614 36.941H35.6095V35.8838H35.614V36.941ZM35.6095 36.941H35.6039V35.8838H35.6095V36.941ZM35.6039 36.941H35.6023V35.8838H35.6039V36.941ZM35.6023 36.941H35.5982V35.8838H35.6023V36.941ZM35.5982 36.941H35.5925V35.8838H35.5982V36.941ZM35.5925 36.941H35.5908V35.8838H35.5925V36.941ZM35.5908 36.941H35.5869V35.8838H35.5908V36.941ZM35.5869 36.941H35.5812V35.8838H35.5869V36.941ZM35.5812 36.941H35.5795V35.8838H35.5812V36.941ZM35.5795 36.941H35.5756V35.8838H35.5795V36.941ZM35.5756 36.941H35.5699V35.8838H35.5756V36.941ZM35.5699 36.941H35.5685V35.8838H35.5699V36.941ZM35.5685 36.941H35.5643V35.8838H35.5685V36.941ZM35.5643 36.941H35.5586V35.8838H35.5643V36.941ZM35.5586 36.941H35.5576V35.8838H35.5586V36.941ZM35.5576 36.941H35.5531V35.8838H35.5576V36.941ZM35.5531 36.941H35.5475V35.8838H35.5531V36.941ZM35.5475 36.941H35.5468V35.8838H35.5475V36.941ZM35.5468 36.941H35.5418V35.8838H35.5468V36.941ZM35.5418 36.941H35.5364V35.8838H35.5418V36.941ZM35.5364 36.941H35.5362V35.8838H35.5364V36.941ZM35.5362 36.941H35.5306V35.8838H35.5362V36.941ZM35.5306 36.941H35.526V35.8838H35.5306V36.941ZM35.526 36.941H35.525V35.8838H35.526V36.941ZM35.525 36.941H35.5194V35.8838H35.525V36.941ZM35.5194 36.941H35.5159V35.8838H35.5194V36.941ZM35.5159 36.941H35.5139V35.8838H35.5159V36.941ZM35.5139 36.941H35.5083V35.8838H35.5139V36.941ZM35.5083 36.941H35.5061V35.8838H35.5083V36.941ZM35.5061 36.941H35.5028V35.8838H35.5061V36.941ZM35.5028 36.941H35.4972V35.8838H35.5028V36.941ZM35.4972 36.941H35.4964V35.8838H35.4972V36.941ZM35.4964 36.941H35.4917V35.8838H35.4964V36.941ZM35.4917 36.941H35.4868V35.8838H35.4917V36.941ZM35.4868 36.941H35.4864V35.8838H35.4868V36.941ZM35.4864 36.941H35.4809V35.8838H35.4864V36.941ZM35.4809 36.941H35.4775V35.8838H35.4809V36.941ZM35.4775 36.941H35.4755V35.8838H35.4775V36.941ZM35.4755 36.941H35.47V35.8838H35.4755V36.941ZM35.47 36.941H35.4684V35.8838H35.47V36.941ZM35.4684 36.941H35.4646V35.8838H35.4684V36.941ZM35.4646 36.941H35.4595V35.8838H35.4646V36.941ZM35.4595 36.941H35.454V35.8838H35.4595V36.941ZM35.454 36.941H35.4507V35.8838H35.454V36.941ZM35.4507 36.941H35.4487V35.8838H35.4507V36.941ZM35.4487 36.941H35.4434V35.8838H35.4487V36.941ZM35.4434 36.941H35.4422V35.8838H35.4434V36.941ZM35.4422 36.941H35.4383V35.8838H35.4422V36.941ZM35.4383 36.941H35.4337V35.8838H35.4383V36.941ZM35.4337 36.941H35.4331V35.8838H35.4337V36.941ZM35.4331 36.941H35.4279V35.8838H35.4331V36.941ZM35.4279 36.941H35.4256V35.8838H35.4279V36.941ZM35.4256 36.941H35.4227V35.8838H35.4256V36.941ZM35.4227 36.941H35.4177V35.8838H35.4227V36.941ZM35.4177 36.941H35.4176V35.8838H35.4177V36.941ZM35.4176 36.941H35.4126V35.8838H35.4176V36.941ZM35.4126 36.941H35.4097V35.8838H35.4126V36.941ZM35.4097 36.941H35.4075V35.8838H35.4097V36.941ZM35.4075 36.941H35.4026V35.8838H35.4075V36.941ZM35.4026 36.941H35.4021V35.8838H35.4026V36.941ZM35.4021 36.941H35.3976V35.8838H35.4021V36.941ZM35.3976 36.941H35.3946V35.8838H35.3976V36.941ZM35.3946 36.941H35.3928V35.8838H35.3946V36.941ZM35.3928 36.941H35.3879V35.8838H35.3928V36.941ZM35.3879 36.941H35.3873V35.8838H35.3879V36.941ZM35.3873 36.941H35.3832V35.8838H35.3873V36.941ZM35.3832 36.941H35.3802V35.8838H35.3832V36.941ZM35.3802 36.941H35.3784V35.8838H35.3802V36.941ZM35.3784 36.941H35.3737V35.8838H35.3784V36.941ZM35.3737 36.941H35.3733V35.8838H35.3737V36.941ZM35.3733 36.941H35.369V35.8838H35.3733V36.941ZM35.369 36.941H35.3665V35.8838H35.369V36.941ZM35.3665 36.941H35.3644V35.8838H35.3665V36.941ZM35.3644 36.941H35.36V35.8838H35.3644V36.941ZM35.36 36.941H35.3599V35.8838H35.36V36.941ZM35.3599 36.941H35.3553V35.8838H35.3599V36.941ZM35.3553 36.941H35.3535V35.8838H35.3553V36.941ZM35.3535 36.941H35.3509V35.8838H35.3535V36.941ZM35.3509 36.941H35.3473V35.8838H35.3509V36.941ZM35.3473 36.941H35.3465V35.8838H35.3473V36.941ZM35.3465 36.941H35.3421V35.8838H35.3465V36.941ZM35.3421 36.941H35.3412V35.8838H35.3421V36.941ZM35.3412 36.941H35.3379V35.8838H35.3412V36.941ZM35.3379 36.941H35.3353V35.8838H35.3379V36.941ZM35.3353 36.941H35.3337V35.8838H35.3353V36.941ZM35.3337 36.941H35.3296V35.8838H35.3337V36.941ZM35.3296 36.941H35.3295V35.8838H35.3296V36.941ZM35.3295 36.941H35.3254V35.8838H35.3295V36.941ZM35.3254 36.941H35.324V35.8838H35.3254V36.941ZM35.324 36.941H35.3213V35.8838H35.324V36.941ZM35.3213 36.941H35.3186V35.8838H35.3213V36.941ZM35.3186 36.941H35.3173V35.8838H35.3186V36.941ZM35.3173 36.941H35.3134V35.8838H35.3173V36.941ZM35.3134 36.941H35.3096V35.8838H35.3134V36.941ZM35.3096 36.941H35.3083V35.8838H35.3096V36.941ZM35.3083 36.941H35.3058V35.8838H35.3083V36.941ZM35.3058 36.941H35.3034V35.8838H35.3058V36.941ZM35.3034 36.941H35.3021V35.8838H35.3034V36.941ZM35.3021 36.941H35.2987V35.8838H35.3021V36.941ZM35.2987 36.941H35.2984V35.8838H35.2987V36.941ZM35.2984 36.941H35.2949V35.8838H35.2984V36.941ZM35.2949 36.941H35.294V35.8838H35.2949V36.941ZM35.294 36.941H35.2914V35.8838H35.294V36.941ZM35.2914 36.941H35.2896V35.8838H35.2914V36.941ZM35.2896 36.941H35.288V35.8838H35.2896V36.941ZM35.288 36.941H35.2853V35.8838H35.288V36.941ZM35.2853 36.941H35.2846V35.8838H35.2853V36.941ZM35.2846 36.941H35.2814V35.8838H35.2846V36.941ZM35.2814 36.941H35.2811V35.8838H35.2814V36.941ZM35.2811 36.941H35.2781V35.8838H35.2811V36.941ZM35.2781 36.941H35.2772V35.8838H35.2781V36.941ZM35.2772 36.941H35.275V35.8838H35.2772V36.941ZM35.275 36.941H35.2734V35.8838H35.275V36.941ZM35.2734 36.941H35.272V35.8838H35.2734V36.941ZM35.272 36.941H35.2697V35.8838H35.272V36.941ZM35.2697 36.941H35.269V35.8838H35.2697V36.941ZM35.269 36.941H35.2663V35.8838H35.269V36.941ZM35.2663 36.941H35.2662V35.8838H35.2663V36.941ZM35.2662 36.941H35.2633V35.8838H35.2662V36.941ZM35.2633 36.941H35.2629V35.8838H35.2633V36.941ZM35.2629 36.941H35.2606V35.8838H35.2629V36.941ZM35.2606 36.941H35.2596V35.8838H35.2606V36.941ZM35.2596 36.941H35.258V35.8838H35.2596V36.941ZM35.258 36.941H35.2566V35.8838H35.258V36.941ZM35.2566 36.941H35.2554V35.8838H35.2566V36.941ZM35.2554 36.941H35.2536V35.8838H35.2554V36.941ZM35.2536 36.941H35.253V35.8838H35.2536V36.941ZM35.253 36.941H35.2509V35.8838H35.253V36.941ZM35.2509 36.941H35.2506V35.8838H35.2509V36.941ZM35.2506 36.941H35.2483V35.8838H35.2506V36.941ZM35.2483 36.941H35.2482V35.8838H35.2483V36.941ZM35.2482 36.941H35.2462V35.8838H35.2482V36.941ZM35.2462 36.941H35.2457V35.8838H35.2462V36.941ZM35.2457 36.941H35.2441V35.8838H35.2457V36.941ZM35.2441 36.941H35.2434V35.8838H35.2441V36.941ZM35.2434 36.941H35.2421V35.8838H35.2434V36.941ZM35.2421 36.941H35.2411V35.8838H35.2421V36.941ZM35.2411 36.941H35.2402V35.8838H35.2411V36.941ZM35.2402 36.941H35.2391V35.8838H35.2402V36.941ZM35.2391 36.941H35.2384V35.8838H35.2391V36.941ZM35.2384 36.941H35.2371V35.8838H35.2384V36.941ZM35.2371 36.941H35.2367V35.8838H35.2371V36.941ZM35.2367 36.941H35.2353V35.8838H35.2367V36.941ZM35.2353 36.941H35.2351V35.8838H35.2353V36.941ZM35.2351 36.941H35.2337V35.8838H35.2351V36.941ZM35.2337 36.941H35.2336V35.8838H35.2337V36.941ZM35.2336 36.941H35.2322V35.8838H35.2336V36.941ZM35.2322 36.941H35.2309V35.8838H35.2322V36.941ZM35.2309 36.941H35.2307V35.8838H35.2309V36.941ZM35.2307 36.941H35.2297V35.8838H35.2307V36.941ZM35.2297 36.941H35.2294V35.8838H35.2297V36.941ZM35.2294 36.941H35.2286V35.8838H35.2294V36.941ZM35.2286 36.941H35.2284V35.8838H35.2286V36.941ZM35.2284 36.941H35.2276V35.8838H35.2284V36.941ZM35.2276 36.941H35.2273V35.8838H35.2276V36.941ZM35.2273 36.941H35.2267V35.8838H35.2273V36.941ZM35.2267 36.941H35.2265V35.8838H35.2267V36.941ZM35.2265 36.941H35.226V35.8838H35.2265V36.941ZM35.226 36.941H35.2256V35.8838H35.226V36.941ZM35.2256 36.941H35.2253V35.8838H35.2256V36.941ZM35.2253 36.941H35.225V35.8838H35.2253V36.941ZM35.225 36.941H35.2248V35.8838H35.225V36.941ZM35.2248 36.941H35.2246V35.8838H35.2248V36.941ZM35.2246 36.941H35.2244V35.8838H35.2246V36.941ZM35.2244 36.941H35.2242V35.8838H35.2244V36.941ZM35.2242 36.941H35.224V35.8838H35.2242V36.941ZM35.224 36.941H35.2237L35.2238 35.8838H35.224V36.941ZM34.6962 36.4124C34.6962 36.3757 34.6962 36.339 34.6962 36.3067H35.7513C35.7513 36.339 35.7513 36.3757 35.7513 36.4124H34.6962ZM34.6962 36.3067C34.6962 36.2745 34.6962 36.2377 34.6962 36.201H35.7513C35.7513 36.2377 35.7513 36.2745 35.7513 36.3067H34.6962ZM35.2237 35.6724H35.224V36.7296H35.2237V35.6724ZM35.224 35.6724H35.2242V36.7296H35.224V35.6724ZM35.2242 35.6724H35.2244V36.7296H35.2242V35.6724ZM35.2244 35.6724H35.2246V36.7296H35.2244V35.6724ZM35.2246 35.6724H35.2248V36.7296H35.2246V35.6724ZM35.2248 35.6724H35.225V36.7296H35.2248V35.6724ZM35.225 35.6724H35.2253V36.7296H35.225V35.6724ZM35.2253 35.6724H35.2256V36.7296H35.2253V35.6724ZM35.2256 35.6724H35.226V36.7296H35.2256V35.6724ZM35.226 35.6724H35.2265V36.7296H35.226V35.6724ZM35.2265 35.6724H35.2267V36.7296H35.2265V35.6724ZM35.2267 35.6724H35.2273V36.7296H35.2267V35.6724ZM35.2273 35.6724H35.2276V36.7296H35.2273V35.6724ZM35.2276 35.6724H35.2284V36.7296H35.2276V35.6724ZM35.2284 35.6724H35.2286V36.7296H35.2284V35.6724ZM35.2286 35.6724H35.2294V36.7296H35.2286V35.6724ZM35.2294 35.6724H35.2297V36.7296H35.2294V35.6724ZM35.2297 35.6724H35.2307V36.7296H35.2297V35.6724ZM35.2307 35.6724H35.2309V36.7296H35.2307V35.6724ZM35.2309 35.6724H35.2322V36.7296H35.2309V35.6724ZM35.2322 35.6724H35.2336V36.7296H35.2322V35.6724ZM35.2336 35.6724H35.2337V36.7296H35.2336V35.6724ZM35.2337 35.6724H35.2351V36.7296H35.2337V35.6724ZM35.2351 35.6724H35.2353V36.7296H35.2351V35.6724ZM35.2353 35.6724H35.2367V36.7296H35.2353V35.6724ZM35.2367 35.6724H35.2371V36.7296H35.2367V35.6724ZM35.2371 35.6724H35.2384V36.7296H35.2371V35.6724ZM35.2384 35.6724H35.2391V36.7296H35.2384V35.6724ZM35.2391 35.6724H35.2402V36.7296H35.2391V35.6724ZM35.2402 35.6724H35.2411V36.7296H35.2402V35.6724ZM35.2411 35.6724H35.2421V36.7296H35.2411V35.6724ZM35.2421 35.6724H35.2434V36.7296H35.2421V35.6724ZM35.2434 35.6724H35.2441V36.7296H35.2434V35.6724ZM35.2441 35.6724H35.2457V36.7296H35.2441V35.6724ZM35.2457 35.6724H35.2462V36.7296H35.2457V35.6724ZM35.2462 35.6724H35.2482V36.7296H35.2462V35.6724ZM35.2482 35.6724H35.2483V36.7296H35.2482V35.6724ZM35.2483 35.6724H35.2506V36.7296H35.2483V35.6724ZM35.2506 35.6724H35.2509V36.7296H35.2506V35.6724ZM35.2509 35.6724H35.253V36.7296H35.2509V35.6724ZM35.253 35.6724H35.2536V36.7296H35.253V35.6724ZM35.2536 35.6724H35.2554V36.7296H35.2536V35.6724ZM35.2554 35.6724H35.2566V36.7296H35.2554V35.6724ZM35.2566 35.6724H35.258V36.7296H35.2566V35.6724ZM35.258 35.6724H35.2596V36.7296H35.258V35.6724ZM35.2596 35.6724H35.2606V36.7296H35.2596V35.6724ZM35.2606 35.6724H35.2629V36.7296H35.2606V35.6724ZM35.2629 35.6724H35.2633V36.7296H35.2629V35.6724ZM35.2633 35.6724H35.2662V36.7296H35.2633V35.6724ZM35.2662 35.6724H35.2663V36.7296H35.2662V35.6724ZM35.2663 35.6724H35.269V36.7296H35.2663V35.6724ZM35.269 35.6724H35.2697V36.7296H35.269V35.6724ZM35.2697 35.6724H35.272V36.7296H35.2697V35.6724ZM35.272 35.6724H35.2734V36.7296H35.272V35.6724ZM35.2734 35.6724H35.275V36.7296H35.2734V35.6724ZM35.275 35.6724H35.2772V36.7296H35.275V35.6724ZM35.2772 35.6724H35.2781V36.7296H35.2772V35.6724ZM35.2781 35.6724H35.2811V36.7296H35.2781V35.6724ZM35.2811 35.6724H35.2814V36.7296H35.2811V35.6724ZM35.2814 35.6724H35.2846V36.7296H35.2814V35.6724ZM35.2846 35.6724H35.2853V36.7296H35.2846V35.6724ZM35.2853 35.6724H35.288V36.7296H35.2853V35.6724ZM35.288 35.6724H35.2896V36.7296H35.288V35.6724ZM35.2896 35.6724H35.2914V36.7296H35.2896V35.6724ZM35.2914 35.6724H35.294V36.7296H35.2914V35.6724ZM35.294 35.6724H35.2949V36.7296H35.294V35.6724ZM35.2949 35.6724H35.2984V36.7296H35.2949V35.6724ZM35.2984 35.6724H35.2987V36.7296H35.2984V35.6724ZM35.2987 35.6724H35.3021V36.7296H35.2987V35.6724ZM35.3021 35.6724H35.3034V36.7296H35.3021V35.6724ZM35.3034 35.6724H35.3058V36.7296H35.3034V35.6724ZM35.3058 35.6724H35.3083V36.7296H35.3058V35.6724ZM35.3083 35.6724H35.3096V36.7296H35.3083V35.6724ZM35.3096 35.6724H35.3133V36.7296H35.3096V35.6724ZM35.3133 35.6724H35.3173V36.7296H35.3133V35.6724ZM35.3173 35.6724H35.3186V36.7296H35.3173V35.6724ZM35.3186 35.6724H35.3213V36.7296H35.3186V35.6724ZM35.3213 35.6724H35.324V36.7296H35.3213V35.6724ZM35.324 35.6724H35.3254V36.7296H35.324V35.6724ZM35.3254 35.6724H35.3295V36.7296H35.3254V35.6724ZM35.3295 35.6724H35.3296V36.7296H35.3295V35.6724ZM35.3296 35.6724H35.3337V36.7296H35.3296V35.6724ZM35.3337 35.6724H35.3353V36.7296H35.3337V35.6724ZM35.3353 35.6724H35.3379V36.7296H35.3353V35.6724ZM35.3379 35.6724H35.3412V36.7296H35.3379V35.6724ZM35.3412 35.6724H35.3421V36.7296H35.3412V35.6724ZM35.3421 35.6724H35.3465V36.7296H35.3421V35.6724ZM35.3465 35.6724H35.3473V36.7296H35.3465V35.6724ZM35.3473 35.6724H35.3509V36.7296H35.3473V35.6724ZM35.3509 35.6724H35.3535V36.7296H35.3509V35.6724ZM35.3535 35.6724H35.3553V36.7296H35.3535V35.6724ZM35.3553 35.6724H35.3599V36.7296H35.3553V35.6724ZM35.3599 35.6724H35.36V36.7296H35.3599V35.6724ZM35.36 35.6724H35.3644V36.7296H35.36V35.6724ZM35.3644 35.6724H35.3665V36.7296H35.3644V35.6724ZM35.3665 35.6724H35.369V36.7296H35.3665V35.6724ZM35.369 35.6724H35.3733V36.7296H35.369V35.6724ZM35.3733 35.6724H35.3737V36.7296H35.3733V35.6724ZM35.3737 35.6724H35.3784V36.7296H35.3737V35.6724ZM35.3784 35.6724H35.3802V36.7296H35.3784V35.6724ZM35.3802 35.6724H35.3832V36.7296H35.3802V35.6724ZM35.3832 35.6724H35.3873V36.7296H35.3832V35.6724ZM35.3873 35.6724H35.3879V36.7296H35.3873V35.6724ZM35.3879 35.6724H35.3928V36.7296H35.3879V35.6724ZM35.3928 35.6724H35.3946V36.7296H35.3928V35.6724ZM35.3946 35.6724H35.3976V36.7296H35.3946V35.6724ZM35.3976 35.6724H35.4021V36.7296H35.3976V35.6724ZM35.4021 35.6724H35.4026V36.7296H35.4021V35.6724ZM35.4026 35.6724H35.4075V36.7296H35.4026V35.6724ZM35.4075 35.6724H35.4097V36.7296H35.4075V35.6724ZM35.4097 35.6724H35.4126V36.7296H35.4097V35.6724ZM35.4126 35.6724H35.4176V36.7296H35.4126V35.6724ZM35.4176 35.6724H35.4177V36.7296H35.4176V35.6724ZM35.4177 35.6724H35.4227V36.7296H35.4177V35.6724ZM35.4227 35.6724H35.4256V36.7296H35.4227V35.6724ZM35.4256 35.6724H35.4279V36.7296H35.4256V35.6724ZM35.4279 35.6724H35.4331V36.7296H35.4279V35.6724ZM35.4331 35.6724H35.4337V36.7296H35.4331V35.6724ZM35.4337 35.6724H35.4383V36.7296H35.4337V35.6724ZM35.4383 35.6724H35.4422V36.7296H35.4383V35.6724ZM35.4422 35.6724H35.4434V36.7296H35.4422V35.6724ZM35.4434 35.6724H35.4487V36.7296H35.4434V35.6724ZM35.4487 35.6724H35.4507V36.7296H35.4487V35.6724ZM35.4507 35.6724H35.454V36.7296H35.4507V35.6724ZM35.454 35.6724H35.4594V36.7296H35.454V35.6724ZM35.4594 35.6724H35.4646V36.7296H35.4594V35.6724ZM35.4646 35.6724H35.4684V36.7296H35.4646V35.6724ZM35.4684 35.6724H35.47V36.7296H35.4684V35.6724ZM35.47 35.6724H35.4755V36.7296H35.47V35.6724ZM35.4755 35.6724H35.4775V36.7296H35.4755V35.6724ZM35.4775 35.6724H35.4809V36.7296H35.4775V35.6724ZM35.4809 35.6724H35.4847V36.7296H35.4809V35.6724ZM34.9809 36.3581C33.9821 33.1434 32.4957 29.5747 30.7151 26.9833L31.5842 26.3838C33.449 29.0977 34.9737 32.7782 35.9884 36.0439L34.9809 36.3581ZM30.7151 26.9833C29.811 25.6677 28.8578 24.6436 27.8894 24.0333L28.451 23.1384C29.5896 23.8557 30.6394 25.0089 31.5842 26.3838L30.7151 26.9833ZM27.8894 24.0333C26.9365 23.4331 25.9965 23.2469 25.0453 23.5383L24.7368 22.5274C26.0457 22.1263 27.3019 22.4145 28.451 23.1384L27.8894 24.0333ZM25.0453 23.5383C23.9541 23.8727 22.7148 24.8761 21.3941 26.9662L20.5026 26.4006C21.8834 24.2154 23.2979 22.9681 24.7368 22.5274L25.0453 23.5383ZM21.3941 26.9662C20.0793 29.047 18.7302 32.1325 17.3895 36.4934L16.3811 36.1823C17.7356 31.7761 19.1178 28.5922 20.5026 26.4006L21.3941 26.9662ZM17.3895 36.4934C16.9556 37.9049 16.5587 39.2323 16.1986 40.4806L15.185 40.187C15.547 38.9318 15.9457 37.5984 16.3811 36.1823L17.3895 36.4934ZM16.1986 40.4806C15.5857 42.6055 15.021 44.5034 14.5168 46.1976L13.5057 45.8956C14.0098 44.2012 14.5734 42.3071 15.185 40.187L16.1986 40.4806ZM14.5168 46.1976C13.8042 48.5927 13.2147 50.5742 12.7784 52.2224L11.7584 51.9514C12.1998 50.2841 12.7946 48.2851 13.5057 45.8956L14.5168 46.1976ZM12.7784 52.2224C12.4056 53.6306 12.1509 54.7731 12.027 55.7045L10.9811 55.5648C11.1139 54.5669 11.3821 53.3734 11.7584 51.9514L12.7784 52.2224ZM12.027 55.7045C11.9025 56.6415 11.9175 57.3166 12.0467 57.8108L11.0261 58.0789C10.8464 57.3918 10.8489 56.559 10.9811 55.5648L12.027 55.7045ZM12.0467 57.8108C12.1693 58.2791 12.3965 58.596 12.7538 58.8375L12.1638 59.7139C11.5834 59.3217 11.2103 58.7831 11.0261 58.0789L12.0467 57.8108ZM12.7538 58.8375C13.1344 59.0946 13.6974 59.2889 14.524 59.4204L14.3587 60.4645C13.4666 60.3227 12.7289 60.0958 12.1638 59.7139L12.7538 58.8375ZM14.524 59.4204C16.0383 59.6612 18.2075 59.6612 21.2463 59.6588L21.2471 60.716C18.2486 60.7182 15.9762 60.7217 14.3587 60.4645L14.524 59.4204ZM21.2463 59.6588C21.5318 59.6585 21.8246 59.6583 22.1248 59.6583L22.1249 60.7155C21.8252 60.7155 21.5327 60.7157 21.2471 60.716L21.2463 59.6588ZM21.753 59.8119C22.2857 59.2816 22.8662 58.6257 23.3587 57.943L24.2138 58.5624C23.6819 59.2996 23.0623 59.9988 22.4968 60.5619L21.753 59.8119ZM23.3587 57.943C23.8663 57.2395 24.2523 56.546 24.4194 55.9556L25.4345 56.2438C25.2188 57.0068 24.7517 57.8169 24.2138 58.5624L23.3587 57.943ZM24.4194 55.9556C24.5865 55.3644 24.5033 55.0142 24.296 54.7955L25.0611 54.0674C25.6355 54.6734 25.6502 55.481 25.4345 56.2438L24.4194 55.9556ZM24.296 54.7955C24.1382 54.629 23.8308 54.4485 23.2484 54.3461L23.4305 53.3048C24.1433 53.4301 24.6934 53.6796 25.0611 54.0674L24.296 54.7955Z" fill="white"/>
</g>
<defs>
<linearGradient id="paint0_linear_17_1324" x1="20.3279" y1="106.038" x2="11.2514" y2="96.9612" gradientUnits="userSpaceOnUse">
<stop stop-color="#0176D0"/>
<stop offset="0.454" stop-color="#0275CE"/>
<stop offset="0.617" stop-color="#0472C7"/>
<stop offset="0.733" stop-color="#076BBC"/>
<stop offset="0.827" stop-color="#0D63AB"/>
<stop offset="0.907" stop-color="#135895"/>
<stop offset="0.933" stop-color="#16538C"/>
</linearGradient>
<clipPath id="clip0_17_1324">
<rect width="29" height="30" fill="white" transform="translate(100 74)"/>
</clipPath>
<clipPath id="clip1_17_1324">
<rect width="132" height="61" fill="white"/>
</clipPath>
</defs>
</svg>
