<svg width="147" height="110" viewBox="0 0 147 110" fill="none" xmlns="http://www.w3.org/2000/svg">
<path d="M58.5 105.5V78.5H85.5V105.5H58.5Z" fill="#FFD600"/>
<path d="M76.1535 98.7102C76.6725 99.5532 77.2365 100.361 78.4312 100.361C79.4347 100.361 79.9612 99.8622 79.9612 99.1722C79.9612 98.3465 79.4167 98.0532 78.3127 97.5725L77.7075 97.3145C75.9607 96.5735 74.799 95.645 74.799 93.6838C74.799 91.8763 76.1827 90.5007 78.345 90.5007C79.8847 90.5007 80.991 91.034 81.789 92.4305L79.9035 93.6357C79.4887 92.8947 79.0402 92.603 78.345 92.603C77.6355 92.603 77.1862 93.0507 77.1862 93.6357C77.1862 94.3587 77.6362 94.6512 78.675 95.099L79.2802 95.357C81.339 96.2337 82.5 97.1292 82.5 99.1422C82.5 101.311 80.787 102.5 78.4875 102.5C76.2382 102.5 74.961 101.371 74.25 99.974L76.1535 98.7102ZM67.464 98.7717C67.8435 99.4512 68.4202 99.974 69.2497 99.974C70.0432 99.974 70.5 99.6605 70.5 98.4417V90.5H72.9997V98.8258C72.9997 101.351 71.535 102.5 69.396 102.5C67.4632 102.5 66.0682 101.19 65.4997 99.974L67.464 98.7717Z" fill="#000001"/>
<path d="M28.9902 84.75L25.0505 78H13.2305L28.9902 105L44.75 78H32.93L28.9902 84.75Z" fill="#7AFF78"/>
<path d="M32.93 78L28.9903 84.75L25.0505 78H19.3595L28.9903 94.5L38.621 78H32.93Z" fill="#455A64"/>
<path fill-rule="evenodd" clip-rule="evenodd" d="M111.75 88.4C112.783 84.2668 115.367 82.2 119.5 82.2C125.7 82.2 126.475 86.85 129.575 87.625C131.642 88.1418 133.45 87.3668 135 85.3C133.967 89.4331 131.383 91.5 127.25 91.5C121.05 91.5 120.275 86.85 117.175 86.075C115.108 85.5581 113.3 86.3331 111.75 88.4ZM104 97.7C105.033 93.5668 107.617 91.5 111.75 91.5C117.95 91.5 118.725 96.15 121.825 96.925C123.892 97.4418 125.7 96.6668 127.25 94.6C126.217 98.7331 123.633 100.8 119.5 100.8C113.3 100.8 112.525 96.15 109.425 95.375C107.358 94.8581 105.55 95.6331 104 97.7Z" fill="url(#paint0_linear_17_1333)"/>
<path d="M14.5881 6.42427L18.9213 17.1163C18.9577 17.2254 19.0669 17.2981 19.1762 17.2981C19.2854 17.2981 19.3946 17.2254 19.431 17.1163L23.7642 6.42427C23.9826 5.87876 23.9462 5.33325 23.6913 4.75137C23.5457 4.3877 23.7278 3.84219 24.1647 3.84219H30.7554C31.1924 3.84219 31.3745 4.3877 30.9011 4.75137C30.1364 5.44235 29.5174 6.67884 28.8984 8.09717L19.6859 29.2266C19.5767 29.4448 19.3582 29.5539 19.1762 29.5539C18.9577 29.5539 18.7756 29.4448 18.6664 29.2266L9.45392 8.09717C8.8349 6.67884 8.21588 5.44235 7.45121 4.75137C6.97785 4.3877 7.15991 3.84219 7.59686 3.84219H14.1876C14.6245 3.84219 14.8066 4.3877 14.661 4.75137C14.4061 5.33325 14.3697 5.87876 14.5881 6.42427ZM36.4395 24.6807C36.4395 26.2081 36.6944 27.481 37.4591 28.3901C37.7504 28.7538 37.4955 29.2993 37.0586 29.2993H30.3586C29.9216 29.2993 29.6668 28.7538 29.9581 28.3901C30.7227 27.481 30.9776 26.2081 30.9776 24.6807V8.46084C30.9776 6.93341 30.7227 5.66056 29.9581 4.75137C29.6668 4.3877 29.9216 3.84219 30.3586 3.84219H37.0586C37.4955 3.84219 37.7504 4.3877 37.4591 4.75137C36.6944 5.66056 36.4395 6.93341 36.4395 8.46084V24.6807ZM61.4375 3.84219C61.8745 3.84219 62.1293 4.3877 61.838 4.75137C61.0734 5.66056 60.8185 6.93341 60.8185 8.46084V29.1175C60.8185 29.4448 60.5636 29.663 60.3087 29.663C60.1631 29.663 60.0174 29.6266 59.9082 29.5175L44.8697 15.3343C44.8332 15.2979 44.7604 15.2615 44.6876 15.2615C44.5784 15.2615 44.4327 15.3706 44.4327 15.5161V24.6807C44.4327 26.2081 44.6876 27.481 45.4523 28.3901C45.7436 28.7538 45.4887 29.2993 45.0517 29.2993H38.3518C37.9148 29.2993 37.6599 28.7538 37.9512 28.3901C38.7159 27.481 38.9708 26.2081 38.9708 24.6807V4.02403C38.9708 3.69672 39.2257 3.47852 39.517 3.47852C39.6626 3.47852 39.8083 3.51488 39.9175 3.62399L54.956 17.6618C54.9924 17.6981 55.0653 17.7345 55.1017 17.7345C55.2473 17.7345 55.3566 17.6254 55.3566 17.4799V8.46084C55.3566 6.93341 55.1017 5.66056 54.337 4.75137C54.0457 4.3877 54.3006 3.84219 54.7375 3.84219H61.4375ZM79.8223 3.84219C80.0772 3.84219 80.3321 4.02403 80.3685 4.31496L81.1332 9.07909C81.206 9.44276 80.9147 9.7337 80.587 9.7337C80.5142 9.7337 80.405 9.69733 80.2957 9.6246C79.349 9.00635 78.1474 8.75178 76.6544 8.75178H74.4697C74.1784 8.75178 73.9235 9.00635 73.9235 9.29729V24.6807C73.9235 26.2081 74.1784 27.481 74.943 28.3901C75.2343 28.7538 74.9794 29.2993 74.5425 29.2993H67.8425C67.4056 29.2993 67.1507 28.7538 67.442 28.3901C68.2067 27.481 68.4615 26.2081 68.4615 24.6807V9.29729C68.4615 9.00635 68.2067 8.75178 67.9154 8.75178H65.7306C64.2376 8.75178 63.036 9.00635 62.0893 9.6246C61.9801 9.69733 61.8708 9.7337 61.798 9.7337C61.4703 9.7337 61.179 9.44276 61.2518 9.07909L62.0165 4.31496C62.0529 4.02403 62.3078 3.84219 62.5627 3.84219H79.8223ZM88.1009 3.87856C88.2101 3.66035 88.4286 3.55125 88.6107 3.55125C88.8291 3.55125 89.0112 3.66035 89.1204 3.87856L98.7698 25.0444C99.3889 26.4627 100.044 27.6992 100.773 28.3901C101.246 28.7538 101.064 29.2993 100.627 29.2993H94.4003C93.9633 29.2993 93.7084 28.7538 93.8177 28.3901C94.0362 27.8083 93.9997 27.19 93.7813 26.6445L93.5992 26.2445C93.5264 26.0626 93.4172 26.0263 93.2715 26.0263H83.9498C83.8042 26.0263 83.6949 26.0626 83.6221 26.2445L83.44 26.6445C83.2216 27.19 83.1851 27.8083 83.4036 28.3901C83.5129 28.7538 83.258 29.2993 82.821 29.2993H76.5944C76.1575 29.2993 75.9754 28.7538 76.4488 28.3901C77.177 27.6992 77.8325 26.4627 78.4515 25.0444L88.1009 3.87856ZM88.8291 15.2615C88.7927 15.1524 88.7199 15.1161 88.6107 15.1161C88.5378 15.1161 88.4286 15.1524 88.3922 15.2615L85.6248 21.4804C85.552 21.6622 85.6976 21.844 85.8797 21.844H91.3416C91.5237 21.844 91.6693 21.6622 91.5965 21.4804L88.8291 15.2615ZM119.224 13.9523C119.516 13.9523 119.771 14.2069 119.771 14.4978V28.281C119.771 28.572 119.443 28.7902 119.152 28.7902C119.042 28.7902 118.933 28.7538 118.86 28.7175C118.496 28.4993 118.023 28.3901 117.549 28.3901C115.984 28.3901 113.326 29.663 109.976 29.663C102.365 29.663 97.6316 24.4988 97.6316 16.5708C97.6316 8.60631 102.802 3.47852 110.376 3.47852C113.471 3.47852 115.547 4.96958 116.421 4.96958C116.894 4.96958 117.112 4.64227 117.586 4.64227C117.914 4.64227 118.096 4.96958 118.132 5.44235L118.642 11.5157C118.678 11.843 118.387 12.0612 118.096 12.0612C117.914 12.0612 117.768 12.0248 117.659 11.8794C115.947 9.58823 113.908 8.38811 110.631 8.38811C106.116 8.38811 103.13 12.3521 103.13 16.5708C103.13 20.8257 105.934 24.7534 110.413 24.7534C111.833 24.7534 113.216 24.4988 114.199 23.9897C114.382 23.917 114.491 23.7351 114.491 23.5169V19.0801C114.491 18.7892 114.236 18.5346 113.945 18.5346H112.597C111.104 18.5346 109.903 18.7892 108.956 19.4074C108.847 19.4801 108.738 19.5165 108.665 19.5165C108.337 19.5165 108.046 19.2256 108.118 18.8619L108.847 14.4251C108.883 14.1341 109.138 13.9523 109.393 13.9523H119.224ZM138.053 23.5169C138.162 23.4442 138.235 23.4442 138.344 23.4442C138.672 23.4442 138.963 23.6988 138.89 24.0624L138.125 28.8266C138.089 29.1175 137.834 29.2993 137.579 29.2993H121.121C120.684 29.2993 120.429 28.7538 120.72 28.3901C121.485 27.481 121.74 26.2081 121.74 24.6807V8.46084C121.74 6.93341 121.485 5.66056 120.72 4.75137C120.429 4.3877 120.684 3.84219 121.121 3.84219H136.924C137.179 3.84219 137.434 4.02403 137.47 4.31496L138.235 9.07909C138.307 9.44276 138.016 9.7337 137.688 9.7337C137.616 9.7337 137.506 9.69733 137.397 9.6246C136.45 9.00635 135.249 8.75178 133.756 8.75178H127.748C127.456 8.75178 127.202 9.00635 127.202 9.29729V13.1522C127.202 13.4432 127.456 13.6977 127.748 13.6977H132.409C133.647 13.6977 134.703 13.4795 135.467 12.8613C135.54 12.7886 135.649 12.7522 135.759 12.7522C135.977 12.7522 136.195 12.934 136.195 13.1886V19.1165C136.195 19.371 135.977 19.5529 135.759 19.5529C135.649 19.5529 135.54 19.5165 135.467 19.4438C134.703 18.8255 133.647 18.6073 132.409 18.6073H127.748C127.456 18.6073 127.202 18.8619 127.202 19.1528V23.8442C127.202 24.1352 127.456 24.3897 127.748 24.3897H134.411C135.904 24.3897 137.106 24.1352 138.053 23.5169ZM30.6291 42.0589C30.9366 42.0589 31.2056 42.3276 31.2056 42.6347V57.1837C31.2056 57.4908 30.8597 57.7211 30.5522 57.7211C30.4369 57.7211 30.3216 57.6827 30.2447 57.6443C29.8604 57.414 29.3607 57.2988 28.861 57.2988C27.2083 57.2988 24.4025 58.6424 20.8664 58.6424C12.8333 58.6424 7.83665 53.1913 7.83665 44.8228C7.83665 36.4159 13.2945 31.0032 21.2892 31.0032C24.5562 31.0032 26.7471 32.5771 27.6695 32.5771C28.1692 32.5771 28.3998 32.2316 28.8995 32.2316C29.2454 32.2316 29.4376 32.5771 29.476 33.0761L30.0141 39.4869C30.0525 39.8324 29.745 40.0627 29.4376 40.0627C29.2454 40.0627 29.0916 40.0243 28.9763 39.8708C27.1698 37.4524 25.0174 36.1856 21.5582 36.1856C16.7922 36.1856 13.6405 40.3698 13.6405 44.8228C13.6405 49.3142 16.6 53.46 21.3276 53.46C22.8266 53.46 24.2872 53.1913 25.3249 52.6539C25.5171 52.5771 25.6324 52.3852 25.6324 52.1549V47.4716C25.6324 47.1645 25.3634 46.8957 25.0559 46.8957H23.6338C22.0579 46.8957 20.7895 47.1645 19.7902 47.817C19.6749 47.8938 19.5596 47.9322 19.4827 47.9322C19.1368 47.9322 18.8293 47.6251 18.9062 47.2412L19.6749 42.5579C19.7133 42.2508 19.9824 42.0589 20.2514 42.0589H30.6291ZM56.3069 57.3372C56.6912 57.4908 56.7297 58.1434 56.3837 58.3353C54.9616 58.9879 54.0007 59.1798 52.8861 59.1798C45.2758 59.1798 44.853 48.0474 40.971 48.0474H39.6257C39.3183 48.0474 39.0492 48.3161 39.0492 48.6232V53.3833C39.0492 54.9956 39.3183 56.3391 40.1254 57.2988C40.4329 57.6827 40.1638 58.2585 39.7026 58.2585H32.6304C32.1692 58.2585 31.9001 57.6827 32.2076 57.2988C33.0148 56.3391 33.2838 54.9956 33.2838 53.3833V36.2623C33.2838 34.65 33.0148 33.3065 32.2076 32.3468C31.9001 31.9629 32.1692 31.3871 32.6304 31.3871H45.8523C50.4646 31.3871 54.116 34.65 54.116 39.7556C54.116 43.0954 51.8868 47.0493 47.6973 47.4332C47.5051 47.4332 47.4666 47.7787 47.6588 47.817C51.6946 49.1606 52.1558 55.5714 56.3069 57.3372ZM44.8146 43.4025C46.6595 43.4025 48.3122 41.9053 48.3122 39.9092C48.3122 37.9898 46.6595 36.3775 44.8146 36.3775H39.6257C39.3183 36.3775 39.0492 36.6462 39.0492 36.9533V42.8266C39.0492 43.1337 39.3183 43.4025 39.6257 43.4025H44.8146ZM53.9581 44.8228C53.9581 37.1836 60.1463 31.0032 67.7953 31.0032C75.444 31.0032 81.6322 37.1836 81.6322 44.8228C81.6322 52.462 75.444 58.6424 67.7953 58.6424C60.1463 58.6424 53.9581 52.462 53.9581 44.8228ZM59.6466 44.8228C59.6466 49.3142 63.298 52.961 67.7953 52.961C72.3307 52.961 75.9821 49.3142 75.9821 44.8228C75.9821 40.293 72.3307 36.6462 67.7953 36.6462C63.298 36.6462 59.6466 40.293 59.6466 44.8228ZM81.0166 44.8228C81.0166 37.1836 87.2047 31.0032 94.8534 31.0032C102.502 31.0032 108.69 37.1836 108.69 44.8228C108.69 52.462 102.502 58.6424 94.8534 58.6424C87.2047 58.6424 81.0166 52.462 81.0166 44.8228ZM86.705 44.8228C86.705 49.3142 90.3565 52.961 94.8534 52.961C99.3889 52.961 103.04 49.3142 103.04 44.8228C103.04 40.293 99.3889 36.6462 94.8534 36.6462C90.3565 36.6462 86.705 40.293 86.705 44.8228ZM123.738 58.7959C123.622 58.9879 123.43 59.1031 123.199 59.1031C122.969 59.1031 122.777 58.9879 122.661 58.7959L116.396 46.1664C116.358 46.0512 116.243 46.0128 116.166 46.0128C116.05 46.0128 115.935 46.0896 115.897 46.2432L114.167 53.3833C113.783 54.9956 113.744 56.3391 114.321 57.2988C114.551 57.6827 114.321 58.2585 113.86 58.2585H106.864C106.403 58.2585 106.249 57.6827 106.634 57.2988C107.633 56.3775 108.286 53.4217 108.325 53.3833L113.321 31.3871C113.398 31.08 113.629 30.9264 113.898 30.9264C114.09 30.9264 114.282 31.0416 114.398 31.2335L122.969 47.6251C123.007 47.7403 123.084 47.7787 123.199 47.7787C123.276 47.7787 123.392 47.7403 123.43 47.6251L132.001 31.2335C132.117 31.0416 132.309 30.9264 132.501 30.9264C132.77 30.9264 133.001 31.08 133.077 31.3871L138.074 53.3833C138.113 53.4217 138.766 56.3775 139.765 57.2988C140.15 57.6827 139.996 58.2585 139.535 58.2585H132.539C132.078 58.2585 131.848 57.6827 132.078 57.2988C132.655 56.3391 132.616 54.9956 132.232 53.3833L130.502 46.2432C130.464 46.0896 130.349 46.0128 130.233 46.0128C130.156 46.0128 130.041 46.0512 130.003 46.1664L123.738 58.7959Z" fill="white"/>
<defs>
<linearGradient id="paint0_linear_17_1333" x1="104" y1="65.6668" x2="135" y2="117.333" gradientUnits="userSpaceOnUse">
<stop stop-color="#2383AE"/>
<stop offset="1" stop-color="#6DD7B9"/>
</linearGradient>
</defs>
</svg>
