<svg width="300" height="138" viewBox="0 0 300 138" fill="none" xmlns="http://www.w3.org/2000/svg">
<g clip-path="url(#clip0_24_27)">
<path d="M110.436 14.4458C108.97 10.7466 106.899 7.9085 104.222 5.93137C101.545 3.89048 97.37 2.87002 91.6976 2.87002C88.5745 2.87002 85.8976 3.28457 83.6669 4.1137C81.436 4.87903 79.4283 6.21837 77.6439 8.13172C75.8592 10.0451 74.5208 12.8194 73.6286 16.4548C72.7361 20.0263 72.2901 24.459 72.2901 29.7525V39.1279C72.2901 44.4214 72.7361 48.886 73.6286 52.5213C74.5208 56.0928 75.8592 58.8354 77.6439 60.7487C79.4283 62.6621 81.436 64.0332 83.6669 64.8624C85.8976 65.6277 88.5745 66.0104 91.6976 66.0104C97.4338 66.0104 101.991 64.7985 105.369 62.3751C108.747 59.8877 110.436 57.2408 110.436 54.4347V38.2669H98.6767V35.3969H113.878V53.478C113.878 57.7512 111.934 61.3866 108.046 64.3841C104.222 67.3816 98.7723 68.8804 91.6976 68.8804C83.8581 68.8804 78.1855 66.4887 74.6802 61.7054C71.1746 56.8582 69.422 49.3325 69.422 39.1279V29.7525C69.422 19.548 71.1746 12.0541 74.6802 7.27071C78.1855 2.42357 83.8581 0 91.6976 0C98.0075 0 102.724 1.1799 105.847 3.53969C108.97 5.83571 111.392 9.12027 113.113 13.3934L110.436 14.4458ZM142.581 15.4024C140.414 14.7009 137.737 14.3501 134.55 14.3501C131.364 14.3501 128.687 14.7009 126.52 15.4024C124.353 16.0402 122.345 17.2839 120.497 19.1335C118.712 20.9193 117.374 23.566 116.481 27.0738C115.589 30.5179 115.143 34.8867 115.143 40.1802C115.143 45.4738 115.589 49.8744 116.481 53.3823C117.374 56.8263 118.712 59.4732 120.497 61.3227C122.345 63.1086 124.353 64.3523 126.52 65.0537C128.687 65.6916 131.364 66.0104 134.55 66.0104C137.737 66.0104 140.414 65.6916 142.581 65.0537C144.748 64.3523 146.724 63.1086 148.508 61.3227C150.357 59.4732 151.727 56.8263 152.619 53.3823C153.512 49.8744 153.958 45.4738 153.958 40.1802C153.958 34.8867 153.512 30.5179 152.619 27.0738C151.727 23.566 150.357 20.9193 148.508 19.1335C146.724 17.2839 144.748 16.0402 142.581 15.4024ZM151.663 62.0881C148.222 66.6162 142.517 68.8804 134.55 68.8804C126.583 68.8804 120.879 66.6162 117.437 62.0881C113.995 57.5599 112.275 50.2571 112.275 40.1802C112.275 30.1034 113.995 22.8007 117.437 18.2724C120.879 13.7442 126.583 11.4801 134.55 11.4801C142.517 11.4801 148.222 13.7442 151.663 18.2724C155.105 22.8007 156.826 30.1034 156.826 40.1802C156.826 50.2571 155.105 57.5599 151.663 62.0881ZM180.674 40.0846L193.676 67.9238H190.521L177.137 39.2236C177.264 39.1597 177.806 38.9048 178.762 38.4582C179.781 37.9481 180.483 37.5972 180.865 37.4059C181.248 37.1507 181.885 36.7362 182.777 36.1622C183.669 35.5882 184.339 35.046 184.785 34.5359C185.231 33.9619 185.709 33.324 186.219 32.6225C186.793 31.8572 187.207 31.028 187.462 30.1352C187.717 29.1785 187.844 28.158 187.844 27.0738C187.844 23.0558 185.932 20.0901 182.108 18.1768C178.284 16.2634 173.535 15.3068 167.863 15.3068H160.215V67.9238H157.347V12.4367H167.863C175.384 12.4367 181.056 13.7442 184.88 16.3591C188.768 18.974 190.712 22.5456 190.712 27.0738C190.712 30.0077 189.724 32.6225 187.749 34.9185C185.773 37.1507 183.414 38.8727 180.674 40.0846ZM191.346 12.4367H194.214V67.9238H191.346V12.4367ZM228.987 65.0537V67.9238H197.056V12.4367H199.924V65.0537H228.987ZM256.637 65.0537V67.9238H224.706V12.4367H227.574V65.0537H256.637ZM257.423 65.0537H288.59L268.991 18.8465L248.149 67.9238H245.09L268.991 11.4801L292.892 67.9238H257.423V65.0537Z" fill="white"/>
<path d="M163.018 83.5654C161.552 79.8662 159.481 77.0282 156.804 75.051C154.127 73.0102 149.952 71.9896 144.28 71.9896C141.156 71.9896 138.48 72.4041 136.249 73.2333C134.018 73.9987 132.01 75.338 130.226 77.2513C128.441 79.1647 127.103 81.939 126.211 85.5744C125.318 89.1459 124.872 93.5786 124.872 98.8721V108.248C124.872 113.541 125.318 118.006 126.211 121.641C127.103 125.212 128.441 127.955 130.226 129.868C132.01 131.782 134.018 133.153 136.249 133.982C138.48 134.747 141.156 135.13 144.28 135.13C150.016 135.13 154.573 133.918 157.951 131.495C161.329 129.007 163.018 126.36 163.018 123.554V107.387H151.259V104.517H166.46V122.598C166.46 126.871 164.515 130.506 160.628 133.504C156.804 136.501 151.354 138 144.28 138C136.44 138 130.767 135.608 127.262 130.825C123.757 125.978 122.004 118.452 122.004 108.248V98.8721C122.004 88.6676 123.757 81.1737 127.262 76.3903C130.767 71.5431 136.44 69.1196 144.28 69.1196C150.589 69.1196 155.306 70.2994 158.429 72.6593C161.552 74.9553 163.974 78.2398 165.695 82.513L163.018 83.5654ZM197.266 109.204L210.268 137.043H207.113L193.729 108.343C193.856 108.279 194.398 108.024 195.354 107.578C196.374 107.068 197.075 106.717 197.457 106.526C197.84 106.27 198.477 105.856 199.369 105.282C200.262 104.708 200.931 104.166 201.377 103.656C201.823 103.081 202.301 102.444 202.811 101.742C203.385 100.977 203.799 100.148 204.054 99.2548C204.309 98.2981 204.436 97.2776 204.436 96.1935C204.436 92.1754 202.524 89.2097 198.7 87.2964C194.876 85.3831 190.128 84.4264 184.455 84.4264H176.807V137.043H173.939V81.5564H184.455C191.976 81.5564 197.649 82.8639 201.473 85.4787C205.361 88.0935 207.305 91.6653 207.305 96.1935C207.305 99.1273 206.317 101.742 204.341 104.038C202.365 106.27 200.007 107.992 197.266 109.204ZM219.697 134.173H250.865L231.265 87.9661L210.424 137.043H207.364L231.265 80.5997L255.167 137.043H219.697V134.173ZM271.235 137.043H257.468V81.5564H267.985C275.506 81.5564 281.178 82.8639 285.002 85.4787C288.891 88.0935 290.834 91.6653 290.834 96.1935C290.834 101.615 288.444 105.537 283.664 107.961C287.17 109.172 289.782 110.99 291.503 113.414C293.224 115.773 294.085 118.516 294.085 121.641C294.085 126.233 292.172 129.964 288.348 132.834C284.589 135.64 278.884 137.043 271.235 137.043ZM271.235 134.173C276.845 134.173 281.56 133.153 285.385 131.112C289.273 129.071 291.216 125.914 291.216 121.641C291.216 119.664 290.485 117.527 289.018 115.231C287.552 112.871 285.289 111.149 282.23 110.065L277.258 108.343L281.847 105.952C283.441 105.122 284.844 103.879 286.054 102.22C287.33 100.498 287.966 98.4895 287.966 96.1935C287.966 92.1754 286.054 89.2097 282.23 87.2964C278.406 85.3831 273.659 84.4264 267.985 84.4264H260.336V134.173H271.235Z" fill="#EE5F8A" fill-opacity="0.772549"/>
<path fill-rule="evenodd" clip-rule="evenodd" d="M57.538 51.5646C60.1547 50.8602 62.6843 51.4558 65.0641 52.9532C67.5276 54.5035 69.84 57.0246 71.9524 60.0948C76.1458 66.19 79.5909 74.5077 81.8787 81.8973H81.8863H81.8983H81.8987H81.9006H81.9102H81.9183H81.9222H81.9315H81.9341H81.9377H81.9458H81.9566H81.9578H81.9628H81.9692H81.975H81.981H81.9924H81.9929H81.9946H82.0037H82.0103H82.0151H82.0264H82.0271H82.0276H82.0374H82.0443H82.0483H82.0593H82.0598H82.0608H82.0701H82.0766H82.0809H82.0914H82.0921H82.093H82.1019H82.1074H82.1124H82.122H82.1224H82.127H82.1327H82.1365H82.1428H82.1504H82.1526H82.1614H82.1624H82.164H82.1719H82.1772H82.1815H82.1901H82.1908H82.1963H82.2001H82.2025H82.209H82.2147H82.218H82.2264H82.2269H82.2317H82.2355H82.2376H82.2439H82.2486H82.2522H82.2594H82.2604H82.2675H82.2682H82.2694H82.2761H82.2795H82.2838H82.289H82.2914H82.2981H82.2986H82.3041H82.3058H82.307H82.3127H82.3156H82.3196H82.3237H82.3261H82.3316H82.3325H82.3387H82.339H82.3409H82.3447H82.3462H82.3507H82.3531H82.3562H82.3595H82.3617H82.3658H82.3669H82.3715H82.372H82.3768H82.3784H82.3813H82.3822H82.3858H82.387H82.3899H82.3918H82.394H82.3959H82.3975H82.3999H82.4011H82.4035H82.4042H82.4069H82.4073H82.41H82.4102H82.4128H82.415H82.4152H82.4164H82.4171H82.4174H82.4191H82.4205H82.421H82.4219H82.4231H82.4238H82.4241H82.4245H82.4248H82.4551H82.4941H82.5338H82.5739H82.6146H82.6559H82.6977H82.74H82.7831H82.8266H82.8705H82.915H82.9602H83.0061H83.0522H83.0993H83.1466H83.1946H83.2434H83.2926H83.3423H83.3928H83.4437H83.4953H83.5474H83.6002H83.6535H83.7076H83.7623H83.8175H83.8732H83.9298H83.9867H84.0446H84.1029H84.1617H84.2214H84.2817H84.3424H84.404H84.4662H84.529H84.5924H84.6564H84.7212H84.7867H84.8526H84.9196H84.987H85.0548H85.1237H85.1932H85.2633H85.334H85.4055H85.4777H85.5505H85.6239H85.6983H85.7731H85.8488H85.9251H86.002H86.08H86.1583H86.2375H86.3173H86.3978H86.4793H86.5613H86.644H86.7277H86.8118H86.8969H86.9824H87.069H87.1562H87.2442H87.3328H87.4222H87.5123H87.6034H87.6952H87.7877H87.8809H87.9748H88.0697H88.1653H88.2616H88.3587H88.4567H88.5554H88.6548H88.7549H88.856H88.9579H89.0606H89.1641H89.2683H89.3735H89.4794H89.586H89.6935H89.8018H89.911H90.021H90.1319H90.2435H90.3561H90.4693H90.5836H90.6986H90.8142H90.9311H91.0485H91.167H91.2863H91.4063H91.5272H91.6491H91.7717H91.8953H92.0198H92.145H92.2712H92.3984H92.5263H92.6551H92.7849H92.9156H93.0471H93.1795H93.3128H93.4469H93.5822H93.7182H93.8551H93.9928H94.1317H94.2715H94.412H94.5535H94.696H94.8394H94.9837H95.1291H95.2751H95.4223H95.5705H95.7194H95.8695H96.0203H96.1723H96.3251H96.479H96.6339H96.7895H96.9462C103.714 81.8973 108.842 84.1809 112.717 87.899C116.587 91.6111 119.194 96.7401 120.954 102.414C124.471 113.759 124.622 127.36 124.622 136.4C124.622 136.532 124.515 136.639 124.383 136.639H103.044C99.6755 136.639 97.5684 136.011 96.4333 134.924C95.2756 133.815 95.1862 132.291 95.6891 130.676C96.191 129.065 97.2952 127.31 98.6121 125.653C99.8841 124.052 101.366 122.527 102.73 121.288C101.171 118.95 99.3975 115.762 98.3454 112.71C97.7725 113.244 97.1994 113.795 96.6233 114.349C95.3889 115.536 94.1412 116.735 92.8539 117.808C90.8644 119.466 88.7454 120.854 86.3522 121.483C81.5868 122.734 75.8587 120.948 68.0472 112.716C65.3624 119.013 59.9921 121.269 55.4541 121.692C56.2203 121.975 56.8119 122.352 57.2471 122.811C58.299 123.919 58.3786 125.436 57.923 127.044C57.4675 128.653 56.4646 130.407 55.2669 132.065C54.0669 133.726 52.6605 135.306 51.3826 136.57C51.3379 136.614 51.2774 136.639 51.2145 136.639C50.4956 136.639 49.7946 136.639 49.111 136.64C42.2947 136.646 37.2237 136.65 33.6369 136.08C31.6608 135.766 30.1084 135.275 28.954 134.496C27.7905 133.711 27.0448 132.643 26.6693 131.209C26.2964 129.786 26.2902 128.009 26.5847 125.799C26.8791 123.586 27.4776 120.921 28.3278 117.713C29.3233 113.958 30.6682 109.443 32.2831 104.023C33.4005 100.271 34.6474 96.0867 35.9966 91.4198H17.678C8.43835 91.4198 2.19504 85.3191 2.19504 79.122C2.19504 76.6251 3.76301 73.5544 6.07164 71.1195C8.38274 68.6819 11.4899 66.8245 14.6292 66.8245C15.341 66.8245 15.724 66.6061 15.9276 66.2835C16.1439 65.9407 16.2003 65.4179 16.1072 64.7227C15.9216 63.3357 15.1743 61.4702 14.4074 59.5602L14.3965 59.5332C13.6425 57.6552 12.8719 55.7362 12.6773 54.2827C12.5799 53.5545 12.6187 52.8908 12.9265 52.4031C13.2469 51.8954 13.8166 51.6392 14.6292 51.6392H20.4773C20.4498 51.2893 20.3692 50.8227 20.2543 50.2556C20.1788 49.8832 20.0912 49.4795 19.9971 49.0459C19.9122 48.6544 19.822 48.2387 19.7305 47.7994C19.3489 45.9649 18.9633 43.7955 18.9633 41.718C18.9633 39.644 19.3473 37.6256 20.5395 36.1229C21.7404 34.6095 23.7249 33.6636 26.8242 33.6636C34.2009 33.6636 41.8674 36.6814 47.6856 40.4428C50.5962 42.3243 53.0535 44.3979 54.7863 46.3844C56.3977 48.2318 57.413 50.0387 57.538 51.5646ZM57.0683 51.7047C54.1011 52.6772 51.075 55.3243 48.0472 60.1098C44.9583 64.9924 41.8497 72.1287 38.7911 82.0662C37.8257 85.2019 36.9405 88.1568 36.135 90.9415H17.678C8.74797 90.9415 2.83551 85.1445 2.67635 79.3612H14.6292C14.7612 79.3612 14.8682 79.2543 14.8682 79.122C14.8682 78.99 14.7612 78.8828 14.6292 78.8828H2.67815C2.77454 76.5954 4.23077 73.756 6.41842 71.4488C8.68049 69.0628 11.6709 67.3028 14.6292 67.3028C15.4417 67.3028 16.0115 67.0467 16.3318 66.5389C16.6396 66.051 16.6785 65.3876 16.581 64.6593C16.3865 63.2059 15.6158 61.2865 14.8618 59.4088L14.851 59.3818C14.084 57.4718 13.3368 55.6063 13.1511 54.2194C13.0581 53.5239 13.1145 53.0013 13.3307 52.6585C13.5343 52.3357 13.9173 52.1175 14.6292 52.1175H20.7267H23.7755C23.9075 52.1175 24.0145 52.0104 24.0145 51.8784C24.0145 51.7461 23.9075 51.6392 23.7755 51.6392H20.9566C20.9287 51.2448 20.8399 50.7385 20.7228 50.1607C20.6478 49.7904 20.5584 49.3784 20.463 48.9388C20.3777 48.5451 20.2875 48.1294 20.1985 47.7018C19.818 45.8726 19.4414 43.7436 19.4413 41.718C19.4413 39.6889 19.8196 37.7997 20.9139 36.4205C21.9996 35.0522 23.8261 34.1419 26.8242 34.1419C34.0819 34.1419 41.6592 37.1162 47.4263 40.8446C50.3085 42.7077 52.7291 44.7536 54.4263 46.6992C56.0636 48.5762 56.9955 50.3235 57.0683 51.7047ZM53.8673 121.769C52.8914 121.773 51.9803 121.695 51.1756 121.563C51.053 121.543 50.9662 121.431 50.9763 121.307C50.9865 121.183 51.09 121.088 51.2145 121.088C52.2382 121.088 53.1347 121.158 53.9139 121.292C58.6544 121.262 64.9097 119.257 67.7458 112.194C68.6964 109.827 69.2683 106.882 69.2683 103.239C69.2683 103.107 69.3752 103 69.5073 103C69.6393 103 69.7463 103.107 69.7463 103.239C69.7463 106.861 69.189 109.822 68.2458 112.23C76.0915 120.553 81.6915 122.212 86.2308 121.02C88.5257 120.418 90.5814 119.08 92.548 117.441C93.8238 116.377 95.0478 115.2 96.273 114.022C96.9056 113.414 97.5387 112.805 98.1798 112.211C97.4336 109.878 97.1284 107.61 97.7582 105.898C98.0827 105.016 98.6554 104.284 99.5316 103.778C100.403 103.273 101.56 103 103.044 103C103.176 103 103.283 103.107 103.283 103.239C103.283 103.371 103.176 103.478 103.044 103.478C101.615 103.478 100.548 103.742 99.7709 104.192C98.9977 104.639 98.4955 105.279 98.2065 106.064C97.6224 107.652 97.908 109.846 98.6812 112.209C99.7209 115.385 101.611 118.774 103.242 121.193C103.309 121.292 103.292 121.425 103.203 121.505C101.814 122.754 100.287 124.314 98.9864 125.95C97.6833 127.59 96.6217 129.29 96.1456 130.818C95.6702 132.344 95.7906 133.646 96.7636 134.578C97.7596 135.532 99.7047 136.161 103.044 136.161H124.144C124.141 127.115 123.96 113.722 120.497 102.556C118.751 96.9254 116.176 91.8802 112.386 88.2441C108.602 84.614 103.594 82.3757 96.9462 82.3757H96.7895H96.6339H96.479H96.3251H96.1723H96.0203H95.8695H95.7194H95.5705H95.4223H95.2751H95.1291H94.9837H94.8394H94.696H94.5535H94.412H94.2715H94.1317H93.9928H93.8551H93.7182H93.5822H93.4469H93.3128H93.1795H93.0471H92.9156H92.7849H92.6551H92.5263H92.3984H92.2712H92.145H92.0198H91.8953H91.7717H91.6491H91.5272H91.4063H91.2863H91.167H91.0485H90.9311H90.8142H90.6986H90.5836H90.4693H90.3561H90.2435H90.1319H90.021H89.911H89.8018H89.6935H89.586H89.4794H89.3735H89.2683H89.1641H89.0606H88.9579H88.856H88.7549H88.6548H88.5554H88.4567H88.3587H88.2616H88.1653H88.0697H87.9748H87.8809H87.7877H87.6952H87.6034H87.5123H87.4222H87.3328H87.2442H87.1562H87.069H86.9824H86.8969H86.8118H86.7277H86.644H86.5613H86.4793H86.3978H86.3173H86.2375H86.1583H86.08H86.002H85.9251H85.8488H85.7731H85.6983H85.6239H85.5505H85.4777H85.4055H85.334H85.2633H85.1932H85.1237H85.0548H84.987H84.9196H84.8526H84.7867H84.7212H84.6564H84.5924H84.529H84.4662H84.404H84.3424H84.2817H84.2214H84.1617H84.1029H84.0446H83.9867H83.9298H83.8732H83.8175H83.7623H83.7076H83.6535H83.6002H83.5474H83.4953H83.4437H83.3928H83.3423H83.2926H83.2434H83.1946H83.1466H83.0993H83.0522H83.0061H82.9602H82.915H82.8705H82.8266H82.7831H82.74H82.6977H82.6559H82.6146H82.5739H82.5338H82.4941H82.4551H82.4248H82.4245H82.4243H82.4238H82.4234H82.4222H82.421H82.4205H82.4193H82.4174H82.4171H82.4164H82.4152H82.415H82.4128H82.4102H82.41H82.4073H82.4069H82.4042H82.4035H82.4011H82.3999H82.3975H82.3959H82.394H82.3918H82.3899H82.387H82.3858H82.3822H82.3813H82.3784H82.377H82.372H82.3715H82.3669H82.3658H82.3617H82.3595H82.3562H82.3531H82.3507H82.3462H82.3447H82.3409H82.339H82.3387H82.3325H82.3316H82.3261H82.3237H82.3196H82.3156H82.3127H82.307H82.3058H82.3041H82.2986H82.2981H82.2914H82.289H82.2838H82.2795H82.2761H82.2694H82.2682H82.2675H82.2604H82.2594H82.2522H82.2486H82.2439H82.2376H82.2355H82.2317H82.2269H82.2264H82.218H82.2147H82.209H82.2025H82.2001H82.1963H82.1908H82.1901H82.1815H82.1772H82.1719H82.164H82.1624H82.1614H82.1526H82.1504H82.1428H82.1365H82.1327H82.127H82.1224H82.122H82.1124H82.1074H82.1019H82.093H82.0921H82.0914H82.0809H82.0766H82.0701H82.0608H82.0598H82.0593H82.0483H82.0443H82.0374H82.0276H82.0271H82.0264H82.0151H82.0103H82.0037H81.9946H81.9929H81.9924H81.981H81.975H81.9692H81.9628H81.9578H81.9566H81.9458H81.9377H81.9341H81.9315H81.9222H81.9183H81.9102H81.9006H81.8987H81.8983H81.8863H81.8787H81.8741H81.8703H81.8619H81.8581H81.8497H81.8404H81.8373H81.8249H81.8158H81.8124H81.811H81.8H81.794H81.7876H81.7821H81.7752H81.7718H81.7625H81.7537H81.7498H81.7491H81.7372H81.7259H81.7245H81.7118H81.7023H81.6992H81.6982H81.6865H81.6736H81.6712H81.6609H81.6483H81.6447H81.6353H81.6224H81.6186H81.6098H81.5969H81.593H81.5842H81.5713H81.5679H81.5586H81.5457H81.5433H81.5331H81.5204H81.5189H81.5075H81.4953H81.4948H81.4821H81.4719H81.4695H81.4568H81.4489H81.4444H81.4317H81.4267H81.4193H81.4066H81.4047H81.3942H81.3829H81.382H81.3696H81.3619H81.3574H81.3449H81.3414H81.3328H81.321H81.3086H81.3012H81.2967H81.2847H81.2818H81.273H81.2627H81.2613H81.2496H81.2443H81.2379H81.2264H81.2262H81.2149H81.2082H81.2035H81.1922H81.191H81.181H81.1741H81.17H81.159H81.1576H81.1482H81.1416H81.1375H81.1267H81.1258H81.1162H81.1105H81.1057H81.0957H81.0954H81.0851H81.0811H81.0751H81.067H81.0651H81.0553H81.0531H81.0457H81.0397H81.0361H81.0268H81.0266H81.0173H81.0142H81.0082H81.002H80.9991H80.9903H80.9817H80.9785H80.973H80.9675H80.9647H80.9568H80.9563H80.9482H80.9463H80.9403H80.9362H80.9327H80.9264H80.925H80.9176H80.9171H80.9102H80.9083H80.9033H80.8997H80.8963H80.8913H80.8896H80.8834H80.8832H80.8767H80.8758H80.8705H80.8684H80.8648H80.8614H80.8588H80.8547H80.8533H80.8485H80.848H80.8428H80.8426H80.838H80.8368H80.8332H80.8316H80.8287H80.8265H80.8244H80.822H80.8203H80.8175H80.8165H80.8134H80.8129H80.8096H80.8093H80.8062H80.8034H80.8029H80.8005H80.8H80.7981H80.7976H80.7959H80.7952H80.7938H80.7933H80.7921H80.7914H80.7907H80.79H80.7895H80.789H80.7885H80.7881H80.7876H80.7873C80.7873 82.2927 80.7871 82.2094 80.7871 82.1365C80.7871 82.0635 80.7871 81.9803 80.7871 81.8973H80.7876H80.7881H80.7885H80.789H80.7895H80.79H80.7907H80.7914H80.7921H80.7933H80.7938H80.7952H80.7959H80.7976H80.7981H80.8H80.8005H80.8029H80.8034H80.8062H80.8093H80.8096H80.8129H80.8134H80.8165H80.8175H80.8203H80.822H80.8244H80.8265H80.8287H80.8316H80.8332H80.8368H80.838H80.8426H80.8428H80.848H80.8485H80.8533H80.8547H80.8588H80.8614H80.8648H80.8684H80.8705H80.8758H80.8767H80.8832H80.8834H80.8896H80.8913H80.8963H80.8997H80.9033H80.9083H80.9102H80.9171H80.9176H80.925H80.9264H80.9327H80.9362H80.9403H80.9463H80.9482H80.9563H80.9568H80.9647H80.9675H80.973H80.9785H80.9817H80.99H80.9991H81.002H81.0082H81.0142H81.0173H81.0266H81.0268H81.0361H81.0397H81.0457H81.0531H81.0553H81.0651H81.067H81.0751H81.0811H81.0851H81.0954H81.0957H81.1057H81.1105H81.1162H81.1258H81.1267H81.1375H81.1416H81.1482H81.1576H81.159H81.17H81.1741H81.181H81.191H81.1922H81.2035H81.2082H81.2149H81.2262H81.2264H81.2379H81.2443H81.2496H81.2613H81.2627H81.273H81.2818H81.2847H81.2967H81.3012H81.3086H81.3208H81.3328H81.3414H81.3449H81.3574H81.3619H81.3696H81.3782C79.0978 74.5671 75.6874 66.3672 71.5585 60.3662C69.4645 57.3228 67.1961 54.8598 64.8096 53.3584C62.4293 51.8604 59.9417 51.3237 57.3819 52.107C54.5165 52.9838 51.5109 55.5298 48.4511 60.3657C45.3937 65.1984 42.3002 72.2902 39.2479 82.2068C38.2634 85.4054 37.3621 88.4151 36.5442 91.2469C35.1575 96.0487 33.8795 100.338 32.7377 104.171C31.1251 109.583 29.7838 114.086 28.7898 117.836C27.9413 121.037 27.349 123.68 27.0584 125.862C26.7675 128.046 26.7816 129.752 27.1318 131.088C27.4793 132.414 28.159 133.382 29.2212 134.099C30.2922 134.822 31.7652 135.298 33.7117 135.608C37.2588 136.171 42.2892 136.167 49.127 136.162C49.7738 136.161 50.4368 136.161 51.1161 136.161C52.3601 134.924 53.7194 133.391 54.8795 131.785C56.0636 130.146 57.0296 128.445 57.4632 126.914C57.897 125.382 57.7859 124.073 56.9006 123.14C56.3054 122.513 55.3343 122.026 53.8673 121.769Z" fill="#FEFEFE"/>
<path d="M57.538 51.5646L57.8485 52.7193L56.4641 53.092L56.347 51.6622L57.538 51.5646ZM81.8787 81.8974V83.0932H80.9979L80.7372 82.2513L81.8787 81.8974ZM102.73 121.288L103.724 120.624L104.295 121.481L103.533 122.174L102.73 121.288ZM98.3454 112.71L97.5309 111.835L98.8758 110.581L99.4752 112.32L98.3454 112.71ZM68.0472 112.716L66.948 112.246L67.6617 110.573L68.9139 111.892L68.0472 112.716ZM55.4541 121.692L55.0401 122.814L55.3432 120.501L55.4541 121.692ZM35.9966 91.4198V90.224H37.5865L37.1446 91.7523L35.9966 91.4198ZM14.4074 59.5603L15.5162 59.114L15.5163 59.1142L14.4074 59.5603ZM14.3965 59.5332L13.2878 59.9793L13.2877 59.979L14.3965 59.5332ZM12.9265 52.4032L13.937 53.0415V53.0417L12.9265 52.4032ZM20.4773 51.6392L21.6687 51.5453L21.7702 52.8351H20.4773V51.6392ZM57.0684 51.7048L58.2617 51.6414L58.3102 52.556L57.4405 52.8411L57.0684 51.7048ZM36.135 90.9415L37.283 91.274L37.0332 92.1373H36.135V90.9415ZM2.67636 79.3612L1.48177 79.3942L1.44795 78.1654H2.67636V79.3612ZM2.67816 78.8829V80.0787H1.43167L1.48417 78.8327L2.67816 78.8829ZM20.9566 51.6392V52.8351H19.843L19.7645 51.7234L20.9566 51.6392ZM53.8673 121.769L53.8625 120.573L53.9689 120.573L54.0736 120.591L53.8673 121.769ZM53.9139 121.292L53.9213 122.488L53.8154 122.488L53.7112 122.47L53.9139 121.292ZM68.2458 112.23L67.3766 113.05L66.857 112.499L67.1333 111.794L68.2458 112.23ZM98.1798 112.211L99.3179 111.847L99.5498 112.571L98.9914 113.089L98.1798 112.211ZM124.144 136.161L125.339 136.16L125.339 137.356H124.144V136.161ZM80.7871 82.3757V83.5715H79.5921V82.3757H80.7871ZM80.7871 81.8974H79.5921V80.7015H80.7871V81.8974ZM81.3782 81.8974L82.5192 81.542L83.0018 83.0932H81.3782V81.8974ZM51.1161 136.161L51.9586 137.009L51.6089 137.356H51.1163L51.1161 136.161ZM57.2275 50.4097C60.2381 49.5996 63.1091 50.3104 65.7004 51.9411L64.4279 53.9656C62.2599 52.6014 60.0713 52.1212 57.8485 52.7193L57.2275 50.4097ZM65.7004 51.9411C68.3565 53.6124 70.7781 56.2796 72.9366 59.4168L70.9679 60.7731C68.9017 57.7698 66.6987 55.3944 64.4279 53.9656L65.7004 51.9411ZM72.9366 59.4168C77.2261 65.6512 80.7144 74.0962 83.0202 81.5434L80.7372 82.2513C78.4673 74.9196 75.0657 66.7291 70.9679 60.7731L72.9366 59.4168ZM81.8787 80.7015H81.8863V83.0932H81.8787V80.7015ZM81.8863 80.7015H81.8983V83.0932H81.8863V80.7015ZM81.8983 80.7015H81.8987V83.0932H81.8983V80.7015ZM81.8987 80.7015H81.9007V83.0932H81.8987V80.7015ZM81.9007 80.7015H81.9102V83.0932H81.9007V80.7015ZM81.9102 80.7015H81.9183V83.0932H81.9102V80.7015ZM81.9183 80.7015H81.9222V83.0932H81.9183V80.7015ZM81.9222 80.7015H81.9315V83.0932H81.9222V80.7015ZM81.9315 80.7015H81.9341V83.0932H81.9315V80.7015ZM81.9341 80.7015H81.9377V83.0932H81.9341V80.7015ZM81.9377 80.7015H81.9458V83.0932H81.9377V80.7015ZM81.9458 80.7015H81.9566V83.0932H81.9458V80.7015ZM81.9566 80.7015H81.9578V83.0932H81.9566V80.7015ZM81.9578 80.7015H81.9628V83.0932H81.9578V80.7015ZM81.9628 80.7015H81.9692V83.0932H81.9628V80.7015ZM81.9692 80.7015H81.975V83.0932H81.9692V80.7015ZM81.975 80.7015H81.981V83.0932H81.975V80.7015ZM81.981 80.7015H81.9924V83.0932H81.981V80.7015ZM81.9924 80.7015H81.9929V83.0932H81.9924V80.7015ZM81.9929 80.7015H81.9946V83.0932H81.9929V80.7015ZM81.9946 80.7015H82.0037V83.0932H81.9946V80.7015ZM82.0037 80.7015H82.0104V83.0932H82.0037V80.7015ZM82.0104 80.7015H82.0151V83.0932H82.0104V80.7015ZM82.0151 80.7015H82.0264V83.0932H82.0151V80.7015ZM82.0264 80.7015H82.0271V83.0932H82.0264V80.7015ZM82.0271 80.7015H82.0276V83.0932H82.0271V80.7015ZM82.0276 80.7015H82.0374V83.0932H82.0276V80.7015ZM82.0374 80.7015H82.0443V83.0932H82.0374V80.7015ZM82.0443 80.7015H82.0484V83.0932H82.0443V80.7015ZM82.0484 80.7015H82.0594V83.0932H82.0484V80.7015ZM82.0594 80.7015H82.0598V83.0932H82.0594V80.7015ZM82.0598 80.7015H82.0608V83.0932H82.0598V80.7015ZM82.0608 80.7015H82.0701V83.0932H82.0608V80.7015ZM82.0701 80.7015H82.0766V83.0932H82.0701V80.7015ZM82.0766 80.7015H82.0809V83.0932H82.0766V80.7015ZM82.0809 80.7015H82.0914V83.0932H82.0809V80.7015ZM82.0914 80.7015H82.0921V83.0932H82.0914V80.7015ZM82.0921 80.7015H82.0931V83.0932H82.0921V80.7015ZM82.0931 80.7015H82.1019V83.0932H82.0931V80.7015ZM82.1019 80.7015H82.1074V83.0932H82.1019V80.7015ZM82.1074 80.7015H82.1124V83.0932H82.1074V80.7015ZM82.1124 80.7015H82.122V83.0932H82.1124V80.7015ZM82.122 80.7015H82.1224V83.0932H82.122V80.7015ZM82.1224 80.7015H82.127V83.0932H82.1224V80.7015ZM82.127 80.7015H82.1327V83.0932H82.127V80.7015ZM82.1327 80.7015H82.1366V83.0932H82.1327V80.7015ZM82.1366 80.7015H82.1428V83.0932H82.1366V80.7015ZM82.1428 80.7015H82.1504V83.0932H82.1428V80.7015ZM82.1504 80.7015H82.1526V83.0932H82.1504V80.7015ZM82.1526 80.7015H82.1614V83.0932H82.1526V80.7015ZM82.1614 80.7015H82.1624V83.0932H82.1614V80.7015ZM82.1624 80.7015H82.164V83.0932H82.1624V80.7015ZM82.164 80.7015H82.1719V83.0932H82.164V80.7015ZM82.1719 80.7015H82.1772V83.0932H82.1719V80.7015ZM82.1772 80.7015H82.1815V83.0932H82.1772V80.7015ZM82.1815 80.7015H82.1901V83.0932H82.1815V80.7015ZM82.1901 80.7015H82.1908V83.0932H82.1901V80.7015ZM82.1908 80.7015H82.1963V83.0932H82.1908V80.7015ZM82.1963 80.7015H82.2001V83.0932H82.1963V80.7015ZM82.2001 80.7015H82.2025V83.0932H82.2001V80.7015ZM82.2025 80.7015H82.209V83.0932H82.2025V80.7015ZM82.209 80.7015H82.2147V83.0932H82.209V80.7015ZM82.2147 80.7015H82.2181V83.0932H82.2147V80.7015ZM82.2181 80.7015H82.2264V83.0932H82.2181V80.7015ZM82.2264 80.7015H82.2269V83.0932H82.2264V80.7015ZM82.2269 80.7015H82.2317V83.0932H82.2269V80.7015ZM82.2317 80.7015H82.2355V83.0932H82.2317V80.7015ZM82.2355 80.7015H82.2377V83.0932H82.2355V80.7015ZM82.2377 80.7015H82.2439V83.0932H82.2377V80.7015ZM82.2439 80.7015H82.2486V83.0932H82.2439V80.7015ZM82.2486 80.7015H82.2522V83.0932H82.2486V80.7015ZM82.2522 80.7015H82.2594V83.0932H82.2522V80.7015ZM82.2594 80.7015H82.2604V83.0932H82.2594V80.7015ZM82.2604 80.7015H82.2675V83.0932H82.2604V80.7015ZM82.2675 80.7015H82.2682V83.0932H82.2675V80.7015ZM82.2682 80.7015H82.2694V83.0932H82.2682V80.7015ZM82.2694 80.7015H82.2761V83.0932H82.2694V80.7015ZM82.2761 80.7015H82.2795V83.0932H82.2761V80.7015ZM82.2795 80.7015H82.2838V83.0932H82.2795V80.7015ZM82.2838 80.7015H82.289V83.0932H82.2838V80.7015ZM82.289 80.7015H82.2914V83.0932H82.289V80.7015ZM82.2914 80.7015H82.2981V83.0932H82.2914V80.7015ZM82.2981 80.7015H82.2986V83.0932H82.2981V80.7015ZM82.2986 80.7015H82.3041V83.0932H82.2986V80.7015ZM82.3041 80.7015H82.3058V83.0932H82.3041V80.7015ZM82.3058 80.7015H82.307V83.0932H82.3058V80.7015ZM82.307 80.7015H82.3127V83.0932H82.307V80.7015ZM82.3127 80.7015H82.3156V83.0932H82.3127V80.7015ZM82.3156 80.7015H82.3196V83.0932H82.3156V80.7015ZM82.3196 80.7015H82.3237V83.0932H82.3196V80.7015ZM82.3237 80.7015H82.3261V83.0932H82.3237V80.7015ZM82.3261 80.7015H82.3316V83.0932H82.3261V80.7015ZM82.3316 80.7015H82.3325V83.0932H82.3316V80.7015ZM82.3325 80.7015H82.3387V83.0932H82.3325V80.7015ZM82.3387 80.7015H82.339V83.0932H82.3387V80.7015ZM82.339 80.7015H82.3409V83.0932H82.339V80.7015ZM82.3409 80.7015H82.3447V83.0932H82.3409V80.7015ZM82.3447 80.7015H82.3462V83.0932H82.3447V80.7015ZM82.3462 80.7015H82.3507V83.0932H82.3462V80.7015ZM82.3507 80.7015H82.3531V83.0932H82.3507V80.7015ZM82.3531 80.7015H82.3562V83.0932H82.3531V80.7015ZM82.3562 80.7015H82.3595V83.0932H82.3562V80.7015ZM82.3595 80.7015H82.3617V83.0932H82.3595V80.7015ZM82.3617 80.7015H82.3658V83.0932H82.3617V80.7015ZM82.3658 80.7015H82.367V83.0932H82.3658V80.7015ZM82.367 80.7015H82.3715V83.0932H82.367V80.7015ZM82.3715 80.7015H82.372V83.0932H82.3715V80.7015ZM82.372 80.7015H82.3768V83.0932H82.372V80.7015ZM82.3768 80.7015H82.3784V83.0932H82.3768V80.7015ZM82.3784 80.7015H82.3813V83.0932H82.3784V80.7015ZM82.3813 80.7015H82.3823V83.0932H82.3813V80.7015ZM82.3823 80.7015H82.3858V83.0932H82.3823V80.7015ZM82.3858 80.7015H82.387V83.0932H82.3858V80.7015ZM82.387 80.7015H82.3899V83.0932H82.387V80.7015ZM82.3899 80.7015H82.3918V83.0932H82.3899V80.7015ZM82.3918 80.7015H82.394V83.0932H82.3918V80.7015ZM82.394 80.7015H82.3959V83.0932H82.394V80.7015ZM82.3959 80.7015H82.3975V83.0932H82.3959V80.7015ZM82.3975 80.7015H82.3999V83.0932H82.3975V80.7015ZM82.3999 80.7015H82.4011V83.0932H82.3999V80.7015ZM82.4011 80.7015H82.4035V83.0932H82.4011V80.7015ZM82.4035 80.7015H82.4042V83.0932H82.4035V80.7015ZM82.4042 80.7015H82.4069V83.0932H82.4042V80.7015ZM82.4069 80.7015H82.4073V83.0932H82.4069V80.7015ZM82.4073 80.7015H82.41V83.0932H82.4073V80.7015ZM82.41 80.7015H82.4102V83.0932H82.41V80.7015ZM82.4102 80.7015H82.4128V83.0932H82.4102V80.7015ZM82.4128 80.7015H82.415V83.0932H82.4128V80.7015ZM82.415 80.7015H82.4152V83.0932H82.415V80.7015ZM82.4152 80.7015H82.4164V83.0932H82.4152V80.7015ZM82.4164 80.7015H82.4171V83.0932H82.4164V80.7015ZM82.4171 80.7015H82.4174V83.0932H82.4171V80.7015ZM82.4174 80.7015H82.4191V83.0932H82.4174V80.7015ZM82.4191 80.7015H82.4205V83.0932H82.4191V80.7015ZM82.4205 80.7015H82.421V83.0932H82.4205V80.7015ZM82.421 80.7015H82.4219V83.0932H82.421V80.7015ZM82.4219 80.7015H82.4231V83.0932H82.4219V80.7015ZM82.4231 80.7015H82.4238V83.0932H82.4231V80.7015ZM82.4238 80.7015H82.4241V83.0932H82.4238V80.7015ZM82.4241 80.7015H82.4246V83.0932H82.4241V80.7015ZM82.4246 80.7015H82.4248V83.0932H82.4246V80.7015ZM82.4248 80.7015H82.4551V83.0932H82.4248V80.7015ZM82.4551 80.7015H82.4941V83.0932H82.4551V80.7015ZM82.4941 80.7015H82.5338V83.0932H82.4941V80.7015ZM82.5338 80.7015H82.5739V83.0932H82.5338V80.7015ZM82.5739 80.7015H82.6146V83.0932H82.5739V80.7015ZM82.6146 80.7015H82.6559V83.0932H82.6146V80.7015ZM82.6559 80.7015H82.6977V83.0932H82.6559V80.7015ZM82.6977 80.7015H82.74V83.0932H82.6977V80.7015ZM82.74 80.7015H82.7831V83.0932H82.74V80.7015ZM82.7831 80.7015H82.8266V83.0932H82.7831V80.7015ZM82.8266 80.7015H82.8705V83.0932H82.8266V80.7015ZM82.8705 80.7015H82.915V83.0932H82.8705V80.7015ZM82.915 80.7015H82.9602V83.0932H82.915V80.7015ZM82.9602 80.7015H83.0061V83.0932H82.9602V80.7015ZM83.0061 80.7015H83.0522V83.0932H83.0061V80.7015ZM83.0522 80.7015H83.0993V83.0932H83.0522V80.7015ZM83.0993 80.7015H83.1466V83.0932H83.0993V80.7015ZM83.1466 80.7015H83.1946V83.0932H83.1466V80.7015ZM83.1946 80.7015H83.2434V83.0932H83.1946V80.7015ZM83.2434 80.7015H83.2926V83.0932H83.2434V80.7015ZM83.2926 80.7015H83.3423V83.0932H83.2926V80.7015ZM83.3423 80.7015H83.3928V83.0932H83.3423V80.7015ZM83.3928 80.7015H83.4437V83.0932H83.3928V80.7015ZM83.4437 80.7015H83.4953V83.0932H83.4437V80.7015ZM83.4953 80.7015H83.5474V83.0932H83.4953V80.7015ZM83.5474 80.7015H83.6002V83.0932H83.5474V80.7015ZM83.6002 80.7015H83.6535V83.0932H83.6002V80.7015ZM83.6535 80.7015H83.7076V83.0932H83.6535V80.7015ZM83.7076 80.7015H83.7623V83.0932H83.7076V80.7015ZM83.7623 80.7015H83.8175V83.0932H83.7623V80.7015ZM83.8175 80.7015H83.8732V83.0932H83.8175V80.7015ZM83.8732 80.7015H83.9298V83.0932H83.8732V80.7015ZM83.9298 80.7015H83.9867V83.0932H83.9298V80.7015ZM83.9867 80.7015H84.0446V83.0932H83.9867V80.7015ZM84.0446 80.7015H84.1029V83.0932H84.0446V80.7015ZM84.1029 80.7015H84.1617V83.0932H84.1029V80.7015ZM84.1617 80.7015H84.2214V83.0932H84.1617V80.7015ZM84.2214 80.7015H84.2817V83.0932H84.2214V80.7015ZM84.2817 80.7015H84.3424V83.0932H84.2817V80.7015ZM84.3424 80.7015H84.404V83.0932H84.3424V80.7015ZM84.404 80.7015H84.4662V83.0932H84.404V80.7015ZM84.4662 80.7015H84.529V83.0932H84.4662V80.7015ZM84.529 80.7015H84.5924V83.0932H84.529V80.7015ZM84.5924 80.7015H84.6564V83.0932H84.5924V80.7015ZM84.6564 80.7015H84.7212V83.0932H84.6564V80.7015ZM84.7212 80.7015H84.7867V83.0932H84.7212V80.7015ZM84.7867 80.7015H84.8526V83.0932H84.7867V80.7015ZM84.8526 80.7015H84.9196V83.0932H84.8526V80.7015ZM84.9196 80.7015H84.987V83.0932H84.9196V80.7015ZM84.987 80.7015H85.0548V83.0932H84.987V80.7015ZM85.0548 80.7015H85.1237V83.0932H85.0548V80.7015ZM85.1237 80.7015H85.1932V83.0932H85.1237V80.7015ZM85.1932 80.7015H85.2633V83.0932H85.1932V80.7015ZM85.2633 80.7015H85.334V83.0932H85.2633V80.7015ZM85.334 80.7015H85.4055V83.0932H85.334V80.7015ZM85.4055 80.7015H85.4777V83.0932H85.4055V80.7015ZM85.4777 80.7015H85.5506V83.0932H85.4777V80.7015ZM85.5506 80.7015H85.6239V83.0932H85.5506V80.7015ZM85.6239 80.7015H85.6983V83.0932H85.6239V80.7015ZM85.6983 80.7015H85.7731V83.0932H85.6983V80.7015ZM85.7731 80.7015H85.8488V83.0932H85.7731V80.7015ZM85.8488 80.7015H85.9251V83.0932H85.8488V80.7015ZM85.9251 80.7015H86.002V83.0932H85.9251V80.7015ZM86.002 80.7015H86.08V83.0932H86.002V80.7015ZM86.08 80.7015H86.1584V83.0932H86.08V80.7015ZM86.1584 80.7015H86.2375V83.0932H86.1584V80.7015ZM86.2375 80.7015H86.3173V83.0932H86.2375V80.7015ZM86.3173 80.7015H86.3978V83.0932H86.3173V80.7015ZM86.3978 80.7015H86.4793V83.0932H86.3978V80.7015ZM86.4793 80.7015H86.5613V83.0932H86.4793V80.7015ZM86.5613 80.7015H86.644V83.0932H86.5613V80.7015ZM86.644 80.7015H86.7277V83.0932H86.644V80.7015ZM86.7277 80.7015H86.8118V83.0932H86.7277V80.7015ZM86.8118 80.7015H86.8969V83.0932H86.8118V80.7015ZM86.8969 80.7015H86.9825V83.0932H86.8969V80.7015ZM86.9825 80.7015H87.069V83.0932H86.9825V80.7015ZM87.069 80.7015H87.1562V83.0932H87.069V80.7015ZM87.1562 80.7015H87.2442V83.0932H87.1562V80.7015ZM87.2442 80.7015H87.3328V83.0932H87.2442V80.7015ZM87.3328 80.7015H87.4222V83.0932H87.3328V80.7015ZM87.4222 80.7015H87.5123V83.0932H87.4222V80.7015ZM87.5123 80.7015H87.6034V83.0932H87.5123V80.7015ZM87.6034 80.7015H87.6952V83.0932H87.6034V80.7015ZM87.6952 80.7015H87.7877V83.0932H87.6952V80.7015ZM87.7877 80.7015H87.8809V83.0932H87.7877V80.7015ZM87.8809 80.7015H87.9748V83.0932H87.8809V80.7015ZM87.9748 80.7015H88.0697V83.0932H87.9748V80.7015ZM88.0697 80.7015H88.1653V83.0932H88.0697V80.7015ZM88.1653 80.7015H88.2616V83.0932H88.1653V80.7015ZM88.2616 80.7015H88.3587V83.0932H88.2616V80.7015ZM88.3587 80.7015H88.4567V83.0932H88.3587V80.7015ZM88.4567 80.7015H88.5554V83.0932H88.4567V80.7015ZM88.5554 80.7015H88.6548V83.0932H88.5554V80.7015ZM88.6548 80.7015H88.7549V83.0932H88.6548V80.7015ZM88.7549 80.7015H88.856V83.0932H88.7549V80.7015ZM88.856 80.7015H88.9579V83.0932H88.856V80.7015ZM88.9579 80.7015H89.0606V83.0932H88.9579V80.7015ZM89.0606 80.7015H89.1641V83.0932H89.0606V80.7015ZM89.1641 80.7015H89.2683V83.0932H89.1641V80.7015ZM89.2683 80.7015H89.3735V83.0932H89.2683V80.7015ZM89.3735 80.7015H89.4794V83.0932H89.3735V80.7015ZM89.4794 80.7015H89.586V83.0932H89.4794V80.7015ZM89.586 80.7015H89.6935V83.0932H89.586V80.7015ZM89.6935 80.7015H89.8018V83.0932H89.6935V80.7015ZM89.8018 80.7015H89.911V83.0932H89.8018V80.7015ZM89.911 80.7015H90.021V83.0932H89.911V80.7015ZM90.021 80.7015H90.1319V83.0932H90.021V80.7015ZM90.1319 80.7015H90.2435V83.0932H90.1319V80.7015ZM90.2435 80.7015H90.3561V83.0932H90.2435V80.7015ZM90.3561 80.7015H90.4694V83.0932H90.3561V80.7015ZM90.4694 80.7015H90.5836V83.0932H90.4694V80.7015ZM90.5836 80.7015H90.6986V83.0932H90.5836V80.7015ZM90.6986 80.7015H90.8142V83.0932H90.6986V80.7015ZM90.8142 80.7015H90.9311V83.0932H90.8142V80.7015ZM90.9311 80.7015H91.0485V83.0932H90.9311V80.7015ZM91.0485 80.7015H91.167V83.0932H91.0485V80.7015ZM91.167 80.7015H91.2863V83.0932H91.167V80.7015ZM91.2863 80.7015H91.4063V83.0932H91.2863V80.7015ZM91.4063 80.7015H91.5272V83.0932H91.4063V80.7015ZM91.5272 80.7015H91.6491V83.0932H91.5272V80.7015ZM91.6491 80.7015H91.7717V83.0932H91.6491V80.7015ZM91.7717 80.7015H91.8953V83.0932H91.7717V80.7015ZM91.8953 80.7015H92.0198V83.0932H91.8953V80.7015ZM92.0198 80.7015H92.145V83.0932H92.0198V80.7015ZM92.145 80.7015H92.2712V83.0932H92.145V80.7015ZM92.2712 80.7015H92.3984V83.0932H92.2712V80.7015ZM92.3984 80.7015H92.5263V83.0932H92.3984V80.7015ZM92.5263 80.7015H92.6551V83.0932H92.5263V80.7015ZM92.6551 80.7015H92.7849V83.0932H92.6551V80.7015ZM92.7849 80.7015H92.9156V83.0932H92.7849V80.7015ZM92.9156 80.7015H93.0471V83.0932H92.9156V80.7015ZM93.0471 80.7015H93.1795V83.0932H93.0471V80.7015ZM93.1795 80.7015H93.3128V83.0932H93.1795V80.7015ZM93.3128 80.7015H93.4469V83.0932H93.3128V80.7015ZM93.4469 80.7015H93.5822V83.0932H93.4469V80.7015ZM93.5822 80.7015H93.7182V83.0932H93.5822V80.7015ZM93.7182 80.7015H93.8552V83.0932H93.7182V80.7015ZM93.8552 80.7015H93.9928V83.0932H93.8552V80.7015ZM93.9928 80.7015H94.1317V83.0932H93.9928V80.7015ZM94.1317 80.7015H94.2715V83.0932H94.1317V80.7015ZM94.2715 80.7015H94.412V83.0932H94.2715V80.7015ZM94.412 80.7015H94.5535V83.0932H94.412V80.7015ZM94.5535 80.7015H94.696V83.0932H94.5535V80.7015ZM94.696 80.7015H94.8394V83.0932H94.696V80.7015ZM94.8394 80.7015H94.9837V83.0932H94.8394V80.7015ZM94.9837 80.7015H95.1291V83.0932H94.9837V80.7015ZM95.1291 80.7015H95.2751V83.0932H95.1291V80.7015ZM95.2751 80.7015H95.4223V83.0932H95.2751V80.7015ZM95.4223 80.7015H95.5705V83.0932H95.4223V80.7015ZM95.5705 80.7015H95.7194V83.0932H95.5705V80.7015ZM95.7194 80.7015H95.8695V83.0932H95.7194V80.7015ZM95.8695 80.7015H96.0203V83.0932H95.8695V80.7015ZM96.0203 80.7015H96.1723V83.0932H96.0203V80.7015ZM96.1723 80.7015H96.3251V83.0932H96.1723V80.7015ZM96.3251 80.7015H96.479V83.0932H96.3251V80.7015ZM96.479 80.7015H96.6339V83.0932H96.479V80.7015ZM96.6339 80.7015H96.7895V83.0932H96.6339V80.7015ZM96.7895 80.7015H96.9463V83.0932H96.7895V80.7015ZM96.9463 80.7015C104.013 80.7015 109.44 83.0985 113.544 87.0357L111.89 88.7622C108.243 85.2634 103.414 83.0932 96.9463 83.0932V80.7015ZM113.544 87.0357C117.613 90.9386 120.302 96.2766 122.095 102.06L119.812 102.769C118.087 97.2036 115.561 92.2837 111.89 88.7622L113.544 87.0357ZM122.095 102.06C125.674 113.602 125.817 127.379 125.817 136.4H123.427C123.427 127.34 123.269 113.915 119.812 102.769L122.095 102.06ZM125.817 136.4C125.817 137.192 125.175 137.835 124.383 137.835V135.443C123.855 135.443 123.427 135.871 123.427 136.4H125.817ZM124.383 137.835H103.044V135.443H124.383V137.835ZM103.044 137.835C99.6026 137.835 97.0901 137.209 95.6068 135.788L97.2596 134.06C98.0464 134.814 99.7484 135.443 103.044 135.443V137.835ZM95.6068 135.788C93.9871 134.236 93.9763 132.156 94.5483 130.32L96.8301 131.032C96.3961 132.425 96.5638 133.394 97.2596 134.06L95.6068 135.788ZM94.5483 130.32C95.1147 128.501 96.3244 126.611 97.6769 124.908L99.5476 126.397C98.2661 128.01 97.2675 129.628 96.8301 131.032L94.5483 130.32ZM97.6769 124.908C98.9962 123.248 100.525 121.677 101.927 120.403L103.533 122.174C102.208 123.378 100.772 124.857 99.5476 126.397L97.6769 124.908ZM101.736 121.952C100.142 119.561 98.3117 116.279 97.2156 113.1L99.4752 112.32C100.483 115.244 102.201 118.339 103.724 120.624L101.736 121.952ZM99.16 113.585C98.5949 114.112 98.0285 114.656 97.4513 115.211L95.7952 113.487C96.37 112.934 96.9498 112.376 97.5309 111.835L99.16 113.585ZM97.4513 115.211C96.2225 116.393 94.9443 117.622 93.6188 118.727L92.0891 116.889C93.3382 115.848 94.555 114.679 95.7952 113.487L97.4513 115.211ZM93.6188 118.727C91.5724 120.433 89.2944 121.947 86.6555 122.639L86.0489 120.326C88.1964 119.762 90.1565 118.5 92.0891 116.889L93.6188 118.727ZM86.6555 122.639C81.2537 124.058 75.0992 121.885 67.1806 113.539L68.9139 111.892C76.6181 120.012 81.92 121.41 86.0489 120.326L86.6555 122.639ZM69.1464 113.185C66.2406 120.001 60.3994 122.432 55.565 122.883L55.3432 120.501C59.5849 120.106 64.4846 118.025 66.948 112.246L69.1464 113.185ZM55.8681 120.57C56.7698 120.904 57.5282 121.37 58.1138 121.987L56.3807 123.634C56.0956 123.334 55.6711 123.047 55.0401 122.814L55.8681 120.57ZM58.1138 121.987C59.5825 123.535 59.5827 125.57 59.0729 127.37L56.7734 126.718C57.1747 125.301 57.0158 124.303 56.3807 123.634L58.1138 121.987ZM59.0729 127.37C58.5619 129.175 57.4675 131.06 56.2354 132.766L54.2982 131.365C55.4617 129.754 56.3728 128.132 56.7734 126.718L59.0729 127.37ZM56.2354 132.766C54.9902 134.489 53.5387 136.119 52.2224 137.42L50.5425 135.719C51.7824 134.493 53.1436 132.963 54.2982 131.365L56.2354 132.766ZM52.2224 137.42C51.954 137.686 51.5917 137.835 51.2146 137.835V135.443C50.9631 135.443 50.7215 135.542 50.5425 135.719L52.2224 137.42ZM51.2146 137.835C50.4963 137.835 49.7956 137.835 49.112 137.836L49.1101 135.444C49.7936 135.444 50.4951 135.443 51.2146 135.443V137.835ZM49.112 137.836C42.3411 137.841 37.1534 137.849 33.4495 137.261L33.824 134.899C37.294 135.45 42.2484 135.45 49.1101 135.444L49.112 137.836ZM33.4495 137.261C31.3993 136.935 29.649 136.407 28.2857 135.487L29.622 133.504C30.5678 134.142 31.9222 134.597 33.824 134.899L33.4495 137.261ZM28.2857 135.487C26.8696 134.532 25.9587 133.213 25.5135 131.513L27.8254 130.906C28.1308 132.072 28.7116 132.89 29.622 133.504L28.2857 135.487ZM25.5135 131.513C25.0832 129.871 25.0971 127.916 25.4002 125.641L27.7692 125.957C27.4836 128.102 27.5097 129.701 27.8254 130.906L25.5135 131.513ZM25.4002 125.641C25.7047 123.353 26.3182 120.63 27.1727 117.407L29.4829 118.02C28.6368 121.212 28.0536 123.82 27.7692 125.957L25.4002 125.641ZM27.1727 117.407C28.1739 113.629 29.525 109.095 31.1378 103.681L33.4282 104.364C31.8116 109.791 30.4727 114.286 29.4829 118.02L27.1727 117.407ZM31.1378 103.681C32.2554 99.9294 33.5009 95.749 34.8487 91.0874L37.1446 91.7523C35.7937 96.4242 34.5458 100.613 33.4282 104.364L31.1378 103.681ZM35.9966 92.6157H17.678V90.224H35.9966V92.6157ZM17.678 92.6157C7.97313 92.6157 1 86.1589 1 79.1221H3.39009C3.39009 84.4794 8.90361 90.224 17.678 90.224V92.6157ZM1 79.1221C1 76.1987 2.78597 72.8475 5.20469 70.2965L6.93858 71.9425C4.74008 74.2614 3.39009 77.0516 3.39009 79.1221H1ZM5.20469 70.2965C7.63823 67.7298 11.0375 65.6287 14.6292 65.6287V68.0203C11.9424 68.0203 9.12723 69.6343 6.93858 71.9425L5.20469 70.2965ZM14.6292 65.6287C14.8694 65.6287 14.9643 65.5909 14.9774 65.5849C14.982 65.583 14.9715 65.5873 14.9547 65.6019C14.9379 65.6165 14.9251 65.6325 14.9172 65.6449L16.9381 66.9219C16.4437 67.7056 15.5954 68.0203 14.6292 68.0203V65.6287ZM14.9172 65.6449C14.9039 65.666 14.9307 65.6358 14.946 65.5007C14.9613 65.3656 14.9606 65.1642 14.9228 64.8815L17.2917 64.5639C17.3958 65.3417 17.3833 66.2165 16.9381 66.9219L14.9172 65.6449ZM14.9228 64.8815C14.7617 63.6783 14.0893 61.9754 13.2985 60.0061L15.5163 59.1142C16.2594 60.9649 17.0815 62.9933 17.2917 64.5639L14.9228 64.8815ZM13.2986 60.0063L13.2878 59.9793L15.5053 59.0872L15.5162 59.114L13.2986 60.0063ZM13.2877 59.979C12.5567 58.1587 11.7119 56.0782 11.4929 54.4416L13.8618 54.124C14.0318 55.3942 14.7283 57.1521 15.5054 59.0874L13.2877 59.979ZM11.4929 54.4416C11.3844 53.631 11.3793 52.6153 11.916 51.7648L13.937 53.0417C13.8581 53.1666 13.7754 53.478 13.8618 54.124L11.4929 54.4416ZM11.916 51.7648C12.5291 50.7933 13.5668 50.4434 14.6292 50.4434V52.8351C14.0665 52.8351 13.9647 52.9977 13.937 53.0415L11.916 51.7648ZM14.6292 50.4434H20.4773V52.8351H14.6292V50.4434ZM19.286 51.733C19.2646 51.4615 19.1973 51.0566 19.0831 50.4934L21.4255 50.0182C21.5412 50.5888 21.635 51.1169 21.6687 51.5453L19.286 51.733ZM19.0831 50.4934C19.0096 50.1303 18.9238 49.7352 18.8293 49.2997L21.1649 48.792C21.2586 49.2237 21.3481 49.636 21.4255 50.0182L19.0831 50.4934ZM18.8293 49.2997C18.7445 48.9089 18.6532 48.4882 18.5606 48.0431L20.9005 47.5555C20.9907 47.9893 21.0799 48.4002 21.1649 48.792L18.8293 49.2997ZM18.5606 48.0431C18.1762 46.1953 17.7683 43.9254 17.7683 41.7181H20.1584C20.1584 43.6656 20.5216 45.7344 20.9005 47.5555L18.5606 48.0431ZM17.7683 41.7181C17.7683 39.5314 18.1667 37.1906 19.6036 35.3794L21.4755 36.8666C20.5279 38.0607 20.1584 39.7567 20.1584 41.7181H17.7683ZM19.6036 35.3794C21.0926 33.5029 23.4719 32.4678 26.8242 32.4678V34.8595C23.9778 34.8595 22.3883 35.7162 21.4755 36.8666L19.6036 35.3794ZM26.8242 32.4678C34.4983 32.4678 42.3884 35.5944 48.3343 39.4383L47.0372 41.4471C41.3466 37.7682 33.9034 34.8595 26.8242 34.8595V32.4678ZM48.3343 39.4383C51.3159 41.3658 53.8647 43.5094 55.6866 45.5983L53.886 47.1709C52.2425 45.2867 49.8768 43.283 47.0372 41.4471L48.3343 39.4383ZM55.6866 45.5983C57.3461 47.5007 58.572 49.5504 58.729 51.4668L56.347 51.6622C56.2541 50.5269 55.4493 48.963 53.886 47.1709L55.6866 45.5983ZM47.0376 59.4703C50.1328 54.5781 53.3503 51.6648 56.6965 50.5683L57.4405 52.8411C54.8518 53.6894 52.0174 56.0706 49.057 60.7496L47.0376 59.4703ZM37.6489 81.7142C40.7233 71.7258 43.8693 64.478 47.0376 59.4703L49.057 60.7496C46.0472 65.5069 42.9759 72.532 39.9331 82.418L37.6489 81.7142ZM34.987 90.6091C35.7947 87.8168 36.6821 84.8552 37.6489 81.7142L39.9331 82.418C38.9697 85.5485 38.086 88.497 37.283 91.274L34.987 90.6091ZM17.678 89.7457H36.135V92.1373H17.678V89.7457ZM3.87095 79.3285C4.00769 84.2965 9.21339 89.7457 17.678 89.7457V92.1373C8.28257 92.1373 1.66336 85.9926 1.48177 79.3942L3.87095 79.3285ZM14.6292 80.5571H2.67636V78.1654H14.6292V80.5571ZM16.0632 79.1221C16.0632 79.9147 15.4212 80.5571 14.6292 80.5571V78.1654C14.1012 78.1654 13.6731 78.5937 13.6731 79.1221H16.0632ZM14.6292 77.687C15.4212 77.687 16.0632 78.3297 16.0632 79.1221H13.6731C13.6731 79.6504 14.1012 80.0787 14.6292 80.0787V77.687ZM2.67816 77.687H14.6292V80.0787H2.67816V77.687ZM7.28536 72.2718C5.20973 74.4609 3.95195 77.0394 3.87214 78.9333L1.48417 78.8327C1.59716 76.1513 3.25183 73.0513 5.55147 70.6256L7.28536 72.2718ZM14.6292 68.4987C12.1231 68.4987 9.4248 70.0152 7.28536 72.2718L5.55147 70.6256C7.9362 68.1105 11.2186 66.107 14.6292 66.107V68.4987ZM17.3423 67.1773C16.7293 68.1488 15.6916 68.4987 14.6292 68.4987V66.107C15.1919 66.107 15.2936 65.9444 15.3214 65.9004L17.3423 67.1773ZM17.7655 64.5005C17.874 65.3111 17.879 66.3268 17.3423 67.1773L15.3214 65.9004C15.4002 65.7755 15.483 65.4639 15.3966 64.8179L17.7655 64.5005ZM15.9707 58.9631C16.7016 60.7834 17.5464 62.8639 17.7655 64.5005L15.3966 64.8179C15.2265 63.5477 14.53 61.79 13.7529 59.8547L15.9707 58.9631ZM15.9598 58.936L15.9707 58.9631L13.7529 59.8547L13.742 59.8276L15.9598 58.936ZM14.3356 54.0606C14.4967 55.2638 15.169 56.9667 15.9598 58.936L13.742 59.8276C12.9989 57.9772 12.1769 55.9486 11.9667 54.378L14.3356 54.0606ZM14.3412 53.2969C14.3544 53.2759 14.3277 53.3063 14.3124 53.4414C14.2971 53.5763 14.2978 53.7776 14.3356 54.0606L11.9667 54.378C11.8626 53.6004 11.8751 52.7255 12.3202 52.02L14.3412 53.2969ZM14.6292 53.3134C14.3889 53.3134 14.2941 53.351 14.2809 53.357C14.2764 53.3591 14.2868 53.3548 14.3036 53.3402C14.3205 53.3256 14.3333 53.3096 14.3412 53.2969L12.3202 52.02C12.8147 51.2365 13.663 50.9217 14.6292 50.9217V53.3134ZM20.7267 53.3134H14.6292V50.9217H20.7267V53.3134ZM23.7755 53.3134H20.7267V50.9217H23.7755V53.3134ZM25.2097 51.8784C25.2097 52.6708 24.5675 53.3134 23.7755 53.3134V50.9217C23.2475 50.9217 22.8195 51.3501 22.8195 51.8784H25.2097ZM23.7755 50.4434C24.5675 50.4434 25.2097 51.0858 25.2097 51.8784H22.8195C22.8195 52.4067 23.2475 52.8351 23.7755 52.8351V50.4434ZM20.9566 50.4434H23.7755V52.8351H20.9566V50.4434ZM21.894 49.923C22.0115 50.5027 22.1148 51.076 22.1486 51.5548L19.7645 51.7234C19.7426 51.4137 19.6683 50.9744 19.5516 50.3984L21.894 49.923ZM21.6309 48.685C21.7258 49.1227 21.817 49.5432 21.894 49.923L19.5516 50.3984C19.4785 50.0375 19.391 49.6341 19.2952 49.1923L21.6309 48.685ZM21.3685 47.4581C21.4563 47.88 21.5454 48.2909 21.6309 48.685L19.2952 49.1923C19.21 48.7994 19.1188 48.3789 19.0286 47.9455L21.3685 47.4581ZM20.6364 41.7181C20.6364 43.6137 20.9907 45.6421 21.3685 47.4581L19.0286 47.9455C18.6453 46.1032 18.2463 43.8735 18.2463 41.7181H20.6364ZM21.8498 37.1641C21.0002 38.2351 20.6364 39.8016 20.6364 41.7181H18.2463C18.2463 39.5763 18.639 37.3645 19.978 35.6769L21.8498 37.1641ZM26.8242 35.3378C24.0797 35.3378 22.6478 36.1584 21.8498 37.1641L19.978 35.6769C21.3515 33.9458 23.5726 32.9461 26.8242 32.9461V35.3378ZM46.7778 41.8489C41.1382 38.203 33.7846 35.3378 26.8242 35.3378V32.9461C34.3792 32.9461 42.18 36.0292 48.0747 39.8401L46.7778 41.8489ZM53.526 47.4856C51.918 45.6421 49.5888 43.6663 46.7778 41.8489L48.0747 39.8401C51.0279 41.7492 53.5403 43.8648 55.3265 45.9128L53.526 47.4856ZM55.875 51.7679C55.8238 50.7998 55.1166 49.3093 53.526 47.4856L55.3265 45.9128C57.0103 47.8429 58.1668 49.8472 58.2617 51.6414L55.875 51.7679ZM53.8718 122.965C52.8312 122.969 51.8537 122.886 50.9815 122.743L51.3699 120.383C52.107 120.504 52.9514 120.577 53.8625 120.573L53.8718 122.965ZM50.9815 122.743C50.2447 122.621 49.7243 121.954 49.7853 121.21L52.1675 121.405C52.2079 120.909 51.8611 120.464 51.3699 120.383L50.9815 122.743ZM49.7853 121.21C49.8462 120.465 50.4679 119.892 51.2146 119.892V122.284C51.7124 122.284 52.1268 121.901 52.1675 121.405L49.7853 121.21ZM51.2146 119.892C52.2908 119.892 53.2569 119.965 54.1164 120.113L53.7112 122.47C53.0129 122.35 52.1856 122.284 51.2146 122.284V119.892ZM53.9065 120.096C58.3518 120.068 64.0436 118.207 66.6371 111.748L68.8548 112.64C65.7759 120.307 58.9568 122.456 53.9213 122.488L53.9065 120.096ZM66.6371 111.748C67.5209 109.547 68.0733 106.758 68.0733 103.239H70.4634C70.4634 107.007 69.8718 110.107 68.8548 112.64L66.6371 111.748ZM68.0733 103.239C68.0733 102.447 68.7153 101.804 69.5073 101.804V104.196C70.0353 104.196 70.4634 103.767 70.4634 103.239H68.0733ZM69.5073 101.804C70.2992 101.804 70.9414 102.447 70.9414 103.239H68.5513C68.5513 103.767 68.9791 104.196 69.5073 104.196V101.804ZM70.9414 103.239C70.9414 106.983 70.3651 110.096 69.3587 112.666L67.1333 111.794C68.0126 109.548 68.5513 106.738 68.5513 103.239H70.9414ZM69.1154 111.409C76.8559 119.621 82.0288 120.887 85.9275 119.863L86.5343 122.177C81.3543 123.537 75.3272 121.485 67.3766 113.05L69.1154 111.409ZM85.9275 119.863C87.9767 119.325 89.8733 118.114 91.7832 116.522L93.3128 118.36C91.2894 120.046 89.0747 121.51 86.5343 122.177L85.9275 119.863ZM91.7832 116.522C93.0208 115.49 94.2139 114.344 95.4448 113.16L97.1009 114.884C95.8815 116.057 94.6269 117.264 93.3128 118.36L91.7832 116.522ZM95.4448 113.16C96.0763 112.553 96.7175 111.936 97.3679 111.334L98.9914 113.089C98.3602 113.673 97.7352 114.275 97.1009 114.884L95.4448 113.16ZM97.0414 112.576C96.277 110.185 95.8628 107.589 96.6367 105.485L98.8796 106.312C98.3939 107.631 98.5902 109.572 99.3179 111.847L97.0414 112.576ZM96.6367 105.485C97.0514 104.358 97.7995 103.398 98.9334 102.742L100.13 104.813C99.5111 105.171 99.1143 105.673 98.8796 106.312L96.6367 105.485ZM98.9334 102.742C100.041 102.102 101.423 101.804 103.044 101.804V104.196C101.698 104.196 100.766 104.445 100.13 104.813L98.9334 102.742ZM103.044 101.804C103.836 101.804 104.478 102.447 104.478 103.239H102.088C102.088 103.767 102.516 104.196 103.044 104.196V101.804ZM104.478 103.239C104.478 104.032 103.836 104.674 103.044 104.674V102.282C102.516 102.282 102.088 102.711 102.088 103.239H104.478ZM103.044 104.674C101.753 104.674 100.911 104.913 100.369 105.227L99.1726 103.157C100.186 102.57 101.478 102.282 103.044 102.282V104.674ZM100.369 105.227C99.8533 105.525 99.5271 105.936 99.328 106.477L97.0851 105.651C97.4639 104.621 98.142 103.753 99.1726 103.157L100.369 105.227ZM99.328 106.477C98.8903 107.667 99.0612 109.527 99.817 111.836L97.5457 112.581C96.7548 110.164 96.3545 107.637 97.0851 105.651L99.328 106.477ZM99.817 111.836C100.811 114.872 102.638 118.159 104.233 120.524L102.251 121.862C100.584 119.389 98.6313 115.898 97.5457 112.581L99.817 111.836ZM104.233 120.524C104.633 121.118 104.535 121.916 104.002 122.395L102.405 120.615C102.05 120.934 101.985 121.466 102.251 121.862L104.233 120.524ZM104.002 122.395C102.652 123.608 101.173 125.12 99.9217 126.695L98.051 125.206C99.4004 123.508 100.976 121.9 102.405 120.615L104.002 122.395ZM99.9217 126.695C98.6542 128.29 97.6979 129.853 97.2864 131.174L95.0045 130.463C95.5454 128.727 96.7127 126.89 98.051 125.206L99.9217 126.695ZM97.2864 131.174C96.881 132.476 97.0772 133.223 97.5901 133.715L95.9374 135.442C94.5038 134.069 94.4594 132.213 95.0045 130.463L97.2864 131.174ZM97.5901 133.715C98.2379 134.335 99.7778 134.965 103.044 134.965V137.356C99.6318 137.356 97.2813 136.73 95.9374 135.442L97.5901 133.715ZM103.044 134.965H124.144V137.356H103.044V134.965ZM122.949 136.161C122.946 127.098 122.757 113.88 119.356 102.91L121.638 102.202C125.162 113.565 125.336 127.131 125.339 136.16L122.949 136.161ZM119.356 102.91C117.644 97.389 115.151 92.5525 111.559 89.1076L113.213 87.381C117.202 91.2077 119.859 96.462 121.638 102.202L119.356 102.91ZM111.559 89.1076C108.004 85.6965 103.294 83.5715 96.9463 83.5715V81.1799C103.893 81.1799 109.201 83.5316 113.213 87.381L111.559 89.1076ZM96.9463 83.5715H96.7895V81.1799H96.9463V83.5715ZM96.7895 83.5715H96.6339V81.1799H96.7895V83.5715ZM96.6339 83.5715H96.479V81.1799H96.6339V83.5715ZM96.479 83.5715H96.3251V81.1799H96.479V83.5715ZM96.3251 83.5715H96.1723V81.1799H96.3251V83.5715ZM96.1723 83.5715H96.0203V81.1799H96.1723V83.5715ZM96.0203 83.5715H95.8695V81.1799H96.0203V83.5715ZM95.8695 83.5715H95.7194V81.1799H95.8695V83.5715ZM95.7194 83.5715H95.5705V81.1799H95.7194V83.5715ZM95.5705 83.5715H95.4223V81.1799H95.5705V83.5715ZM95.4223 83.5715H95.2751V81.1799H95.4223V83.5715ZM95.2751 83.5715H95.1291V81.1799H95.2751V83.5715ZM95.1291 83.5715H94.9837V81.1799H95.1291V83.5715ZM94.9837 83.5715H94.8394V81.1799H94.9837V83.5715ZM94.8394 83.5715H94.696V81.1799H94.8394V83.5715ZM94.696 83.5715H94.5535V81.1799H94.696V83.5715ZM94.5535 83.5715H94.412V81.1799H94.5535V83.5715ZM94.412 83.5715H94.2715V81.1799H94.412V83.5715ZM94.2715 83.5715H94.1317V81.1799H94.2715V83.5715ZM94.1317 83.5715H93.9928V81.1799H94.1317V83.5715ZM93.9928 83.5715H93.8552V81.1799H93.9928V83.5715ZM93.8552 83.5715H93.7182V81.1799H93.8552V83.5715ZM93.7182 83.5715H93.5822V81.1799H93.7182V83.5715ZM93.5822 83.5715H93.4469V81.1799H93.5822V83.5715ZM93.4469 83.5715H93.3128V81.1799H93.4469V83.5715ZM93.3128 83.5715H93.1795V81.1799H93.3128V83.5715ZM93.1795 83.5715H93.0471V81.1799H93.1795V83.5715ZM93.0471 83.5715H92.9156V81.1799H93.0471V83.5715ZM92.9156 83.5715H92.7849V81.1799H92.9156V83.5715ZM92.7849 83.5715H92.6551V81.1799H92.7849V83.5715ZM92.6551 83.5715H92.5263V81.1799H92.6551V83.5715ZM92.5263 83.5715H92.3984V81.1799H92.5263V83.5715ZM92.3984 83.5715H92.2712V81.1799H92.3984V83.5715ZM92.2712 83.5715H92.145V81.1799H92.2712V83.5715ZM92.145 83.5715H92.0198V81.1799H92.145V83.5715ZM92.0198 83.5715H91.8953V81.1799H92.0198V83.5715ZM91.8953 83.5715H91.7717V81.1799H91.8953V83.5715ZM91.7717 83.5715H91.6491V81.1799H91.7717V83.5715ZM91.6491 83.5715H91.5272V81.1799H91.6491V83.5715ZM91.5272 83.5715H91.4063V81.1799H91.5272V83.5715ZM91.4063 83.5715H91.2863V81.1799H91.4063V83.5715ZM91.2863 83.5715H91.167V81.1799H91.2863V83.5715ZM91.167 83.5715H91.0485V81.1799H91.167V83.5715ZM91.0485 83.5715H90.9311V81.1799H91.0485V83.5715ZM90.9311 83.5715H90.8142V81.1799H90.9311V83.5715ZM90.8142 83.5715H90.6986V81.1799H90.8142V83.5715ZM90.6986 83.5715H90.5836V81.1799H90.6986V83.5715ZM90.5836 83.5715H90.4694V81.1799H90.5836V83.5715ZM90.4694 83.5715H90.3561V81.1799H90.4694V83.5715ZM90.3561 83.5715H90.2435V81.1799H90.3561V83.5715ZM90.2435 83.5715H90.1319V81.1799H90.2435V83.5715ZM90.1319 83.5715H90.021V81.1799H90.1319V83.5715ZM90.021 83.5715H89.911V81.1799H90.021V83.5715ZM89.911 83.5715H89.8018V81.1799H89.911V83.5715ZM89.8018 83.5715H89.6935V81.1799H89.8018V83.5715ZM89.6935 83.5715H89.586V81.1799H89.6935V83.5715ZM89.586 83.5715H89.4794V81.1799H89.586V83.5715ZM89.4794 83.5715H89.3735V81.1799H89.4794V83.5715ZM89.3735 83.5715H89.2683V81.1799H89.3735V83.5715ZM89.2683 83.5715H89.1641V81.1799H89.2683V83.5715ZM89.1641 83.5715H89.0606V81.1799H89.1641V83.5715ZM89.0606 83.5715H88.9579V81.1799H89.0606V83.5715ZM88.9579 83.5715H88.856V81.1799H88.9579V83.5715ZM88.856 83.5715H88.7549V81.1799H88.856V83.5715ZM88.7549 83.5715H88.6548V81.1799H88.7549V83.5715ZM88.6548 83.5715H88.5554V81.1799H88.6548V83.5715ZM88.5554 83.5715H88.4567V81.1799H88.5554V83.5715ZM88.4567 83.5715H88.3587V81.1799H88.4567V83.5715ZM88.3587 83.5715H88.2616V81.1799H88.3587V83.5715ZM88.2616 83.5715H88.1653V81.1799H88.2616V83.5715ZM88.1653 83.5715H88.0697V81.1799H88.1653V83.5715ZM88.0697 83.5715H87.9748V81.1799H88.0697V83.5715ZM87.9748 83.5715H87.8809V81.1799H87.9748V83.5715ZM87.8809 83.5715H87.7877V81.1799H87.8809V83.5715ZM87.7877 83.5715H87.6952V81.1799H87.7877V83.5715ZM87.6952 83.5715H87.6034V81.1799H87.6952V83.5715ZM87.6034 83.5715H87.5123V81.1799H87.6034V83.5715ZM87.5123 83.5715H87.4222V81.1799H87.5123V83.5715ZM87.4222 83.5715H87.3328V81.1799H87.4222V83.5715ZM87.3328 83.5715H87.2442V81.1799H87.3328V83.5715ZM87.2442 83.5715H87.1562V81.1799H87.2442V83.5715ZM87.1562 83.5715H87.069V81.1799H87.1562V83.5715ZM87.069 83.5715H86.9825V81.1799H87.069V83.5715ZM86.9825 83.5715H86.8969V81.1799H86.9825V83.5715ZM86.8969 83.5715H86.8118V81.1799H86.8969V83.5715ZM86.8118 83.5715H86.7277V81.1799H86.8118V83.5715ZM86.7277 83.5715H86.644V81.1799H86.7277V83.5715ZM86.644 83.5715H86.5613V81.1799H86.644V83.5715ZM86.5613 83.5715H86.4793V81.1799H86.5613V83.5715ZM86.4793 83.5715H86.3978V81.1799H86.4793V83.5715ZM86.3978 83.5715H86.3173V81.1799H86.3978V83.5715ZM86.3173 83.5715H86.2375V81.1799H86.3173V83.5715ZM86.2375 83.5715H86.1584V81.1799H86.2375V83.5715ZM86.1584 83.5715H86.08V81.1799H86.1584V83.5715ZM86.08 83.5715H86.002V81.1799H86.08V83.5715ZM86.002 83.5715H85.9251V81.1799H86.002V83.5715ZM85.9251 83.5715H85.8488V81.1799H85.9251V83.5715ZM85.8488 83.5715H85.7731V81.1799H85.8488V83.5715ZM85.7731 83.5715H85.6983V81.1799H85.7731V83.5715ZM85.6983 83.5715H85.6239V81.1799H85.6983V83.5715ZM85.6239 83.5715H85.5506V81.1799H85.6239V83.5715ZM85.5506 83.5715H85.4777V81.1799H85.5506V83.5715ZM85.4777 83.5715H85.4055V81.1799H85.4777V83.5715ZM85.4055 83.5715H85.334V81.1799H85.4055V83.5715ZM85.334 83.5715H85.2633V81.1799H85.334V83.5715ZM85.2633 83.5715H85.1932V81.1799H85.2633V83.5715ZM85.1932 83.5715H85.1237V81.1799H85.1932V83.5715ZM85.1237 83.5715H85.0548V81.1799H85.1237V83.5715ZM85.0548 83.5715H84.987V81.1799H85.0548V83.5715ZM84.987 83.5715H84.9196V81.1799H84.987V83.5715ZM84.9196 83.5715H84.8526V81.1799H84.9196V83.5715ZM84.8526 83.5715H84.7867V81.1799H84.8526V83.5715ZM84.7867 83.5715H84.7212V81.1799H84.7867V83.5715ZM84.7212 83.5715H84.6564V81.1799H84.7212V83.5715ZM84.6564 83.5715H84.5924V81.1799H84.6564V83.5715ZM84.5924 83.5715H84.529V81.1799H84.5924V83.5715ZM84.529 83.5715H84.4662V81.1799H84.529V83.5715ZM84.4662 83.5715H84.404V81.1799H84.4662V83.5715ZM84.404 83.5715H84.3424V81.1799H84.404V83.5715ZM84.3424 83.5715H84.2817V81.1799H84.3424V83.5715ZM84.2817 83.5715H84.2214V81.1799H84.2817V83.5715ZM84.2214 83.5715H84.1617V81.1799H84.2214V83.5715ZM84.1617 83.5715H84.1029V81.1799H84.1617V83.5715ZM84.1029 83.5715H84.0446V81.1799H84.1029V83.5715ZM84.0446 83.5715H83.9867V81.1799H84.0446V83.5715ZM83.9867 83.5715H83.9298V81.1799H83.9867V83.5715ZM83.9298 83.5715H83.8732V81.1799H83.9298V83.5715ZM83.8732 83.5715H83.8175V81.1799H83.8732V83.5715ZM83.8175 83.5715H83.7623V81.1799H83.8175V83.5715ZM83.7623 83.5715H83.7076V81.1799H83.7623V83.5715ZM83.7076 83.5715H83.6535V81.1799H83.7076V83.5715ZM83.6535 83.5715H83.6002V81.1799H83.6535V83.5715ZM83.6002 83.5715H83.5474V81.1799H83.6002V83.5715ZM83.5474 83.5715H83.4953V81.1799H83.5474V83.5715ZM83.4953 83.5715H83.4437V81.1799H83.4953V83.5715ZM83.4437 83.5715H83.3928V81.1799H83.4437V83.5715ZM83.3928 83.5715H83.3423V81.1799H83.3928V83.5715ZM83.3423 83.5715H83.2926V81.1799H83.3423V83.5715ZM83.2926 83.5715H83.2434V81.1799H83.2926V83.5715ZM83.2434 83.5715H83.1946V81.1799H83.2434V83.5715ZM83.1946 83.5715H83.1466V81.1799H83.1946V83.5715ZM83.1466 83.5715H83.0993V81.1799H83.1466V83.5715ZM83.0993 83.5715H83.0522V81.1799H83.0993V83.5715ZM83.0522 83.5715H83.0061V81.1799H83.0522V83.5715ZM83.0061 83.5715H82.9602V81.1799H83.0061V83.5715ZM82.9602 83.5715H82.915V81.1799H82.9602V83.5715ZM82.915 83.5715H82.8705V81.1799H82.915V83.5715ZM82.8705 83.5715H82.8266V81.1799H82.8705V83.5715ZM82.8266 83.5715H82.7831V81.1799H82.8266V83.5715ZM82.7831 83.5715H82.74V81.1799H82.7831V83.5715ZM82.74 83.5715H82.6977V81.1799H82.74V83.5715ZM82.6977 83.5715H82.6559V81.1799H82.6977V83.5715ZM82.6559 83.5715H82.6146V81.1799H82.6559V83.5715ZM82.6146 83.5715H82.5739V81.1799H82.6146V83.5715ZM82.5739 83.5715H82.5338V81.1799H82.5739V83.5715ZM82.5338 83.5715H82.4941V81.1799H82.5338V83.5715ZM82.4941 83.5715H82.4551V81.1799H82.4941V83.5715ZM82.4551 83.5715H82.4248V81.1799H82.4551V83.5715ZM82.4248 83.5715H82.4246V81.1799H82.4248V83.5715ZM82.4246 83.5715H82.4243V81.1799H82.4246V83.5715ZM82.4243 83.5715H82.4238V81.1799H82.4243V83.5715ZM82.4238 83.5715H82.4234V81.1799H82.4238V83.5715ZM82.4234 83.5715H82.4222V81.1799H82.4234V83.5715ZM82.4222 83.5715H82.421V81.1799H82.4222V83.5715ZM82.421 83.5715H82.4205V81.1799H82.421V83.5715ZM82.4205 83.5715H82.4193V81.1799H82.4205V83.5715ZM82.4193 83.5715H82.4174V81.1799H82.4193V83.5715ZM82.4174 83.5715H82.4171V81.1799H82.4174V83.5715ZM82.4171 83.5715H82.4164V81.1799H82.4171V83.5715ZM82.4164 83.5715H82.4152V81.1799H82.4164V83.5715ZM82.4152 83.5715H82.415V81.1799H82.4152V83.5715ZM82.415 83.5715H82.4128V81.1799H82.415V83.5715ZM82.4128 83.5715H82.4102V81.1799H82.4128V83.5715ZM82.4102 83.5715H82.41V81.1799H82.4102V83.5715ZM82.41 83.5715H82.4073V81.1799H82.41V83.5715ZM82.4073 83.5715H82.4069V81.1799H82.4073V83.5715ZM82.4069 83.5715H82.4042V81.1799H82.4069V83.5715ZM82.4042 83.5715H82.4035V81.1799H82.4042V83.5715ZM82.4035 83.5715H82.4011V81.1799H82.4035V83.5715ZM82.4011 83.5715H82.3999V81.1799H82.4011V83.5715ZM82.3999 83.5715H82.3975V81.1799H82.3999V83.5715ZM82.3975 83.5715H82.3959V81.1799H82.3975V83.5715ZM82.3959 83.5715H82.394V81.1799H82.3959V83.5715ZM82.394 83.5715H82.3918V81.1799H82.394V83.5715ZM82.3918 83.5715H82.3899V81.1799H82.3918V83.5715ZM82.3899 83.5715H82.387V81.1799H82.3899V83.5715ZM82.387 83.5715H82.3858V81.1799H82.387V83.5715ZM82.3858 83.5715H82.3823V81.1799H82.3858V83.5715ZM82.3823 83.5715H82.3813V81.1799H82.3823V83.5715ZM82.3813 83.5715H82.3784V81.1799H82.3813V83.5715ZM82.3784 83.5715H82.377V81.1799H82.3784V83.5715ZM82.377 83.5715H82.372V81.1799H82.377V83.5715ZM82.372 83.5715H82.3715V81.1799H82.372V83.5715ZM82.3715 83.5715H82.367V81.1799H82.3715V83.5715ZM82.367 83.5715H82.3658V81.1799H82.367V83.5715ZM82.3658 83.5715H82.3617V81.1799H82.3658V83.5715ZM82.3617 83.5715H82.3595V81.1799H82.3617V83.5715ZM82.3595 83.5715H82.3562V81.1799H82.3595V83.5715ZM82.3562 83.5715H82.3531V81.1799H82.3562V83.5715ZM82.3531 83.5715H82.3507V81.1799H82.3531V83.5715ZM82.3507 83.5715H82.3462V81.1799H82.3507V83.5715ZM82.3462 83.5715H82.3447V81.1799H82.3462V83.5715ZM82.3447 83.5715H82.3409V81.1799H82.3447V83.5715ZM82.3409 83.5715H82.339V81.1799H82.3409V83.5715ZM82.339 83.5715H82.3387V81.1799H82.339V83.5715ZM82.3387 83.5715H82.3325V81.1799H82.3387V83.5715ZM82.3325 83.5715H82.3316V81.1799H82.3325V83.5715ZM82.3316 83.5715H82.3261V81.1799H82.3316V83.5715ZM82.3261 83.5715H82.3237V81.1799H82.3261V83.5715ZM82.3237 83.5715H82.3196V81.1799H82.3237V83.5715ZM82.3196 83.5715H82.3156V81.1799H82.3196V83.5715ZM82.3156 83.5715H82.3127V81.1799H82.3156V83.5715ZM82.3127 83.5715H82.307V81.1799H82.3127V83.5715ZM82.307 83.5715H82.3058V81.1799H82.307V83.5715ZM82.3058 83.5715H82.3041V81.1799H82.3058V83.5715ZM82.3041 83.5715H82.2986V81.1799H82.3041V83.5715ZM82.2986 83.5715H82.2981V81.1799H82.2986V83.5715ZM82.2981 83.5715H82.2914V81.1799H82.2981V83.5715ZM82.2914 83.5715H82.289V81.1799H82.2914V83.5715ZM82.289 83.5715H82.2838V81.1799H82.289V83.5715ZM82.2838 83.5715H82.2795V81.1799H82.2838V83.5715ZM82.2795 83.5715H82.2761V81.1799H82.2795V83.5715ZM82.2761 83.5715H82.2694V81.1799H82.2761V83.5715ZM82.2694 83.5715H82.2682V81.1799H82.2694V83.5715ZM82.2682 83.5715H82.2675V81.1799H82.2682V83.5715ZM82.2675 83.5715H82.2604V81.1799H82.2675V83.5715ZM82.2604 83.5715H82.2594V81.1799H82.2604V83.5715ZM82.2594 83.5715H82.2522V81.1799H82.2594V83.5715ZM82.2522 83.5715H82.2486V81.1799H82.2522V83.5715ZM82.2486 83.5715H82.2439V81.1799H82.2486V83.5715ZM82.2439 83.5715H82.2377V81.1799H82.2439V83.5715ZM82.2377 83.5715H82.2355V81.1799H82.2377V83.5715ZM82.2355 83.5715H82.2317V81.1799H82.2355V83.5715ZM82.2317 83.5715H82.2269V81.1799H82.2317V83.5715ZM82.2269 83.5715H82.2264V81.1799H82.2269V83.5715ZM82.2264 83.5715H82.2181V81.1799H82.2264V83.5715ZM82.2181 83.5715H82.2147V81.1799H82.2181V83.5715ZM82.2147 83.5715H82.209V81.1799H82.2147V83.5715ZM82.209 83.5715H82.2025V81.1799H82.209V83.5715ZM82.2025 83.5715H82.2001V81.1799H82.2025V83.5715ZM82.2001 83.5715H82.1963V81.1799H82.2001V83.5715ZM82.1963 83.5715H82.1908V81.1799H82.1963V83.5715ZM82.1908 83.5715H82.1901V81.1799H82.1908V83.5715ZM82.1901 83.5715H82.1815V81.1799H82.1901V83.5715ZM82.1815 83.5715H82.1772V81.1799H82.1815V83.5715ZM82.1772 83.5715H82.1719V81.1799H82.1772V83.5715ZM82.1719 83.5715H82.164V81.1799H82.1719V83.5715ZM82.164 83.5715H82.1624V81.1799H82.164V83.5715ZM82.1624 83.5715H82.1614V81.1799H82.1624V83.5715ZM82.1614 83.5715H82.1526V81.1799H82.1614V83.5715ZM82.1526 83.5715H82.1504V81.1799H82.1526V83.5715ZM82.1504 83.5715H82.1428V81.1799H82.1504V83.5715ZM82.1428 83.5715H82.1366V81.1799H82.1428V83.5715ZM82.1366 83.5715H82.1327V81.1799H82.1366V83.5715ZM82.1327 83.5715H82.127V81.1799H82.1327V83.5715ZM82.127 83.5715H82.1224V81.1799H82.127V83.5715ZM82.1224 83.5715H82.122V81.1799H82.1224V83.5715ZM82.122 83.5715H82.1124V81.1799H82.122V83.5715ZM82.1124 83.5715H82.1074V81.1799H82.1124V83.5715ZM82.1074 83.5715H82.1019V81.1799H82.1074V83.5715ZM82.1019 83.5715H82.0931V81.1799H82.1019V83.5715ZM82.0931 83.5715H82.0921V81.1799H82.0931V83.5715ZM82.0921 83.5715H82.0914V81.1799H82.0921V83.5715ZM82.0914 83.5715H82.0809V81.1799H82.0914V83.5715ZM82.0809 83.5715H82.0766V81.1799H82.0809V83.5715ZM82.0766 83.5715H82.0701V81.1799H82.0766V83.5715ZM82.0701 83.5715H82.0608V81.1799H82.0701V83.5715ZM82.0608 83.5715H82.0598V81.1799H82.0608V83.5715ZM82.0598 83.5715H82.0594V81.1799H82.0598V83.5715ZM82.0594 83.5715H82.0484V81.1799H82.0594V83.5715ZM82.0484 83.5715H82.0443V81.1799H82.0484V83.5715ZM82.0443 83.5715H82.0374V81.1799H82.0443V83.5715ZM82.0374 83.5715H82.0276V81.1799H82.0374V83.5715ZM82.0276 83.5715H82.0271V81.1799H82.0276V83.5715ZM82.0271 83.5715H82.0264V81.1799H82.0271V83.5715ZM82.0264 83.5715H82.0151V81.1799H82.0264V83.5715ZM82.0151 83.5715H82.0104V81.1799H82.0151V83.5715ZM82.0104 83.5715H82.0037V81.1799H82.0104V83.5715ZM82.0037 83.5715H81.9946V81.1799H82.0037V83.5715ZM81.9946 83.5715H81.9929V81.1799H81.9946V83.5715ZM81.9929 83.5715H81.9924V81.1799H81.9929V83.5715ZM81.9924 83.5715H81.981V81.1799H81.9924V83.5715ZM81.981 83.5715H81.975V81.1799H81.981V83.5715ZM81.975 83.5715H81.9692V81.1799H81.975V83.5715ZM81.9692 83.5715H81.9628V81.1799H81.9692V83.5715ZM81.9628 83.5715H81.9578V81.1799H81.9628V83.5715ZM81.9578 83.5715H81.9566V81.1799H81.9578V83.5715ZM81.9566 83.5715H81.9458V81.1799H81.9566V83.5715ZM81.9458 83.5715H81.9377V81.1799H81.9458V83.5715ZM81.9377 83.5715H81.9341V81.1799H81.9377V83.5715ZM81.9341 83.5715H81.9315V81.1799H81.9341V83.5715ZM81.9315 83.5715H81.9222V81.1799H81.9315V83.5715ZM81.9222 83.5715H81.9183V81.1799H81.9222V83.5715ZM81.9183 83.5715H81.9102V81.1799H81.9183V83.5715ZM81.9102 83.5715H81.9007V81.1799H81.9102V83.5715ZM81.9007 83.5715H81.8987V81.1799H81.9007V83.5715ZM81.8987 83.5715H81.8983V81.1799H81.8987V83.5715ZM81.8983 83.5715H81.8863V81.1799H81.8983V83.5715ZM81.8863 83.5715H81.8787V81.1799H81.8863V83.5715ZM81.8787 83.5715H81.8741V81.1799H81.8787V83.5715ZM81.8741 83.5715H81.8703V81.1799H81.8741V83.5715ZM81.8703 83.5715H81.8619V81.1799H81.8703V83.5715ZM81.8619 83.5715H81.8581V81.1799H81.8619V83.5715ZM81.8581 83.5715H81.8497V81.1799H81.8581V83.5715ZM81.8497 83.5715H81.8404V81.1799H81.8497V83.5715ZM81.8404 83.5715H81.8373V81.1799H81.8404V83.5715ZM81.8373 83.5715H81.8249V81.1799H81.8373V83.5715ZM81.8249 83.5715H81.8158V81.1799H81.8249V83.5715ZM81.8158 83.5715H81.8125V81.1799H81.8158V83.5715ZM81.8125 83.5715H81.811V81.1799H81.8125V83.5715ZM81.811 83.5715H81.8V81.1799H81.811V83.5715ZM81.8 83.5715H81.7941V81.1799H81.8V83.5715ZM81.7941 83.5715H81.7876V81.1799H81.7941V83.5715ZM81.7876 83.5715H81.7821V81.1799H81.7876V83.5715ZM81.7821 83.5715H81.7752V81.1799H81.7821V83.5715ZM81.7752 83.5715H81.7718V81.1799H81.7752V83.5715ZM81.7718 83.5715H81.7625V81.1799H81.7718V83.5715ZM81.7625 83.5715H81.7537V81.1799H81.7625V83.5715ZM81.7537 83.5715H81.7498V81.1799H81.7537V83.5715ZM81.7498 83.5715H81.7491V81.1799H81.7498V83.5715ZM81.7491 83.5715H81.7372V81.1799H81.7491V83.5715ZM81.7372 83.5715H81.7259V81.1799H81.7372V83.5715ZM81.7259 83.5715H81.7245V81.1799H81.7259V83.5715ZM81.7245 83.5715H81.7118V81.1799H81.7245V83.5715ZM81.7118 83.5715H81.7023V81.1799H81.7118V83.5715ZM81.7023 83.5715H81.6992V81.1799H81.7023V83.5715ZM81.6992 83.5715H81.6982V81.1799H81.6992V83.5715ZM81.6982 83.5715H81.6865V81.1799H81.6982V83.5715ZM81.6865 83.5715H81.6736V81.1799H81.6865V83.5715ZM81.6736 83.5715H81.6712V81.1799H81.6736V83.5715ZM81.6712 83.5715H81.6609V81.1799H81.6712V83.5715ZM81.6609 83.5715H81.6483V81.1799H81.6609V83.5715ZM81.6483 83.5715H81.6447V81.1799H81.6483V83.5715ZM81.6447 83.5715H81.6353V81.1799H81.6447V83.5715ZM81.6353 83.5715H81.6224V81.1799H81.6353V83.5715ZM81.6224 83.5715H81.6186V81.1799H81.6224V83.5715ZM81.6186 83.5715H81.6098V81.1799H81.6186V83.5715ZM81.6098 83.5715H81.5969V81.1799H81.6098V83.5715ZM81.5969 83.5715H81.593V81.1799H81.5969V83.5715ZM81.593 83.5715H81.5842V81.1799H81.593V83.5715ZM81.5842 83.5715H81.5713V81.1799H81.5842V83.5715ZM81.5713 83.5715H81.568V81.1799H81.5713V83.5715ZM81.568 83.5715H81.5586V81.1799H81.568V83.5715ZM81.5586 83.5715H81.5457V81.1799H81.5586V83.5715ZM81.5457 83.5715H81.5433V81.1799H81.5457V83.5715ZM81.5433 83.5715H81.5331V81.1799H81.5433V83.5715ZM81.5331 83.5715H81.5204V81.1799H81.5331V83.5715ZM81.5204 83.5715H81.519V81.1799H81.5204V83.5715ZM81.519 83.5715H81.5075V81.1799H81.519V83.5715ZM81.5075 83.5715H81.4953V81.1799H81.5075V83.5715ZM81.4953 83.5715H81.4948V81.1799H81.4953V83.5715ZM81.4948 83.5715H81.4821V81.1799H81.4948V83.5715ZM81.4821 83.5715H81.4719V81.1799H81.4821V83.5715ZM81.4719 83.5715H81.4695V81.1799H81.4719V83.5715ZM81.4695 83.5715H81.4568V81.1799H81.4695V83.5715ZM81.4568 83.5715H81.4489V81.1799H81.4568V83.5715ZM81.4489 83.5715H81.4444V81.1799H81.4489V83.5715ZM81.4444 83.5715H81.4317V81.1799H81.4444V83.5715ZM81.4317 83.5715H81.4267V81.1799H81.4317V83.5715ZM81.4267 83.5715H81.4193V81.1799H81.4267V83.5715ZM81.4193 83.5715H81.4066V81.1799H81.4193V83.5715ZM81.4066 83.5715H81.4047V81.1799H81.4066V83.5715ZM81.4047 83.5715H81.3942V81.1799H81.4047V83.5715ZM81.3942 83.5715H81.383V81.1799H81.3942V83.5715ZM81.383 83.5715H81.382V81.1799H81.383V83.5715ZM81.382 83.5715H81.3696V81.1799H81.382V83.5715ZM81.3696 83.5715H81.3619V81.1799H81.3696V83.5715ZM81.3619 83.5715H81.3574V81.1799H81.3619V83.5715ZM81.3574 83.5715H81.345V81.1799H81.3574V83.5715ZM81.345 83.5715H81.3414V81.1799H81.345V83.5715ZM81.3414 83.5715H81.3328V81.1799H81.3414V83.5715ZM81.3328 83.5715H81.3211V81.1799H81.3328V83.5715ZM81.3211 83.5715H81.3086V81.1799H81.3211V83.5715ZM81.3086 83.5715H81.3012V81.1799H81.3086V83.5715ZM81.3012 83.5715H81.2967V81.1799H81.3012V83.5715ZM81.2967 83.5715H81.2847V81.1799H81.2967V83.5715ZM81.2847 83.5715H81.2819V81.1799H81.2847V83.5715ZM81.2819 83.5715H81.273V81.1799H81.2819V83.5715ZM81.273 83.5715H81.2627V81.1799H81.273V83.5715ZM81.2627 83.5715H81.2613V81.1799H81.2627V83.5715ZM81.2613 83.5715H81.2496V81.1799H81.2613V83.5715ZM81.2496 83.5715H81.2443V81.1799H81.2496V83.5715ZM81.2443 83.5715H81.2379V81.1799H81.2443V83.5715ZM81.2379 83.5715H81.2264V81.1799H81.2379V83.5715ZM81.2264 83.5715H81.2262V81.1799H81.2264V83.5715ZM81.2262 83.5715H81.2149V81.1799H81.2262V83.5715ZM81.2149 83.5715H81.2082V81.1799H81.2149V83.5715ZM81.2082 83.5715H81.2035V81.1799H81.2082V83.5715ZM81.2035 83.5715H81.1922V81.1799H81.2035V83.5715ZM81.1922 83.5715H81.191V81.1799H81.1922V83.5715ZM81.191 83.5715H81.181V81.1799H81.191V83.5715ZM81.181 83.5715H81.1741V81.1799H81.181V83.5715ZM81.1741 83.5715H81.17V81.1799H81.1741V83.5715ZM81.17 83.5715H81.159V81.1799H81.17V83.5715ZM81.159 83.5715H81.1576V81.1799H81.159V83.5715ZM81.1576 83.5715H81.1482V81.1799H81.1576V83.5715ZM81.1482 83.5715H81.1416V81.1799H81.1482V83.5715ZM81.1416 83.5715H81.1375V81.1799H81.1416V83.5715ZM81.1375 83.5715H81.1267V81.1799H81.1375V83.5715ZM81.1267 83.5715H81.1258V81.1799H81.1267V83.5715ZM81.1258 83.5715H81.1162V81.1799H81.1258V83.5715ZM81.1162 83.5715H81.1105V81.1799H81.1162V83.5715ZM81.1105 83.5715H81.1057V81.1799H81.1105V83.5715ZM81.1057 83.5715H81.0957V81.1799H81.1057V83.5715ZM81.0957 83.5715H81.0954V81.1799H81.0957V83.5715ZM81.0954 83.5715H81.0851V81.1799H81.0954V83.5715ZM81.0851 83.5715H81.0811V81.1799H81.0851V83.5715ZM81.0811 83.5715H81.0751V81.1799H81.0811V83.5715ZM81.0751 83.5715H81.067V81.1799H81.0751V83.5715ZM81.067 83.5715H81.0651V81.1799H81.067V83.5715ZM81.0651 83.5715H81.0553V81.1799H81.0651V83.5715ZM81.0553 83.5715H81.0531V81.1799H81.0553V83.5715ZM81.0531 83.5715H81.0457V81.1799H81.0531V83.5715ZM81.0457 83.5715H81.0397V81.1799H81.0457V83.5715ZM81.0397 83.5715H81.0362V81.1799H81.0397V83.5715ZM81.0362 83.5715H81.0268V81.1799H81.0362V83.5715ZM81.0268 83.5715H81.0266V81.1799H81.0268V83.5715ZM81.0266 83.5715H81.0173V81.1799H81.0266V83.5715ZM81.0173 83.5715H81.0142V81.1799H81.0173V83.5715ZM81.0142 83.5715H81.0082V81.1799H81.0142V83.5715ZM81.0082 83.5715H81.002V81.1799H81.0082V83.5715ZM81.002 83.5715H80.9991V81.1799H81.002V83.5715ZM80.9991 83.5715H80.9903V81.1799H80.9991V83.5715ZM80.9903 83.5715H80.9817V81.1799H80.9903V83.5715ZM80.9817 83.5715H80.9786V81.1799H80.9817V83.5715ZM80.9786 83.5715H80.9731V81.1799H80.9786V83.5715ZM80.9731 83.5715H80.9676V81.1799H80.9731V83.5715ZM80.9676 83.5715H80.9647V81.1799H80.9676V83.5715ZM80.9647 83.5715H80.9568V81.1799H80.9647V83.5715ZM80.9568 83.5715H80.9563V81.1799H80.9568V83.5715ZM80.9563 83.5715H80.9482V81.1799H80.9563V83.5715ZM80.9482 83.5715H80.9463V81.1799H80.9482V83.5715ZM80.9463 83.5715H80.9403V81.1799H80.9463V83.5715ZM80.9403 83.5715H80.9363V81.1799H80.9403V83.5715ZM80.9363 83.5715H80.9327V81.1799H80.9363V83.5715ZM80.9327 83.5715H80.9264V81.1799H80.9327V83.5715ZM80.9264 83.5715H80.925V81.1799H80.9264V83.5715ZM80.925 83.5715H80.9176V81.1799H80.925V83.5715ZM80.9176 83.5715H80.9171V81.1799H80.9176V83.5715ZM80.9171 83.5715H80.9102V81.1799H80.9171V83.5715ZM80.9102 83.5715H80.9083V81.1799H80.9102V83.5715ZM80.9083 83.5715H80.9033V81.1799H80.9083V83.5715ZM80.9033 83.5715H80.8997V81.1799H80.9033V83.5715ZM80.8997 83.5715H80.8963V81.1799H80.8997V83.5715ZM80.8963 83.5715H80.8913V81.1799H80.8963V83.5715ZM80.8913 83.5715H80.8896V81.1799H80.8913V83.5715ZM80.8896 83.5715H80.8834V81.1799H80.8896V83.5715ZM80.8834 83.5715H80.8832V81.1799H80.8834V83.5715ZM80.8832 83.5715H80.8767V81.1799H80.8832V83.5715ZM80.8767 83.5715H80.8758V81.1799H80.8767V83.5715ZM80.8758 83.5715H80.8705V81.1799H80.8758V83.5715ZM80.8705 83.5715H80.8684V81.1799H80.8705V83.5715ZM80.8684 83.5715H80.8648V81.1799H80.8684V83.5715ZM80.8648 83.5715H80.8614V81.1799H80.8648V83.5715ZM80.8614 83.5715H80.8588V81.1799H80.8614V83.5715ZM80.8588 83.5715H80.8547V81.1799H80.8588V83.5715ZM80.8547 83.5715H80.8533V81.1799H80.8547V83.5715ZM80.8533 83.5715H80.8485V81.1799H80.8533V83.5715ZM80.8485 83.5715H80.8481V81.1799H80.8485V83.5715ZM80.8481 83.5715H80.8428V81.1799H80.8481V83.5715ZM80.8428 83.5715H80.8426V81.1799H80.8428V83.5715ZM80.8426 83.5715H80.838V81.1799H80.8426V83.5715ZM80.838 83.5715H80.8368V81.1799H80.838V83.5715ZM80.8368 83.5715H80.8332V81.1799H80.8368V83.5715ZM80.8332 83.5715H80.8316V81.1799H80.8332V83.5715ZM80.8316 83.5715H80.8287V81.1799H80.8316V83.5715ZM80.8287 83.5715H80.8265V81.1799H80.8287V83.5715ZM80.8265 83.5715H80.8244V81.1799H80.8265V83.5715ZM80.8244 83.5715H80.822V81.1799H80.8244V83.5715ZM80.822 83.5715H80.8203V81.1799H80.822V83.5715ZM80.8203 83.5715H80.8175V81.1799H80.8203V83.5715ZM80.8175 83.5715H80.8165V81.1799H80.8175V83.5715ZM80.8165 83.5715H80.8134V81.1799H80.8165V83.5715ZM80.8134 83.5715H80.8129V81.1799H80.8134V83.5715ZM80.8129 83.5715H80.8096V81.1799H80.8129V83.5715ZM80.8096 83.5715H80.8093V81.1799H80.8096V83.5715ZM80.8093 83.5715H80.8062V81.1799H80.8093V83.5715ZM80.8062 83.5715H80.8034V81.1799H80.8062V83.5715ZM80.8034 83.5715H80.8029V81.1799H80.8034V83.5715ZM80.8029 83.5715H80.8005V81.1799H80.8029V83.5715ZM80.8005 83.5715H80.8V81.1799H80.8005V83.5715ZM80.8 83.5715H80.7981V81.1799H80.8V83.5715ZM80.7981 83.5715H80.7976V81.1799H80.7981V83.5715ZM80.7976 83.5715H80.796V81.1799H80.7976V83.5715ZM80.796 83.5715H80.7952V81.1799H80.796V83.5715ZM80.7952 83.5715H80.7938V81.1799H80.7952V83.5715ZM80.7938 83.5715H80.7933V81.1799H80.7938V83.5715ZM80.7933 83.5715H80.7921V81.1799H80.7933V83.5715ZM80.7921 83.5715H80.7914V81.1799H80.7921V83.5715ZM80.7914 83.5715H80.7907V81.1799H80.7914V83.5715ZM80.7907 83.5715H80.79V81.1799H80.7907V83.5715ZM80.79 83.5715H80.7895V81.1799H80.79V83.5715ZM80.7895 83.5715H80.789V81.1799H80.7895V83.5715ZM80.789 83.5715H80.7885V81.1799H80.789V83.5715ZM80.7885 83.5715H80.7881V81.1799H80.7885V83.5715ZM80.7881 83.5715H80.7876V81.1799H80.7881V83.5715ZM80.7876 83.5715H80.7871L80.7873 81.1799H80.7876V83.5715ZM79.5921 82.3757C79.5921 82.2927 79.5921 82.2095 79.5921 82.1365H81.9822C81.9822 82.2095 81.9822 82.2927 81.9822 82.3757H79.5921ZM79.5921 82.1365C79.5921 82.0636 79.5921 81.9804 79.5921 81.8974H81.9822C81.9822 81.9804 81.9822 82.0636 81.9822 82.1365H79.5921ZM80.7871 80.7015H80.7876V83.0932H80.7871V80.7015ZM80.7876 80.7015H80.7881V83.0932H80.7876V80.7015ZM80.7881 80.7015H80.7885V83.0932H80.7881V80.7015ZM80.7885 80.7015H80.789V83.0932H80.7885V80.7015ZM80.789 80.7015H80.7895V83.0932H80.789V80.7015ZM80.7895 80.7015H80.79V83.0932H80.7895V80.7015ZM80.79 80.7015H80.7907V83.0932H80.79V80.7015ZM80.7907 80.7015H80.7914V83.0932H80.7907V80.7015ZM80.7914 80.7015H80.7921V83.0932H80.7914V80.7015ZM80.7921 80.7015H80.7933V83.0932H80.7921V80.7015ZM80.7933 80.7015H80.7938V83.0932H80.7933V80.7015ZM80.7938 80.7015H80.7952V83.0932H80.7938V80.7015ZM80.7952 80.7015H80.796V83.0932H80.7952V80.7015ZM80.796 80.7015H80.7976V83.0932H80.796V80.7015ZM80.7976 80.7015H80.7981V83.0932H80.7976V80.7015ZM80.7981 80.7015H80.8V83.0932H80.7981V80.7015ZM80.8 80.7015H80.8005V83.0932H80.8V80.7015ZM80.8005 80.7015H80.8029V83.0932H80.8005V80.7015ZM80.8029 80.7015H80.8034V83.0932H80.8029V80.7015ZM80.8034 80.7015H80.8062V83.0932H80.8034V80.7015ZM80.8062 80.7015H80.8093V83.0932H80.8062V80.7015ZM80.8093 80.7015H80.8096V83.0932H80.8093V80.7015ZM80.8096 80.7015H80.8129V83.0932H80.8096V80.7015ZM80.8129 80.7015H80.8134V83.0932H80.8129V80.7015ZM80.8134 80.7015H80.8165V83.0932H80.8134V80.7015ZM80.8165 80.7015H80.8175V83.0932H80.8165V80.7015ZM80.8175 80.7015H80.8203V83.0932H80.8175V80.7015ZM80.8203 80.7015H80.822V83.0932H80.8203V80.7015ZM80.822 80.7015H80.8244V83.0932H80.822V80.7015ZM80.8244 80.7015H80.8265V83.0932H80.8244V80.7015ZM80.8265 80.7015H80.8287V83.0932H80.8265V80.7015ZM80.8287 80.7015H80.8316V83.0932H80.8287V80.7015ZM80.8316 80.7015H80.8332V83.0932H80.8316V80.7015ZM80.8332 80.7015H80.8368V83.0932H80.8332V80.7015ZM80.8368 80.7015H80.838V83.0932H80.8368V80.7015ZM80.838 80.7015H80.8426V83.0932H80.838V80.7015ZM80.8426 80.7015H80.8428V83.0932H80.8426V80.7015ZM80.8428 80.7015H80.8481V83.0932H80.8428V80.7015ZM80.8481 80.7015H80.8485V83.0932H80.8481V80.7015ZM80.8485 80.7015H80.8533V83.0932H80.8485V80.7015ZM80.8533 80.7015H80.8547V83.0932H80.8533V80.7015ZM80.8547 80.7015H80.8588V83.0932H80.8547V80.7015ZM80.8588 80.7015H80.8614V83.0932H80.8588V80.7015ZM80.8614 80.7015H80.8648V83.0932H80.8614V80.7015ZM80.8648 80.7015H80.8684V83.0932H80.8648V80.7015ZM80.8684 80.7015H80.8705V83.0932H80.8684V80.7015ZM80.8705 80.7015H80.8758V83.0932H80.8705V80.7015ZM80.8758 80.7015H80.8767V83.0932H80.8758V80.7015ZM80.8767 80.7015H80.8832V83.0932H80.8767V80.7015ZM80.8832 80.7015H80.8834V83.0932H80.8832V80.7015ZM80.8834 80.7015H80.8896V83.0932H80.8834V80.7015ZM80.8896 80.7015H80.8913V83.0932H80.8896V80.7015ZM80.8913 80.7015H80.8963V83.0932H80.8913V80.7015ZM80.8963 80.7015H80.8997V83.0932H80.8963V80.7015ZM80.8997 80.7015H80.9033V83.0932H80.8997V80.7015ZM80.9033 80.7015H80.9083V83.0932H80.9033V80.7015ZM80.9083 80.7015H80.9102V83.0932H80.9083V80.7015ZM80.9102 80.7015H80.9171V83.0932H80.9102V80.7015ZM80.9171 80.7015H80.9176V83.0932H80.9171V80.7015ZM80.9176 80.7015H80.925V83.0932H80.9176V80.7015ZM80.925 80.7015H80.9264V83.0932H80.925V80.7015ZM80.9264 80.7015H80.9327V83.0932H80.9264V80.7015ZM80.9327 80.7015H80.9363V83.0932H80.9327V80.7015ZM80.9363 80.7015H80.9403V83.0932H80.9363V80.7015ZM80.9403 80.7015H80.9463V83.0932H80.9403V80.7015ZM80.9463 80.7015H80.9482V83.0932H80.9463V80.7015ZM80.9482 80.7015H80.9563V83.0932H80.9482V80.7015ZM80.9563 80.7015H80.9568V83.0932H80.9563V80.7015ZM80.9568 80.7015H80.9647V83.0932H80.9568V80.7015ZM80.9647 80.7015H80.9676V83.0932H80.9647V80.7015ZM80.9676 80.7015H80.9731V83.0932H80.9676V80.7015ZM80.9731 80.7015H80.9786V83.0932H80.9731V80.7015ZM80.9786 80.7015H80.9817V83.0932H80.9786V80.7015ZM80.9817 80.7015H80.99V83.0932H80.9817V80.7015ZM80.99 80.7015H80.9991V83.0932H80.99V80.7015ZM80.9991 80.7015H81.002V83.0932H80.9991V80.7015ZM81.002 80.7015H81.0082V83.0932H81.002V80.7015ZM81.0082 80.7015H81.0142V83.0932H81.0082V80.7015ZM81.0142 80.7015H81.0173V83.0932H81.0142V80.7015ZM81.0173 80.7015H81.0266V83.0932H81.0173V80.7015ZM81.0266 80.7015H81.0268V83.0932H81.0266V80.7015ZM81.0268 80.7015H81.0362V83.0932H81.0268V80.7015ZM81.0362 80.7015H81.0397V83.0932H81.0362V80.7015ZM81.0397 80.7015H81.0457V83.0932H81.0397V80.7015ZM81.0457 80.7015H81.0531V83.0932H81.0457V80.7015ZM81.0531 80.7015H81.0553V83.0932H81.0531V80.7015ZM81.0553 80.7015H81.0651V83.0932H81.0553V80.7015ZM81.0651 80.7015H81.067V83.0932H81.0651V80.7015ZM81.067 80.7015H81.0751V83.0932H81.067V80.7015ZM81.0751 80.7015H81.0811V83.0932H81.0751V80.7015ZM81.0811 80.7015H81.0851V83.0932H81.0811V80.7015ZM81.0851 80.7015H81.0954V83.0932H81.0851V80.7015ZM81.0954 80.7015H81.0957V83.0932H81.0954V80.7015ZM81.0957 80.7015H81.1057V83.0932H81.0957V80.7015ZM81.1057 80.7015H81.1105V83.0932H81.1057V80.7015ZM81.1105 80.7015H81.1162V83.0932H81.1105V80.7015ZM81.1162 80.7015H81.1258V83.0932H81.1162V80.7015ZM81.1258 80.7015H81.1267V83.0932H81.1258V80.7015ZM81.1267 80.7015H81.1375V83.0932H81.1267V80.7015ZM81.1375 80.7015H81.1416V83.0932H81.1375V80.7015ZM81.1416 80.7015H81.1482V83.0932H81.1416V80.7015ZM81.1482 80.7015H81.1576V83.0932H81.1482V80.7015ZM81.1576 80.7015H81.159V83.0932H81.1576V80.7015ZM81.159 80.7015H81.17V83.0932H81.159V80.7015ZM81.17 80.7015H81.1741V83.0932H81.17V80.7015ZM81.1741 80.7015H81.181V83.0932H81.1741V80.7015ZM81.181 80.7015H81.191V83.0932H81.181V80.7015ZM81.191 80.7015H81.1922V83.0932H81.191V80.7015ZM81.1922 80.7015H81.2035V83.0932H81.1922V80.7015ZM81.2035 80.7015H81.2082V83.0932H81.2035V80.7015ZM81.2082 80.7015H81.2149V83.0932H81.2082V80.7015ZM81.2149 80.7015H81.2262V83.0932H81.2149V80.7015ZM81.2262 80.7015H81.2264V83.0932H81.2262V80.7015ZM81.2264 80.7015H81.2379V83.0932H81.2264V80.7015ZM81.2379 80.7015H81.2443V83.0932H81.2379V80.7015ZM81.2443 80.7015H81.2496V83.0932H81.2443V80.7015ZM81.2496 80.7015H81.2613V83.0932H81.2496V80.7015ZM81.2613 80.7015H81.2627V83.0932H81.2613V80.7015ZM81.2627 80.7015H81.273V83.0932H81.2627V80.7015ZM81.273 80.7015H81.2819V83.0932H81.273V80.7015ZM81.2819 80.7015H81.2847V83.0932H81.2819V80.7015ZM81.2847 80.7015H81.2967V83.0932H81.2847V80.7015ZM81.2967 80.7015H81.3012V83.0932H81.2967V80.7015ZM81.3012 80.7015H81.3086V83.0932H81.3012V80.7015ZM81.3086 80.7015H81.3208V83.0932H81.3086V80.7015ZM81.3208 80.7015H81.3328V83.0932H81.3208V80.7015ZM81.3328 80.7015H81.3414V83.0932H81.3328V80.7015ZM81.3414 80.7015H81.345V83.0932H81.3414V80.7015ZM81.345 80.7015H81.3574V83.0932H81.345V80.7015ZM81.3574 80.7015H81.3619V83.0932H81.3574V80.7015ZM81.3619 80.7015H81.3696V83.0932H81.3619V80.7015ZM81.3696 80.7015H81.3782V83.0932H81.3696V80.7015ZM80.2371 82.2528C77.9747 74.9801 74.6078 66.9068 70.5743 61.0443L72.543 59.688C76.767 65.8277 80.2207 74.1541 82.5192 81.542L80.2371 82.2528ZM70.5743 61.0443C68.5264 58.0678 66.3672 55.751 64.1736 54.3705L65.4459 52.346C68.025 53.9687 70.4029 56.5776 72.543 59.688L70.5743 61.0443ZM64.1736 54.3705C62.0154 53.0126 59.886 52.5914 57.7314 53.2505L57.0325 50.9636C59.9974 50.0562 62.843 50.7082 65.4459 52.346L64.1736 54.3705ZM57.7314 53.2505C55.2598 54.007 52.4524 56.2772 49.4609 61.0056L47.4416 59.726C50.5692 54.7824 53.7734 51.9607 57.0325 50.9636L57.7314 53.2505ZM49.4609 61.0056C46.4827 65.7129 43.4267 72.6932 40.3898 82.5589L38.1056 81.855C41.1738 71.887 44.3048 64.684 47.4416 59.726L49.4609 61.0056ZM40.3898 82.5589C39.407 85.752 38.5079 88.755 37.6924 91.5791L35.3962 90.915C36.2163 88.0753 37.1195 85.0587 38.1056 81.855L40.3898 82.5589ZM37.6924 91.5791C36.304 96.3862 35.0248 100.68 33.8828 104.513L31.5924 103.829C32.7344 99.9962 34.0109 95.7112 35.3962 90.915L37.6924 91.5791ZM33.8828 104.513C32.2686 109.931 30.9332 114.414 29.9449 118.143L27.6347 117.529C28.6344 113.757 29.9817 109.235 31.5924 103.829L33.8828 104.513ZM29.9449 118.143C29.1005 121.328 28.5235 123.913 28.2429 126.02L25.8739 125.704C26.1746 123.446 26.7821 120.746 27.6347 117.529L29.9449 118.143ZM28.2429 126.02C27.9609 128.14 27.9948 129.667 28.2876 130.785L25.9757 131.392C25.5687 129.837 25.5744 127.953 25.8739 125.704L28.2429 126.02ZM28.2876 130.785C28.5654 131.845 29.0799 132.562 29.8892 133.108L28.5529 135.091C27.2381 134.203 26.393 132.985 25.9757 131.392L28.2876 130.785ZM29.8892 133.108C30.7513 133.689 32.0267 134.129 33.8991 134.427L33.5246 136.789C31.504 136.468 29.8328 135.954 28.5529 135.091L29.8892 133.108ZM33.8991 134.427C37.3291 134.971 42.2426 134.971 49.1261 134.966L49.128 137.358C42.3359 137.363 37.1886 137.37 33.5246 136.789L33.8991 134.427ZM49.1261 134.966C49.7728 134.965 50.4361 134.965 51.1161 134.965L51.1163 137.356C50.4373 137.356 49.7748 137.357 49.128 137.358L49.1261 134.966ZM50.2738 135.312C51.4806 134.113 52.7954 132.629 53.911 131.084L55.848 132.485C54.6431 134.153 53.2397 135.735 51.9586 137.009L50.2738 135.312ZM53.911 131.084C55.0607 129.493 55.9352 127.924 56.3136 126.588L58.6131 127.24C58.1243 128.966 57.0664 130.799 55.848 132.485L53.911 131.084ZM56.3136 126.588C56.6922 125.251 56.5036 124.458 56.0342 123.964L57.7672 122.317C59.0684 123.687 59.1016 125.514 58.6131 127.24L56.3136 126.588ZM56.0342 123.964C55.6766 123.587 54.9804 123.178 53.661 122.947L54.0736 120.591C55.6883 120.875 56.9343 121.439 57.7672 122.317L56.0342 123.964Z" fill="white"/>
</g>
<defs>
<clipPath id="clip0_24_27">
<rect width="299" height="138" fill="white" transform="translate(1)"/>
</clipPath>
</defs>
</svg>
