<svg width="300" height="138" viewBox="0 0 300 138" fill="none" xmlns="http://www.w3.org/2000/svg">
<g clip-path="url(#clip0_24_26)">
<path d="M38.8055 93.4528C38.8055 99.0905 37.884 103.743 36.041 107.411C34.2662 111.079 31.8089 114 28.6689 116.174C25.5973 118.415 21.7065 120.385 16.9966 122.083L11.57 110.366C14.2321 109.143 16.314 107.955 17.8157 106.8C19.3174 105.645 20.4778 104.083 21.2969 102.113C22.1843 100.211 22.628 97.6641 22.628 94.4716V45.4641H38.8055V93.4528ZM30.7167 16.9358C33.5153 16.9358 35.8021 17.8188 37.5768 19.5848C39.4198 21.283 40.3413 23.4565 40.3413 26.1056C40.3413 28.7547 39.4198 30.9622 37.5768 32.7282C35.8021 34.4264 33.5153 35.2754 30.7167 35.2754C27.9181 35.2754 25.6314 34.4264 23.8566 32.7282C22.0819 30.9622 21.1945 28.7547 21.1945 26.1056C21.1945 23.4565 22.0819 21.283 23.8566 19.5848C25.6314 17.8188 27.9181 16.9358 30.7167 16.9358ZM88.1826 99.566H74.1553L73.4386 92.7396C69.4795 98.4452 63.9847 101.298 56.9539 101.298C51.9709 101.298 48.1826 99.8037 45.5887 96.815C43.0631 93.8264 41.8003 89.649 41.8003 84.283V45.4641H57.9778V82.2452C57.9778 84.8943 58.3874 86.7622 59.2065 87.849C60.0939 88.8679 61.4249 89.3773 63.1997 89.3773C66.6126 89.3773 69.5478 87.2716 72.0051 83.0603V45.4641H88.1826V99.566ZM110.838 43.732C114.729 43.732 118.38 44.3094 121.794 45.4641C125.206 46.6188 128.21 48.249 130.804 50.3547L124.866 59.4226C120.428 56.6377 115.958 55.2452 111.453 55.2452C109.336 55.2452 107.698 55.6188 106.538 56.366C105.445 57.0453 104.9 58.0301 104.9 59.3207C104.9 60.3396 105.138 61.1886 105.616 61.8679C106.162 62.4792 107.22 63.1244 108.79 63.8037C110.36 64.483 112.784 65.2981 116.06 66.249C121.725 67.8792 125.923 70.0188 128.654 72.6679C131.452 75.249 132.852 78.849 132.852 83.4679C132.852 87.1358 131.793 90.3282 129.678 93.0452C127.561 95.6943 124.661 97.732 120.975 99.1584C117.289 100.585 113.193 101.298 108.688 101.298C104.114 101.298 99.848 100.585 95.889 99.1584C91.9982 97.732 88.6876 95.7622 85.9573 93.249L93.8412 84.4867C98.4145 88.0188 103.227 89.7849 108.278 89.7849C110.736 89.7849 112.646 89.3434 114.012 88.4603C115.446 87.5773 116.162 86.3207 116.162 84.6905C116.162 83.3999 115.889 82.381 115.343 81.6339C114.797 80.8868 113.739 80.2075 112.169 79.5962C110.599 78.9169 108.107 78.1018 104.695 77.1509C99.3019 75.5887 95.2747 73.415 92.6125 70.6301C89.9504 67.8453 88.6194 64.3811 88.6194 60.2377C88.6194 57.1131 89.5067 54.3282 91.2815 51.883C93.1245 49.3697 95.7183 47.3999 99.0631 45.9735C102.476 44.4792 106.401 43.732 110.838 43.732ZM166.066 97.0188C164.087 98.3773 161.766 99.4302 159.103 100.177C156.51 100.924 153.916 101.298 151.322 101.298C139.445 101.23 133.506 94.7093 133.506 81.7358V56.6716H125.827V45.4641H133.506V33.7471L149.684 31.9132V45.4641H162.175L160.434 56.6716H149.684V81.532C149.684 84.0453 150.093 85.8452 150.912 86.932C151.731 88.0188 153.029 88.5622 154.803 88.5622C156.646 88.5622 158.591 87.9848 160.639 86.8301L166.066 97.0188ZM179.351 28.9584V86.3207H206.996L205.255 99.566H162.559V28.9584H179.351ZM221.708 45.4641V99.566H205.531V45.4641H221.708ZM213.517 16.9358C216.315 16.9358 218.603 17.8188 220.377 19.5848C222.22 21.283 223.142 23.4565 223.142 26.1056C223.142 28.7547 222.22 30.9622 220.377 32.7282C218.603 34.4264 216.315 35.2754 213.517 35.2754C210.719 35.2754 208.431 34.4264 206.657 32.7282C204.883 30.9622 203.995 28.7547 203.995 26.1056C203.995 23.4565 204.883 21.283 206.657 19.5848C208.431 17.8188 210.719 16.9358 213.517 16.9358ZM244.36 43.732C248.25 43.732 251.902 44.3094 255.315 45.4641C258.728 46.6188 261.731 48.249 264.326 50.3547L258.387 59.4226C253.949 56.6377 249.479 55.2452 244.974 55.2452C242.858 55.2452 241.219 55.6188 240.059 56.366C238.967 57.0453 238.421 58.0301 238.421 59.3207C238.421 60.3396 238.66 61.1886 239.138 61.8679C239.684 62.4792 240.741 63.1244 242.312 63.8037C243.882 64.483 246.305 65.2981 249.582 66.249C255.247 67.8792 259.445 70.0188 262.175 72.6679C264.974 75.249 266.373 78.849 266.373 83.4679C266.373 87.1358 265.315 90.3282 263.199 93.0452C261.083 95.6943 258.182 97.732 254.496 99.1584C250.81 100.585 246.715 101.298 242.21 101.298C237.636 101.298 233.369 100.585 229.411 99.1584C225.52 97.732 222.209 95.7622 219.479 93.249L227.363 84.4867C231.936 88.0188 236.748 89.7849 241.8 89.7849C244.257 89.7849 246.168 89.3434 247.534 88.4603C248.967 87.5773 249.684 86.3207 249.684 84.6905C249.684 83.3999 249.411 82.381 248.865 81.6339C248.318 80.8868 247.26 80.2075 245.691 79.5962C244.12 78.9169 241.629 78.1018 238.216 77.1509C232.824 75.5887 228.797 73.415 226.134 70.6301C223.472 67.8453 222.141 64.3811 222.141 60.2377C222.141 57.1131 223.028 54.3282 224.803 51.883C226.646 49.3697 229.24 47.3999 232.585 45.9735C235.998 44.4792 239.922 43.732 244.36 43.732ZM299.588 97.0188C297.608 98.3773 295.288 99.4302 292.626 100.177C290.031 100.924 287.438 101.298 284.844 101.298C272.967 101.23 267.029 94.7093 267.029 81.7358V56.6716H259.349V45.4641H267.029V33.7471L283.206 31.9132V45.4641H295.698L293.957 56.6716H283.206V81.532C283.206 84.0453 283.616 85.8452 284.435 86.932C285.254 88.0188 286.55 88.5622 288.326 88.5622C290.169 88.5622 292.114 87.9848 294.162 86.8301L299.588 97.0188Z" fill="#45FFCE"/>
<path d="M32.2526 15H11.7747C5.27173 15 0 20.2459 0 26.717C0 33.1881 5.27173 38.434 11.7747 38.434H32.2526C38.7556 38.434 44.0273 33.1881 44.0273 26.717C44.0273 20.2459 38.7556 15 32.2526 15Z" fill="#45FFCE"/>
<path d="M30.7167 35.3773C35.806 35.3773 39.9317 31.2719 39.9317 26.2075C39.9317 21.1432 35.806 17.0377 30.7167 17.0377C25.6274 17.0377 21.5017 21.1432 21.5017 26.2075C21.5017 31.2719 25.6274 35.3773 30.7167 35.3773Z" fill="white"/>
</g>
<defs>
<clipPath id="clip0_24_26">
<rect width="300" height="108" fill="white" transform="translate(0 15)"/>
</clipPath>
</defs>
</svg>
