<svg width="293" height="106" viewBox="0 0 293 106" fill="none" xmlns="http://www.w3.org/2000/svg">
<path d="M37.9 77C37.9 82.5333 37 87.1 35.2 90.7C33.4667 94.3 31.0667 97.1667 28 99.3C25 101.5 21.2 103.433 16.6 105.1L11.3 93.6C13.9 92.4 15.9333 91.2333 17.4 90.1C18.8667 88.9667 20 87.4333 20.8 85.5C21.6667 83.6333 22.1 81.1333 22.1 78V29.9H37.9V77ZM30 1.9C32.7333 1.9 34.9667 2.76666 36.7 4.5C38.5 6.16666 39.4 8.3 39.4 10.9C39.4 13.5 38.5 15.6667 36.7 17.4C34.9667 19.0667 32.7333 19.9 30 19.9C27.2667 19.9 25.0333 19.0667 23.3 17.4C21.5667 15.6667 20.7 13.5 20.7 10.9C20.7 8.3 21.5667 6.16666 23.3 4.5C25.0333 2.76666 27.2667 1.9 30 1.9ZM86.125 83H72.425L71.725 76.3C67.8583 81.9 62.4917 84.7 55.625 84.7C50.7583 84.7 47.0583 83.2333 44.525 80.3C42.0583 77.3667 40.825 73.2667 40.825 68V29.9H56.625V66C56.625 68.6 57.025 70.4333 57.825 71.5C58.6917 72.5 59.9917 73 61.725 73C65.0583 73 67.925 70.9333 70.325 66.8V29.9H86.125V83ZM108.252 28.2C112.052 28.2 115.618 28.7667 118.952 29.9C122.285 31.0333 125.218 32.6333 127.752 34.7L121.952 43.6C117.618 40.8667 113.252 39.5 108.852 39.5C106.785 39.5 105.185 39.8667 104.052 40.6C102.985 41.2667 102.452 42.2333 102.452 43.5C102.452 44.5 102.685 45.3333 103.152 46C103.685 46.6 104.718 47.2333 106.252 47.9C107.785 48.5667 110.152 49.3667 113.352 50.3C118.885 51.9 122.985 54 125.652 56.6C128.385 59.1333 129.752 62.6667 129.752 67.2C129.752 70.8 128.718 73.9333 126.652 76.6C124.585 79.2 121.752 81.2 118.152 82.6C114.552 84 110.552 84.7 106.152 84.7C101.685 84.7 97.5182 84 93.6516 82.6C89.8516 81.2 86.6182 79.2667 83.9516 76.8L91.6516 68.2C96.1182 71.6667 100.818 73.4 105.752 73.4C108.152 73.4 110.018 72.9667 111.352 72.1C112.752 71.2333 113.452 70 113.452 68.4C113.452 67.1333 113.185 66.1333 112.652 65.4C112.118 64.6667 111.085 64 109.552 63.4C108.018 62.7333 105.585 61.9333 102.252 61C96.9849 59.4667 93.0516 57.3333 90.4516 54.6C87.8516 51.8667 86.5516 48.4667 86.5516 44.4C86.5516 41.3333 87.4182 38.6 89.1516 36.2C90.9516 33.7333 93.4849 31.8 96.7516 30.4C100.085 28.9333 103.918 28.2 108.252 28.2ZM162.191 80.5C160.258 81.8333 157.991 82.8667 155.391 83.6C152.858 84.3333 150.325 84.7 147.791 84.7C136.191 84.6333 130.391 78.2333 130.391 65.5V40.9H122.891V29.9H130.391V18.4L146.191 16.6V29.9H158.391L156.691 40.9H146.191V65.3C146.191 67.7667 146.591 69.5333 147.391 70.6C148.191 71.6667 149.458 72.2 151.191 72.2C152.991 72.2 154.891 71.6333 156.891 70.5L162.191 80.5ZM175.166 13.7V70H202.166L200.466 83H158.766V13.7H175.166ZM216.535 29.9V83H200.735V29.9H216.535ZM208.535 1.9C211.268 1.9 213.502 2.76666 215.235 4.5C217.035 6.16666 217.935 8.3 217.935 10.9C217.935 13.5 217.035 15.6667 215.235 17.4C213.502 19.0667 211.268 19.9 208.535 19.9C205.802 19.9 203.568 19.0667 201.835 17.4C200.102 15.6667 199.235 13.5 199.235 10.9C199.235 8.3 200.102 6.16666 201.835 4.5C203.568 2.76666 205.802 1.9 208.535 1.9ZM238.658 28.2C242.458 28.2 246.024 28.7667 249.358 29.9C252.691 31.0333 255.624 32.6333 258.158 34.7L252.358 43.6C248.024 40.8667 243.658 39.5 239.258 39.5C237.191 39.5 235.591 39.8667 234.458 40.6C233.391 41.2667 232.858 42.2333 232.858 43.5C232.858 44.5 233.091 45.3333 233.558 46C234.091 46.6 235.124 47.2333 236.658 47.9C238.191 48.5667 240.558 49.3667 243.758 50.3C249.291 51.9 253.391 54 256.058 56.6C258.791 59.1333 260.158 62.6667 260.158 67.2C260.158 70.8 259.124 73.9333 257.058 76.6C254.991 79.2 252.158 81.2 248.558 82.6C244.958 84 240.958 84.7 236.558 84.7C232.091 84.7 227.924 84 224.058 82.6C220.258 81.2 217.024 79.2667 214.358 76.8L222.058 68.2C226.524 71.6667 231.224 73.4 236.158 73.4C238.558 73.4 240.424 72.9667 241.758 72.1C243.158 71.2333 243.858 70 243.858 68.4C243.858 67.1333 243.591 66.1333 243.058 65.4C242.524 64.6667 241.491 64 239.958 63.4C238.424 62.7333 235.991 61.9333 232.658 61C227.391 59.4667 223.458 57.3333 220.858 54.6C218.258 51.8667 216.958 48.4667 216.958 44.4C216.958 41.3333 217.824 38.6 219.558 36.2C221.358 33.7333 223.891 31.8 227.158 30.4C230.491 28.9333 234.324 28.2 238.658 28.2ZM292.598 80.5C290.664 81.8333 288.398 82.8667 285.798 83.6C283.264 84.3333 280.731 84.7 278.198 84.7C266.598 84.6333 260.798 78.2333 260.798 65.5V40.9H253.298V29.9H260.798V18.4L276.598 16.6V29.9H288.798L287.098 40.9H276.598V65.3C276.598 67.7667 276.998 69.5333 277.798 70.6C278.598 71.6667 279.864 72.2 281.598 72.2C283.398 72.2 285.298 71.6333 287.298 70.5L292.598 80.5Z" fill="#45FFCE"/>
<rect width="43" height="23" rx="11.5" fill="#45FFCE"/>
<circle cx="30" cy="11" r="9" fill="white"/>
</svg>
