<svg width="262" height="121" viewBox="0 0 262 121" fill="none" xmlns="http://www.w3.org/2000/svg">
<g clip-path="url(#clip0_12_1125)">
<path d="M95.8937 12.6662C94.609 9.42276 92.7941 6.93427 90.4484 5.2007C88.1028 3.41122 84.4446 2.51647 79.4742 2.51647C76.7375 2.51647 74.3919 2.87995 72.4373 3.60694C70.4824 4.27799 68.7232 5.45234 67.1596 7.12999C65.5957 8.80763 64.4229 11.2402 63.6411 14.4277C62.8591 17.5593 62.4683 21.4459 62.4683 26.0874V34.3078C62.4683 38.9492 62.8591 42.8638 63.6411 46.0513C64.4229 49.1828 65.5957 51.5875 67.1596 53.2652C68.7232 54.9428 70.4824 56.1451 72.4373 56.8721C74.3919 57.5432 76.7375 57.8787 79.4742 57.8787C84.5006 57.8787 88.4936 56.8161 91.4537 54.6912C94.4136 52.5102 95.8937 50.1894 95.8937 47.7289V33.5529H85.5896V31.0364H98.9095V46.8901C98.9095 50.6369 97.206 53.8245 93.7994 56.4527C90.4484 59.0809 85.6734 60.3952 79.4742 60.3952C72.6048 60.3952 67.6341 58.2981 64.5626 54.104C61.4908 49.8539 59.9551 43.2553 59.9551 34.3078V26.0874C59.9551 17.1399 61.4908 10.5692 64.5626 6.37505C67.6341 2.12501 72.6048 0 79.4742 0C85.0032 0 89.1359 1.03455 91.8726 3.10364C94.609 5.11681 96.7314 7.99676 98.2393 11.7435L95.8937 12.6662ZM124.061 13.505C122.162 12.8899 119.817 12.5823 117.024 12.5823C114.232 12.5823 111.886 12.8899 109.987 13.505C108.088 14.0643 106.329 15.1547 104.709 16.7764C103.146 18.3422 101.973 20.663 101.191 23.7387C100.409 26.7584 100.018 30.5891 100.018 35.2305C100.018 39.8719 100.409 43.7305 101.191 46.8062C101.973 49.826 103.146 52.1468 104.709 53.7685C106.329 55.3343 108.088 56.4248 109.987 57.0399C111.886 57.5992 114.232 57.8787 117.024 57.8787C119.817 57.8787 122.162 57.5992 124.061 57.0399C125.96 56.4248 127.691 55.3343 129.255 53.7685C130.875 52.1468 132.075 49.826 132.857 46.8062C133.639 43.7305 134.03 39.8719 134.03 35.2305C134.03 30.5891 133.639 26.7584 132.857 23.7387C132.075 20.663 130.875 18.3422 129.255 16.7764C127.691 15.1547 125.96 14.0643 124.061 13.505ZM132.019 54.4395C129.003 58.4099 124.005 60.3952 117.024 60.3952C110.043 60.3952 105.044 58.4099 102.029 54.4395C99.0128 50.4692 97.5049 44.066 97.5049 35.2305C97.5049 26.395 99.0128 19.9919 102.029 16.0215C105.044 12.0511 110.043 10.0659 117.024 10.0659C124.005 10.0659 129.003 12.0511 132.019 16.0215C135.035 19.9919 136.543 26.395 136.543 35.2305C136.543 44.066 135.035 50.4692 132.019 54.4395ZM157.44 35.1466L168.833 59.5563H166.069L154.34 34.3917C154.452 34.3357 154.927 34.1121 155.765 33.7206C156.658 33.2733 157.272 32.9657 157.608 32.7979C157.943 32.5742 158.501 32.2107 159.283 31.7075C160.065 31.2042 160.651 30.7288 161.042 30.2815C161.433 29.7782 161.852 29.2189 162.299 28.6038C162.801 27.9328 163.164 27.2057 163.388 26.4229C163.611 25.5841 163.723 24.6892 163.723 23.7387C163.723 20.2156 162.048 17.6153 158.697 15.9376C155.346 14.26 151.185 13.4211 146.214 13.4211H139.513V59.5563H136.999V10.9047H146.214C152.804 10.9047 157.775 12.0511 161.126 14.3439C164.533 16.6366 166.236 19.7682 166.236 23.7387C166.236 26.3111 165.37 28.6038 163.639 30.617C161.908 32.5742 159.841 34.084 157.44 35.1466ZM166.791 10.9047H169.304V59.5563H166.791V10.9047ZM199.775 57.0399V59.5563H171.795V10.9047H174.308V57.0399H199.775ZM224.003 57.0399V59.5563H196.023V10.9047H198.537V57.0399H224.003ZM224.692 57.0399H252.002L234.828 16.5248L216.566 59.5563H213.885L234.828 10.0659L255.771 59.5563H224.692V57.0399Z" fill="white"/>
<path d="M141.969 73.2711C140.684 70.0275 138.869 67.5392 136.524 65.8055C134.178 64.0161 130.52 63.1213 125.549 63.1213C122.813 63.1213 120.467 63.4847 118.512 64.2118C116.558 64.8829 114.798 66.0572 113.235 67.7348C111.671 69.4125 110.498 71.8451 109.716 75.0326C108.934 78.1641 108.543 82.0508 108.543 86.6922V94.9127C108.543 99.5541 108.934 103.469 109.716 106.656C110.498 109.788 111.671 112.192 113.235 113.87C114.798 115.548 116.558 116.75 118.512 117.477C120.467 118.148 122.813 118.484 125.549 118.484C130.576 118.484 134.569 117.421 137.529 115.296C140.489 113.115 141.969 110.794 141.969 108.334V94.1577H131.665V91.6413H144.985V107.495C144.985 111.242 143.281 114.429 139.875 117.058C136.524 119.686 131.749 121 125.549 121C118.68 121 113.709 118.903 110.638 114.709C107.566 110.459 106.03 103.86 106.03 94.9127V86.6922C106.03 77.7447 107.566 71.174 110.638 66.9799C113.709 62.7298 118.68 60.6049 125.549 60.6049C131.078 60.6049 135.211 61.6393 137.948 63.7085C140.684 65.7217 142.807 68.6016 144.314 72.3484L141.969 73.2711ZM171.979 95.7515L183.372 120.161H180.608L168.879 94.9965C168.991 94.9405 169.466 94.717 170.304 94.3255C171.197 93.8782 171.811 93.5705 172.147 93.4028C172.482 93.179 173.04 92.8156 173.822 92.3123C174.604 91.809 175.19 91.3336 175.581 90.8863C175.972 90.383 176.391 89.8237 176.838 89.2087C177.341 88.5376 177.704 87.8106 177.927 87.0277C178.15 86.1889 178.262 85.2941 178.262 84.3435C178.262 80.8205 176.587 78.2201 173.236 76.5425C169.885 74.8648 165.724 74.026 160.753 74.026H154.052V120.161H151.538V71.5095H160.753C167.344 71.5095 172.314 72.656 175.665 74.9487C179.072 77.2414 180.775 80.3732 180.775 84.3435C180.775 86.916 179.91 89.2087 178.178 91.2218C176.447 93.179 174.381 94.6889 171.979 95.7515ZM191.634 117.645H218.945L201.771 77.1296L183.508 120.161H180.828L201.771 70.6707L222.715 120.161H191.634V117.645ZM236.795 120.161H224.732V71.5095H233.947C240.537 71.5095 245.507 72.656 248.858 74.9487C252.266 77.2414 253.968 80.3732 253.968 84.3435C253.968 89.0969 251.874 92.5361 247.685 94.661C250.758 95.7236 253.047 97.3174 254.555 99.4423C256.063 101.511 256.817 103.916 256.817 106.656C256.817 110.683 255.141 113.954 251.79 116.47C248.496 118.931 243.497 120.161 236.795 120.161ZM236.795 117.645C241.71 117.645 245.842 116.75 249.193 114.96C252.601 113.171 254.303 110.403 254.303 106.656C254.303 104.923 253.663 103.049 252.377 101.036C251.093 98.9669 249.109 97.457 246.429 96.5064L242.073 94.9965L246.094 92.8995C247.491 92.1724 248.72 91.082 249.78 89.6281C250.898 88.1182 251.455 86.3567 251.455 84.3435C251.455 80.8205 249.78 78.2201 246.429 76.5425C243.078 74.8648 238.918 74.026 233.947 74.026H227.245V117.645H236.795Z" fill="#EE5F8A" fill-opacity="0.772549"/>
<path fill-rule="evenodd" clip-rule="evenodd" d="M49.5417 45.2124C51.8346 44.5948 54.0512 45.117 56.1365 46.43C58.2951 47.7893 60.3214 49.9998 62.1723 52.6918C65.8468 58.0361 68.8656 65.3292 70.8703 71.8085H70.877H70.8875H70.8879H70.8896H70.8979H70.9051H70.9084H70.9166H70.9189H70.922H70.9291H70.9386H70.9396H70.944H70.9497H70.9547H70.9599H70.97H70.9704H70.9719H70.9798H70.9857H70.9899H70.9997H71.0003H71.0008H71.0093H71.0154H71.019H71.0286H71.029H71.0299H71.038H71.0437H71.0475H71.0567H71.0573H71.0581H71.0659H71.0707H71.0751H71.0835H71.0839H71.0879H71.0929H71.0963H71.1017H71.1084H71.1103H71.118H71.1189H71.1203H71.1273H71.1319H71.1356H71.1432H71.1438H71.1486H71.152H71.1541H71.1597H71.1647H71.1677H71.175H71.1754H71.1796H71.183H71.1849H71.1903H71.1945H71.1976H71.2039H71.2048H71.211H71.2117H71.2127H71.2186H71.2215H71.2253H71.2299H71.232H71.2378H71.2383H71.2431H71.2445H71.2456H71.2506H71.2531H71.2567H71.2602H71.2623H71.2672H71.268H71.2734H71.2736H71.2753H71.2787H71.2799H71.2839H71.286H71.2887H71.2917H71.2935H71.2971H71.2982H71.3021H71.3026H71.3067H71.3082H71.3107H71.3116H71.3147H71.3157H71.3183H71.3199H71.3218H71.3235H71.325H71.3271H71.3281H71.3302H71.3308H71.3331H71.3335H71.3359H71.3361H71.3384H71.3402H71.3405H71.3415H71.3421H71.3423H71.3438H71.3451H71.3455H71.3463H71.3474H71.348H71.3482H71.3486H71.3488H71.3754H71.4096H71.4443H71.4795H71.5151H71.5514H71.588H71.6251H71.6628H71.7009H71.7394H71.7784H71.818H71.8582H71.8986H71.9399H71.9813H72.0234H72.0661H72.1093H72.1528H72.197H72.2416H72.2869H72.3325H72.3788H72.4255H72.4729H72.5208H72.5692H72.618H72.6676H72.7175H72.7682H72.8193H72.8708H72.9231H72.9759H73.0291H73.0831H73.1376H73.1927H73.2482H73.3043H73.3611H73.4184H73.4763H73.5349H73.594H73.6534H73.7137H73.7747H73.8361H73.898H73.9607H74.0239H74.0878H74.1521H74.2172H74.2828H74.3492H74.416H74.4834H74.5517H74.6204H74.6897H74.7597H74.8302H74.9016H74.9735H75.0459H75.1192H75.193H75.2675H75.3425H75.4183H75.4948H75.5718H75.6495H75.7279H75.8068H75.8866H75.967H76.0481H76.1298H76.2121H76.2952H76.379H76.4634H76.5484H76.6343H76.7208H76.8079H76.8957H76.9842H77.0735H77.1635H77.2542H77.3455H77.4377H77.5304H77.6239H77.7181H77.813H77.9087H78.005H78.1022H78.2H78.2986H78.3979H78.498H78.5988H78.7001H78.8025H78.9054H79.0092H79.1138H79.2189H79.3249H79.4317H79.5391H79.6474H79.7565H79.8662H79.9768H80.0882H80.2003H80.3132H80.4269H80.5415H80.6566H80.7727H80.8895H81.007H81.1256H81.2447H81.3647H81.4854H81.607H81.7296H81.8527H81.9767H82.1015H82.2272H82.3537H82.481H82.609H82.738H82.8678H82.9983H83.1298H83.262H83.3952H83.529H83.6639H83.7996H83.9359H84.0733C90.0032 71.8085 94.4968 73.8108 97.8927 77.0709C101.283 80.3257 103.568 84.8228 105.11 89.7981C108.192 99.745 108.324 111.671 108.324 119.597C108.324 119.713 108.23 119.807 108.115 119.807H89.4164C86.4648 119.807 84.6185 119.256 83.6239 118.303C82.6094 117.331 82.5311 115.994 82.9717 114.578C83.4115 113.165 84.3791 111.627 85.5331 110.174C86.6477 108.77 87.9466 107.433 89.1414 106.347C87.7755 104.297 86.2213 101.501 85.2993 98.8253C84.7973 99.2938 84.2951 99.7769 83.7904 100.262C82.7087 101.303 81.6154 102.355 80.4874 103.296C78.7441 104.749 76.8873 105.967 74.7902 106.517C70.6146 107.615 65.5953 106.049 58.7504 98.8303C56.3979 104.352 51.6921 106.33 47.7156 106.701C48.3871 106.949 48.9054 107.28 49.2868 107.682C50.2085 108.654 50.2783 109.983 49.8791 111.394C49.4799 112.805 48.6011 114.342 47.5517 115.796C46.5001 117.253 45.2678 118.638 44.148 119.746C44.1088 119.785 44.0558 119.807 44.0007 119.807C43.3708 119.807 42.7565 119.807 42.1575 119.808C36.1847 119.812 31.7412 119.816 28.5982 119.316C26.8666 119.041 25.5064 118.611 24.4948 117.927C23.4753 117.239 22.8219 116.303 22.4929 115.046C22.1661 113.798 22.1607 112.24 22.4187 110.302C22.6767 108.362 23.2012 106.025 23.9461 103.212C24.8184 99.9193 25.9969 95.9605 27.412 91.2081C28.3911 87.9191 29.4837 84.2499 30.666 80.1579H14.6142C6.51791 80.1579 1.04718 74.8088 1.04718 69.3751C1.04718 67.1858 2.42112 64.4934 4.44407 62.3583C6.46918 60.221 9.19186 58.5925 11.9426 58.5925C12.5664 58.5925 12.902 58.401 13.0804 58.1181C13.2699 57.8176 13.3193 57.3592 13.2378 56.7496C13.0751 55.5335 12.4203 53.8978 11.7483 52.2231L11.7388 52.1994C11.0781 50.5528 10.4028 48.8701 10.2323 47.5957C10.1469 46.9572 10.181 46.3752 10.4507 45.9476C10.7314 45.5024 11.2306 45.2778 11.9426 45.2778H17.0671C17.043 44.971 16.9724 44.5619 16.8717 44.0647C16.8055 43.7382 16.7288 43.3842 16.6463 43.004C16.5719 42.6607 16.4928 42.2963 16.4127 41.911C16.0783 40.3026 15.7405 38.4003 15.7405 36.5788C15.7405 34.7603 16.0769 32.9906 17.1216 31.673C18.1739 30.346 19.9128 29.5166 22.6286 29.5166C29.0925 29.5166 35.8102 32.1627 40.9085 35.4607C43.4589 37.1105 45.6121 38.9286 47.1305 40.6704C48.5425 42.2902 49.4322 43.8745 49.5417 45.2124ZM49.1301 45.3353C46.53 46.188 43.8784 48.509 41.2253 52.705C38.5186 56.9861 35.7947 63.2433 33.1146 71.9566C32.2687 74.706 31.493 77.2969 30.7872 79.7385H14.6142C6.78921 79.7385 1.60839 74.6557 1.46893 69.5848H11.9426C12.0583 69.5848 12.1521 69.4911 12.1521 69.3751C12.1521 69.2593 12.0583 69.1654 11.9426 69.1654H1.47051C1.55497 67.1598 2.831 64.6701 4.74794 62.6471C6.73009 60.5551 9.35042 59.0119 11.9426 59.0119C12.6546 59.0119 13.1539 58.7873 13.4346 58.3421C13.7043 57.9143 13.7384 57.3326 13.6529 56.694C13.4825 55.4196 12.8072 53.7367 12.1465 52.0903L12.137 52.0666C11.4649 50.3919 10.8102 48.7562 10.6475 47.5401C10.5659 46.9303 10.6154 46.4721 10.8048 46.1716C10.9833 45.8885 11.3189 45.6973 11.9426 45.6973H17.2857H19.9572C20.0728 45.6973 20.1666 45.6033 20.1666 45.4876C20.1666 45.3716 20.0728 45.2778 19.9572 45.2778H17.487C17.4626 44.932 17.3848 44.4881 17.2822 43.9814C17.2165 43.6568 17.1381 43.2955 17.0546 42.9101C16.9798 42.5649 16.9008 42.2004 16.8228 41.8255C16.4893 40.2216 16.1593 38.3548 16.1593 36.5788C16.1593 34.7997 16.4908 33.1432 17.4497 31.9339C18.401 30.7341 20.0015 29.936 22.6286 29.936C28.9882 29.936 35.6278 32.5439 40.6812 35.813C43.2068 37.4466 45.3279 39.2404 46.8151 40.9464C48.2497 42.5922 49.0663 44.1243 49.1301 45.3353ZM46.3252 106.768C45.4701 106.772 44.6718 106.704 43.9666 106.588C43.8592 106.57 43.7831 106.472 43.7919 106.364C43.8009 106.255 43.8916 106.171 44.0007 106.171C44.8977 106.171 45.6833 106.232 46.3661 106.35C50.5199 106.324 56.0012 104.566 58.4863 98.3727C59.3192 96.2973 59.8204 93.7156 59.8204 90.5212C59.8204 90.4054 59.914 90.3114 60.0299 90.3114C60.1455 90.3114 60.2393 90.4054 60.2393 90.5212C60.2393 93.6965 59.7509 96.2929 58.9245 98.4044C65.7993 105.702 70.7063 107.157 74.6838 106.112C76.6948 105.583 78.4961 104.411 80.2194 102.973C81.3373 102.041 82.4098 101.009 83.4834 99.9759C84.0377 99.4424 84.5925 98.9085 85.1542 98.388C84.5004 96.3426 84.2329 94.3535 84.7848 92.8529C85.0692 92.0791 85.571 91.4378 86.3388 90.9934C87.1026 90.5514 88.1164 90.3114 89.4164 90.3114C89.532 90.3114 89.6258 90.4054 89.6258 90.5212C89.6258 90.6371 89.532 90.7309 89.4164 90.7309C88.1646 90.7309 87.2297 90.9622 86.5484 91.3566C85.8709 91.7488 85.4309 92.3095 85.1777 92.9978C84.6658 94.3902 84.9161 96.3143 85.5936 98.3857C86.5046 101.171 88.1608 104.142 89.59 106.264C89.6484 106.35 89.634 106.467 89.5563 106.537C88.3388 107.632 87.0004 109 85.861 110.435C84.7192 111.873 83.7889 113.363 83.3717 114.703C82.9552 116.041 83.0607 117.182 83.9133 118C84.786 118.836 86.4904 119.387 89.4164 119.387H107.905C107.903 111.456 107.744 99.7132 104.71 89.9224C103.18 84.9853 100.924 80.5616 97.6029 77.3735C94.2869 74.1906 89.8981 72.2279 84.0733 72.2279H83.9359H83.7996H83.6639H83.529H83.3952H83.262H83.1298H82.9983H82.8678H82.738H82.609H82.481H82.3537H82.2272H82.1015H81.9767H81.8527H81.7296H81.607H81.4854H81.3647H81.2447H81.1256H81.007H80.8895H80.7727H80.6566H80.5415H80.4269H80.3132H80.2003H80.0882H79.9768H79.8662H79.7565H79.6474H79.5391H79.4317H79.3249H79.2189H79.1138H79.0092H78.9054H78.8025H78.7001H78.5988H78.498H78.3979H78.2986H78.2H78.1022H78.005H77.9087H77.813H77.7181H77.6239H77.5304H77.4377H77.3455H77.2542H77.1635H77.0735H76.9842H76.8957H76.8079H76.7208H76.6343H76.5484H76.4634H76.379H76.2952H76.2121H76.1298H76.0481H75.967H75.8866H75.8068H75.7279H75.6495H75.5718H75.4948H75.4183H75.3425H75.2675H75.193H75.1192H75.0459H74.9735H74.9016H74.8302H74.7597H74.6897H74.6204H74.5517H74.4834H74.416H74.3492H74.2828H74.2172H74.1521H74.0878H74.0239H73.9607H73.898H73.8361H73.7747H73.7137H73.6534H73.594H73.5349H73.4763H73.4184H73.3611H73.3043H73.2482H73.1927H73.1376H73.0831H73.0291H72.9759H72.9231H72.8708H72.8193H72.7682H72.7175H72.6676H72.618H72.5692H72.5208H72.4729H72.4255H72.3788H72.3325H72.2869H72.2416H72.197H72.1528H72.1093H72.0661H72.0234H71.9813H71.9399H71.8986H71.8582H71.818H71.7784H71.7394H71.7009H71.6628H71.6251H71.588H71.5514H71.5151H71.4795H71.4443H71.4096H71.3754H71.3488H71.3486H71.3484H71.348H71.3476H71.3465H71.3455H71.3451H71.344H71.3423H71.3421H71.3415H71.3405H71.3402H71.3384H71.3361H71.3359H71.3335H71.3331H71.3308H71.3302H71.3281H71.3271H71.325H71.3235H71.3218H71.3199H71.3183H71.3157H71.3147H71.3116H71.3107H71.3082H71.3069H71.3026H71.3021H71.2982H71.2971H71.2935H71.2917H71.2887H71.286H71.2839H71.2799H71.2787H71.2753H71.2736H71.2734H71.268H71.2672H71.2623H71.2602H71.2567H71.2531H71.2506H71.2456H71.2445H71.2431H71.2383H71.2378H71.232H71.2299H71.2253H71.2215H71.2186H71.2127H71.2117H71.211H71.2048H71.2039H71.1976H71.1945H71.1903H71.1849H71.183H71.1796H71.1754H71.175H71.1677H71.1647H71.1597H71.1541H71.152H71.1486H71.1438H71.1432H71.1356H71.1319H71.1273H71.1203H71.1189H71.118H71.1103H71.1084H71.1017H71.0963H71.0929H71.0879H71.0839H71.0835H71.0751H71.0707H71.0659H71.0581H71.0573H71.0567H71.0475H71.0437H71.038H71.0299H71.029H71.0286H71.019H71.0154H71.0093H71.0008H71.0003H70.9997H70.9899H70.9857H70.9798H70.9719H70.9704H70.97H70.9599H70.9547H70.9497H70.944H70.9396H70.9386H70.9291H70.922H70.9189H70.9166H70.9084H70.9051H70.8979H70.8896H70.8879H70.8875H70.877H70.8703H70.8663H70.863H70.8556H70.8523H70.8449H70.8368H70.8341H70.8232H70.8152H70.8123H70.811H70.8014H70.7961H70.7905H70.7857H70.7796H70.7767H70.7685H70.7607H70.7574H70.7568H70.7463H70.7365H70.7352H70.7241H70.7157H70.713H70.7122H70.7019H70.6906H70.6885H70.6795H70.6684H70.6652H70.6571H70.6458H70.6424H70.6347H70.6234H70.62H70.6123H70.601H70.598H70.5899H70.5785H70.5765H70.5674H70.5563H70.5551H70.545H70.5344H70.5339H70.5228H70.5138H70.5117H70.5006H70.4937H70.4897H70.4786H70.4742H70.4678H70.4567H70.455H70.4458H70.4359H70.4351H70.4242H70.4175H70.4135H70.4026H70.3995H70.3919H70.3817H70.3708H70.3643H70.3603H70.3498H70.3473H70.3396H70.3306H70.3293H70.3191H70.3145H70.3088H70.2987H70.2985H70.2887H70.2828H70.2786H70.2688H70.2678H70.2589H70.2529H70.2493H70.2397H70.2384H70.2303H70.2244H70.2208H70.2114H70.2106H70.2022H70.1972H70.193H70.1842H70.184H70.175H70.1714H70.1662H70.1591H70.1574H70.1488H70.1469H70.1404H70.1352H70.132H70.1239H70.1237H70.1155H70.1128H70.1075H70.1021H70.0996H70.0918H70.0843H70.0816H70.0767H70.0719H70.0694H70.0625H70.0621H70.055H70.0533H70.0481H70.0445H70.0413H70.0359H70.0347H70.0282H70.0277H70.0217H70.02H70.0156H70.0124H70.0095H70.0051H70.0037H69.9982H69.998H69.9923H69.9915H69.9869H69.985H69.9819H69.9789H69.9766H69.9731H69.9718H69.9676H69.9672H69.9626H69.9624H69.9584H69.9574H69.9542H69.9528H69.9502H69.9484H69.9465H69.9444H69.9429H69.9404H69.9396H69.9368H69.9364H69.9335H69.9333H69.9306H69.928H69.9276H69.9255H69.9251H69.9234H69.923H69.9216H69.9209H69.9197H69.9193H69.9182H69.9176H69.9169H69.9163H69.9159H69.9155H69.9151H69.9146H69.9142H69.914C69.914 72.1552 69.9138 72.0822 69.9138 72.0182C69.9138 71.9543 69.9138 71.8813 69.9138 71.8085H69.9142H69.9146H69.9151H69.9155H69.9159H69.9163H69.9169H69.9176H69.9182H69.9193H69.9197H69.9209H69.9216H69.923H69.9234H69.9251H69.9255H69.9276H69.928H69.9306H69.9333H69.9335H69.9364H69.9368H69.9396H69.9404H69.9429H69.9444H69.9465H69.9484H69.9502H69.9528H69.9542H69.9574H69.9584H69.9624H69.9626H69.9672H69.9676H69.9718H69.9731H69.9766H69.9789H69.9819H69.985H69.9869H69.9915H69.9923H69.998H69.9982H70.0037H70.0051H70.0095H70.0124H70.0156H70.02H70.0217H70.0277H70.0282H70.0347H70.0359H70.0413H70.0445H70.0481H70.0533H70.055H70.0621H70.0625H70.0694H70.0719H70.0767H70.0816H70.0843H70.0916H70.0996H70.1021H70.1075H70.1128H70.1155H70.1237H70.1239H70.132H70.1352H70.1404H70.1469H70.1488H70.1574H70.1591H70.1662H70.1714H70.175H70.184H70.1842H70.193H70.1972H70.2022H70.2106H70.2114H70.2208H70.2244H70.2303H70.2384H70.2397H70.2493H70.2529H70.2589H70.2678H70.2688H70.2786H70.2828H70.2887H70.2985H70.2987H70.3088H70.3145H70.3191H70.3293H70.3306H70.3396H70.3473H70.3498H70.3603H70.3643H70.3708H70.3815H70.3919H70.3995H70.4026H70.4135H70.4175H70.4242H70.4317C68.4335 65.3813 65.4451 58.1915 61.8272 52.9298C59.9924 50.2613 58.0046 48.1017 55.9135 46.7852C53.8277 45.4718 51.6479 45.0012 49.4049 45.688C46.894 46.4568 44.2604 48.6891 41.5793 52.9294C38.9002 57.1667 36.1895 63.3849 33.5149 72.0799C32.6522 74.8845 31.8624 77.5234 31.1458 80.0063C29.9306 84.2166 28.8108 87.9774 27.8103 91.3384C26.3973 96.0838 25.222 100.031 24.3509 103.32C23.6075 106.127 23.0885 108.444 22.8338 110.357C22.5789 112.273 22.5913 113.768 22.8981 114.94C23.2026 116.102 23.7982 116.951 24.729 117.58C25.6674 118.213 26.9582 118.631 28.6638 118.902C31.772 119.396 36.1799 119.393 42.1715 119.388C42.7383 119.388 43.3192 119.387 43.9144 119.387C45.0045 118.303 46.1956 116.959 47.2122 115.551C48.2497 114.113 49.0962 112.622 49.4761 111.28C49.8563 109.937 49.7589 108.789 48.9831 107.971C48.4616 107.421 47.6107 106.994 46.3252 106.768Z" fill="#FEFEFE"/>
<path d="M49.5417 45.2125L49.8137 46.2249L48.6007 46.5517L48.4981 45.298L49.5417 45.2125ZM70.8703 71.8086V72.8571H70.0985L69.87 72.1189L70.8703 71.8086ZM89.1414 106.347L90.0124 105.765L90.5129 106.516L89.8453 107.123L89.1414 106.347ZM85.2993 98.8253L84.5856 98.0582L85.7641 96.9588L86.2893 98.4835L85.2993 98.8253ZM58.7504 98.8304L57.7872 98.4189L58.4126 96.9514L59.5098 98.1086L58.7504 98.8304ZM47.7156 106.701L47.3529 107.685L47.6184 105.657L47.7156 106.701ZM30.6659 80.158V79.1095H32.0591L31.6718 80.4495L30.6659 80.158ZM11.7483 52.2231L12.7199 51.8318L12.7199 51.832L11.7483 52.2231ZM11.7388 52.1994L10.7672 52.5905L10.7671 52.5903L11.7388 52.1994ZM10.4507 45.9477L11.3361 46.5074V46.5076L10.4507 45.9477ZM17.0671 45.2779L18.111 45.1955L18.1999 46.3264H17.0671V45.2779ZM49.1301 45.3354L50.1758 45.2798L50.2183 46.0817L49.4562 46.3317L49.1301 45.3354ZM30.7872 79.7386L31.7931 80.0301L31.5742 80.7871H30.7872V79.7386ZM1.46892 69.5849L0.422151 69.6138L0.39252 68.5363H1.46892V69.5849ZM1.47049 69.1655V70.214H0.378254L0.42426 69.1214L1.47049 69.1655ZM17.487 45.2779V46.3264H16.5112L16.4425 45.3517L17.487 45.2779ZM46.3252 106.769L46.321 105.72L46.4142 105.72L46.5059 105.736L46.3252 106.769ZM46.366 106.35L46.3725 107.399L46.2798 107.399L46.1884 107.383L46.366 106.35ZM58.9244 98.4045L58.1627 99.124L57.7074 98.6406L57.9495 98.022L58.9244 98.4045ZM85.1542 98.3881L86.1515 98.0685L86.3547 98.7039L85.8654 99.1575L85.1542 98.3881ZM107.905 119.387L108.952 119.387L108.953 120.436H107.905V119.387ZM69.9138 72.228V73.2765H68.8666V72.228H69.9138ZM69.9138 71.8086H68.8666V70.7601H69.9138V71.8086ZM70.4317 71.8086L71.4315 71.497L71.8544 72.8571H70.4317V71.8086ZM43.9144 119.387L44.6527 120.131L44.3463 120.436H43.9146L43.9144 119.387ZM49.2696 44.1998C51.9076 43.4895 54.4233 44.1128 56.694 45.5426L55.579 47.3177C53.6792 46.1216 51.7614 45.7005 49.8137 46.2249L49.2696 44.1998ZM56.694 45.5426C59.0214 47.008 61.1434 49.3466 63.0348 52.0973L61.3097 53.2866C59.4991 50.6533 57.5688 48.5705 55.579 47.3177L56.694 45.5426ZM63.0348 52.0973C66.7935 57.5637 69.8501 64.9684 71.8705 71.4982L69.87 72.1189C67.881 65.6904 64.9004 58.5089 61.3097 53.2866L63.0348 52.0973ZM70.8703 70.7601H70.877V72.8571H70.8703V70.7601ZM70.877 70.7601H70.8874V72.8571H70.877V70.7601ZM70.8874 70.7601H70.8879V72.8571H70.8874V70.7601ZM70.8879 70.7601H70.8895V72.8571H70.8879V70.7601ZM70.8895 70.7601H70.8979V72.8571H70.8895V70.7601ZM70.8979 70.7601H70.905V72.8571H70.8979V70.7601ZM70.905 70.7601H70.9084V72.8571H70.905V70.7601ZM70.9084 70.7601H70.9166V72.8571H70.9084V70.7601ZM70.9166 70.7601H70.9189V72.8571H70.9166V70.7601ZM70.9189 70.7601H70.922V72.8571H70.9189V70.7601ZM70.922 70.7601H70.9291V72.8571H70.922V70.7601ZM70.9291 70.7601H70.9385V72.8571H70.9291V70.7601ZM70.9385 70.7601H70.9396V72.8571H70.9385V70.7601ZM70.9396 70.7601H70.944V72.8571H70.9396V70.7601ZM70.944 70.7601H70.9496V72.8571H70.944V70.7601ZM70.9496 70.7601H70.9547V72.8571H70.9496V70.7601ZM70.9547 70.7601H70.9599V72.8571H70.9547V70.7601ZM70.9599 70.7601H70.97V72.8571H70.9599V70.7601ZM70.97 70.7601H70.9704V72.8571H70.97V70.7601ZM70.9704 70.7601H70.9718V72.8571H70.9704V70.7601ZM70.9718 70.7601H70.9798V72.8571H70.9718V70.7601ZM70.9798 70.7601H70.9857V72.8571H70.9798V70.7601ZM70.9857 70.7601H70.9899V72.8571H70.9857V70.7601ZM70.9899 70.7601H70.9997V72.8571H70.9899V70.7601ZM70.9997 70.7601H71.0003V72.8571H70.9997V70.7601ZM71.0003 70.7601H71.0007V72.8571H71.0003V70.7601ZM71.0007 70.7601H71.0093V72.8571H71.0007V70.7601ZM71.0093 70.7601H71.0154V72.8571H71.0093V70.7601ZM71.0154 70.7601H71.019V72.8571H71.0154V70.7601ZM71.019 70.7601H71.0286V72.8571H71.019V70.7601ZM71.0286 70.7601H71.029V72.8571H71.0286V70.7601ZM71.029 70.7601H71.0299V72.8571H71.029V70.7601ZM71.0299 70.7601H71.038V72.8571H71.0299V70.7601ZM71.038 70.7601H71.0437V72.8571H71.038V70.7601ZM71.0437 70.7601H71.0474V72.8571H71.0437V70.7601ZM71.0474 70.7601H71.0567V72.8571H71.0474V70.7601ZM71.0567 70.7601H71.0573V72.8571H71.0567V70.7601ZM71.0573 70.7601H71.0581V72.8571H71.0573V70.7601ZM71.0581 70.7601H71.0659V72.8571H71.0581V70.7601ZM71.0659 70.7601H71.0707V72.8571H71.0659V70.7601ZM71.0707 70.7601H71.0751V72.8571H71.0707V70.7601ZM71.0751 70.7601H71.0835V72.8571H71.0751V70.7601ZM71.0835 70.7601H71.0839V72.8571H71.0835V70.7601ZM71.0839 70.7601H71.0879V72.8571H71.0839V70.7601ZM71.0879 70.7601H71.0929V72.8571H71.0879V70.7601ZM71.0929 70.7601H71.0962V72.8571H71.0929V70.7601ZM71.0962 70.7601H71.1017V72.8571H71.0962V70.7601ZM71.1017 70.7601H71.1084V72.8571H71.1017V70.7601ZM71.1084 70.7601H71.1103V72.8571H71.1084V70.7601ZM71.1103 70.7601H71.118V72.8571H71.1103V70.7601ZM71.118 70.7601H71.1189V72.8571H71.118V70.7601ZM71.1189 70.7601H71.1203V72.8571H71.1189V70.7601ZM71.1203 70.7601H71.1272V72.8571H71.1203V70.7601ZM71.1272 70.7601H71.1318V72.8571H71.1272V70.7601ZM71.1318 70.7601H71.1356V72.8571H71.1318V70.7601ZM71.1356 70.7601H71.1432V72.8571H71.1356V70.7601ZM71.1432 70.7601H71.1438V72.8571H71.1432V70.7601ZM71.1438 70.7601H71.1486V72.8571H71.1438V70.7601ZM71.1486 70.7601H71.152V72.8571H71.1486V70.7601ZM71.152 70.7601H71.154V72.8571H71.152V70.7601ZM71.154 70.7601H71.1597V72.8571H71.154V70.7601ZM71.1597 70.7601H71.1647V72.8571H71.1597V70.7601ZM71.1647 70.7601H71.1677V72.8571H71.1647V70.7601ZM71.1677 70.7601H71.175V72.8571H71.1677V70.7601ZM71.175 70.7601H71.1754V72.8571H71.175V70.7601ZM71.1754 70.7601H71.1796V72.8571H71.1754V70.7601ZM71.1796 70.7601H71.183V72.8571H71.1796V70.7601ZM71.183 70.7601H71.1848V72.8571H71.183V70.7601ZM71.1848 70.7601H71.1903V72.8571H71.1848V70.7601ZM71.1903 70.7601H71.1945V72.8571H71.1903V70.7601ZM71.1945 70.7601H71.1976V72.8571H71.1945V70.7601ZM71.1976 70.7601H71.2039V72.8571H71.1976V70.7601ZM71.2039 70.7601H71.2047V72.8571H71.2039V70.7601ZM71.2047 70.7601H71.211V72.8571H71.2047V70.7601ZM71.211 70.7601H71.2116V72.8571H71.211V70.7601ZM71.2116 70.7601H71.2127V72.8571H71.2116V70.7601ZM71.2127 70.7601H71.2186V72.8571H71.2127V70.7601ZM71.2186 70.7601H71.2215V72.8571H71.2186V70.7601ZM71.2215 70.7601H71.2253V72.8571H71.2215V70.7601ZM71.2253 70.7601H71.2299V72.8571H71.2253V70.7601ZM71.2299 70.7601H71.232V72.8571H71.2299V70.7601ZM71.232 70.7601H71.2378V72.8571H71.232V70.7601ZM71.2378 70.7601H71.2382V72.8571H71.2378V70.7601ZM71.2382 70.7601H71.2431V72.8571H71.2382V70.7601ZM71.2431 70.7601H71.2445V72.8571H71.2431V70.7601ZM71.2445 70.7601H71.2456V72.8571H71.2445V70.7601ZM71.2456 70.7601H71.2506V72.8571H71.2456V70.7601ZM71.2506 70.7601H71.2531V72.8571H71.2506V70.7601ZM71.2531 70.7601H71.2567V72.8571H71.2531V70.7601ZM71.2567 70.7601H71.2602V72.8571H71.2567V70.7601ZM71.2602 70.7601H71.2623V72.8571H71.2602V70.7601ZM71.2623 70.7601H71.2671V72.8571H71.2623V70.7601ZM71.2671 70.7601H71.268V72.8571H71.2671V70.7601ZM71.268 70.7601H71.2734V72.8571H71.268V70.7601ZM71.2734 70.7601H71.2736V72.8571H71.2734V70.7601ZM71.2736 70.7601H71.2753V72.8571H71.2736V70.7601ZM71.2753 70.7601H71.2787V72.8571H71.2753V70.7601ZM71.2787 70.7601H71.2799V72.8571H71.2787V70.7601ZM71.2799 70.7601H71.2839V72.8571H71.2799V70.7601ZM71.2839 70.7601H71.286V72.8571H71.2839V70.7601ZM71.286 70.7601H71.2887V72.8571H71.286V70.7601ZM71.2887 70.7601H71.2916V72.8571H71.2887V70.7601ZM71.2916 70.7601H71.2935V72.8571H71.2916V70.7601ZM71.2935 70.7601H71.2971V72.8571H71.2935V70.7601ZM71.2971 70.7601H71.2981V72.8571H71.2971V70.7601ZM71.2981 70.7601H71.3021V72.8571H71.2981V70.7601ZM71.3021 70.7601H71.3025V72.8571H71.3021V70.7601ZM71.3025 70.7601H71.3067V72.8571H71.3025V70.7601ZM71.3067 70.7601H71.3082V72.8571H71.3067V70.7601ZM71.3082 70.7601H71.3107V72.8571H71.3082V70.7601ZM71.3107 70.7601H71.3115V72.8571H71.3107V70.7601ZM71.3115 70.7601H71.3147V72.8571H71.3115V70.7601ZM71.3147 70.7601H71.3157V72.8571H71.3147V70.7601ZM71.3157 70.7601H71.3182V72.8571H71.3157V70.7601ZM71.3182 70.7601H71.3199V72.8571H71.3182V70.7601ZM71.3199 70.7601H71.3218V72.8571H71.3199V70.7601ZM71.3218 70.7601H71.3235V72.8571H71.3218V70.7601ZM71.3235 70.7601H71.3249V72.8571H71.3235V70.7601ZM71.3249 70.7601H71.327V72.8571H71.3249V70.7601ZM71.327 70.7601H71.3281V72.8571H71.327V70.7601ZM71.3281 70.7601H71.3302V72.8571H71.3281V70.7601ZM71.3302 70.7601H71.3308V72.8571H71.3302V70.7601ZM71.3308 70.7601H71.3331V72.8571H71.3308V70.7601ZM71.3331 70.7601H71.3335V72.8571H71.3331V70.7601ZM71.3335 70.7601H71.3358V72.8571H71.3335V70.7601ZM71.3358 70.7601H71.336V72.8571H71.3358V70.7601ZM71.336 70.7601H71.3384V72.8571H71.336V70.7601ZM71.3384 70.7601H71.3402V72.8571H71.3384V70.7601ZM71.3402 70.7601H71.3404V72.8571H71.3402V70.7601ZM71.3404 70.7601H71.3415V72.8571H71.3404V70.7601ZM71.3415 70.7601H71.3421V72.8571H71.3415V70.7601ZM71.3421 70.7601H71.3423V72.8571H71.3421V70.7601ZM71.3423 70.7601H71.3438V72.8571H71.3423V70.7601ZM71.3438 70.7601H71.345V72.8571H71.3438V70.7601ZM71.345 70.7601H71.3455V72.8571H71.345V70.7601ZM71.3455 70.7601H71.3463V72.8571H71.3455V70.7601ZM71.3463 70.7601H71.3474V72.8571H71.3463V70.7601ZM71.3474 70.7601H71.348V72.8571H71.3474V70.7601ZM71.348 70.7601H71.3482V72.8571H71.348V70.7601ZM71.3482 70.7601H71.3486V72.8571H71.3482V70.7601ZM71.3486 70.7601H71.3488V72.8571H71.3486V70.7601ZM71.3488 70.7601H71.3754V72.8571H71.3488V70.7601ZM71.3754 70.7601H71.4096V72.8571H71.3754V70.7601ZM71.4096 70.7601H71.4443V72.8571H71.4096V70.7601ZM71.4443 70.7601H71.4795V72.8571H71.4443V70.7601ZM71.4795 70.7601H71.5151V72.8571H71.4795V70.7601ZM71.5151 70.7601H71.5513V72.8571H71.5151V70.7601ZM71.5513 70.7601H71.588V72.8571H71.5513V70.7601ZM71.588 70.7601H71.6251V72.8571H71.588V70.7601ZM71.6251 70.7601H71.6628V72.8571H71.6251V70.7601ZM71.6628 70.7601H71.7009V72.8571H71.6628V70.7601ZM71.7009 70.7601H71.7394V72.8571H71.7009V70.7601ZM71.7394 70.7601H71.7784V72.8571H71.7394V70.7601ZM71.7784 70.7601H71.8179V72.8571H71.7784V70.7601ZM71.8179 70.7601H71.8582V72.8571H71.8179V70.7601ZM71.8582 70.7601H71.8986V72.8571H71.8582V70.7601ZM71.8986 70.7601H71.9398V72.8571H71.8986V70.7601ZM71.9398 70.7601H71.9813V72.8571H71.9398V70.7601ZM71.9813 70.7601H72.0234V72.8571H71.9813V70.7601ZM72.0234 70.7601H72.0661V72.8571H72.0234V70.7601ZM72.0661 70.7601H72.1093V72.8571H72.0661V70.7601ZM72.1093 70.7601H72.1528V72.8571H72.1093V70.7601ZM72.1528 70.7601H72.197V72.8571H72.1528V70.7601ZM72.197 70.7601H72.2416V72.8571H72.197V70.7601ZM72.2416 70.7601H72.2869V72.8571H72.2416V70.7601ZM72.2869 70.7601H72.3325V72.8571H72.2869V70.7601ZM72.3325 70.7601H72.3788V72.8571H72.3325V70.7601ZM72.3788 70.7601H72.4255V72.8571H72.3788V70.7601ZM72.4255 70.7601H72.4728V72.8571H72.4255V70.7601ZM72.4728 70.7601H72.5208V72.8571H72.4728V70.7601ZM72.5208 70.7601H72.5692V72.8571H72.5208V70.7601ZM72.5692 70.7601H72.618V72.8571H72.5692V70.7601ZM72.618 70.7601H72.6676V72.8571H72.618V70.7601ZM72.6676 70.7601H72.7175V72.8571H72.6676V70.7601ZM72.7175 70.7601H72.7681V72.8571H72.7175V70.7601ZM72.7681 70.7601H72.8192V72.8571H72.7681V70.7601ZM72.8192 70.7601H72.8708V72.8571H72.8192V70.7601ZM72.8708 70.7601H72.9231V72.8571H72.8708V70.7601ZM72.9231 70.7601H72.9759V72.8571H72.9231V70.7601ZM72.9759 70.7601H73.0291V72.8571H72.9759V70.7601ZM73.0291 70.7601H73.0831V72.8571H73.0291V70.7601ZM73.0831 70.7601H73.1376V72.8571H73.0831V70.7601ZM73.1376 70.7601H73.1927V72.8571H73.1376V70.7601ZM73.1927 70.7601H73.2482V72.8571H73.1927V70.7601ZM73.2482 70.7601H73.3043V72.8571H73.2482V70.7601ZM73.3043 70.7601H73.361V72.8571H73.3043V70.7601ZM73.361 70.7601H73.4184V72.8571H73.361V70.7601ZM73.4184 70.7601H73.4762V72.8571H73.4184V70.7601ZM73.4762 70.7601H73.5349V72.8571H73.4762V70.7601ZM73.5349 70.7601H73.5939V72.8571H73.5349V70.7601ZM73.5939 70.7601H73.6534V72.8571H73.5939V70.7601ZM73.6534 70.7601H73.7137V72.8571H73.6534V70.7601ZM73.7137 70.7601H73.7747V72.8571H73.7137V70.7601ZM73.7747 70.7601H73.836V72.8571H73.7747V70.7601ZM73.836 70.7601H73.898V72.8571H73.836V70.7601ZM73.898 70.7601H73.9607V72.8571H73.898V70.7601ZM73.9607 70.7601H74.0239V72.8571H73.9607V70.7601ZM74.0239 70.7601H74.0878V72.8571H74.0239V70.7601ZM74.0878 70.7601H74.1521V72.8571H74.0878V70.7601ZM74.1521 70.7601H74.2172V72.8571H74.1521V70.7601ZM74.2172 70.7601H74.2828V72.8571H74.2172V70.7601ZM74.2828 70.7601H74.3491V72.8571H74.2828V70.7601ZM74.3491 70.7601H74.416V72.8571H74.3491V70.7601ZM74.416 70.7601H74.4834V72.8571H74.416V70.7601ZM74.4834 70.7601H74.5517V72.8571H74.4834V70.7601ZM74.5517 70.7601H74.6204V72.8571H74.5517V70.7601ZM74.6204 70.7601H74.6897V72.8571H74.6204V70.7601ZM74.6897 70.7601H74.7596V72.8571H74.6897V70.7601ZM74.7596 70.7601H74.8302V72.8571H74.7596V70.7601ZM74.8302 70.7601H74.9016V72.8571H74.8302V70.7601ZM74.9016 70.7601H74.9735V72.8571H74.9016V70.7601ZM74.9735 70.7601H75.0459V72.8571H74.9735V70.7601ZM75.0459 70.7601H75.1192V72.8571H75.0459V70.7601ZM75.1192 70.7601H75.193V72.8571H75.1192V70.7601ZM75.193 70.7601H75.2675V72.8571H75.193V70.7601ZM75.2675 70.7601H75.3425V72.8571H75.2675V70.7601ZM75.3425 70.7601H75.4183V72.8571H75.3425V70.7601ZM75.4183 70.7601H75.4947V72.8571H75.4183V70.7601ZM75.4947 70.7601H75.5718V72.8571H75.4947V70.7601ZM75.5718 70.7601H75.6495V72.8571H75.5718V70.7601ZM75.6495 70.7601H75.7278V72.8571H75.6495V70.7601ZM75.7278 70.7601H75.8068V72.8571H75.7278V70.7601ZM75.8068 70.7601H75.8866V72.8571H75.8068V70.7601ZM75.8866 70.7601H75.967V72.8571H75.8866V70.7601ZM75.967 70.7601H76.0481V72.8571H75.967V70.7601ZM76.0481 70.7601H76.1297V72.8571H76.0481V70.7601ZM76.1297 70.7601H76.2121V72.8571H76.1297V70.7601ZM76.2121 70.7601H76.2952V72.8571H76.2121V70.7601ZM76.2952 70.7601H76.379V72.8571H76.2952V70.7601ZM76.379 70.7601H76.4634V72.8571H76.379V70.7601ZM76.4634 70.7601H76.5484V72.8571H76.4634V70.7601ZM76.5484 70.7601H76.6343V72.8571H76.5484V70.7601ZM76.6343 70.7601H76.7208V72.8571H76.6343V70.7601ZM76.7208 70.7601H76.8079V72.8571H76.7208V70.7601ZM76.8079 70.7601H76.8956V72.8571H76.8079V70.7601ZM76.8956 70.7601H76.9842V72.8571H76.8956V70.7601ZM76.9842 70.7601H77.0734V72.8571H76.9842V70.7601ZM77.0734 70.7601H77.1635V72.8571H77.0734V70.7601ZM77.1635 70.7601H77.2542V72.8571H77.1635V70.7601ZM77.2542 70.7601H77.3455V72.8571H77.2542V70.7601ZM77.3455 70.7601H77.4376V72.8571H77.3455V70.7601ZM77.4376 70.7601H77.5304V72.8571H77.4376V70.7601ZM77.5304 70.7601H77.6238V72.8571H77.5304V70.7601ZM77.6238 70.7601H77.7181V72.8571H77.6238V70.7601ZM77.7181 70.7601H77.813V72.8571H77.7181V70.7601ZM77.813 70.7601H77.9087V72.8571H77.813V70.7601ZM77.9087 70.7601H78.005V72.8571H77.9087V70.7601ZM78.005 70.7601H78.1022V72.8571H78.005V70.7601ZM78.1022 70.7601H78.2V72.8571H78.1022V70.7601ZM78.2 70.7601H78.2986V72.8571H78.2V70.7601ZM78.2986 70.7601H78.3979V72.8571H78.2986V70.7601ZM78.3979 70.7601H78.498V72.8571H78.3979V70.7601ZM78.498 70.7601H78.5987V72.8571H78.498V70.7601ZM78.5987 70.7601H78.7001V72.8571H78.5987V70.7601ZM78.7001 70.7601H78.8025V72.8571H78.7001V70.7601ZM78.8025 70.7601H78.9054V72.8571H78.8025V70.7601ZM78.9054 70.7601H79.0092V72.8571H78.9054V70.7601ZM79.0092 70.7601H79.1137V72.8571H79.0092V70.7601ZM79.1137 70.7601H79.2189V72.8571H79.1137V70.7601ZM79.2189 70.7601H79.3248V72.8571H79.2189V70.7601ZM79.3248 70.7601H79.4317V72.8571H79.3248V70.7601ZM79.4317 70.7601H79.5391V72.8571H79.4317V70.7601ZM79.5391 70.7601H79.6474V72.8571H79.5391V70.7601ZM79.6474 70.7601H79.7565V72.8571H79.6474V70.7601ZM79.7565 70.7601H79.8662V72.8571H79.7565V70.7601ZM79.8662 70.7601H79.9768V72.8571H79.8662V70.7601ZM79.9768 70.7601H80.0882V72.8571H79.9768V70.7601ZM80.0882 70.7601H80.2003V72.8571H80.0882V70.7601ZM80.2003 70.7601H80.3132V72.8571H80.2003V70.7601ZM80.3132 70.7601H80.4269V72.8571H80.3132V70.7601ZM80.4269 70.7601H80.5414V72.8571H80.4269V70.7601ZM80.5414 70.7601H80.6566V72.8571H80.5414V70.7601ZM80.6566 70.7601H80.7727V72.8571H80.6566V70.7601ZM80.7727 70.7601H80.8895V72.8571H80.7727V70.7601ZM80.8895 70.7601H81.007V72.8571H80.8895V70.7601ZM81.007 70.7601H81.1255V72.8571H81.007V70.7601ZM81.1255 70.7601H81.2447V72.8571H81.1255V70.7601ZM81.2447 70.7601H81.3647V72.8571H81.2447V70.7601ZM81.3647 70.7601H81.4853V72.8571H81.3647V70.7601ZM81.4853 70.7601H81.607V72.8571H81.4853V70.7601ZM81.607 70.7601H81.7296V72.8571H81.607V70.7601ZM81.7296 70.7601H81.8527V72.8571H81.7296V70.7601ZM81.8527 70.7601H81.9767V72.8571H81.8527V70.7601ZM81.9767 70.7601H82.1015V72.8571H81.9767V70.7601ZM82.1015 70.7601H82.2272V72.8571H82.1015V70.7601ZM82.2272 70.7601H82.3537V72.8571H82.2272V70.7601ZM82.3537 70.7601H82.481V72.8571H82.3537V70.7601ZM82.481 70.7601H82.609V72.8571H82.481V70.7601ZM82.609 70.7601H82.738V72.8571H82.609V70.7601ZM82.738 70.7601H82.8678V72.8571H82.738V70.7601ZM82.8678 70.7601H82.9983V72.8571H82.8678V70.7601ZM82.9983 70.7601H83.1298V72.8571H82.9983V70.7601ZM83.1298 70.7601H83.262V72.8571H83.1298V70.7601ZM83.262 70.7601H83.3952V72.8571H83.262V70.7601ZM83.3952 70.7601H83.529V72.8571H83.3952V70.7601ZM83.529 70.7601H83.6639V72.8571H83.529V70.7601ZM83.6639 70.7601H83.7996V72.8571H83.6639V70.7601ZM83.7996 70.7601H83.9359V72.8571H83.7996V70.7601ZM83.9359 70.7601H84.0733V72.8571H83.9359V70.7601ZM84.0733 70.7601C90.2658 70.7601 95.0212 72.8617 98.6173 76.3139L97.1681 77.8278C93.9723 74.76 89.7405 72.8571 84.0733 72.8571V70.7601ZM98.6173 76.3139C102.182 79.7361 104.539 84.4165 106.11 89.4874L104.11 90.1089C102.598 85.2293 100.385 80.9155 97.1681 77.8278L98.6173 76.3139ZM106.11 89.4874C109.246 99.6078 109.371 111.688 109.371 119.597H107.277C107.277 111.653 107.139 99.8823 104.11 90.1089L106.11 89.4874ZM109.371 119.597C109.371 120.292 108.809 120.855 108.115 120.855V118.758C107.652 118.758 107.277 119.134 107.277 119.597H109.371ZM108.115 120.855H89.4164V118.758H108.115V120.855ZM89.4164 120.855C86.4009 120.855 84.1994 120.306 82.8996 119.06L84.3479 117.545C85.0373 118.206 86.5287 118.758 89.4164 118.758V120.855ZM82.8996 119.06C81.4803 117.7 81.4709 115.876 81.9721 114.266L83.9715 114.89C83.5912 116.112 83.7382 116.961 84.3479 117.545L82.8996 119.06ZM81.9721 114.266C82.4684 112.671 83.5284 111.014 84.7135 109.521L86.3528 110.826C85.2298 112.241 84.3548 113.659 83.9715 114.89L81.9721 114.266ZM84.7135 109.521C85.8696 108.065 87.2093 106.687 88.4375 105.571L89.8453 107.123C88.6838 108.179 87.4255 109.476 86.3528 110.826L84.7135 109.521ZM88.2703 106.929C86.8736 104.832 85.2698 101.955 84.3093 99.1672L86.2893 98.4835C87.1727 101.048 88.6775 103.761 90.0124 105.765L88.2703 106.929ZM86.0131 99.5924C85.518 100.054 85.0216 100.532 84.5158 101.019L83.0647 99.5065C83.5684 99.0218 84.0764 98.533 84.5856 98.0582L86.0131 99.5924ZM84.5158 101.019C83.4391 102.054 82.3191 103.133 81.1576 104.101L79.8172 102.49C80.9117 101.577 81.9779 100.552 83.0647 99.5065L84.5158 101.019ZM81.1576 104.101C79.3644 105.597 77.3683 106.924 75.056 107.532L74.5244 105.503C76.4062 105.009 78.1237 103.902 79.8172 102.49L81.1576 104.101ZM75.056 107.532C70.3226 108.775 64.9297 106.87 57.991 99.5524L59.5098 98.1086C66.2607 105.228 70.9065 106.454 74.5244 105.503L75.056 107.532ZM59.7136 99.242C57.1673 105.218 52.049 107.349 47.8128 107.745L47.6184 105.657C51.3352 105.31 55.6286 103.485 57.7872 98.4189L59.7136 99.242ZM48.0784 105.718C48.8686 106.01 49.5331 106.419 50.0462 106.96L48.5276 108.404C48.2777 108.141 47.9058 107.889 47.3529 107.685L48.0784 105.718ZM50.0462 106.96C51.3332 108.317 51.3334 110.101 50.8866 111.68L48.8717 111.108C49.2233 109.866 49.0841 108.991 48.5276 108.404L50.0462 106.96ZM50.8866 111.68C50.4389 113.262 49.4799 114.915 48.4003 116.41L46.7028 115.182C47.7223 113.77 48.5207 112.348 48.8717 111.108L50.8866 111.68ZM48.4003 116.41C47.3091 117.922 46.0372 119.351 44.8839 120.492L43.4118 119C44.4983 117.925 45.691 116.584 46.7028 115.182L48.4003 116.41ZM44.8839 120.492C44.6487 120.725 44.3312 120.855 44.0007 120.855V118.758C43.7804 118.758 43.5687 118.845 43.4118 119L44.8839 120.492ZM44.0007 120.855C43.3714 120.855 42.7573 120.856 42.1583 120.856L42.1567 118.759C42.7556 118.758 43.3703 118.758 44.0007 118.758V120.855ZM42.1583 120.856C36.2253 120.861 31.6796 120.868 28.434 120.352L28.7622 118.281C31.8027 118.764 36.1441 118.764 42.1567 118.759L42.1583 120.856ZM28.434 120.352C26.6375 120.067 25.1038 119.604 23.9092 118.797L25.0802 117.058C25.9089 117.618 27.0957 118.016 28.7622 118.281L28.434 120.352ZM23.9092 118.797C22.6683 117.959 21.8702 116.802 21.48 115.312L23.5059 114.78C23.7735 115.803 24.2824 116.519 25.0802 117.058L23.9092 118.797ZM21.48 115.312C21.103 113.873 21.1152 112.158 21.3807 110.163L23.4566 110.441C23.2064 112.322 23.2292 113.723 23.5059 114.78L21.48 115.312ZM21.3807 110.163C21.6476 108.157 22.1852 105.77 22.9339 102.944L24.9583 103.481C24.2169 106.28 23.7059 108.567 23.4566 110.441L21.3807 110.163ZM22.9339 102.944C23.8112 99.6317 24.9951 95.6556 26.4084 90.9087L28.4154 91.5079C26.9988 96.2657 25.8255 100.207 24.9583 103.481L22.9339 102.944ZM26.4084 90.9087C27.3877 87.6193 28.479 83.9539 29.66 79.8665L31.6718 80.4495C30.4881 84.5459 29.3947 88.2189 28.4154 91.5079L26.4084 90.9087ZM30.6659 81.2065H14.6141V79.1095H30.6659V81.2065ZM14.6141 81.2065C6.11023 81.2065 0 75.5451 0 69.3752H2.09432C2.09432 74.0726 6.92558 79.1095 14.6141 79.1095V81.2065ZM0 69.3752C0 66.8119 1.56496 63.8735 3.68438 61.6368L5.20371 63.08C3.27726 65.1133 2.09432 67.5597 2.09432 69.3752H0ZM3.68438 61.6368C5.81678 59.3863 8.79537 57.544 11.9426 57.544V59.6411C9.58832 59.6411 7.12152 61.0561 5.20371 63.08L3.68438 61.6368ZM11.9426 57.544C12.1532 57.544 12.2362 57.5109 12.2478 57.5056C12.2518 57.5039 12.2426 57.5077 12.2279 57.5205C12.2132 57.5333 12.2019 57.5474 12.195 57.5583L13.9659 58.6779C13.5326 59.3651 12.7893 59.6411 11.9426 59.6411V57.544ZM12.195 57.5583C12.1833 57.5767 12.2068 57.5503 12.2202 57.4318C12.2336 57.3133 12.2331 57.1368 12.1999 56.8889L14.2757 56.6104C14.3669 57.2924 14.3559 58.0595 13.9659 58.6779L12.195 57.5583ZM12.1999 56.8889C12.0587 55.8339 11.4696 54.3408 10.7766 52.614L12.7199 51.832C13.3711 53.4547 14.0915 55.2333 14.2757 56.6104L12.1999 56.8889ZM10.7767 52.6142L10.7672 52.5905L12.7104 51.8083L12.7199 51.8318L10.7767 52.6142ZM10.7671 52.5903C10.1266 50.9943 9.38636 49.17 9.19442 47.735L11.2702 47.4565C11.4192 48.5703 12.0295 50.1116 12.7104 51.8086L10.7671 52.5903ZM9.19442 47.735C9.09936 47.0243 9.09494 46.1337 9.56522 45.388L11.3361 46.5076C11.267 46.6171 11.1945 46.8901 11.2702 47.4565L9.19442 47.735ZM9.56522 45.388C10.1024 44.5362 11.0117 44.2294 11.9426 44.2294V46.3264C11.4495 46.3264 11.3604 46.469 11.3361 46.5074L9.56522 45.388ZM11.9426 44.2294H17.0671V46.3264H11.9426V44.2294ZM16.0232 45.3601C16.0044 45.1221 15.9454 44.7671 15.8454 44.2732L17.898 43.8565C17.9993 44.3569 18.0815 44.8199 18.111 45.1955L16.0232 45.3601ZM15.8454 44.2732C15.7809 43.9549 15.7058 43.6084 15.623 43.2266L17.6696 42.7814C17.7517 43.1599 17.8301 43.5214 17.898 43.8565L15.8454 44.2732ZM15.623 43.2266C15.5487 42.8839 15.4687 42.515 15.3875 42.1248L17.4379 41.6972C17.517 42.0776 17.5951 42.4379 17.6696 42.7814L15.623 43.2266ZM15.3875 42.1248C15.0507 40.5046 14.6933 38.5143 14.6933 36.5789H16.7876C16.7876 38.2865 17.1059 40.1005 17.4379 41.6972L15.3875 42.1248ZM14.6933 36.5789C14.6933 34.6616 15.0424 32.6092 16.3015 31.0211L17.9417 32.325C17.1114 33.3721 16.7876 34.8591 16.7876 36.5789H14.6933ZM16.3015 31.0211C17.6062 29.3757 19.6911 28.4681 22.6285 28.4681V30.5652C20.1344 30.5652 18.7416 31.3164 17.9417 32.325L16.3015 31.0211ZM22.6285 28.4681C29.353 28.4681 36.2668 31.2096 41.4768 34.58L40.3403 36.3413C35.3539 33.1156 28.8317 30.5652 22.6285 30.5652V28.4681ZM41.4768 34.58C44.0895 36.27 46.3229 38.1496 47.9194 39.9812L46.3415 41.36C44.9015 39.7079 42.8285 37.951 40.3403 36.3413L41.4768 34.58ZM47.9194 39.9812C49.3735 41.6492 50.4477 43.4463 50.5853 45.1267L48.4981 45.298C48.4166 44.3026 47.7114 42.9313 46.3415 41.36L47.9194 39.9812ZM40.3407 52.1443C43.0528 47.8548 45.8722 45.3004 48.8043 44.3389L49.4562 46.3317C47.1879 47.0755 44.7042 49.1633 42.1102 53.266L40.3407 52.1443ZM32.1137 71.6479C34.8077 62.89 37.5644 56.5351 40.3407 52.1443L42.1102 53.266C39.4728 57.4373 36.7816 63.5969 34.1153 72.2651L32.1137 71.6479ZM29.7813 79.4471C30.489 76.9988 31.2666 74.402 32.1137 71.6479L34.1153 72.2651C33.2711 75.0099 32.4968 77.5952 31.7931 80.0301L29.7813 79.4471ZM14.6141 78.6901H30.7872V80.7871H14.6141V78.6901ZM2.51568 69.5561C2.6355 73.9121 7.19702 78.6901 14.6141 78.6901V80.7871C6.38139 80.7871 0.581269 75.3994 0.422151 69.6138L2.51568 69.5561ZM11.9426 70.6334H1.46892V68.5363H11.9426V70.6334ZM13.1992 69.3752C13.1992 70.0701 12.6366 70.6334 11.9426 70.6334V68.5363C11.48 68.5363 11.1049 68.9119 11.1049 69.3752H13.1992ZM11.9426 68.1169C12.6366 68.1169 13.1992 68.6804 13.1992 69.3752H11.1049C11.1049 69.8384 11.48 70.214 11.9426 70.214V68.1169ZM1.47049 68.1169H11.9426V70.214H1.47049V68.1169ZM5.50757 63.3688C3.6888 65.2882 2.58666 67.549 2.51673 69.2097L0.42426 69.1214C0.523261 66.7704 1.97318 64.0522 3.98824 61.9254L5.50757 63.3688ZM11.9426 60.0605C9.74669 60.0605 7.38226 61.3902 5.50757 63.3688L3.98824 61.9254C6.07788 59.7201 8.9541 57.9634 11.9426 57.9634V60.0605ZM14.32 58.9018C13.7829 59.7537 12.8736 60.0605 11.9426 60.0605V57.9634C12.4357 57.9634 12.5249 57.8208 12.5492 57.7822L14.32 58.9018ZM14.6908 56.5548C14.7859 57.2655 14.7903 58.1561 14.32 58.9018L12.5492 57.7822C12.6183 57.6728 12.6908 57.3995 12.615 56.8331L14.6908 56.5548ZM13.1181 51.6995C13.7586 53.2956 14.4989 55.1198 14.6908 56.5548L12.615 56.8331C12.4661 55.7194 11.8557 54.1782 11.1748 52.4813L13.1181 51.6995ZM13.1086 51.6758L13.1181 51.6995L11.1748 52.4813L11.1653 52.4576L13.1086 51.6758ZM11.6854 47.401C11.8265 48.456 12.4157 49.9491 13.1086 51.6758L11.1653 52.4576C10.5141 50.8351 9.79379 49.0564 9.60958 47.6792L11.6854 47.401ZM11.6903 46.7314C11.7019 46.7129 11.6784 46.7396 11.665 46.858C11.6516 46.9763 11.6522 47.1529 11.6854 47.401L9.60958 47.6792C9.51839 46.9975 9.52934 46.2304 9.91941 45.6118L11.6903 46.7314ZM11.9426 46.7459C11.7321 46.7459 11.649 46.7788 11.6375 46.784C11.6335 46.7859 11.6426 46.7821 11.6573 46.7693C11.6721 46.7565 11.6834 46.7425 11.6903 46.7314L9.91941 45.6118C10.3527 44.9248 11.096 44.6488 11.9426 44.6488V46.7459ZM17.2856 46.7459H11.9426V44.6488H17.2856V46.7459ZM19.9572 46.7459H17.2856V44.6488H19.9572V46.7459ZM21.2138 45.4876C21.2138 46.1824 20.6512 46.7459 19.9572 46.7459V44.6488C19.4945 44.6488 19.1194 45.0244 19.1194 45.4876H21.2138ZM19.9572 44.2294C20.6512 44.2294 21.2138 44.7927 21.2138 45.4876H19.1194C19.1194 45.9509 19.4945 46.3264 19.9572 46.3264V44.2294ZM17.487 44.2294H19.9572V46.3264H17.487V44.2294ZM18.3085 43.7731C18.4114 44.2814 18.502 44.7841 18.5316 45.2039L16.4425 45.3517C16.4233 45.0802 16.3582 44.6949 16.2559 44.19L18.3085 43.7731ZM18.0779 42.6876C18.1611 43.0714 18.241 43.4401 18.3085 43.7731L16.2559 44.19C16.1919 43.8735 16.1152 43.5197 16.0312 43.1324L18.0779 42.6876ZM17.848 41.6118C17.9249 41.9818 18.003 42.342 18.0779 42.6876L16.0312 43.1324C15.9566 42.7879 15.8766 42.4192 15.7976 42.0392L17.848 41.6118ZM17.2065 36.5789C17.2065 38.241 17.5169 40.0195 17.848 41.6118L15.7976 42.0392C15.4617 40.4239 15.1122 38.4688 15.1121 36.5789H17.2065ZM18.2698 32.5859C17.5252 33.525 17.2065 34.8985 17.2065 36.5789H15.1121C15.1121 34.701 15.4562 32.7616 16.6295 31.282L18.2698 32.5859ZM22.6285 30.9846C20.2237 30.9846 18.9689 31.7041 18.2698 32.5859L16.6295 31.282C17.8331 29.7641 19.7794 28.8876 22.6285 28.8876V30.9846ZM40.113 36.6936C35.1712 33.4969 28.7276 30.9846 22.6285 30.9846V28.8876C29.2487 28.8876 36.0842 31.5909 41.2494 34.9323L40.113 36.6936ZM46.0261 41.636C44.6171 40.0195 42.5762 38.2872 40.113 36.6936L41.2494 34.9323C43.8371 36.6062 46.0387 38.4612 47.6038 40.2569L46.0261 41.636ZM48.0844 45.3907C48.0396 44.5418 47.4199 43.235 46.0261 41.636L47.6038 40.2569C49.0792 41.9493 50.0927 43.7066 50.1758 45.2798L48.0844 45.3907ZM46.3292 107.817C45.4173 107.821 44.5607 107.748 43.7965 107.622L44.1368 105.553C44.7827 105.66 45.5227 105.723 46.321 105.72L46.3292 107.817ZM43.7965 107.622C43.1508 107.516 42.6949 106.931 42.7483 106.278L44.8357 106.449C44.8711 106.014 44.5672 105.624 44.1368 105.553L43.7965 107.622ZM42.7483 106.278C42.8017 105.625 43.3464 105.123 44.0007 105.123V107.22C44.437 107.22 44.8001 106.885 44.8357 106.449L42.7483 106.278ZM44.0007 105.123C44.9438 105.123 45.7903 105.187 46.5434 105.317L46.1884 107.383C45.5765 107.278 44.8516 107.22 44.0007 107.22V105.123ZM46.3595 105.301C50.2548 105.277 55.2422 103.645 57.5148 97.9819L59.4581 98.7637C56.7602 105.487 50.7849 107.371 46.3725 107.399L46.3595 105.301ZM57.5148 97.9819C58.2892 96.0518 58.7732 93.6066 58.7732 90.5212H60.8676C60.8676 93.8247 60.3492 96.5429 59.4581 98.7637L57.5148 97.9819ZM58.7732 90.5212C58.7732 89.8265 59.3358 89.263 60.0298 89.263V91.36C60.4925 91.36 60.8676 90.9845 60.8676 90.5212H58.7732ZM60.0298 89.263C60.7237 89.263 61.2864 89.8265 61.2864 90.5212H59.1921C59.1921 90.9845 59.567 91.36 60.0298 91.36V89.263ZM61.2864 90.5212C61.2864 93.8035 60.7815 96.5333 59.8996 98.787L57.9495 98.022C58.72 96.0528 59.1921 93.5894 59.1921 90.5212H61.2864ZM59.6864 97.685C66.469 104.885 71.0018 105.995 74.4181 105.098L74.9498 107.126C70.4108 108.319 65.1295 106.519 58.1627 99.124L59.6864 97.685ZM74.4181 105.098C76.2137 104.626 77.8756 103.563 79.5491 102.168L80.8895 103.779C79.1165 105.258 77.1759 106.541 74.9498 107.126L74.4181 105.098ZM79.5491 102.168C80.6336 101.263 81.6791 100.258 82.7577 99.22L84.2088 100.732C83.1403 101.76 82.041 102.819 80.8895 103.779L79.5491 102.168ZM82.7577 99.22C83.311 98.6876 83.8729 98.1469 84.4427 97.6187L85.8654 99.1575C85.3123 99.6702 84.7646 100.197 84.2088 100.732L82.7577 99.22ZM84.1567 98.7077C83.4869 96.6117 83.124 94.3349 83.8021 92.4908L85.7674 93.2153C85.3418 94.3725 85.5138 96.0736 86.1515 98.0685L84.1567 98.7077ZM83.8021 92.4908C84.1655 91.5024 84.821 90.6609 85.8145 90.0857L86.8627 91.9013C86.3207 92.215 85.9731 92.6556 85.7674 93.2153L83.8021 92.4908ZM85.8145 90.0857C86.785 89.5241 87.9958 89.263 89.4164 89.263V91.36C88.237 91.36 87.4202 91.5786 86.8627 91.9013L85.8145 90.0857ZM89.4164 89.263C90.1104 89.263 90.6729 89.8265 90.6729 90.5212H88.5786C88.5786 90.9845 88.9537 91.36 89.4164 91.36V89.263ZM90.6729 90.5212C90.6729 91.2162 90.1104 91.7795 89.4164 91.7795V89.6824C88.9537 89.6824 88.5786 90.058 88.5786 90.5212H90.6729ZM89.4164 91.7795C88.2852 91.7795 87.5474 91.9894 87.0724 92.2643L86.0242 90.4489C86.912 89.9349 88.0439 89.6824 89.4164 89.6824V91.7795ZM87.0724 92.2643C86.6206 92.5258 86.3348 92.8863 86.1603 93.3602L84.195 92.6357C84.5269 91.7331 85.1211 90.9717 86.0242 90.4489L87.0724 92.2643ZM86.1603 93.3602C85.7768 94.4035 85.9266 96.035 86.5888 98.0595L84.5986 98.7121C83.9055 96.5934 83.5548 94.3771 84.195 92.6357L86.1603 93.3602ZM86.5888 98.0595C87.4594 100.721 89.0607 103.603 90.4581 105.677L88.7219 106.85C87.2607 104.681 85.5498 101.621 84.5986 98.7121L86.5888 98.0595ZM90.4581 105.677C90.8087 106.198 90.7226 106.897 90.256 107.317L88.8565 105.757C88.5455 106.036 88.4881 106.503 88.7219 106.85L90.4581 105.677ZM90.256 107.317C89.0731 108.381 87.7769 109.707 86.6805 111.087L85.0413 109.782C86.2238 108.293 87.6043 106.883 88.8565 105.757L90.256 107.317ZM86.6805 111.087C85.5699 112.486 84.732 113.857 84.3713 115.015L82.3719 114.391C82.8458 112.869 83.8687 111.259 85.0413 109.782L86.6805 111.087ZM84.3713 115.015C84.0161 116.156 84.1881 116.812 84.6375 117.243L83.1893 118.757C81.9331 117.553 81.8942 115.926 82.3719 114.391L84.3713 115.015ZM84.6375 117.243C85.2051 117.786 86.5545 118.339 89.4164 118.339V120.436C86.4265 120.436 84.3669 119.886 83.1893 118.757L84.6375 117.243ZM89.4164 118.339H107.905V120.436H89.4164V118.339ZM106.858 119.388C106.856 111.441 106.69 99.8514 103.71 90.2331L105.71 89.6117C108.798 99.575 108.95 111.47 108.952 119.387L106.858 119.388ZM103.71 90.2331C102.21 85.3918 100.025 81.1512 96.8782 78.1306L98.3275 76.6167C101.823 79.972 104.151 84.579 105.71 89.6117L103.71 90.2331ZM96.8782 78.1306C93.7627 75.1397 89.6354 73.2765 84.0733 73.2765V71.1795C90.1607 71.1795 94.8113 73.2415 98.3275 76.6167L96.8782 78.1306ZM84.0733 73.2765H83.9359V71.1795H84.0733V73.2765ZM83.9359 73.2765H83.7996V71.1795H83.9359V73.2765ZM83.7996 73.2765H83.6639V71.1795H83.7996V73.2765ZM83.6639 73.2765H83.529V71.1795H83.6639V73.2765ZM83.529 73.2765H83.3952V71.1795H83.529V73.2765ZM83.3952 73.2765H83.262V71.1795H83.3952V73.2765ZM83.262 73.2765H83.1298V71.1795H83.262V73.2765ZM83.1298 73.2765H82.9983V71.1795H83.1298V73.2765ZM82.9983 73.2765H82.8678V71.1795H82.9983V73.2765ZM82.8678 73.2765H82.738V71.1795H82.8678V73.2765ZM82.738 73.2765H82.609V71.1795H82.738V73.2765ZM82.609 73.2765H82.481V71.1795H82.609V73.2765ZM82.481 73.2765H82.3537V71.1795H82.481V73.2765ZM82.3537 73.2765H82.2272V71.1795H82.3537V73.2765ZM82.2272 73.2765H82.1015V71.1795H82.2272V73.2765ZM82.1015 73.2765H81.9767V71.1795H82.1015V73.2765ZM81.9767 73.2765H81.8527V71.1795H81.9767V73.2765ZM81.8527 73.2765H81.7296V71.1795H81.8527V73.2765ZM81.7296 73.2765H81.607V71.1795H81.7296V73.2765ZM81.607 73.2765H81.4853V71.1795H81.607V73.2765ZM81.4853 73.2765H81.3647V71.1795H81.4853V73.2765ZM81.3647 73.2765H81.2447V71.1795H81.3647V73.2765ZM81.2447 73.2765H81.1255V71.1795H81.2447V73.2765ZM81.1255 73.2765H81.007V71.1795H81.1255V73.2765ZM81.007 73.2765H80.8895V71.1795H81.007V73.2765ZM80.8895 73.2765H80.7727V71.1795H80.8895V73.2765ZM80.7727 73.2765H80.6566V71.1795H80.7727V73.2765ZM80.6566 73.2765H80.5414V71.1795H80.6566V73.2765ZM80.5414 73.2765H80.4269V71.1795H80.5414V73.2765ZM80.4269 73.2765H80.3132V71.1795H80.4269V73.2765ZM80.3132 73.2765H80.2003V71.1795H80.3132V73.2765ZM80.2003 73.2765H80.0882V71.1795H80.2003V73.2765ZM80.0882 73.2765H79.9768V71.1795H80.0882V73.2765ZM79.9768 73.2765H79.8662V71.1795H79.9768V73.2765ZM79.8662 73.2765H79.7565V71.1795H79.8662V73.2765ZM79.7565 73.2765H79.6474V71.1795H79.7565V73.2765ZM79.6474 73.2765H79.5391V71.1795H79.6474V73.2765ZM79.5391 73.2765H79.4317V71.1795H79.5391V73.2765ZM79.4317 73.2765H79.3248V71.1795H79.4317V73.2765ZM79.3248 73.2765H79.2189V71.1795H79.3248V73.2765ZM79.2189 73.2765H79.1137V71.1795H79.2189V73.2765ZM79.1137 73.2765H79.0092V71.1795H79.1137V73.2765ZM79.0092 73.2765H78.9054V71.1795H79.0092V73.2765ZM78.9054 73.2765H78.8025V71.1795H78.9054V73.2765ZM78.8025 73.2765H78.7001V71.1795H78.8025V73.2765ZM78.7001 73.2765H78.5987V71.1795H78.7001V73.2765ZM78.5987 73.2765H78.498V71.1795H78.5987V73.2765ZM78.498 73.2765H78.3979V71.1795H78.498V73.2765ZM78.3979 73.2765H78.2986V71.1795H78.3979V73.2765ZM78.2986 73.2765H78.2V71.1795H78.2986V73.2765ZM78.2 73.2765H78.1022V71.1795H78.2V73.2765ZM78.1022 73.2765H78.005V71.1795H78.1022V73.2765ZM78.005 73.2765H77.9087V71.1795H78.005V73.2765ZM77.9087 73.2765H77.813V71.1795H77.9087V73.2765ZM77.813 73.2765H77.7181V71.1795H77.813V73.2765ZM77.7181 73.2765H77.6238V71.1795H77.7181V73.2765ZM77.6238 73.2765H77.5304V71.1795H77.6238V73.2765ZM77.5304 73.2765H77.4376V71.1795H77.5304V73.2765ZM77.4376 73.2765H77.3455V71.1795H77.4376V73.2765ZM77.3455 73.2765H77.2542V71.1795H77.3455V73.2765ZM77.2542 73.2765H77.1635V71.1795H77.2542V73.2765ZM77.1635 73.2765H77.0734V71.1795H77.1635V73.2765ZM77.0734 73.2765H76.9842V71.1795H77.0734V73.2765ZM76.9842 73.2765H76.8956V71.1795H76.9842V73.2765ZM76.8956 73.2765H76.8079V71.1795H76.8956V73.2765ZM76.8079 73.2765H76.7208V71.1795H76.8079V73.2765ZM76.7208 73.2765H76.6343V71.1795H76.7208V73.2765ZM76.6343 73.2765H76.5484V71.1795H76.6343V73.2765ZM76.5484 73.2765H76.4634V71.1795H76.5484V73.2765ZM76.4634 73.2765H76.379V71.1795H76.4634V73.2765ZM76.379 73.2765H76.2952V71.1795H76.379V73.2765ZM76.2952 73.2765H76.2121V71.1795H76.2952V73.2765ZM76.2121 73.2765H76.1297V71.1795H76.2121V73.2765ZM76.1297 73.2765H76.0481V71.1795H76.1297V73.2765ZM76.0481 73.2765H75.967V71.1795H76.0481V73.2765ZM75.967 73.2765H75.8866V71.1795H75.967V73.2765ZM75.8866 73.2765H75.8068V71.1795H75.8866V73.2765ZM75.8068 73.2765H75.7278V71.1795H75.8068V73.2765ZM75.7278 73.2765H75.6495V71.1795H75.7278V73.2765ZM75.6495 73.2765H75.5718V71.1795H75.6495V73.2765ZM75.5718 73.2765H75.4947V71.1795H75.5718V73.2765ZM75.4947 73.2765H75.4183V71.1795H75.4947V73.2765ZM75.4183 73.2765H75.3425V71.1795H75.4183V73.2765ZM75.3425 73.2765H75.2675V71.1795H75.3425V73.2765ZM75.2675 73.2765H75.193V71.1795H75.2675V73.2765ZM75.193 73.2765H75.1192V71.1795H75.193V73.2765ZM75.1192 73.2765H75.0459V71.1795H75.1192V73.2765ZM75.0459 73.2765H74.9735V71.1795H75.0459V73.2765ZM74.9735 73.2765H74.9016V71.1795H74.9735V73.2765ZM74.9016 73.2765H74.8302V71.1795H74.9016V73.2765ZM74.8302 73.2765H74.7596V71.1795H74.8302V73.2765ZM74.7596 73.2765H74.6897V71.1795H74.7596V73.2765ZM74.6897 73.2765H74.6204V71.1795H74.6897V73.2765ZM74.6204 73.2765H74.5517V71.1795H74.6204V73.2765ZM74.5517 73.2765H74.4834V71.1795H74.5517V73.2765ZM74.4834 73.2765H74.416V71.1795H74.4834V73.2765ZM74.416 73.2765H74.3491V71.1795H74.416V73.2765ZM74.3491 73.2765H74.2828V71.1795H74.3491V73.2765ZM74.2828 73.2765H74.2172V71.1795H74.2828V73.2765ZM74.2172 73.2765H74.1521V71.1795H74.2172V73.2765ZM74.1521 73.2765H74.0878V71.1795H74.1521V73.2765ZM74.0878 73.2765H74.0239V71.1795H74.0878V73.2765ZM74.0239 73.2765H73.9607V71.1795H74.0239V73.2765ZM73.9607 73.2765H73.898V71.1795H73.9607V73.2765ZM73.898 73.2765H73.836V71.1795H73.898V73.2765ZM73.836 73.2765H73.7747V71.1795H73.836V73.2765ZM73.7747 73.2765H73.7137V71.1795H73.7747V73.2765ZM73.7137 73.2765H73.6534V71.1795H73.7137V73.2765ZM73.6534 73.2765H73.5939V71.1795H73.6534V73.2765ZM73.5939 73.2765H73.5349V71.1795H73.5939V73.2765ZM73.5349 73.2765H73.4762V71.1795H73.5349V73.2765ZM73.4762 73.2765H73.4184V71.1795H73.4762V73.2765ZM73.4184 73.2765H73.361V71.1795H73.4184V73.2765ZM73.361 73.2765H73.3043V71.1795H73.361V73.2765ZM73.3043 73.2765H73.2482V71.1795H73.3043V73.2765ZM73.2482 73.2765H73.1927V71.1795H73.2482V73.2765ZM73.1927 73.2765H73.1376V71.1795H73.1927V73.2765ZM73.1376 73.2765H73.0831V71.1795H73.1376V73.2765ZM73.0831 73.2765H73.0291V71.1795H73.0831V73.2765ZM73.0291 73.2765H72.9759V71.1795H73.0291V73.2765ZM72.9759 73.2765H72.9231V71.1795H72.9759V73.2765ZM72.9231 73.2765H72.8708V71.1795H72.9231V73.2765ZM72.8708 73.2765H72.8192V71.1795H72.8708V73.2765ZM72.8192 73.2765H72.7681V71.1795H72.8192V73.2765ZM72.7681 73.2765H72.7175V71.1795H72.7681V73.2765ZM72.7175 73.2765H72.6676V71.1795H72.7175V73.2765ZM72.6676 73.2765H72.618V71.1795H72.6676V73.2765ZM72.618 73.2765H72.5692V71.1795H72.618V73.2765ZM72.5692 73.2765H72.5208V71.1795H72.5692V73.2765ZM72.5208 73.2765H72.4728V71.1795H72.5208V73.2765ZM72.4728 73.2765H72.4255V71.1795H72.4728V73.2765ZM72.4255 73.2765H72.3788V71.1795H72.4255V73.2765ZM72.3788 73.2765H72.3325V71.1795H72.3788V73.2765ZM72.3325 73.2765H72.2869V71.1795H72.3325V73.2765ZM72.2869 73.2765H72.2416V71.1795H72.2869V73.2765ZM72.2416 73.2765H72.197V71.1795H72.2416V73.2765ZM72.197 73.2765H72.1528V71.1795H72.197V73.2765ZM72.1528 73.2765H72.1093V71.1795H72.1528V73.2765ZM72.1093 73.2765H72.0661V71.1795H72.1093V73.2765ZM72.0661 73.2765H72.0234V71.1795H72.0661V73.2765ZM72.0234 73.2765H71.9813V71.1795H72.0234V73.2765ZM71.9813 73.2765H71.9398V71.1795H71.9813V73.2765ZM71.9398 73.2765H71.8986V71.1795H71.9398V73.2765ZM71.8986 73.2765H71.8582V71.1795H71.8986V73.2765ZM71.8582 73.2765H71.8179V71.1795H71.8582V73.2765ZM71.8179 73.2765H71.7784V71.1795H71.8179V73.2765ZM71.7784 73.2765H71.7394V71.1795H71.7784V73.2765ZM71.7394 73.2765H71.7009V71.1795H71.7394V73.2765ZM71.7009 73.2765H71.6628V71.1795H71.7009V73.2765ZM71.6628 73.2765H71.6251V71.1795H71.6628V73.2765ZM71.6251 73.2765H71.588V71.1795H71.6251V73.2765ZM71.588 73.2765H71.5513V71.1795H71.588V73.2765ZM71.5513 73.2765H71.5151V71.1795H71.5513V73.2765ZM71.5151 73.2765H71.4795V71.1795H71.5151V73.2765ZM71.4795 73.2765H71.4443V71.1795H71.4795V73.2765ZM71.4443 73.2765H71.4096V71.1795H71.4443V73.2765ZM71.4096 73.2765H71.3754V71.1795H71.4096V73.2765ZM71.3754 73.2765H71.3488V71.1795H71.3754V73.2765ZM71.3488 73.2765H71.3486V71.1795H71.3488V73.2765ZM71.3486 73.2765H71.3484V71.1795H71.3486V73.2765ZM71.3484 73.2765H71.348V71.1795H71.3484V73.2765ZM71.348 73.2765H71.3476V71.1795H71.348V73.2765ZM71.3476 73.2765H71.3465V71.1795H71.3476V73.2765ZM71.3465 73.2765H71.3455V71.1795H71.3465V73.2765ZM71.3455 73.2765H71.345V71.1795H71.3455V73.2765ZM71.345 73.2765H71.344V71.1795H71.345V73.2765ZM71.344 73.2765H71.3423V71.1795H71.344V73.2765ZM71.3423 73.2765H71.3421V71.1795H71.3423V73.2765ZM71.3421 73.2765H71.3415V71.1795H71.3421V73.2765ZM71.3415 73.2765H71.3404V71.1795H71.3415V73.2765ZM71.3404 73.2765H71.3402V71.1795H71.3404V73.2765ZM71.3402 73.2765H71.3384V71.1795H71.3402V73.2765ZM71.3384 73.2765H71.336V71.1795H71.3384V73.2765ZM71.336 73.2765H71.3358V71.1795H71.336V73.2765ZM71.3358 73.2765H71.3335V71.1795H71.3358V73.2765ZM71.3335 73.2765H71.3331V71.1795H71.3335V73.2765ZM71.3331 73.2765H71.3308V71.1795H71.3331V73.2765ZM71.3308 73.2765H71.3302V71.1795H71.3308V73.2765ZM71.3302 73.2765H71.3281V71.1795H71.3302V73.2765ZM71.3281 73.2765H71.327V71.1795H71.3281V73.2765ZM71.327 73.2765H71.3249V71.1795H71.327V73.2765ZM71.3249 73.2765H71.3235V71.1795H71.3249V73.2765ZM71.3235 73.2765H71.3218V71.1795H71.3235V73.2765ZM71.3218 73.2765H71.3199V71.1795H71.3218V73.2765ZM71.3199 73.2765H71.3182V71.1795H71.3199V73.2765ZM71.3182 73.2765H71.3157V71.1795H71.3182V73.2765ZM71.3157 73.2765H71.3147V71.1795H71.3157V73.2765ZM71.3147 73.2765H71.3115V71.1795H71.3147V73.2765ZM71.3115 73.2765H71.3107V71.1795H71.3115V73.2765ZM71.3107 73.2765H71.3082V71.1795H71.3107V73.2765ZM71.3082 73.2765H71.3069V71.1795H71.3082V73.2765ZM71.3069 73.2765H71.3025V71.1795H71.3069V73.2765ZM71.3025 73.2765H71.3021V71.1795H71.3025V73.2765ZM71.3021 73.2765H71.2981V71.1795H71.3021V73.2765ZM71.2981 73.2765H71.2971V71.1795H71.2981V73.2765ZM71.2971 73.2765H71.2935V71.1795H71.2971V73.2765ZM71.2935 73.2765H71.2916V71.1795H71.2935V73.2765ZM71.2916 73.2765H71.2887V71.1795H71.2916V73.2765ZM71.2887 73.2765H71.286V71.1795H71.2887V73.2765ZM71.286 73.2765H71.2839V71.1795H71.286V73.2765ZM71.2839 73.2765H71.2799V71.1795H71.2839V73.2765ZM71.2799 73.2765H71.2787V71.1795H71.2799V73.2765ZM71.2787 73.2765H71.2753V71.1795H71.2787V73.2765ZM71.2753 73.2765H71.2736V71.1795H71.2753V73.2765ZM71.2736 73.2765H71.2734V71.1795H71.2736V73.2765ZM71.2734 73.2765H71.268V71.1795H71.2734V73.2765ZM71.268 73.2765H71.2671V71.1795H71.268V73.2765ZM71.2671 73.2765H71.2623V71.1795H71.2671V73.2765ZM71.2623 73.2765H71.2602V71.1795H71.2623V73.2765ZM71.2602 73.2765H71.2567V71.1795H71.2602V73.2765ZM71.2567 73.2765H71.2531V71.1795H71.2567V73.2765ZM71.2531 73.2765H71.2506V71.1795H71.2531V73.2765ZM71.2506 73.2765H71.2456V71.1795H71.2506V73.2765ZM71.2456 73.2765H71.2445V71.1795H71.2456V73.2765ZM71.2445 73.2765H71.2431V71.1795H71.2445V73.2765ZM71.2431 73.2765H71.2382V71.1795H71.2431V73.2765ZM71.2382 73.2765H71.2378V71.1795H71.2382V73.2765ZM71.2378 73.2765H71.232V71.1795H71.2378V73.2765ZM71.232 73.2765H71.2299V71.1795H71.232V73.2765ZM71.2299 73.2765H71.2253V71.1795H71.2299V73.2765ZM71.2253 73.2765H71.2215V71.1795H71.2253V73.2765ZM71.2215 73.2765H71.2186V71.1795H71.2215V73.2765ZM71.2186 73.2765H71.2127V71.1795H71.2186V73.2765ZM71.2127 73.2765H71.2116V71.1795H71.2127V73.2765ZM71.2116 73.2765H71.211V71.1795H71.2116V73.2765ZM71.211 73.2765H71.2047V71.1795H71.211V73.2765ZM71.2047 73.2765H71.2039V71.1795H71.2047V73.2765ZM71.2039 73.2765H71.1976V71.1795H71.2039V73.2765ZM71.1976 73.2765H71.1945V71.1795H71.1976V73.2765ZM71.1945 73.2765H71.1903V71.1795H71.1945V73.2765ZM71.1903 73.2765H71.1848V71.1795H71.1903V73.2765ZM71.1848 73.2765H71.183V71.1795H71.1848V73.2765ZM71.183 73.2765H71.1796V71.1795H71.183V73.2765ZM71.1796 73.2765H71.1754V71.1795H71.1796V73.2765ZM71.1754 73.2765H71.175V71.1795H71.1754V73.2765ZM71.175 73.2765H71.1677V71.1795H71.175V73.2765ZM71.1677 73.2765H71.1647V71.1795H71.1677V73.2765ZM71.1647 73.2765H71.1597V71.1795H71.1647V73.2765ZM71.1597 73.2765H71.154V71.1795H71.1597V73.2765ZM71.154 73.2765H71.152V71.1795H71.154V73.2765ZM71.152 73.2765H71.1486V71.1795H71.152V73.2765ZM71.1486 73.2765H71.1438V71.1795H71.1486V73.2765ZM71.1438 73.2765H71.1432V71.1795H71.1438V73.2765ZM71.1432 73.2765H71.1356V71.1795H71.1432V73.2765ZM71.1356 73.2765H71.1318V71.1795H71.1356V73.2765ZM71.1318 73.2765H71.1272V71.1795H71.1318V73.2765ZM71.1272 73.2765H71.1203V71.1795H71.1272V73.2765ZM71.1203 73.2765H71.1189V71.1795H71.1203V73.2765ZM71.1189 73.2765H71.118V71.1795H71.1189V73.2765ZM71.118 73.2765H71.1103V71.1795H71.118V73.2765ZM71.1103 73.2765H71.1084V71.1795H71.1103V73.2765ZM71.1084 73.2765H71.1017V71.1795H71.1084V73.2765ZM71.1017 73.2765H71.0962V71.1795H71.1017V73.2765ZM71.0962 73.2765H71.0929V71.1795H71.0962V73.2765ZM71.0929 73.2765H71.0879V71.1795H71.0929V73.2765ZM71.0879 73.2765H71.0839V71.1795H71.0879V73.2765ZM71.0839 73.2765H71.0835V71.1795H71.0839V73.2765ZM71.0835 73.2765H71.0751V71.1795H71.0835V73.2765ZM71.0751 73.2765H71.0707V71.1795H71.0751V73.2765ZM71.0707 73.2765H71.0659V71.1795H71.0707V73.2765ZM71.0659 73.2765H71.0581V71.1795H71.0659V73.2765ZM71.0581 73.2765H71.0573V71.1795H71.0581V73.2765ZM71.0573 73.2765H71.0567V71.1795H71.0573V73.2765ZM71.0567 73.2765H71.0474V71.1795H71.0567V73.2765ZM71.0474 73.2765H71.0437V71.1795H71.0474V73.2765ZM71.0437 73.2765H71.038V71.1795H71.0437V73.2765ZM71.038 73.2765H71.0299V71.1795H71.038V73.2765ZM71.0299 73.2765H71.029V71.1795H71.0299V73.2765ZM71.029 73.2765H71.0286V71.1795H71.029V73.2765ZM71.0286 73.2765H71.019V71.1795H71.0286V73.2765ZM71.019 73.2765H71.0154V71.1795H71.019V73.2765ZM71.0154 73.2765H71.0093V71.1795H71.0154V73.2765ZM71.0093 73.2765H71.0007V71.1795H71.0093V73.2765ZM71.0007 73.2765H71.0003V71.1795H71.0007V73.2765ZM71.0003 73.2765H70.9997V71.1795H71.0003V73.2765ZM70.9997 73.2765H70.9899V71.1795H70.9997V73.2765ZM70.9899 73.2765H70.9857V71.1795H70.9899V73.2765ZM70.9857 73.2765H70.9798V71.1795H70.9857V73.2765ZM70.9798 73.2765H70.9718V71.1795H70.9798V73.2765ZM70.9718 73.2765H70.9704V71.1795H70.9718V73.2765ZM70.9704 73.2765H70.97V71.1795H70.9704V73.2765ZM70.97 73.2765H70.9599V71.1795H70.97V73.2765ZM70.9599 73.2765H70.9547V71.1795H70.9599V73.2765ZM70.9547 73.2765H70.9496V71.1795H70.9547V73.2765ZM70.9496 73.2765H70.944V71.1795H70.9496V73.2765ZM70.944 73.2765H70.9396V71.1795H70.944V73.2765ZM70.9396 73.2765H70.9385V71.1795H70.9396V73.2765ZM70.9385 73.2765H70.9291V71.1795H70.9385V73.2765ZM70.9291 73.2765H70.922V71.1795H70.9291V73.2765ZM70.922 73.2765H70.9189V71.1795H70.922V73.2765ZM70.9189 73.2765H70.9166V71.1795H70.9189V73.2765ZM70.9166 73.2765H70.9084V71.1795H70.9166V73.2765ZM70.9084 73.2765H70.905V71.1795H70.9084V73.2765ZM70.905 73.2765H70.8979V71.1795H70.905V73.2765ZM70.8979 73.2765H70.8895V71.1795H70.8979V73.2765ZM70.8895 73.2765H70.8879V71.1795H70.8895V73.2765ZM70.8879 73.2765H70.8874V71.1795H70.8879V73.2765ZM70.8874 73.2765H70.877V71.1795H70.8874V73.2765ZM70.877 73.2765H70.8703V71.1795H70.877V73.2765ZM70.8703 73.2765H70.8663V71.1795H70.8703V73.2765ZM70.8663 73.2765H70.8629V71.1795H70.8663V73.2765ZM70.8629 73.2765H70.8556V71.1795H70.8629V73.2765ZM70.8556 73.2765H70.8523V71.1795H70.8556V73.2765ZM70.8523 73.2765H70.8449V71.1795H70.8523V73.2765ZM70.8449 73.2765H70.8368V71.1795H70.8449V73.2765ZM70.8368 73.2765H70.834V71.1795H70.8368V73.2765ZM70.834 73.2765H70.8231V71.1795H70.834V73.2765ZM70.8231 73.2765H70.8152V71.1795H70.8231V73.2765ZM70.8152 73.2765H70.8123V71.1795H70.8152V73.2765ZM70.8123 73.2765H70.811V71.1795H70.8123V73.2765ZM70.811 73.2765H70.8014V71.1795H70.811V73.2765ZM70.8014 73.2765H70.7961V71.1795H70.8014V73.2765ZM70.7961 73.2765H70.7905V71.1795H70.7961V73.2765ZM70.7905 73.2765H70.7857V71.1795H70.7905V73.2765ZM70.7857 73.2765H70.7796V71.1795H70.7857V73.2765ZM70.7796 73.2765H70.7767V71.1795H70.7796V73.2765ZM70.7767 73.2765H70.7685V71.1795H70.7767V73.2765ZM70.7685 73.2765H70.7607V71.1795H70.7685V73.2765ZM70.7607 73.2765H70.7574V71.1795H70.7607V73.2765ZM70.7574 73.2765H70.7568V71.1795H70.7574V73.2765ZM70.7568 73.2765H70.7463V71.1795H70.7568V73.2765ZM70.7463 73.2765H70.7364V71.1795H70.7463V73.2765ZM70.7364 73.2765H70.7352V71.1795H70.7364V73.2765ZM70.7352 73.2765H70.7241V71.1795H70.7352V73.2765ZM70.7241 73.2765H70.7157V71.1795H70.7241V73.2765ZM70.7157 73.2765H70.713V71.1795H70.7157V73.2765ZM70.713 73.2765H70.7121V71.1795H70.713V73.2765ZM70.7121 73.2765H70.7019V71.1795H70.7121V73.2765ZM70.7019 73.2765H70.6906V71.1795H70.7019V73.2765ZM70.6906 73.2765H70.6885V71.1795H70.6906V73.2765ZM70.6885 73.2765H70.6795V71.1795H70.6885V73.2765ZM70.6795 73.2765H70.6684V71.1795H70.6795V73.2765ZM70.6684 73.2765H70.6652V71.1795H70.6684V73.2765ZM70.6652 73.2765H70.6571V71.1795H70.6652V73.2765ZM70.6571 73.2765H70.6458V71.1795H70.6571V73.2765ZM70.6458 73.2765H70.6424V71.1795H70.6458V73.2765ZM70.6424 73.2765H70.6347V71.1795H70.6424V73.2765ZM70.6347 73.2765H70.6233V71.1795H70.6347V73.2765ZM70.6233 73.2765H70.62V71.1795H70.6233V73.2765ZM70.62 73.2765H70.6122V71.1795H70.62V73.2765ZM70.6122 73.2765H70.6009V71.1795H70.6122V73.2765ZM70.6009 73.2765H70.598V71.1795H70.6009V73.2765ZM70.598 73.2765H70.5898V71.1795H70.598V73.2765ZM70.5898 73.2765H70.5785V71.1795H70.5898V73.2765ZM70.5785 73.2765H70.5764V71.1795H70.5785V73.2765ZM70.5764 73.2765H70.5674V71.1795H70.5764V73.2765ZM70.5674 73.2765H70.5563V71.1795H70.5674V73.2765ZM70.5563 73.2765H70.5551V71.1795H70.5563V73.2765ZM70.5551 73.2765H70.545V71.1795H70.5551V73.2765ZM70.545 73.2765H70.5343V71.1795H70.545V73.2765ZM70.5343 73.2765H70.5339V71.1795H70.5343V73.2765ZM70.5339 73.2765H70.5228V71.1795H70.5339V73.2765ZM70.5228 73.2765H70.5138V71.1795H70.5228V73.2765ZM70.5138 73.2765H70.5117V71.1795H70.5138V73.2765ZM70.5117 73.2765H70.5006V71.1795H70.5117V73.2765ZM70.5006 73.2765H70.4937V71.1795H70.5006V73.2765ZM70.4937 73.2765H70.4897V71.1795H70.4937V73.2765ZM70.4897 73.2765H70.4786V71.1795H70.4897V73.2765ZM70.4786 73.2765H70.4742V71.1795H70.4786V73.2765ZM70.4742 73.2765H70.4677V71.1795H70.4742V73.2765ZM70.4677 73.2765H70.4566V71.1795H70.4677V73.2765ZM70.4566 73.2765H70.455V71.1795H70.4566V73.2765ZM70.455 73.2765H70.4457V71.1795H70.455V73.2765ZM70.4457 73.2765H70.4359V71.1795H70.4457V73.2765ZM70.4359 73.2765H70.4351V71.1795H70.4359V73.2765ZM70.4351 73.2765H70.4242V71.1795H70.4351V73.2765ZM70.4242 73.2765H70.4175V71.1795H70.4242V73.2765ZM70.4175 73.2765H70.4135V71.1795H70.4175V73.2765ZM70.4135 73.2765H70.4026V71.1795H70.4135V73.2765ZM70.4026 73.2765H70.3995V71.1795H70.4026V73.2765ZM70.3995 73.2765H70.3919V71.1795H70.3995V73.2765ZM70.3919 73.2765H70.3817V71.1795H70.3919V73.2765ZM70.3817 73.2765H70.3708V71.1795H70.3817V73.2765ZM70.3708 73.2765H70.3643V71.1795H70.3708V73.2765ZM70.3643 73.2765H70.3603V71.1795H70.3643V73.2765ZM70.3603 73.2765H70.3498V71.1795H70.3603V73.2765ZM70.3498 73.2765H70.3473V71.1795H70.3498V73.2765ZM70.3473 73.2765H70.3396V71.1795H70.3473V73.2765ZM70.3396 73.2765H70.3306V71.1795H70.3396V73.2765ZM70.3306 73.2765H70.3293V71.1795H70.3306V73.2765ZM70.3293 73.2765H70.319V71.1795H70.3293V73.2765ZM70.319 73.2765H70.3144V71.1795H70.319V73.2765ZM70.3144 73.2765H70.3088V71.1795H70.3144V73.2765ZM70.3088 73.2765H70.2987V71.1795H70.3088V73.2765ZM70.2987 73.2765H70.2985V71.1795H70.2987V73.2765ZM70.2985 73.2765H70.2887V71.1795H70.2985V73.2765ZM70.2887 73.2765H70.2828V71.1795H70.2887V73.2765ZM70.2828 73.2765H70.2786V71.1795H70.2828V73.2765ZM70.2786 73.2765H70.2688V71.1795H70.2786V73.2765ZM70.2688 73.2765H70.2677V71.1795H70.2688V73.2765ZM70.2677 73.2765H70.2589V71.1795H70.2677V73.2765ZM70.2589 73.2765H70.2529V71.1795H70.2589V73.2765ZM70.2529 73.2765H70.2493V71.1795H70.2529V73.2765ZM70.2493 73.2765H70.2397V71.1795H70.2493V73.2765ZM70.2397 73.2765H70.2384V71.1795H70.2397V73.2765ZM70.2384 73.2765H70.2302V71.1795H70.2384V73.2765ZM70.2302 73.2765H70.2244V71.1795H70.2302V73.2765ZM70.2244 73.2765H70.2208V71.1795H70.2244V73.2765ZM70.2208 73.2765H70.2114V71.1795H70.2208V73.2765ZM70.2114 73.2765H70.2106V71.1795H70.2114V73.2765ZM70.2106 73.2765H70.2022V71.1795H70.2106V73.2765ZM70.2022 73.2765H70.1972V71.1795H70.2022V73.2765ZM70.1972 73.2765H70.193V71.1795H70.1972V73.2765ZM70.193 73.2765H70.1842V71.1795H70.193V73.2765ZM70.1842 73.2765H70.184V71.1795H70.1842V73.2765ZM70.184 73.2765H70.1749V71.1795H70.184V73.2765ZM70.1749 73.2765H70.1714V71.1795H70.1749V73.2765ZM70.1714 73.2765H70.1662V71.1795H70.1714V73.2765ZM70.1662 73.2765H70.159V71.1795H70.1662V73.2765ZM70.159 73.2765H70.1574V71.1795H70.159V73.2765ZM70.1574 73.2765H70.1488V71.1795H70.1574V73.2765ZM70.1488 73.2765H70.1469V71.1795H70.1488V73.2765ZM70.1469 73.2765H70.1404V71.1795H70.1469V73.2765ZM70.1404 73.2765H70.1352V71.1795H70.1404V73.2765ZM70.1352 73.2765H70.132V71.1795H70.1352V73.2765ZM70.132 73.2765H70.1238V71.1795H70.132V73.2765ZM70.1238 73.2765H70.1236V71.1795H70.1238V73.2765ZM70.1236 73.2765H70.1155V71.1795H70.1236V73.2765ZM70.1155 73.2765H70.1127V71.1795H70.1155V73.2765ZM70.1127 73.2765H70.1075V71.1795H70.1127V73.2765ZM70.1075 73.2765H70.1021V71.1795H70.1075V73.2765ZM70.1021 73.2765H70.0996V71.1795H70.1021V73.2765ZM70.0996 73.2765H70.0918V71.1795H70.0996V73.2765ZM70.0918 73.2765H70.0843V71.1795H70.0918V73.2765ZM70.0843 73.2765H70.0815V71.1795H70.0843V73.2765ZM70.0815 73.2765H70.0767V71.1795H70.0815V73.2765ZM70.0767 73.2765H70.0719V71.1795H70.0767V73.2765ZM70.0719 73.2765H70.0694V71.1795H70.0719V73.2765ZM70.0694 73.2765H70.0625V71.1795H70.0694V73.2765ZM70.0625 73.2765H70.0621V71.1795H70.0625V73.2765ZM70.0621 73.2765H70.0549V71.1795H70.0621V73.2765ZM70.0549 73.2765H70.0533V71.1795H70.0549V73.2765ZM70.0533 73.2765H70.048V71.1795H70.0533V73.2765ZM70.048 73.2765H70.0445V71.1795H70.048V73.2765ZM70.0445 73.2765H70.0413V71.1795H70.0445V73.2765ZM70.0413 73.2765H70.0359V71.1795H70.0413V73.2765ZM70.0359 73.2765H70.0346V71.1795H70.0359V73.2765ZM70.0346 73.2765H70.0281V71.1795H70.0346V73.2765ZM70.0281 73.2765H70.0277V71.1795H70.0281V73.2765ZM70.0277 73.2765H70.0216V71.1795H70.0277V73.2765ZM70.0216 73.2765H70.02V71.1795H70.0216V73.2765ZM70.02 73.2765H70.0156V71.1795H70.02V73.2765ZM70.0156 73.2765H70.0124V71.1795H70.0156V73.2765ZM70.0124 73.2765H70.0095V71.1795H70.0124V73.2765ZM70.0095 73.2765H70.0051V71.1795H70.0095V73.2765ZM70.0051 73.2765H70.0036V71.1795H70.0051V73.2765ZM70.0036 73.2765H69.9982V71.1795H70.0036V73.2765ZM69.9982 73.2765H69.998V71.1795H69.9982V73.2765ZM69.998 73.2765H69.9923V71.1795H69.998V73.2765ZM69.9923 73.2765H69.9915V71.1795H69.9923V73.2765ZM69.9915 73.2765H69.9869V71.1795H69.9915V73.2765ZM69.9869 73.2765H69.985V71.1795H69.9869V73.2765ZM69.985 73.2765H69.9819V71.1795H69.985V73.2765ZM69.9819 73.2765H69.9789V71.1795H69.9819V73.2765ZM69.9789 73.2765H69.9766V71.1795H69.9789V73.2765ZM69.9766 73.2765H69.9731V71.1795H69.9766V73.2765ZM69.9731 73.2765H69.9718V71.1795H69.9731V73.2765ZM69.9718 73.2765H69.9676V71.1795H69.9718V73.2765ZM69.9676 73.2765H69.9672V71.1795H69.9676V73.2765ZM69.9672 73.2765H69.9626V71.1795H69.9672V73.2765ZM69.9626 73.2765H69.9624V71.1795H69.9626V73.2765ZM69.9624 73.2765H69.9584V71.1795H69.9624V73.2765ZM69.9584 73.2765H69.9573V71.1795H69.9584V73.2765ZM69.9573 73.2765H69.9542V71.1795H69.9573V73.2765ZM69.9542 73.2765H69.9527V71.1795H69.9542V73.2765ZM69.9527 73.2765H69.9502V71.1795H69.9527V73.2765ZM69.9502 73.2765H69.9483V71.1795H69.9502V73.2765ZM69.9483 73.2765H69.9465V71.1795H69.9483V73.2765ZM69.9465 73.2765H69.9444V71.1795H69.9465V73.2765ZM69.9444 73.2765H69.9429V71.1795H69.9444V73.2765ZM69.9429 73.2765H69.9404V71.1795H69.9429V73.2765ZM69.9404 73.2765H69.9395V71.1795H69.9404V73.2765ZM69.9395 73.2765H69.9368V71.1795H69.9395V73.2765ZM69.9368 73.2765H69.9364V71.1795H69.9368V73.2765ZM69.9364 73.2765H69.9335V71.1795H69.9364V73.2765ZM69.9335 73.2765H69.9333V71.1795H69.9335V73.2765ZM69.9333 73.2765H69.9305V71.1795H69.9333V73.2765ZM69.9305 73.2765H69.928V71.1795H69.9305V73.2765ZM69.928 73.2765H69.9276V71.1795H69.928V73.2765ZM69.9276 73.2765H69.9255V71.1795H69.9276V73.2765ZM69.9255 73.2765H69.9251V71.1795H69.9255V73.2765ZM69.9251 73.2765H69.9234V71.1795H69.9251V73.2765ZM69.9234 73.2765H69.923V71.1795H69.9234V73.2765ZM69.923 73.2765H69.9215V71.1795H69.923V73.2765ZM69.9215 73.2765H69.9209V71.1795H69.9215V73.2765ZM69.9209 73.2765H69.9197V71.1795H69.9209V73.2765ZM69.9197 73.2765H69.9192V71.1795H69.9197V73.2765ZM69.9192 73.2765H69.9182V71.1795H69.9192V73.2765ZM69.9182 73.2765H69.9176V71.1795H69.9182V73.2765ZM69.9176 73.2765H69.9169V71.1795H69.9176V73.2765ZM69.9169 73.2765H69.9163V71.1795H69.9169V73.2765ZM69.9163 73.2765H69.9159V71.1795H69.9163V73.2765ZM69.9159 73.2765H69.9155V71.1795H69.9159V73.2765ZM69.9155 73.2765H69.915V71.1795H69.9155V73.2765ZM69.915 73.2765H69.9146V71.1795H69.915V73.2765ZM69.9146 73.2765H69.9142V71.1795H69.9146V73.2765ZM69.9142 73.2765H69.9138L69.914 71.1795H69.9142V73.2765ZM68.8666 72.228C68.8666 72.1552 68.8666 72.0822 68.8666 72.0183H70.961C70.961 72.0822 70.961 72.1552 70.961 72.228H68.8666ZM68.8666 72.0183C68.8666 71.9543 68.8666 71.8813 68.8666 71.8086H70.961C70.961 71.8813 70.961 71.9543 70.961 72.0183H68.8666ZM69.9138 70.7601H69.9142V72.8571H69.9138V70.7601ZM69.9142 70.7601H69.9146V72.8571H69.9142V70.7601ZM69.9146 70.7601H69.915V72.8571H69.9146V70.7601ZM69.915 70.7601H69.9155V72.8571H69.915V70.7601ZM69.9155 70.7601H69.9159V72.8571H69.9155V70.7601ZM69.9159 70.7601H69.9163V72.8571H69.9159V70.7601ZM69.9163 70.7601H69.9169V72.8571H69.9163V70.7601ZM69.9169 70.7601H69.9176V72.8571H69.9169V70.7601ZM69.9176 70.7601H69.9182V72.8571H69.9176V70.7601ZM69.9182 70.7601H69.9192V72.8571H69.9182V70.7601ZM69.9192 70.7601H69.9197V72.8571H69.9192V70.7601ZM69.9197 70.7601H69.9209V72.8571H69.9197V70.7601ZM69.9209 70.7601H69.9215V72.8571H69.9209V70.7601ZM69.9215 70.7601H69.923V72.8571H69.9215V70.7601ZM69.923 70.7601H69.9234V72.8571H69.923V70.7601ZM69.9234 70.7601H69.9251V72.8571H69.9234V70.7601ZM69.9251 70.7601H69.9255V72.8571H69.9251V70.7601ZM69.9255 70.7601H69.9276V72.8571H69.9255V70.7601ZM69.9276 70.7601H69.928V72.8571H69.9276V70.7601ZM69.928 70.7601H69.9305V72.8571H69.928V70.7601ZM69.9305 70.7601H69.9333V72.8571H69.9305V70.7601ZM69.9333 70.7601H69.9335V72.8571H69.9333V70.7601ZM69.9335 70.7601H69.9364V72.8571H69.9335V70.7601ZM69.9364 70.7601H69.9368V72.8571H69.9364V70.7601ZM69.9368 70.7601H69.9395V72.8571H69.9368V70.7601ZM69.9395 70.7601H69.9404V72.8571H69.9395V70.7601ZM69.9404 70.7601H69.9429V72.8571H69.9404V70.7601ZM69.9429 70.7601H69.9444V72.8571H69.9429V70.7601ZM69.9444 70.7601H69.9465V72.8571H69.9444V70.7601ZM69.9465 70.7601H69.9483V72.8571H69.9465V70.7601ZM69.9483 70.7601H69.9502V72.8571H69.9483V70.7601ZM69.9502 70.7601H69.9527V72.8571H69.9502V70.7601ZM69.9527 70.7601H69.9542V72.8571H69.9527V70.7601ZM69.9542 70.7601H69.9573V72.8571H69.9542V70.7601ZM69.9573 70.7601H69.9584V72.8571H69.9573V70.7601ZM69.9584 70.7601H69.9624V72.8571H69.9584V70.7601ZM69.9624 70.7601H69.9626V72.8571H69.9624V70.7601ZM69.9626 70.7601H69.9672V72.8571H69.9626V70.7601ZM69.9672 70.7601H69.9676V72.8571H69.9672V70.7601ZM69.9676 70.7601H69.9718V72.8571H69.9676V70.7601ZM69.9718 70.7601H69.9731V72.8571H69.9718V70.7601ZM69.9731 70.7601H69.9766V72.8571H69.9731V70.7601ZM69.9766 70.7601H69.9789V72.8571H69.9766V70.7601ZM69.9789 70.7601H69.9819V72.8571H69.9789V70.7601ZM69.9819 70.7601H69.985V72.8571H69.9819V70.7601ZM69.985 70.7601H69.9869V72.8571H69.985V70.7601ZM69.9869 70.7601H69.9915V72.8571H69.9869V70.7601ZM69.9915 70.7601H69.9923V72.8571H69.9915V70.7601ZM69.9923 70.7601H69.998V72.8571H69.9923V70.7601ZM69.998 70.7601H69.9982V72.8571H69.998V70.7601ZM69.9982 70.7601H70.0036V72.8571H69.9982V70.7601ZM70.0036 70.7601H70.0051V72.8571H70.0036V70.7601ZM70.0051 70.7601H70.0095V72.8571H70.0051V70.7601ZM70.0095 70.7601H70.0124V72.8571H70.0095V70.7601ZM70.0124 70.7601H70.0156V72.8571H70.0124V70.7601ZM70.0156 70.7601H70.02V72.8571H70.0156V70.7601ZM70.02 70.7601H70.0216V72.8571H70.02V70.7601ZM70.0216 70.7601H70.0277V72.8571H70.0216V70.7601ZM70.0277 70.7601H70.0281V72.8571H70.0277V70.7601ZM70.0281 70.7601H70.0346V72.8571H70.0281V70.7601ZM70.0346 70.7601H70.0359V72.8571H70.0346V70.7601ZM70.0359 70.7601H70.0413V72.8571H70.0359V70.7601ZM70.0413 70.7601H70.0445V72.8571H70.0413V70.7601ZM70.0445 70.7601H70.048V72.8571H70.0445V70.7601ZM70.048 70.7601H70.0533V72.8571H70.048V70.7601ZM70.0533 70.7601H70.0549V72.8571H70.0533V70.7601ZM70.0549 70.7601H70.0621V72.8571H70.0549V70.7601ZM70.0621 70.7601H70.0625V72.8571H70.0621V70.7601ZM70.0625 70.7601H70.0694V72.8571H70.0625V70.7601ZM70.0694 70.7601H70.0719V72.8571H70.0694V70.7601ZM70.0719 70.7601H70.0767V72.8571H70.0719V70.7601ZM70.0767 70.7601H70.0815V72.8571H70.0767V70.7601ZM70.0815 70.7601H70.0843V72.8571H70.0815V70.7601ZM70.0843 70.7601H70.0916V72.8571H70.0843V70.7601ZM70.0916 70.7601H70.0996V72.8571H70.0916V70.7601ZM70.0996 70.7601H70.1021V72.8571H70.0996V70.7601ZM70.1021 70.7601H70.1075V72.8571H70.1021V70.7601ZM70.1075 70.7601H70.1127V72.8571H70.1075V70.7601ZM70.1127 70.7601H70.1155V72.8571H70.1127V70.7601ZM70.1155 70.7601H70.1236V72.8571H70.1155V70.7601ZM70.1236 70.7601H70.1238V72.8571H70.1236V70.7601ZM70.1238 70.7601H70.132V72.8571H70.1238V70.7601ZM70.132 70.7601H70.1352V72.8571H70.132V70.7601ZM70.1352 70.7601H70.1404V72.8571H70.1352V70.7601ZM70.1404 70.7601H70.1469V72.8571H70.1404V70.7601ZM70.1469 70.7601H70.1488V72.8571H70.1469V70.7601ZM70.1488 70.7601H70.1574V72.8571H70.1488V70.7601ZM70.1574 70.7601H70.159V72.8571H70.1574V70.7601ZM70.159 70.7601H70.1662V72.8571H70.159V70.7601ZM70.1662 70.7601H70.1714V72.8571H70.1662V70.7601ZM70.1714 70.7601H70.1749V72.8571H70.1714V70.7601ZM70.1749 70.7601H70.184V72.8571H70.1749V70.7601ZM70.184 70.7601H70.1842V72.8571H70.184V70.7601ZM70.1842 70.7601H70.193V72.8571H70.1842V70.7601ZM70.193 70.7601H70.1972V72.8571H70.193V70.7601ZM70.1972 70.7601H70.2022V72.8571H70.1972V70.7601ZM70.2022 70.7601H70.2106V72.8571H70.2022V70.7601ZM70.2106 70.7601H70.2114V72.8571H70.2106V70.7601ZM70.2114 70.7601H70.2208V72.8571H70.2114V70.7601ZM70.2208 70.7601H70.2244V72.8571H70.2208V70.7601ZM70.2244 70.7601H70.2302V72.8571H70.2244V70.7601ZM70.2302 70.7601H70.2384V72.8571H70.2302V70.7601ZM70.2384 70.7601H70.2397V72.8571H70.2384V70.7601ZM70.2397 70.7601H70.2493V72.8571H70.2397V70.7601ZM70.2493 70.7601H70.2529V72.8571H70.2493V70.7601ZM70.2529 70.7601H70.2589V72.8571H70.2529V70.7601ZM70.2589 70.7601H70.2677V72.8571H70.2589V70.7601ZM70.2677 70.7601H70.2688V72.8571H70.2677V70.7601ZM70.2688 70.7601H70.2786V72.8571H70.2688V70.7601ZM70.2786 70.7601H70.2828V72.8571H70.2786V70.7601ZM70.2828 70.7601H70.2887V72.8571H70.2828V70.7601ZM70.2887 70.7601H70.2985V72.8571H70.2887V70.7601ZM70.2985 70.7601H70.2987V72.8571H70.2985V70.7601ZM70.2987 70.7601H70.3088V72.8571H70.2987V70.7601ZM70.3088 70.7601H70.3144V72.8571H70.3088V70.7601ZM70.3144 70.7601H70.319V72.8571H70.3144V70.7601ZM70.319 70.7601H70.3293V72.8571H70.319V70.7601ZM70.3293 70.7601H70.3306V72.8571H70.3293V70.7601ZM70.3306 70.7601H70.3396V72.8571H70.3306V70.7601ZM70.3396 70.7601H70.3473V72.8571H70.3396V70.7601ZM70.3473 70.7601H70.3498V72.8571H70.3473V70.7601ZM70.3498 70.7601H70.3603V72.8571H70.3498V70.7601ZM70.3603 70.7601H70.3643V72.8571H70.3603V70.7601ZM70.3643 70.7601H70.3708V72.8571H70.3643V70.7601ZM70.3708 70.7601H70.3815V72.8571H70.3708V70.7601ZM70.3815 70.7601H70.3919V72.8571H70.3815V70.7601ZM70.3919 70.7601H70.3995V72.8571H70.3919V70.7601ZM70.3995 70.7601H70.4026V72.8571H70.3995V70.7601ZM70.4026 70.7601H70.4135V72.8571H70.4026V70.7601ZM70.4135 70.7601H70.4175V72.8571H70.4135V70.7601ZM70.4175 70.7601H70.4242V72.8571H70.4175V70.7601ZM70.4242 70.7601H70.4317V72.8571H70.4242V70.7601ZM69.4319 72.1202C67.4494 65.7435 64.4991 58.6647 60.9647 53.5244L62.6898 52.3351C66.3911 57.7185 69.4174 65.0192 71.4315 71.497L69.4319 72.1202ZM60.9647 53.5244C59.1703 50.9146 57.2783 48.8832 55.3561 47.6727L56.4709 45.8976C58.7309 47.3204 60.8146 49.6079 62.6898 52.3351L60.9647 53.5244ZM55.3561 47.6727C53.465 46.482 51.5991 46.1127 49.7111 46.6907L49.0987 44.6855C51.6967 43.8899 54.1902 44.4615 56.4709 45.8976L55.3561 47.6727ZM49.7111 46.6907C47.5454 47.354 45.0854 49.3445 42.4641 53.4904L40.6946 52.3685C43.4352 48.0339 46.2429 45.5598 49.0987 44.6855L49.7111 46.6907ZM42.4641 53.4904C39.8544 57.6178 37.1766 63.7383 34.5155 72.3886L32.514 71.7715C35.2025 63.0314 37.946 56.7157 40.6946 52.3685L42.4641 53.4904ZM34.5155 72.3886C33.6543 75.1884 32.8664 77.8215 32.1519 80.2977L30.1398 79.7153C30.8584 77.2255 31.6499 74.5805 32.514 71.7715L34.5155 72.3886ZM32.1519 80.2977C30.9353 84.5125 29.8144 88.2774 28.8137 91.6379L26.8067 91.0388C27.8074 87.6778 28.926 83.9207 30.1398 79.7153L32.1519 80.2977ZM28.8137 91.6379C27.3992 96.3888 26.2291 100.319 25.3631 103.589L23.3387 103.051C24.2148 99.7439 25.3954 95.7787 26.8067 91.0388L28.8137 91.6379ZM25.3631 103.589C24.6232 106.382 24.1176 108.648 23.8717 110.496L21.7958 110.219C22.0593 108.239 22.5917 105.872 23.3387 103.051L25.3631 103.589ZM23.8717 110.496C23.6246 112.354 23.6543 113.694 23.9109 114.674L21.8851 115.206C21.5284 113.843 21.5334 112.191 21.7958 110.219L23.8717 110.496ZM23.9109 114.674C24.1543 115.603 24.6052 116.232 25.3143 116.71L24.1434 118.449C22.9913 117.671 22.2507 116.602 21.8851 115.206L23.9109 114.674ZM25.3143 116.71C26.0697 117.22 27.1873 117.606 28.828 117.867L28.4998 119.938C26.7292 119.657 25.2649 119.206 24.1434 118.449L25.3143 116.71ZM28.828 117.867C31.8335 118.344 36.139 118.344 42.1707 118.34L42.1724 120.437C36.2207 120.441 31.7104 120.448 28.4998 119.938L28.828 117.867ZM42.1707 118.34C42.7374 118.339 43.3186 118.339 43.9144 118.339L43.9146 120.436C43.3196 120.436 42.7391 120.436 42.1724 120.437L42.1707 118.34ZM43.1764 118.643C44.2338 117.591 45.3859 116.29 46.3635 114.936L48.0608 116.165C47.005 117.627 45.7752 119.014 44.6527 120.131L43.1764 118.643ZM46.3635 114.936C47.3709 113.541 48.1372 112.165 48.4687 110.994L50.4837 111.566C50.0554 113.079 49.1285 114.686 48.0608 116.165L46.3635 114.936ZM48.4687 110.994C48.8005 109.821 48.6352 109.126 48.2239 108.693L49.7425 107.249C50.8827 108.451 50.9118 110.053 50.4837 111.566L48.4687 110.994ZM48.2239 108.693C47.9106 108.363 47.3005 108.004 46.1445 107.801L46.5059 105.736C47.9209 105.984 49.0126 106.479 49.7425 107.249L48.2239 108.693Z" fill="white"/>
</g>
<defs>
<clipPath id="clip0_12_1125">
<rect width="262" height="121" fill="white"/>
</clipPath>
</defs>
</svg>
