<svg width="174" height="25" viewBox="0 0 174 25" fill="none" xmlns="http://www.w3.org/2000/svg">
<g clip-path="url(#clip0_5_60)">
<path d="M46.8164 4.97431C47.4524 6.14974 47.3334 7.62792 46.5386 8.73667C46.4249 8.89651 46.2034 8.93568 46.0387 8.82661C45.874 8.7176 45.8251 8.49958 45.9293 8.33391C46.4961 7.42839 46.519 6.28203 45.9712 5.41568C45.4304 4.54404 44.3891 3.9894 43.3218 3.99946C43.1412 3.99893 42.959 4.01004 42.7731 4.03386C43.0387 4.24344 43.2836 4.46413 43.5046 4.69487C44.7425 5.98568 45.4277 7.67448 45.4665 9.44635C45.483 10.3386 45.3401 11.1997 45.0447 12.0068C44.7207 12.8668 44.2202 13.6379 43.597 14.2397C42.8915 14.9573 42.0171 15.4447 41.1261 15.6078C40.173 15.7707 39.1886 15.5877 38.3412 15.0949C37.9205 14.8488 37.5523 14.5122 37.2756 14.1206C37.0035 13.7364 36.8165 13.2791 36.7358 12.7991L36.7199 12.6249C36.7034 12.4508 36.6875 12.2704 36.7071 12.0724C36.7257 11.8354 36.7767 11.5945 36.858 11.3648C37.0386 10.8547 37.368 10.4218 37.7856 10.1455C38.2573 9.82583 38.8688 9.71734 39.4585 9.85229C39.8187 9.93484 40.138 10.1047 40.3813 10.3381C40.3521 9.99463 40.2443 9.66443 40.062 9.37016C39.6153 8.65359 38.7875 8.12115 37.7909 7.91C37.4955 7.84542 37.1799 7.80359 36.8484 7.7851L36.4277 8.1513C34.989 9.40828 33.5185 10.6938 32.0447 11.9258C30.9583 12.8854 30.112 13.5935 29.2928 14.2243C28.8503 14.5762 28.3876 14.9049 27.8313 15.2886L27.2453 15.6596C27.155 15.7178 27.0642 15.7755 26.9776 15.8194L25.1437 16.7848C25.0077 16.8567 24.8414 16.8324 24.7282 16.726C24.615 16.6196 24.5806 16.454 24.6427 16.3137C25.2058 15.0415 25.7121 13.776 25.7456 13.5781L25.7796 13.4479C25.1177 13.9343 24.5279 14.3545 23.9632 14.7419C23.4442 15.0981 22.9772 15.4014 22.5346 15.6691L22.3546 15.7755C22.1633 15.8919 21.9694 15.9972 21.7685 16.1073L21.6469 16.1756C21.556 16.228 21.4647 16.2804 21.368 16.3238L20.9748 16.4979C20.7974 16.5768 20.5977 16.5027 20.5121 16.3328C20.4266 16.1624 20.4872 15.9528 20.6519 15.8539L21.0184 15.6331C21.0848 15.5924 21.1486 15.5442 21.2123 15.4961L21.3436 15.3997C21.5067 15.2881 21.657 15.1573 21.8116 15.0436L21.9975 14.9028C22.4284 14.5683 22.8529 14.219 23.2726 13.8649C23.9882 13.2527 24.6953 12.6467 25.3997 12.0439L26.1424 11.4072C26.1637 11.15 26.1764 10.8928 26.1796 10.6371C24.6714 11.8523 23.3586 12.8684 22.0793 13.8073C21.5943 14.1614 21.1018 14.5344 20.611 14.9102L19.5628 15.6882C19.0602 16.0539 18.5587 16.4191 18.0423 16.7646C17.5095 17.1404 16.9521 17.4977 16.3964 17.8549L15.4556 18.4397C14.9153 18.7663 14.358 19.1028 13.7869 19.4077C13.2254 19.7299 12.6304 20.0279 12.0555 20.3164C11.7134 20.472 11.3792 20.6567 11.0435 20.8318C10.4723 21.1208 9.8832 21.4187 9.27859 21.6765C8.5609 21.9993 7.77942 22.3449 6.96125 22.6678C5.98053 23.0483 5.12256 23.2367 4.32832 23.2462C3.32264 23.2664 2.39294 23.0393 1.64227 22.5905C0.79809 22.1036 0.194577 21.2605 0.0421055 20.3354C-0.0439588 19.8454 0.00226144 19.3542 0.177578 18.9186C0.331112 18.5344 0.638178 18.0237 1.21779 17.7787C1.49086 17.6464 1.85052 17.639 2.16024 17.7681C2.4434 17.8861 2.65644 18.1052 2.74463 18.3687C2.74941 18.3841 2.76535 18.4381 2.7696 18.4534C2.81051 18.6006 2.80148 18.7451 2.74941 18.8795C2.68141 19.1171 2.47156 19.3256 2.19849 19.4082C1.76977 19.5384 1.31395 19.3198 1.16413 18.9192C1.094 19.0345 1.04725 19.1494 1.01803 19.2352C0.916562 19.5347 0.902219 19.8644 0.976595 20.1862C1.043 20.4973 1.19069 20.8065 1.40373 21.0874C1.60773 21.3447 1.87018 21.5606 2.18043 21.7241C2.78182 22.0465 3.52186 22.1904 4.32248 22.1401C4.98921 22.1036 5.69685 21.9157 6.55646 21.5511C7.36182 21.2029 8.18422 20.8102 8.81109 20.5069C9.38963 20.2412 9.95703 19.9343 10.5069 19.6373L11.3447 19.1716C11.9397 18.8557 12.5565 18.5286 13.1398 18.1777C14.5339 17.3659 15.9141 16.4693 17.2518 15.5082C18.5342 14.6001 19.8502 13.5871 21.1752 12.5223C22.3529 11.639 23.6121 10.6493 25.0342 9.49292C25.3317 9.24948 25.6271 9.00818 25.923 8.7663L26.024 8.68375L26.0134 8.62078C25.9352 8.16349 25.8173 7.69937 25.6622 7.23573C24.8116 8.09786 24.0052 8.85891 23.203 9.55646C22.2908 10.3709 21.3148 11.132 20.3124 11.9566C19.3099 12.7816 18.2623 13.5924 17.1758 14.3836C15.1145 15.8956 12.9103 17.287 10.6461 18.6281C10.4798 18.7318 10.2625 18.6842 10.1568 18.5202C10.0511 18.3561 10.0946 18.1348 10.2561 18.0216C12.4104 16.5519 14.5179 15.0828 16.483 13.5035C18.5587 11.8644 20.4649 10.118 22.2048 8.54505C23.0532 7.76338 23.9085 6.90495 24.8255 5.91792L25.7844 4.8891C25.8465 4.82295 25.9703 4.73986 26.0612 4.73033C26.2306 4.71181 26.4049 4.82824 26.4633 4.98225L26.8931 5.93172C26.9871 6.1413 27.0291 6.25401 27.0647 6.35245L27.1163 6.48635C27.2448 6.83036 27.3548 7.17437 27.4456 7.51729L28.8721 6.335L29.839 5.53422C30.1758 5.25797 30.5216 4.98543 30.8791 4.73245C31.6872 4.1921 32.4459 3.76447 33.1965 3.4247C34.0455 3.03413 34.9258 2.74146 35.8082 2.55676C36.246 2.46414 36.7034 2.40116 37.2054 2.36411C37.7144 2.3403 38.1904 2.35141 38.6313 2.39693C39.5956 2.49854 40.5226 2.75787 41.3864 3.16749C42.0782 2.9251 42.7582 2.87165 43.3888 2.90023C44.8349 2.96321 46.1842 3.77771 46.8164 4.97431ZM34.3318 8.01953C33.9716 8.10104 33.6189 8.2 33.2794 8.31594C33.0387 8.39849 32.8007 8.48953 32.5675 8.59005L32.219 8.74672L31.9082 8.91609C31.1958 9.34318 30.4701 9.91052 29.7672 10.4366L29.3019 10.7885C28.7876 11.1802 28.2691 11.5749 27.7479 11.9719L27.7357 12.0889C27.6794 12.5556 27.5853 13.0452 27.443 13.6067C27.732 13.4051 28.0199 13.1971 28.3036 12.9758C29.3168 12.2111 30.2879 11.3934 31.0242 10.7657L31.0247 10.7652L31.8466 10.0608L32.6775 9.38338C33.2326 8.92557 33.7857 8.46937 34.3318 8.01953ZM37.9359 5.11191C38.1893 4.92615 38.439 4.74409 38.6919 4.55886L38.855 4.44931C39.0287 4.33235 39.203 4.21592 39.3825 4.10742C39.0181 4.01904 38.6505 3.96082 38.2833 3.93277C36.9201 3.82428 35.3646 4.1614 33.8075 4.90657C33.1189 5.23682 32.432 5.63797 31.7674 6.09948C31.437 6.32547 31.1235 6.55724 30.8133 6.82083L29.8533 7.62052C29.1616 8.19156 28.4699 8.76312 27.7755 9.3363C27.7973 9.55224 27.8132 9.76974 27.8228 9.98828L28.3302 9.57073C28.7637 9.21828 29.2031 8.87057 29.6509 8.52865C30.1152 8.17937 30.5742 7.84068 31.0885 7.52417L31.2171 7.44901C31.3122 7.39083 31.4083 7.34161 31.5044 7.29448C31.6474 7.23151 31.7855 7.1712 31.9236 7.11031C32.2052 6.99443 32.4899 6.89068 32.7789 6.79911C33.3437 6.61865 33.943 6.48266 34.5576 6.39318C35.2121 6.30375 35.8422 6.27094 36.4346 6.29531L36.5004 6.2413C36.9706 5.86182 37.4488 5.485 37.9359 5.11191ZM42.2742 5.61255L42.2736 5.61203C41.8858 5.24953 41.4289 4.93462 40.9126 4.67106C40.6634 4.80231 40.4142 4.94732 40.1683 5.10345C39.9956 5.21193 39.8352 5.32891 39.6747 5.44589L39.4548 5.60516L38.7689 6.15078L38.2509 6.5837C39.5674 6.9674 40.6002 7.79781 41.0895 8.86208C41.3551 9.43734 41.4374 10.0989 41.3254 10.7234C41.2271 11.2659 40.98 11.7803 40.6278 12.1772C40.5991 12.228 40.5678 12.2772 40.5338 12.3233C40.2262 12.7673 39.7034 13.0441 39.2035 13.0193C39.127 13.0155 39.094 13.0129 39.0611 13.0081C39.0393 13.0044 39.0181 12.9991 38.9979 12.9922C38.5819 12.9018 38.2547 12.5752 38.184 12.1624C38.0863 11.5977 38.4868 11.0558 39.0765 10.9542C39.4192 10.8954 39.7496 10.9976 39.985 11.2045C39.9744 11.1817 39.9622 11.1606 39.9483 11.1399C39.8012 10.9118 39.5377 10.7563 39.221 10.707C39.076 10.6848 38.9315 10.6864 38.7949 10.7096C38.6111 10.7414 38.4433 10.8129 38.312 10.9197C38.0671 11.106 37.8865 11.3818 37.7941 11.7046C37.7494 11.8586 37.7256 12.0184 37.7229 12.1804C37.7207 12.2571 37.7256 12.3302 37.7372 12.4038L37.7516 12.5244C37.7558 12.5662 37.759 12.608 37.7697 12.6482C37.8992 13.2865 38.3429 13.8422 38.9591 14.1587C39.5701 14.4783 40.3271 14.5731 40.9822 14.4207C41.6186 14.2651 42.2423 13.8713 42.7391 13.3119C43.2018 12.7848 43.5641 12.155 43.784 11.4707C43.8908 11.133 43.9642 10.7869 44.0003 10.4429C44.0417 10.1095 44.0486 9.76552 44.0226 9.38443C43.9221 7.9624 43.2916 6.58687 42.2742 5.61255ZM172.392 24.3227C171.651 24.7757 170.723 25.0112 169.712 24.9996C168.917 24.9964 168.053 24.8154 167.067 24.4428C166.24 24.1258 165.452 23.7866 164.722 23.4674C164.119 23.2171 163.524 22.9234 162.949 22.6403L161.935 22.119C161.359 21.8279 160.76 21.531 160.187 21.2018C159.622 20.9012 159.062 20.5635 158.519 20.2359L157.573 19.6485C157.018 19.2923 156.463 18.9361 155.925 18.5567C155.413 18.2147 154.91 17.8485 154.406 17.4818L153.371 16.7128C152.879 16.3386 152.385 15.9644 151.904 15.5755C150.655 14.6334 149.32 13.5882 147.841 12.3725C147.843 12.6276 147.852 12.8848 147.87 13.1426L148.624 13.8009C149.317 14.4043 150.013 15.0103 150.715 15.6226C151.134 15.9756 151.557 16.3302 151.985 16.6901L152.163 16.8356C152.315 16.9594 152.466 17.0843 152.626 17.196L152.758 17.2934C152.822 17.341 152.885 17.3897 152.954 17.431L153.319 17.6517C153.483 17.7506 153.544 17.9602 153.456 18.1301C153.37 18.2999 153.172 18.3778 152.991 18.2947L152.6 18.1211C152.501 18.0772 152.411 18.0258 152.319 17.9734L152.197 17.9041C151.997 17.7967 151.806 17.6744 151.617 17.5521L151.444 17.441C151.001 17.16 150.535 16.8583 150.017 16.4947C149.453 16.102 148.867 15.6776 148.212 15.1876L148.237 15.2802C148.275 15.5135 148.769 16.7827 149.322 18.0602C149.383 18.201 149.348 18.3667 149.233 18.472C149.119 18.5773 148.951 18.599 148.816 18.527L146.981 17.5437C146.899 17.5014 146.809 17.4426 146.72 17.3839L146.148 17.0166C145.69 16.6948 145.17 16.3265 144.68 15.9284C143.871 15.2949 143.032 14.5799 141.958 13.6125L140.872 12.6212C140.507 12.2984 140.145 11.9756 139.783 11.6538C139.058 11.0007 138.338 10.353 137.631 9.71521L137.241 9.36276C136.909 9.37599 136.593 9.4125 136.298 9.47229C135.297 9.66812 134.459 10.1878 133.995 10.8976C133.808 11.1865 133.693 11.5141 133.656 11.857C133.904 11.6284 134.228 11.4633 134.59 11.3866C135.181 11.2611 135.792 11.3781 136.261 11.7078C136.669 11.9872 136.99 12.4249 137.161 12.9378C137.238 13.1695 137.284 13.4109 137.299 13.6548C137.315 13.8433 137.295 14.0221 137.277 14.1952L137.261 14.3381C137.167 14.8509 136.971 15.3045 136.691 15.6845C136.406 16.0714 136.031 16.4021 135.605 16.6408C134.744 17.1198 133.752 17.287 132.803 17.1097C131.907 16.9314 131.038 16.4323 130.346 15.7019C129.738 15.0669 129.262 14.2466 128.958 13.3913C128.681 12.5768 128.559 11.7131 128.598 10.8219C128.68 9.05312 129.409 7.37385 130.673 6.11906C130.898 5.89943 131.146 5.69089 131.414 5.49453C131.232 5.4612 131.054 5.44005 130.878 5.43104C129.812 5.38344 128.757 5.92693 128.197 6.78057C127.627 7.63745 127.619 8.78323 128.163 9.69932C128.263 9.86714 128.208 10.0841 128.041 10.1894C127.874 10.2958 127.654 10.2514 127.544 10.0894C126.776 8.96474 126.698 7.485 127.364 6.32333C128.024 5.14367 129.392 4.35722 130.841 4.32229C131.462 4.31859 132.128 4.43872 132.814 4.68006C133.685 4.28366 134.613 4.03862 135.574 3.9513C136.015 3.91266 136.49 3.90843 136.986 3.93859C137.494 3.98411 137.947 4.0545 138.382 4.15188C139.255 4.34875 140.125 4.65359 140.966 5.0574C141.704 5.40245 142.451 5.8412 143.235 6.4313C143.587 6.69484 143.929 6.96479 144.26 7.24474L145.212 8.05182L146.616 9.24312C146.712 8.90125 146.825 8.56094 146.953 8.22698L147.01 8.08463C147.048 7.9862 147.091 7.87401 147.188 7.66391L147.628 6.71495C147.695 6.5726 147.871 6.45036 148.031 6.46943C148.126 6.47896 148.206 6.52234 148.267 6.58953L149.247 7.66547C150.148 8.65885 150.991 9.52365 151.826 10.308C152.683 11.1066 153.58 11.9586 154.526 12.8002C155.472 13.6406 156.465 14.4757 157.499 15.3003C158.48 16.0824 159.494 16.8509 160.536 17.6008C161.575 18.3571 162.651 19.0621 163.724 19.8242C163.885 19.9358 163.93 20.156 163.825 20.3211C163.72 20.4857 163.5 20.536 163.335 20.4333C161.07 19.0743 158.861 17.6951 156.803 16.1798C154.632 14.6139 152.639 12.8996 150.82 11.3109C150.026 10.607 149.23 9.83958 148.397 8.97427C148.237 9.43422 148.114 9.89677 148.031 10.3503L148.019 10.4186L148.111 10.4964L148.995 11.2346C150.397 12.4096 151.653 13.3765 152.813 14.3148C154.13 15.3892 155.445 16.3936 156.723 17.3023C158.06 18.264 159.443 19.1616 160.836 19.9713C161.424 20.3312 162.048 20.6408 162.639 20.9832L163.481 21.441C164.033 21.7326 164.605 22.0348 165.18 22.292C165.818 22.5931 166.646 22.9784 167.459 23.3203C168.323 23.6781 169.035 23.858 169.701 23.8898C170.507 23.9332 171.246 23.7829 171.842 23.4553C172.152 23.2875 172.412 23.0684 172.617 22.8038C172.823 22.5275 172.965 22.2163 173.027 21.9099C173.098 21.5807 173.079 21.251 172.974 20.9504C172.944 20.8662 172.896 20.7514 172.825 20.6376C172.681 21.0404 172.228 21.2632 171.799 21.1372C171.526 21.0573 171.314 20.8514 171.232 20.5857C171.188 20.4778 171.178 20.3339 171.212 20.1957C171.217 20.1782 171.247 20.0846 171.255 20.0676C171.327 19.8374 171.536 19.6167 171.818 19.4955C172.126 19.3637 172.484 19.3643 172.775 19.5034C173.341 19.7358 173.653 20.2439 173.811 20.627C173.991 21.0605 174.043 21.5516 173.964 22.047C173.825 22.9742 173.235 23.8242 172.392 24.3227ZM135.865 8.14182L135.352 7.69724L134.472 6.98698C134.314 6.8674 134.155 6.74672 133.986 6.63609C133.742 6.47469 133.497 6.32599 133.252 6.19156C132.731 6.44667 132.268 6.75469 131.872 7.11031C130.839 8.03438 130.178 9.38021 130.043 10.8017C130.006 11.1817 130.005 11.5279 130.038 11.8581C130.065 12.2132 130.13 12.5652 130.228 12.9102C130.429 13.6136 130.776 14.264 131.229 14.7906C131.716 15.3574 132.332 15.7602 132.972 15.9264C133.631 16.0926 134.386 16.0052 135.002 15.6972C135.628 15.3897 136.084 14.8409 136.22 14.2291C136.237 14.1682 136.24 14.1269 136.245 14.0867L136.263 13.9613C136.275 13.8893 136.282 13.8152 136.282 13.7411C136.282 13.5771 136.261 13.4167 136.22 13.2632C136.133 12.9393 135.957 12.6604 135.725 12.4784C135.492 12.2809 135.151 12.1963 134.81 12.2444C134.493 12.2884 134.226 12.4397 134.078 12.6594C134.063 12.681 134.049 12.7038 134.038 12.7277C134.277 12.526 134.61 12.4297 134.95 12.4937C135.539 12.6043 135.928 13.1521 135.82 13.7147C135.74 14.1264 135.406 14.4471 134.987 14.5307C134.967 14.5376 134.946 14.5424 134.925 14.5456C134.922 14.5461 134.915 14.5466 134.909 14.5471L134.9 14.5482C134.873 14.5498 134.835 14.5519 134.826 14.5524C134.281 14.5699 133.762 14.2878 133.459 13.8327C133.43 13.7909 133.401 13.7427 133.373 13.6919C133.028 13.2907 132.792 12.7731 132.705 12.2296C132.606 11.603 132.703 10.9436 132.982 10.3736C133.494 9.31989 134.543 8.50646 135.865 8.14182ZM139.867 8.06187C140.369 8.15609 140.855 8.28312 141.319 8.43922C141.607 8.5313 141.886 8.65042 142.161 8.77953C142.299 8.84833 142.434 8.91552 142.569 8.98276C142.667 9.0399 142.763 9.09547 142.857 9.15052L142.976 9.22146C143.494 9.54693 143.946 9.8888 144.402 10.2397C144.847 10.5858 145.281 10.9372 145.709 11.2923L146.21 11.7136C146.222 11.4945 146.241 11.2775 146.266 11.0627C145.581 10.4847 144.899 9.90839 144.217 9.33312L143.27 8.52604C142.964 8.26724 142.659 8.0137 142.34 7.77344C141.692 7.26802 141.008 6.88062 140.33 6.5324C138.794 5.76604 137.254 5.4051 135.892 5.49401C135.525 5.51625 135.157 5.56917 134.792 5.65224C134.969 5.76396 135.142 5.88406 135.315 6.00474L135.461 6.10635C135.718 6.30161 135.962 6.4874 136.208 6.6737C136.69 7.05578 137.159 7.44005 137.62 7.82583L137.686 7.88089C138.276 7.865 138.904 7.90734 139.553 8.0063L139.867 8.06187ZM146.546 15.3309C146.408 14.7662 146.319 14.2783 146.269 13.8094L146.258 13.694C145.743 13.2939 145.228 12.8943 144.718 12.498L144.258 12.1428C143.565 11.6067 142.845 11.0521 142.134 10.5906L141.82 10.4011C141.727 10.3535 141.614 10.2963 141.499 10.2381C141.269 10.1217 141.031 10.0359 140.792 9.94703C140.456 9.82635 140.107 9.72208 139.749 9.63531C140.285 10.0962 140.83 10.5626 141.375 11.0304C141.916 11.5078 142.458 11.9867 142.997 12.462C143.723 13.0939 144.682 13.9173 145.686 14.689C145.968 14.9134 146.254 15.124 146.546 15.3309ZM148.274 8.37943L148.271 8.37042L148.265 8.37677L148.274 8.37943ZM148.284 8.3662H148.279L148.28 8.37151L148.284 8.3662ZM59.4892 6.71443C59.5148 6.72026 60.0018 6.8674 60.5003 7.25693C60.9993 7.64588 61.5077 8.27781 61.584 9.25161C61.7512 11.4458 59.8241 12.5377 58.1484 12.6837C56.6963 12.8102 55.3106 12.3048 54.056 11.7713C53.4201 12.6964 52.6504 13.2283 51.4937 13.3776C50.1778 13.5485 48.8316 12.9939 48.6807 11.8544C48.5218 10.6493 49.5705 9.78505 50.5178 9.66229C51.3662 9.55219 52.2205 9.77292 53.0632 10.0772L53.2074 9.7438C53.9128 7.98463 54.6856 3.66709 55.3341 3.17067C56.0865 2.5774 56.9304 2.35459 57.3171 2.32124C57.5522 2.3006 57.6118 2.39428 57.6233 2.52553C57.6358 2.65626 57.1107 3.21301 56.793 4.11483C56.6336 4.59008 55.8456 8.055 54.973 10.0597C54.8685 10.3159 54.7598 10.5398 54.6527 10.7631C55.6021 11.1912 56.5202 11.5395 57.4122 11.4617C58.6108 11.3569 59.6047 10.3799 59.4876 9.00552C59.3962 7.94229 58.7791 7.33682 58.3125 7.32781C58.3125 7.32781 57.8521 7.56599 57.49 7.59776C57.013 7.63953 56.5908 7.39609 56.549 6.97115C56.503 6.49693 56.875 6.20109 57.3223 6.16193C57.7858 6.12115 58.3652 6.25187 58.3652 6.25187C58.3652 6.25187 59.8497 5.31464 59.717 3.69409C59.5947 2.20481 58.0434 1.53215 56.5254 1.66499C54.9662 1.80259 53.778 2.3276 53.0157 3.07382C52.2554 3.84862 51.9161 4.81978 52.0292 5.80682C52.144 6.80229 52.9853 7.00766 53.0089 7.21984C53.0345 7.44849 52.9279 7.54479 52.698 7.575C51.8295 7.68719 49.9918 7.11401 49.8303 5.82641C49.5201 3.41147 52.85 0.987568 56.4695 0.730359C59.044 0.504904 61.4946 1.3628 61.6503 3.47604C61.7925 5.3924 59.5989 6.67208 59.4892 6.71443ZM52.5464 11.1881C51.8953 10.9579 51.3019 10.8197 50.7823 10.8869C50.2787 10.952 49.9685 11.3733 50.0237 11.8131C50.079 12.2529 50.5512 12.49 51.0671 12.4228C51.729 12.3371 52.1392 11.9364 52.5464 11.1881ZM126.216 12.7478C126.192 12.8938 126.007 13.1151 126.007 13.1151C126.007 13.1151 124.864 14.3709 122.985 14.0867C122.839 14.065 122.665 14.0221 122.49 13.9787C121.933 14.2931 121.32 14.4498 120.678 14.3524C119.651 14.1968 119.185 13.2791 119.185 13.2791C118.682 14.183 117.861 16.5334 117.692 17.8035C117.657 18.064 117.565 18.1476 117.343 18.1237C116.74 18.056 115.933 17.684 116.044 16.8044C116.119 16.2211 116.699 14.5392 117.413 12.7345C116.92 12.9679 116.278 13.1452 115.487 13.0558C115.293 13.0335 115.085 12.9939 114.863 12.9356C114.296 13.2844 113.638 13.458 112.945 13.3791C111.933 13.2643 111.08 12.571 110.778 11.6887C110.234 12.2275 109.294 12.9647 108.265 12.8478C107.042 12.6917 106.28 11.9364 106.376 10.8605C106.481 9.68292 107.444 8.5525 107.502 7.94755C107.533 7.62052 107.415 7.46385 107.183 7.44635C106.026 7.35958 104.543 9.20823 104.299 12.1873C104.282 12.3836 104.207 12.5096 103.98 12.4927C103.334 12.4445 102.415 12.1127 102.462 11.4897C102.472 11.3961 102.482 11.2955 102.494 11.1902C101.744 11.7353 100.47 12.3455 98.5676 12.2027C97.4687 12.1217 96.5496 11.3569 96.084 10.6139C95.5553 11.1775 94.7098 11.8761 93.7468 11.8422C92.5168 11.7988 91.7173 11.0314 91.7492 10.1285C91.7999 8.68479 92.8799 7.58875 92.9019 7.08016C92.9155 6.75203 91.9263 6.65146 91.9263 6.65146C91.2403 8.2212 90.5866 9.20078 90.2276 9.69724C90.225 9.70042 90.2203 9.70568 90.2177 9.70937C90.1351 9.83536 88.9229 11.6723 86.5485 11.5877C85.2914 11.549 84.3137 10.9828 83.9265 10.0624C83.4714 10.4704 82.6887 10.9774 81.5532 10.9828C81.3902 10.9833 81.1953 10.9843 81.0004 10.9526C80.4659 11.3659 79.8195 11.5988 79.0577 11.6025C78.2347 11.6067 77.232 11.006 76.7596 10.1206C76.2977 10.7271 75.4376 11.5993 74.3727 11.6649C73.1432 11.7216 72.2899 11.0214 72.2549 10.1185C72.1985 8.67474 73.1939 7.49505 73.1787 6.98594C73.1683 6.65781 72.1745 6.63719 72.1745 6.63719C71.606 8.25823 71.0281 9.2876 70.7072 9.81156C70.7046 9.81526 70.6994 9.82266 70.6968 9.8274C70.6048 9.9899 69.5378 11.8872 68.0079 11.9571C67.118 11.9978 66.3933 11.5538 66.2229 10.6414C66.2229 10.6414 65.9753 11.0018 65.5755 11.3696C65.1748 11.7348 64.6235 12.1074 64.0106 12.1704C63.1401 12.2466 62.3437 11.6078 62.2664 10.6091C62.1765 9.42995 62.5726 8.17146 63.2278 7.18703C63.5549 6.69542 63.9458 6.27042 64.3701 5.96187C64.7944 5.66974 65.2516 5.49135 65.7088 5.47073C67.0543 5.4088 67.5606 6.15823 67.5606 6.15823C68.0575 6.13547 68.7462 6.30109 68.7749 6.87531C68.7974 7.36807 67.942 9.28073 68.0047 10.3958C68.0194 10.6583 68.2085 10.8472 68.4849 10.8345C69.3607 10.7943 70.1607 9.34422 70.1607 9.34422C70.1607 9.34422 70.1763 9.31932 70.1983 9.28651C70.4862 8.82344 71.0662 7.86344 71.4685 6.35828C71.4685 6.35828 70.9068 5.98937 70.8723 5.16907C70.8436 4.49641 71.3886 3.92854 71.7894 3.91055C72.2575 3.88937 72.8428 4.38845 72.8537 4.7171C72.8679 5.14367 72.6615 5.41625 72.6703 5.67875C72.6782 5.90844 72.9807 6.01005 73.3773 5.99151C74.1224 5.95766 74.3476 5.73323 74.7453 5.71526C75.1434 5.6925 75.434 6.05234 75.4444 6.48104C75.4601 7.20453 74.2823 8.66469 74.3236 9.99203C74.3346 10.3694 74.5514 10.5567 74.8764 10.5419C75.598 10.5011 76.2831 9.5787 76.5072 9.23042C76.5051 9.19818 76.4936 9.16854 76.4931 9.13625C76.3964 5.29448 78.3988 0.0127137 81.0276 1.20619e-05C81.7743 -0.0036926 82.5507 0.846792 82.5486 1.43795C82.5377 2.81714 80.1936 5.34109 80.1341 5.42365C80.1999 5.37391 80.7459 5.0103 81.3275 5.00712C82.2095 5.00289 82.9708 5.91901 82.9667 6.75677C82.9625 7.87349 82.5612 9.18917 81.7805 10.1783C81.8291 10.1947 81.8782 10.1947 81.9436 10.1942C82.8015 10.1899 83.4818 9.52099 83.7499 9.21776L83.7447 9.16693C83.7525 7.91052 84.2813 6.86526 84.9956 6.13333C85.3525 5.7687 85.7548 5.47708 86.1587 5.28552C86.5621 5.10504 86.9671 5.01559 87.3281 5.0283C88.3424 5.06376 89.1335 5.94651 89.1089 6.81656C89.087 7.60464 88.4359 9.22463 86.3782 9.15156C86.199 9.13995 85.7585 9.04203 85.7585 9.04203C85.7454 10.0026 86.3881 10.5773 87.1677 10.6086C88.7107 10.6636 89.7176 9.18755 89.7176 9.18755C89.7176 9.18755 89.7344 9.16536 89.7573 9.13516C90.0787 8.69802 90.7292 7.78667 91.2429 6.31646C91.2429 6.31646 90.7104 5.90312 90.7366 5.08281C90.7575 4.40961 91.3427 3.88779 91.7435 3.90208C92.2111 3.91848 92.7577 4.4636 92.7441 4.79225C92.7268 5.2188 92.5006 5.47391 92.4907 5.73641C92.4818 5.96609 92.7754 6.09151 93.172 6.10583C93.9172 6.13229 94.1586 5.92693 94.5562 5.94068C94.9538 5.955 95.2182 6.32547 95.1968 6.75203C95.1587 7.48979 93.8769 8.84146 93.82 10.1704C93.8027 10.5477 94.006 10.752 94.331 10.7631C94.8728 10.7821 95.4346 10.2646 95.7883 9.865C95.7752 9.77979 95.7575 9.69297 95.7617 9.61359C95.7862 9.13833 96.1964 8.82396 96.6013 8.6287C97.0068 8.43021 97.4055 8.37891 97.4055 8.37891C97.4055 8.37891 97.7854 7.86661 98.6084 6.75625C99.4543 5.66708 100.014 5.31354 100.428 5.34427C100.777 5.37021 101.209 5.84755 101.198 6.01109C101.181 6.24078 100.756 6.62026 100.726 7.06266C100.637 8.35719 101.238 8.94573 101.166 9.94438C101.106 10.7801 100.703 11.1616 100.703 11.1616C101.736 10.9658 102.456 10.2905 102.716 10.0132C103.499 6.66312 106.061 1.01139 108.758 1.23684C109.514 1.32205 110.184 2.25721 110.123 2.84572C109.978 4.20639 107.639 6.41807 107.514 6.56625C107.585 6.51651 108.214 6.20797 108.923 6.29583C109.419 6.35193 109.922 6.98755 109.865 7.54271C109.76 8.55568 108.571 9.85865 108.449 11.1336C108.412 11.5098 108.582 11.7771 108.906 11.8136C109.616 11.8946 110.405 11.0531 110.68 10.734C110.99 8.03068 113.241 6.78536 114.949 6.97906C116.321 7.13464 117.261 8.16719 117.068 9.66547C116.957 10.5292 116.449 11.5125 115.716 12.2561C115.796 12.2815 115.874 12.3069 115.971 12.318C116.825 12.4148 117.585 11.8306 117.887 11.5612C118.466 10.164 119.071 8.83458 119.521 7.99995C119.629 7.81682 119.809 7.72792 120.022 7.76021C120.252 7.79516 120.633 7.95234 121.03 8.80969C121.03 8.80969 122.341 7.9449 123.312 8.09151C124.479 8.26776 125.114 9.47708 124.967 10.418C124.826 11.3268 124.212 12.4964 123.344 13.3283C123.39 13.3521 123.438 13.3595 123.487 13.3664C124.582 13.5321 125.565 12.5509 125.565 12.5509C125.565 12.5509 125.73 12.3434 125.925 12.3731C126.105 12.399 126.244 12.5694 126.216 12.7478ZM85.8504 8.36724C87.0449 8.39422 88.0158 6.9113 88.0335 6.21854C88.0382 6.00526 87.9249 5.8862 87.742 5.87984C86.8291 5.84969 85.8609 7.50089 85.8504 8.36724ZM66.7512 7.08333C66.7235 6.60755 66.4455 6.39057 66.1148 6.40589C65.1502 6.44667 64.1313 8.76682 64.2306 10.1571C64.2635 10.634 64.4108 10.8795 64.7515 10.8568C65.5275 10.8219 66.8197 8.34609 66.7512 7.08333ZM78.8272 5.84016C79.9365 4.76738 81.5522 2.42762 81.5543 1.42578C81.5537 1.22837 81.4357 1.09765 81.2334 1.09871C80.6242 1.10135 79.4255 3.42311 78.8272 5.84016ZM80.9032 6.93036C80.9006 6.29 80.8003 5.92906 80.2532 5.93172C79.6711 5.93432 78.2943 7.09073 78.3319 9.5374C78.3413 10.2106 78.625 10.7351 79.0482 10.7329C79.227 10.7319 79.4046 10.6488 79.5828 10.5001C79.5002 10.4186 79.4506 10.3202 79.4495 10.2217C79.4459 9.86021 79.9977 9.41406 80.2595 9.41302H80.3081C80.6634 8.65568 80.9058 7.70198 80.9032 6.93036ZM99.2197 10.1444C99.2741 9.30875 98.8336 8.22172 98.8748 7.5501C98.8748 7.5501 97.5471 9.31141 97.5372 9.52469C97.4818 10.4752 97.6391 11.4093 98.2227 11.4532C98.7249 11.4908 99.1716 10.8817 99.2197 10.1444ZM109.307 2.73617C109.326 2.53982 109.223 2.39587 109.021 2.37311C108.405 2.28579 107.033 4.39427 105.709 7.22094C106.318 6.79698 107.189 5.91531 107.925 5.01559C108.66 4.12701 109.258 3.23735 109.307 2.73617ZM115.384 8.91182C115.473 8.17833 115.246 7.85495 114.867 7.81208C114.125 7.72792 112.79 9.21245 112.545 11.4162C112.471 12.0687 112.71 12.5593 113.196 12.6139C113.374 12.634 113.543 12.5869 113.72 12.4752C113.556 12.3408 113.473 12.1995 113.49 12.0523C113.532 11.6935 114.136 11.3156 114.396 11.3453C114.461 11.3527 114.524 11.376 114.571 11.3982C114.994 10.6197 115.297 9.62896 115.384 8.91182ZM122.982 9.98354C123.069 9.39875 122.904 9.15792 122.544 9.10344C121.69 8.97427 119.942 10.8695 119.786 12.0248C119.699 12.6594 119.968 13.3315 120.499 13.4119C120.676 13.4389 120.865 13.3844 121.065 13.2484C121.026 13.1759 121.006 13.0896 121.017 13.0086C121.065 12.6668 121.646 12.3064 121.923 12.3318C122.47 11.5337 122.905 10.5032 122.982 9.98354Z" fill="white"/>
</g>
<defs>
<clipPath id="clip0_5_60">
<rect width="174" height="25" fill="white"/>
</clipPath>
</defs>
</svg>
