<svg width="218" height="98" viewBox="0 0 218 98" fill="none" xmlns="http://www.w3.org/2000/svg">
<path d="M21.6341 9.539L28.0601 25.415C28.1141 25.577 28.2761 25.685 28.4381 25.685C28.6001 25.685 28.7621 25.577 28.8161 25.415L35.2421 9.539C35.5661 8.729 35.5121 7.919 35.1341 7.055C34.9181 6.515 35.1881 5.705 35.8361 5.705H45.6101C46.2581 5.705 46.5281 6.515 45.8261 7.055C44.6921 8.081 43.7741 9.917 42.8561 12.023L29.1941 43.397C29.0321 43.721 28.7081 43.883 28.4381 43.883C28.1141 43.883 27.8441 43.721 27.6821 43.397L14.0201 12.023C13.1021 9.917 12.1841 8.081 11.0501 7.055C10.3481 6.515 10.6181 5.705 11.2661 5.705H21.0401C21.6881 5.705 21.9581 6.515 21.7421 7.055C21.3641 7.919 21.3101 8.729 21.6341 9.539ZM54.0396 36.647C54.0396 38.915 54.4176 40.805 55.5516 42.155C55.9836 42.695 55.6056 43.505 54.9576 43.505H45.0216C44.3736 43.505 43.9956 42.695 44.4276 42.155C45.5616 40.805 45.9396 38.915 45.9396 36.647V12.563C45.9396 10.295 45.5616 8.405 44.4276 7.055C43.9956 6.515 44.3736 5.705 45.0216 5.705H54.9576C55.6056 5.705 55.9836 6.515 55.5516 7.055C54.4176 8.405 54.0396 10.295 54.0396 12.563V36.647ZM91.1114 5.705C91.7594 5.705 92.1374 6.515 91.7054 7.055C90.5714 8.405 90.1934 10.295 90.1934 12.563V43.235C90.1934 43.721 89.8154 44.045 89.4374 44.045C89.2214 44.045 89.0054 43.991 88.8434 43.829L66.5414 22.769C66.4874 22.715 66.3794 22.661 66.2714 22.661C66.1094 22.661 65.8934 22.823 65.8934 23.039V36.647C65.8934 38.915 66.2714 40.805 67.4054 42.155C67.8374 42.695 67.4594 43.505 66.8114 43.505H56.8754C56.2274 43.505 55.8494 42.695 56.2814 42.155C57.4154 40.805 57.7934 38.915 57.7934 36.647V5.975C57.7934 5.489 58.1714 5.165 58.6034 5.165C58.8194 5.165 59.0354 5.219 59.1974 5.381L81.4994 26.225C81.5534 26.279 81.6614 26.333 81.7154 26.333C81.9314 26.333 82.0934 26.171 82.0934 25.955V12.563C82.0934 10.295 81.7154 8.405 80.5814 7.055C80.1494 6.515 80.5274 5.705 81.1754 5.705H91.1114ZM118.376 5.705C118.754 5.705 119.132 5.975 119.186 6.407L120.32 13.481C120.428 14.021 119.996 14.453 119.51 14.453C119.402 14.453 119.24 14.399 119.078 14.291C117.674 13.373 115.892 12.995 113.678 12.995H110.438C110.006 12.995 109.628 13.373 109.628 13.805V36.647C109.628 38.915 110.006 40.805 111.14 42.155C111.572 42.695 111.194 43.505 110.546 43.505H100.61C99.962 43.505 99.584 42.695 100.016 42.155C101.15 40.805 101.528 38.915 101.528 36.647V13.805C101.528 13.373 101.15 12.995 100.718 12.995H97.478C95.264 12.995 93.482 13.373 92.078 14.291C91.916 14.399 91.754 14.453 91.646 14.453C91.16 14.453 90.728 14.021 90.836 13.481L91.97 6.407C92.024 5.975 92.402 5.705 92.78 5.705H118.376ZM130.653 5.759C130.815 5.435 131.139 5.273 131.409 5.273C131.733 5.273 132.003 5.435 132.165 5.759L146.475 37.187C147.393 39.293 148.365 41.129 149.445 42.155C150.147 42.695 149.877 43.505 149.229 43.505H139.995C139.347 43.505 138.969 42.695 139.131 42.155C139.455 41.291 139.401 40.373 139.077 39.563L138.807 38.969C138.699 38.699 138.537 38.645 138.321 38.645H124.497C124.281 38.645 124.119 38.699 124.011 38.969L123.741 39.563C123.417 40.373 123.363 41.291 123.687 42.155C123.849 42.695 123.471 43.505 122.823 43.505H113.589C112.941 43.505 112.671 42.695 113.373 42.155C114.453 41.129 115.425 39.293 116.343 37.187L130.653 5.759ZM131.733 22.661C131.679 22.499 131.571 22.445 131.409 22.445C131.301 22.445 131.139 22.499 131.085 22.661L126.981 31.895C126.873 32.165 127.089 32.435 127.359 32.435H135.459C135.729 32.435 135.945 32.165 135.837 31.895L131.733 22.661ZM176.809 20.717C177.241 20.717 177.619 21.095 177.619 21.527V41.993C177.619 42.425 177.133 42.749 176.701 42.749C176.539 42.749 176.377 42.695 176.269 42.641C175.729 42.317 175.027 42.155 174.325 42.155C172.003 42.155 168.061 44.045 163.093 44.045C151.807 44.045 144.787 36.377 144.787 24.605C144.787 12.779 152.455 5.165 163.687 5.165C168.277 5.165 171.355 7.379 172.651 7.379C173.353 7.379 173.677 6.893 174.379 6.893C174.865 6.893 175.135 7.379 175.189 8.081L175.945 17.099C175.999 17.585 175.567 17.909 175.135 17.909C174.865 17.909 174.649 17.855 174.487 17.639C171.949 14.237 168.925 12.455 164.065 12.455C157.369 12.455 152.941 18.341 152.941 24.605C152.941 30.923 157.099 36.755 163.741 36.755C165.847 36.755 167.899 36.377 169.357 35.621C169.627 35.513 169.789 35.243 169.789 34.919V28.331C169.789 27.899 169.411 27.521 168.979 27.521H166.981C164.767 27.521 162.985 27.899 161.581 28.817C161.419 28.925 161.257 28.979 161.149 28.979C160.663 28.979 160.231 28.547 160.339 28.007L161.419 21.419C161.473 20.987 161.851 20.717 162.229 20.717H176.809ZM204.731 34.919C204.893 34.811 205.001 34.811 205.163 34.811C205.649 34.811 206.081 35.189 205.973 35.729L204.839 42.803C204.785 43.235 204.407 43.505 204.029 43.505H179.621C178.973 43.505 178.595 42.695 179.027 42.155C180.161 40.805 180.539 38.915 180.539 36.647V12.563C180.539 10.295 180.161 8.405 179.027 7.055C178.595 6.515 178.973 5.705 179.621 5.705H203.057C203.435 5.705 203.813 5.975 203.867 6.407L205.001 13.481C205.109 14.021 204.677 14.453 204.191 14.453C204.083 14.453 203.921 14.399 203.759 14.291C202.355 13.373 200.573 12.995 198.359 12.995H189.449C189.017 12.995 188.639 13.373 188.639 13.805V19.529C188.639 19.961 189.017 20.339 189.449 20.339H196.361C198.197 20.339 199.763 20.015 200.897 19.097C201.005 18.989 201.167 18.935 201.329 18.935C201.653 18.935 201.977 19.205 201.977 19.583V28.385C201.977 28.763 201.653 29.033 201.329 29.033C201.167 29.033 201.005 28.979 200.897 28.871C199.763 27.953 198.197 27.629 196.361 27.629H189.449C189.017 27.629 188.639 28.007 188.639 28.439V35.405C188.639 35.837 189.017 36.215 189.449 36.215H199.331C201.545 36.215 203.327 35.837 204.731 34.919ZM45.4227 62.451C45.8787 62.451 46.2777 62.85 46.2777 63.306V84.909C46.2777 85.365 45.7647 85.707 45.3087 85.707C45.1377 85.707 44.9667 85.65 44.8527 85.593C44.2827 85.251 43.5417 85.08 42.8007 85.08C40.3497 85.08 36.1887 87.075 30.9447 87.075C19.0317 87.075 11.6217 78.981 11.6217 66.555C11.6217 54.072 19.7157 46.035 31.5717 46.035C36.4167 46.035 39.6657 48.372 41.0337 48.372C41.7747 48.372 42.1167 47.859 42.8577 47.859C43.3707 47.859 43.6557 48.372 43.7127 49.113L44.5107 58.632C44.5677 59.145 44.1117 59.487 43.6557 59.487C43.3707 59.487 43.1427 59.43 42.9717 59.202C40.2927 55.611 37.1007 53.73 31.9707 53.73C24.9027 53.73 20.2287 59.943 20.2287 66.555C20.2287 73.224 24.6177 79.38 31.6287 79.38C33.8517 79.38 36.0177 78.981 37.5567 78.183C37.8417 78.069 38.0127 77.784 38.0127 77.442V70.488C38.0127 70.032 37.6137 69.633 37.1577 69.633H35.0487C32.7117 69.633 30.8307 70.032 29.3487 71.001C29.1777 71.115 29.0067 71.172 28.8927 71.172C28.3797 71.172 27.9237 70.716 28.0377 70.146L29.1777 63.192C29.2347 62.736 29.6337 62.451 30.0327 62.451H45.4227ZM83.5027 85.137C84.0727 85.365 84.1297 86.334 83.6167 86.619C81.5077 87.588 80.0827 87.873 78.4297 87.873C67.1437 87.873 66.5167 71.343 60.7597 71.343H58.7647C58.3087 71.343 57.9097 71.742 57.9097 72.198V79.266C57.9097 81.66 58.3087 83.655 59.5057 85.08C59.9617 85.65 59.5627 86.505 58.8787 86.505H48.3907C47.7067 86.505 47.3077 85.65 47.7637 85.08C48.9607 83.655 49.3597 81.66 49.3597 79.266V53.844C49.3597 51.45 48.9607 49.455 47.7637 48.03C47.3077 47.46 47.7067 46.605 48.3907 46.605H67.9987C74.8387 46.605 80.2537 51.45 80.2537 59.031C80.2537 63.99 76.9477 69.861 70.7347 70.431C70.4497 70.431 70.3927 70.944 70.6777 71.001C76.6627 72.996 77.3467 82.515 83.5027 85.137ZM66.4597 64.446C69.1957 64.446 71.6467 62.223 71.6467 59.259C71.6467 56.409 69.1957 54.015 66.4597 54.015H58.7647C58.3087 54.015 57.9097 54.414 57.9097 54.87V63.591C57.9097 64.047 58.3087 64.446 58.7647 64.446H66.4597ZM80.0195 66.555C80.0195 55.212 89.1965 46.035 100.54 46.035C111.883 46.035 121.06 55.212 121.06 66.555C121.06 77.898 111.883 87.075 100.54 87.075C89.1965 87.075 80.0195 77.898 80.0195 66.555ZM88.4555 66.555C88.4555 73.224 93.8705 78.639 100.54 78.639C107.266 78.639 112.681 73.224 112.681 66.555C112.681 59.829 107.266 54.414 100.54 54.414C93.8705 54.414 88.4555 59.829 88.4555 66.555ZM120.147 66.555C120.147 55.212 129.324 46.035 140.667 46.035C152.01 46.035 161.187 55.212 161.187 66.555C161.187 77.898 152.01 87.075 140.667 87.075C129.324 87.075 120.147 77.898 120.147 66.555ZM128.583 66.555C128.583 73.224 133.998 78.639 140.667 78.639C147.393 78.639 152.808 73.224 152.808 66.555C152.808 59.829 147.393 54.414 140.667 54.414C133.998 54.414 128.583 59.829 128.583 66.555ZM183.502 87.303C183.331 87.588 183.046 87.759 182.704 87.759C182.362 87.759 182.077 87.588 181.906 87.303L172.615 68.55C172.558 68.379 172.387 68.322 172.273 68.322C172.102 68.322 171.931 68.436 171.874 68.664L169.309 79.266C168.739 81.66 168.682 83.655 169.537 85.08C169.879 85.65 169.537 86.505 168.853 86.505H158.479C157.795 86.505 157.567 85.65 158.137 85.08C159.619 83.712 160.588 79.323 160.645 79.266L168.055 46.605C168.169 46.149 168.511 45.921 168.91 45.921C169.195 45.921 169.48 46.092 169.651 46.377L182.362 70.716C182.419 70.887 182.533 70.944 182.704 70.944C182.818 70.944 182.989 70.887 183.046 70.716L195.757 46.377C195.928 46.092 196.213 45.921 196.498 45.921C196.897 45.921 197.239 46.149 197.353 46.605L204.763 79.266C204.82 79.323 205.789 83.712 207.271 85.08C207.841 85.65 207.613 86.505 206.929 86.505H196.555C195.871 86.505 195.529 85.65 195.871 85.08C196.726 83.655 196.669 81.66 196.099 79.266L193.534 68.664C193.477 68.436 193.306 68.322 193.135 68.322C193.021 68.322 192.85 68.379 192.793 68.55L183.502 87.303Z" fill="white"/>
</svg>
