<svg width="300" height="138" viewBox="0 0 300 138" fill="none" xmlns="http://www.w3.org/2000/svg">
<path d="M16.7521 12.6635L26.54 36.8495C26.6223 37.0963 26.869 37.2608 27.1158 37.2608C27.3625 37.2608 27.6093 37.0963 27.6915 36.8495L37.4794 12.6635C37.9729 11.4295 37.8906 10.1955 37.3149 8.87929C36.9859 8.05663 37.3971 6.82265 38.3842 6.82265H53.2716C54.2586 6.82265 54.6698 8.05663 53.6006 8.87929C51.8733 10.4423 50.475 13.2393 49.0768 16.4477L28.2673 64.2438C28.0205 64.7374 27.527 64.9842 27.1158 64.9842C26.6223 64.9842 26.211 64.7374 25.9643 64.2438L5.15476 16.4477C3.7565 13.2393 2.35823 10.4423 0.630962 8.87929C-0.438301 8.05663 -0.0270468 6.82265 0.959965 6.82265H15.8474C16.8344 6.82265 17.2457 8.05663 16.9166 8.87929C16.3409 10.1955 16.2586 11.4295 16.7521 12.6635ZM66.1111 53.9607C66.1111 57.4158 66.6869 60.2951 68.4141 62.3517C69.0721 63.1744 68.4964 64.4084 67.5094 64.4084H52.3752C51.3882 64.4084 50.8124 63.1744 51.4704 62.3517C53.1977 60.2951 53.7735 57.4158 53.7735 53.9607V17.2703C53.7735 13.8152 53.1977 10.9359 51.4704 8.87929C50.8124 8.05663 51.3882 6.82265 52.3752 6.82265H67.5094C68.4964 6.82265 69.0721 8.05663 68.4141 8.87929C66.6869 10.9359 66.1111 13.8152 66.1111 17.2703V53.9607ZM122.578 6.82265C123.565 6.82265 124.14 8.05663 123.482 8.87929C121.755 10.9359 121.179 13.8152 121.179 17.2703V63.997C121.179 64.7374 120.604 65.231 120.028 65.231C119.699 65.231 119.37 65.1488 119.123 64.902L85.1534 32.8185C85.0712 32.7362 84.9067 32.654 84.7422 32.654C84.4954 32.654 84.1664 32.9008 84.1664 33.2298V53.9607C84.1664 57.4158 84.7422 60.2951 86.4694 62.3517C87.1274 63.1744 86.5517 64.4084 85.5647 64.4084H70.4305C69.4435 64.4084 68.8677 63.1744 69.5257 62.3517C71.253 60.2951 71.8288 57.4158 71.8288 53.9607V7.23398C71.8288 6.49359 72.4045 6 73.0625 6C73.3915 6 73.7205 6.08227 73.9673 6.32906L107.937 38.0835C108.019 38.1657 108.184 38.248 108.266 38.248C108.595 38.248 108.842 38.0012 108.842 37.6721V17.2703C108.842 13.8152 108.266 10.9359 106.539 8.87929C105.881 8.05663 106.456 6.82265 107.443 6.82265H122.578ZM164.106 6.82265C164.682 6.82265 165.258 7.23398 165.34 7.8921L167.067 18.6689C167.232 19.4915 166.574 20.1496 165.833 20.1496C165.669 20.1496 165.422 20.0674 165.175 19.9028C163.037 18.5043 160.323 17.9285 156.95 17.9285H152.015C151.357 17.9285 150.781 18.5043 150.781 19.1625V53.9607C150.781 57.4158 151.357 60.2951 153.084 62.3517C153.742 63.1744 153.167 64.4084 152.18 64.4084H137.046C136.059 64.4084 135.483 63.1744 136.141 62.3517C137.868 60.2951 138.444 57.4158 138.444 53.9607V19.1625C138.444 18.5043 137.868 17.9285 137.21 17.9285H132.275C128.903 17.9285 126.188 18.5043 124.05 19.9028C123.803 20.0674 123.556 20.1496 123.392 20.1496C122.652 20.1496 121.994 19.4915 122.158 18.6689L123.885 7.8921C123.968 7.23398 124.543 6.82265 125.119 6.82265H164.106ZM182.806 6.90492C183.053 6.41133 183.546 6.16453 183.958 6.16453C184.451 6.16453 184.862 6.41133 185.109 6.90492L206.906 54.7833C208.304 57.9917 209.784 60.7887 211.429 62.3517C212.499 63.1744 212.087 64.4084 211.1 64.4084H197.035C196.048 64.4084 195.473 63.1744 195.719 62.3517C196.213 61.0355 196.131 59.637 195.637 58.403L195.226 57.4981C195.061 57.0868 194.815 57.0045 194.486 57.0045H173.429C173.1 57.0045 172.854 57.0868 172.689 57.4981L172.278 58.403C171.784 59.637 171.702 61.0355 172.196 62.3517C172.442 63.1744 171.867 64.4084 170.88 64.4084H156.815C155.828 64.4084 155.416 63.1744 156.486 62.3517C158.131 60.7887 159.611 57.9917 161.01 54.7833L182.806 6.90492ZM184.451 32.654C184.369 32.4072 184.204 32.3249 183.958 32.3249C183.793 32.3249 183.546 32.4072 183.464 32.654L177.213 46.7213C177.048 47.1327 177.377 47.544 177.789 47.544H190.126C190.538 47.544 190.867 47.1327 190.702 46.7213L184.451 32.654ZM253.109 29.6924C253.767 29.6924 254.343 30.2683 254.343 30.9264V62.1049C254.343 62.7631 253.603 63.2567 252.945 63.2567C252.698 63.2567 252.451 63.1744 252.287 63.0921C251.464 62.5985 250.395 62.3517 249.326 62.3517C245.789 62.3517 239.785 65.231 232.218 65.231C215.027 65.231 204.334 53.5494 204.334 35.6155C204.334 17.5994 216.014 6 233.122 6C240.114 6 244.802 9.37288 246.776 9.37288C247.845 9.37288 248.339 8.63249 249.408 8.63249C250.148 8.63249 250.559 9.37288 250.642 10.4423L251.793 24.1806C251.875 24.921 251.217 25.4146 250.559 25.4146C250.148 25.4146 249.819 25.3323 249.572 25.0033C245.707 19.8206 241.101 17.1058 233.698 17.1058C223.499 17.1058 216.754 26.0727 216.754 35.6155C216.754 45.2406 223.088 54.1252 233.205 54.1252C236.412 54.1252 239.538 53.5493 241.759 52.3976C242.17 52.2331 242.417 51.8218 242.417 51.3282V41.2918C242.417 40.6337 241.841 40.0578 241.183 40.0578H238.14C234.767 40.0578 232.053 40.6337 229.914 42.0322C229.668 42.1967 229.421 42.279 229.256 42.279C228.516 42.279 227.858 41.6209 228.023 40.7982L229.668 30.7619C229.75 30.1037 230.326 29.6924 230.901 29.6924H253.109ZM295.639 51.3282C295.886 51.1637 296.05 51.1637 296.297 51.1637C297.037 51.1637 297.695 51.7395 297.531 52.5622L295.804 63.3389C295.721 63.997 295.146 64.4084 294.57 64.4084H257.392C256.405 64.4084 255.83 63.1744 256.488 62.3517C258.215 60.2951 258.791 57.4158 258.791 53.9607V17.2703C258.791 13.8152 258.215 10.9359 256.488 8.87929C255.83 8.05663 256.405 6.82265 257.392 6.82265H293.089C293.665 6.82265 294.241 7.23398 294.323 7.8921L296.05 18.6689C296.215 19.4915 295.557 20.1496 294.817 20.1496C294.652 20.1496 294.405 20.0674 294.159 19.9028C292.02 18.5043 289.306 17.9285 285.933 17.9285H272.362C271.704 17.9285 271.128 18.5043 271.128 19.1625V27.8826C271.128 28.5407 271.704 29.1166 272.362 29.1166H282.89C285.687 29.1166 288.072 28.623 289.799 27.2245C289.964 27.0599 290.211 26.9777 290.457 26.9777C290.951 26.9777 291.444 27.389 291.444 27.9648V41.3741C291.444 41.9499 290.951 42.3613 290.457 42.3613C290.211 42.3613 289.964 42.279 289.799 42.1145C288.072 40.716 285.687 40.2224 282.89 40.2224H272.362C271.704 40.2224 271.128 40.7982 271.128 41.4563V52.0686C271.128 52.7267 271.704 53.3026 272.362 53.3026H287.414C290.786 53.3026 293.501 52.7267 295.639 51.3282ZM52.9861 93.2713C53.6807 93.2713 54.2884 93.8792 54.2884 94.5738V127.485C54.2884 128.179 53.5071 128.7 52.8125 128.7C52.552 128.7 52.2916 128.613 52.1179 128.527C51.2497 128.006 50.1211 127.745 48.9924 127.745C45.2591 127.745 38.9212 130.784 30.9337 130.784C12.7883 130.784 1.5016 118.454 1.5016 99.5235C1.5016 80.5065 13.8301 68.2627 31.8888 68.2627C39.2685 68.2627 44.2173 71.8229 46.301 71.8229C47.4296 71.8229 47.9505 71.0414 49.0792 71.0414C49.8606 71.0414 50.2947 71.8229 50.3815 72.9518L51.597 87.4533C51.6838 88.2348 50.9893 88.7559 50.2947 88.7559C49.8606 88.7559 49.5133 88.669 49.2528 88.3217C45.1723 82.851 40.3103 79.9855 32.4965 79.9855C21.7308 79.9855 14.6115 89.4505 14.6115 99.5235C14.6115 109.683 21.2967 119.061 31.9756 119.061C35.3616 119.061 38.6608 118.454 41.0049 117.238C41.439 117.064 41.6995 116.63 41.6995 116.109V105.515C41.6995 104.82 41.0917 104.213 40.3972 104.213H37.1848C33.6252 104.213 30.7601 104.82 28.5028 106.297C28.2423 106.47 27.9818 106.557 27.8082 106.557C27.0268 106.557 26.3323 105.862 26.5059 104.994L28.2423 94.4002C28.3291 93.7055 28.9369 93.2713 29.5446 93.2713H52.9861ZM110.988 127.832C111.856 128.179 111.943 129.655 111.162 130.09C107.95 131.566 105.779 132 103.261 132C86.0708 132 85.1158 106.818 76.3469 106.818H73.3082C72.6136 106.818 72.0059 107.426 72.0059 108.12V118.888C72.0059 122.535 72.6136 125.574 74.4369 127.745C75.1314 128.613 74.5237 129.916 73.4819 129.916H57.5069C56.465 129.916 55.8573 128.613 56.5519 127.745C58.3751 125.574 58.9828 122.535 58.9828 118.888V80.1591C58.9828 76.512 58.3751 73.4728 56.5519 71.3019C55.8573 70.4335 56.465 69.131 57.5069 69.131H87.3731C97.7916 69.131 106.04 76.512 106.04 88.0612C106.04 95.6159 101.004 104.56 91.5405 105.428C91.1064 105.428 91.0196 106.21 91.4537 106.297C100.57 109.336 101.612 123.837 110.988 127.832ZM85.029 96.3106C89.1964 96.3106 92.9296 92.924 92.9296 88.4085C92.9296 84.0667 89.1964 80.4196 85.029 80.4196H73.3082C72.6136 80.4196 72.0059 81.0275 72.0059 81.7222V95.008C72.0059 95.7027 72.6136 96.3106 73.3082 96.3106H85.029ZM105.683 99.5235C105.683 82.2432 119.661 68.2627 136.939 68.2627C154.216 68.2627 168.194 82.2432 168.194 99.5235C168.194 116.804 154.216 130.784 136.939 130.784C119.661 130.784 105.683 116.804 105.683 99.5235ZM118.532 99.5235C118.532 109.683 126.78 117.933 136.939 117.933C147.184 117.933 155.432 109.683 155.432 99.5235C155.432 89.2769 147.184 81.0275 136.939 81.0275C126.78 81.0275 118.532 89.2769 118.532 99.5235ZM166.804 99.5235C166.804 82.2432 180.782 68.2627 198.059 68.2627C215.336 68.2627 229.314 82.2432 229.314 99.5235C229.314 116.804 215.336 130.784 198.059 130.784C180.782 130.784 166.804 116.804 166.804 99.5235ZM179.653 99.5235C179.653 109.683 187.901 117.933 198.059 117.933C208.304 117.933 216.552 109.683 216.552 99.5235C216.552 89.2769 208.304 81.0275 198.059 81.0275C187.901 81.0275 179.653 89.2769 179.653 99.5235ZM263.304 131.132C263.043 131.566 262.609 131.826 262.088 131.826C261.567 131.826 261.133 131.566 260.873 131.132L246.721 102.563C246.634 102.302 246.374 102.215 246.2 102.215C245.94 102.215 245.679 102.389 245.592 102.736L241.686 118.888C240.817 122.535 240.73 125.574 242.033 127.745C242.554 128.613 242.033 129.916 240.991 129.916H225.19C224.148 129.916 223.8 128.613 224.669 127.745C226.926 125.661 228.402 118.975 228.489 118.888L239.775 69.131C239.949 68.4363 240.47 68.089 241.078 68.089C241.512 68.089 241.946 68.3495 242.206 68.7837L261.567 105.862C261.654 106.123 261.828 106.21 262.088 106.21C262.262 106.21 262.522 106.123 262.609 105.862L281.97 68.7837C282.231 68.3495 282.665 68.089 283.099 68.089C283.707 68.089 284.228 68.4363 284.401 69.131L295.688 118.888C295.775 118.975 297.251 125.661 299.508 127.745C300.376 128.613 300.029 129.916 298.987 129.916H283.186C282.144 129.916 281.623 128.613 282.144 127.745C283.446 125.574 283.359 122.535 282.491 118.888L278.584 102.736C278.497 102.389 278.237 102.215 277.976 102.215C277.803 102.215 277.542 102.302 277.456 102.563L263.304 131.132Z" fill="white"/>
</svg>
